/* XPM */
static char *_db956035e0f43ffd94056f8155dbac0zACoF8llyYirqBwm[] = {
/* columns rows colors chars-per-pixel */
"99 40 21 1 ",
"  c black",
". c #484848",
"X c gray26",
"o c #767676",
"O c white",
"+ c #F9F9F9",
"@ c #F6F6F6",
"# c #F3F3F3",
"$ c gray94",
"% c #E7E7E7",
"& c #E1E1E1",
"* c #676767",
"= c gray43",
"- c #1B1B1B",
"; c #5B5B5B",
": c gray81",
"> c #D7D7D7",
", c #979797",
"< c #B6B6B6",
"1 c gray19",
"2 c #0B0B0B",
/* pixels */
"###################################################################################################",
"O$%%+OO$%%+OO$%%+OO$%%+OO$%%+OO$%%+OO$%%+OO$%%@OO$%%@OO$%%@OO$%%@OO$%%@OO$%%@OO$%%@OO$%%@OO$%%@OO$%",
"O%%%+OO$%%@++%&&#++%&&#++%&&$++%&&$++%&&$++%&&$++%&&$++%&&$++%&&$++%&&$++%&&$++%&&$++%&&@OO$%%#OO$%",
"@$$$#@+%<o;..XXX...XXX...XXX...XXX...XXX...XXX...XXX...XXX...XXX...XXX...XXX...XXX...XX.*,:##$#@@#$",
"%+OO$&<.2                                                                                 -=&O$%%@O",
"%+OO%o2                                                                                     1<$%%@O",
"$#@#o                                                                                        -<#$#@",
"O$%,2                                                                                        21&O$%",
"O$:1                                                                                           oO$%",
"@#,                                                                                           2->#$",
"%#;                                                                                             ,+O",
"%&1                                                                                             =+O",
"#>-                                                                                             *@@",
"O:-                                                                                             *$%",
"O:-                                                                                             *$%",
"@:-                                                                                             ;#$",
"%>-                                                                                             ;@O",
"%>-                                                                                             ;@O",
"#>-                                                                                             ;#@",
"O:-                                                                                             *$%",
"O:-                                                                                             *$%",
"@:-                                                                                             ;#$",
"%>-                                                                                             ;@O",
"%>-                                                                                             ;@O",
"#>-                                                                                             ;#@",
"O:-                                                                                             *$%",
"O:-                                                                                             *$%",
"@:-                                                                                             ;#$",
"%>-                                                                                             ;@O",
"%>-                                                                                             ;+O",
"#&1                                                                                             o@@",
"O%;                                                                                            2<#%",
"O$,                                                                                            1%#%",
"@#&X                                                                                           ,@#$",
"%+O<-                                                                                         .>%@O",
"%+OO,2                                                                                       1:%%@O",
"$#@@$,-                                                                                     .:#$$#@",
"O$%%+O>=-                                                                                2X,>%@OO$%",
"O%%%+OO$:,ooo=**=oo=**=oo=**=oo=**=oo=**=oo=**=oo=**=oo=**=oo=**=oo=**=oo=**=oo=**=oo=*=,<$#%%@OO$%",
"@$$$@@@$$#+++#$$@++#$$@++#$$@++#$$@++#$$@++#$$@++#$$@++#$$@++#$$@++#$$@++#$$@++#$$@++#$$+++#$$#@@#$"
};
