/* XPM */
static char *b667f3f8e7234182e97e264af908d4fd9Zk4NTUYvzxEjgrQ[] = {
/* columns rows colors chars-per-pixel */
"70 70 170 2 ",
"   c #4E4E4F",
".  c #4E4F51",
"X  c #4F5051",
"o  c #525354",
"O  c #545659",
"+  c #585758",
"@  c #56595D",
"#  c #5A5B5C",
"$  c #575C62",
"%  c #5A5E63",
"&  c #595F68",
"*  c #5C6065",
"=  c #5C636B",
"-  c #5E6671",
";  c #5F6874",
":  c #626364",
">  c #62666B",
",  c #686769",
"<  c #66696C",
"1  c #6B6C6C",
"2  c #706F6F",
"3  c #70706F",
"4  c #606771",
"5  c #636A74",
"6  c #6B6D71",
"7  c #646E7A",
"8  c #686F7B",
"9  c #706F70",
"0  c #6E7175",
"q  c #66717E",
"w  c #6A727C",
"e  c #737374",
"r  c #787777",
"t  c #72757A",
"y  c #787778",
"u  c #76797D",
"i  c #7B7B7C",
"p  c #80807F",
"a  c #667381",
"s  c #6B7682",
"d  c #6D7985",
"f  c #6E7B8A",
"g  c #727B85",
"h  c #7B7E82",
"j  c #727E8B",
"k  c #787F89",
"l  c #7E8186",
"z  c #74818E",
"x  c #7A828C",
"c  c #758292",
"v  c #7A8593",
"b  c #7C8996",
"n  c #7B8798",
"m  c #778898",
"M  c #7D8B9B",
"N  c #838385",
"B  c #878887",
"V  c #82868A",
"C  c #86898C",
"Z  c #8B8B8B",
"A  c #8F908F",
"S  c #808791",
"D  c #838A94",
"F  c #8B8E92",
"G  c #838E9B",
"H  c #8E9196",
"J  c #84919E",
"K  c #8B939C",
"L  c #939394",
"P  c #93969B",
"I  c #989798",
"U  c #96989B",
"Y  c #9B9B9B",
"T  c #8593A2",
"R  c #8A96A3",
"E  c #8D99A5",
"W  c #8B97A8",
"Q  c #8E9AA9",
"!  c #9097A2",
"~  c #949AA4",
"^  c #9B9EA3",
"/  c #939DAA",
"(  c #999EA8",
")  c #A09FA0",
"_  c #9DA1A6",
"`  c #95A1AD",
"'  c #9BA2AC",
"]  c #96A2B1",
"[  c #9BA5B2",
"{  c #9EA9B5",
"}  c #9EAAB9",
"|  c #A3A3A4",
" . c #A8A8A7",
".. c #A2A6AC",
"X. c #A6A9AE",
"o. c #ABABAC",
"O. c #B0B0AF",
"+. c #A0A7B2",
"@. c #A3ABB5",
"#. c #AAAEB5",
"$. c #A3ADBA",
"%. c #A9AFBA",
"&. c #ADB0B5",
"*. c #A6B0BD",
"=. c #ABB3BD",
"-. c #B4B4B5",
";. c #B3B6BA",
":. c #B6B9BC",
">. c #BCBCBC",
",. c #C0C0BF",
"<. c #ADB6C1",
"1. c #AEB8C4",
"2. c #B1B7C0",
"3. c #B3BBC5",
"4. c #BABEC4",
"5. c #B5BEC9",
"6. c #B8BFC9",
"7. c #BFC0C3",
"8. c #B7C0CB",
"9. c #BCC3CD",
"0. c #BEC6D1",
"q. c #BEC8D3",
"w. c #C3C3C4",
"e. c #C8C7C7",
"r. c #C3C6CC",
"t. c #C6C9CC",
"y. c #CBCBCC",
"u. c #C1C7D1",
"i. c #C4CBD4",
"p. c #C9CED6",
"a. c #C6CDD8",
"s. c #C9CFD8",
"d. c #CDD1D5",
"f. c #C5D0DB",
"g. c #CCD2DB",
"h. c #D3D3D4",
"j. c #D1D6DD",
"k. c #D5D8DD",
"l. c #DBDCDD",
"z. c #D3D7E1",
"x. c #D5DAE1",
"c. c #DADEE4",
"v. c #D9DFE9",
"b. c #DEE1E6",
"n. c #DEE2E9",
"m. c #E3E3E5",
"M. c #E8E7E7",
"N. c #E3E5EA",
"B. c #E4E6EA",
"V. c #E3E7EC",
"C. c #E7E9EC",
"Z. c #E8EBEE",
"A. c #EBECED",
"S. c #E9ECEE",
"D. c #E7ECF2",
"F. c #E9ECF1",
"G. c #EDEFF1",
"H. c #EDEFF2",
"J. c #EFF0F3",
"K. c #EFF2F5",
"L. c #F1F1F1",
"P. c #F2F3F4",
"I. c #F3F4F5",
"U. c #F3F4F7",
"Y. c #F7F7F8",
"T. c #F7F8FA",
"R. c gray98",
"E. c #FBFBFC",
"W. c #FCFCFD",
"Q. c #FEFEFE",
/* pixels */
"&.S.F.c.c.n.@.$ #  .L.Q.Q.R.Y.Y.R.Q.R.t.u # I S.T.K.K.P.I.Y.I.t.i : &.I.Q.E.m.L # i :.M.R.Q.E.Q.I.X.< X.I.E.V.x.v.V.K.Y.C.=.6 1 :.P.D.n.c.;.",
"! i.g.a.s.i.E * B l.R.Y.G.b.c.c.B.I.R.c.P 1 X.b.x.c.x.g.g.j.c.x...6 P k.C.V.i.l i e.S.G.C.N.C.G.K.:.0 | L.R.N.x.j.g.g.j.j.9.C > ( g.g.f.a.@.",
"j } 9.i.i.<.j 1 -.I.J.b.x.s.g.x.k.C.I.x.~ i &.s.a.g.s.i.s.j.x.x.6.N h 3.g.a.+.t Y S.Z.g.a.s.g.j.g.=.t L b.N.x.j.g.i.0.0.a.a.~ > x <.0.i.5.R ",
"7 M [ <.=.R 4 i h.J.k.a.a.i.s.g.k.C.B.r.H l 4.a.i.i.a.s.g.j.g.g.i.P 0 _ a.0.G 5 X.B.c.a.i.i.a.a.i.@.0 V s.g.i.i.a.i.<.$.8.a.' > 7 R $.$.W w ",
"% q j n n s @ l h.N.s.i.i.i.i.s.c.N.j.4.C C 9.g.g.a.a.g.g.a.i.u.8.U > V 5.$.w > ' g.g.a.i.i.i.a.i...< u 3.g.i.i.i.i.<.$.6.a.@.1 % d j s - @ ",
"o $ = ; 5 $ o h i.b.g.i.i.i.i.g.x.j.i.@.u H s.c.c.g.a.s.a.a.i.=.` D * > M v = = R 8.a.i.i.i.i.i.i.` > < +.g.g.i.i.i.i.i.i.i.+.< o $ = : % o ",
"r B i : O   o w =.x.k.i.i.i.r.i.i.r.3.D 6 ^ g.j.h.s.i.i.i.i.9.3.*.F # O - = O $ v $.9.i.i.0.3.4.3.D @ $ K a.x.a.i.i.a.a.i.i.' * o < F o.o.B ",
">.M.l.-.N # o 5 / 8.s.s.i.=.@.6.8.@.K 6 > _ a.a.i.i.i.a.i.3.@.8.3.x o o * # X O w T } 3.8.3.[ / K 4 . O g *.i.a.i.6.3.9.i.8.K $ 1 -.M.P.S.e.",
"w.I.Q.P.l. .1 * z ] 3.8.6.[ ! { ] J d @ * R 9.a.i.i.i.9.u.8.3.3.` 4 o p o.Y e # = j M R / / K j = O o o = b { 3.1./ J @.<.] s $ I S.K.n.x.9.",
"&.b.C.N.G.Z.-.e 4 c T Q ` ` Q T n g = o $ c $.9.i.i.3.@.<.8.3./ d @ : -.L.G.7.u @ 4 d d a 5 = @ O i L e # 5 c G T M v m M c = < >.F.s.8.0.=.",
"..i.g.s.g.N.m.o.1 - f c v v c f 7 % o   O - c / $.$.[ ~ E J j 5 @ X < ;.G.v.1.g o o $ * * @ o   1 :.M.7.e @ - a a s s a a 4 @ e e.x.*.@.8.%.",
"_ u.s.a.a.g.c.h.Z O % - ; 4 4 > < e i i e > = 7 a a a 8 5 = $ % % o % K 3.] d $ # < i L Y I i # < &.n.g.H O X @ % * % $ @ o o y 4.s.=.@.=.~ ",
"_ u.a.i.i.a.c.k.P O o : 0 i F | >.h.m.M.h.O.h % @ $ @ @ : y L  .o.B # > w > : i  .e.M.S.J.S.h.Z * S <.@.g # : i L Y I B e # o 6 @.a.i.8.%.! ",
"_ r.i.u.0.a.x.9.D $ : ^ h.m.S.J.J.K.I.T.Y.L.h.L # . # B -.h.M.L.J.r.y o o 1  .l.G.R.Q.Q.G.b.N.7.e = g 7 > B >.M.L.L.S.M.h.I # * ~ u.s.a.0.+.",
"_ i.a.u.0.g.s.{ j * g 3.N.F.F.b.j.g.c.N.c.c.C.h.N o h t.N.c.c.N.c.r.V o : X.M.G.N.B.I.Y.n.s.x.g.H O o : I l.P.I.Y.T.G.V.F.i.h @ j $.8.8.<.K ",
"U 3.9.i.i.9.*.T w $ w ] 3.8.i.i.i.a.x.x.a.u.g.b.o.: N u.g.i.i.a.i.=.x O y 9.n.x.s.s.c.S.b.g.j.j.X.: o Z l.C.j.g.k.b.c.s.s.6.l o = v T T z 4 ",
"h R $.i.i.*.G j > o = G @.3.i.a.i.i.a.a.i.i.j.n.4.0 t =.a.i.i.8.*.Q d $ t $.8.u.i.i.g.x.g.a.a.s.;.t : -.N.g.u.i.a.s.a.a.i.@.0 o O = ; - % o ",
"D +.3.i.i.$.v 4 O   O w / 0.x.g.i.i.i.i.i.i.g.j.=.w > R <.<.{ / J v 7 @ w G / <.i.a.a.a.i.i.i.a.6.N 6 -.j.i.i.i.i.i.i.s.0.~ =   o # < 1 > # ",
"..0.i.i.3.R 7 O o o o @ g ] 9.a.i.i.i.a.9.=.3.0.$.d % w c j d s a 5 $ o 5 m E =.u.i.i.i.i.i.u.i.6.V > _ s.g.g.a.i.i.a.a.1.v @ o e | w.e.>.L ",
"! $.<.=.K 4 @ : B I B : % d / =.6.9.u.i.3./ ` 3.{ g @ O % $ $ $ $ O . . = v ' 1.=.=.0.i.i.3.@.=.$.g $ K i.x.k.s.i.a.a.8./ 7 O N e.S.G.F.b.4.",
"g M J v > O e -.m.S.m.-.y $ q v R ` { $.$.] / / R d O o : i L I I Z e O O q G ` E ] 8.i.i.1.E R R 7 O x 3.g.g.a.i.i.6.` d $ 3 w.P.N.j.z.g.*.",
"- d q = o e >.S.F.n.V.B.:.1 O = s j j v n M M v z 4 : B >.m.S.S.S.M.y.L % @ 7 v G E ] $.$.@./ J j % o 7 / 6.9.8.3.@.J s $ # I M.G.x.i.s.i.#.",
"@ = @ o : o.C.C.b.z.g.x.g.L o X @ = 5 q a d d w = > Y c.P.G.N.b.c.V.K.l.L # O = 5 7 w w d w w 5 * o   $ d G R J v s - @ o 1 >.N.x.g.i.a.i.%.",
"o # o o l i.n.n.b.j.s.s.i.( $   o # > < 5 = % O o h d.C.j.a.i.i.i.g.c.c.6.l o o O O O O O O : 1 e e < # % ; 5 - % @ o   o i w.j.i.i.i.9.9.%.",
"y I i # V 0.g.g.s.a.a.a.8.K $ o 1 Y -.-.o.I i # o V r.g.i.i.i.a.s.s.g.s.i.^ : < L N + o : B O.y.l.l.e.I > o o O : e N < o t <.s.a.i.9.=.<.%.",
"#.m.;.> g <.a.i.i.a.a.s.6.G % # ^ m.I.I.I.L.h.B O t =.a.a.i.i.g.j.s.i.9.=.R 5 H l.:.: :  .b.G.P.R.Q.R.M. .: o e -.l.l._ * 7 ] 0.a.i.u.9.8.#.",
"=.b.4.0 7 / 5.0.0.i.0.8.$.v = 0 =.g.c.C.I.R.F.X.* 4 / 6.i.i.i.a.s.a.i.=.K c 4 h =.P : L l.c.g.k.N.C.I.R.l.N # P b.Z.g./ 5 4 M $.9.i.9.i.i.#.",
"' q.@.6 = j G E ` ] ` E M s * V 6.i.u.s.x.c.s.~ % % f R <.a.a.a.a.a.i.<.E c = * w < : ^ s.a.i.g.x.g.j.n.d.C # h { { T d # @ s M { =.+.=.0.@.",
"k ` S @ o % = = - 4 5 q q = : P 9.i.i.a.s.8.` w o O 5 c ` 3.8.8.6.6.3.{ R f $ X O o @ j $.9.i.a.a.i.9.8.@.t o # 5 7 = # + o # 5 z M G / { G ",
"@ = $ # 1 i i i e < % O O o < ~ =.6.i.9.*.G 4 @ o O % s n R Q Q T T T M j = o o # # O % g ` 3.9.i.i.3.' G =   o # 1 i Z I L i > = 5 q s q = ",
"  o < Y y.m.M.m.l.e. .i #   1 ! @.<.3./ s * : i L L 6 % 5 d j c c c c d = # e L  . .B 1 * 5 v ` *.3.*.R w O # i | e.l.M.S.S.b.o.1 o O $ @ o ",
"o 1 &.S.Q.Q.R.Y.I.I.G.h.I # * K *.' v 4 : B ;.l.S.M. .% o $ = ; 7 q 5 % > I h.S.L.J.M.e.L 1 = 7 j c j 7 @ < | k.S.Z.b.c.b.C.G.c.Y # : Z L e ",
": _ N.T.G.N.b.x.g.x.b.N.k.L % 7 z w % 1  .l.G.F.G.F.4.e o # < < $ O o : Y c.P.R.I.C.B.C.m.>.B * $ = % O 1 -.M.F.x.s.i.i.g.x.z.g...> F m.M.#.",
"t <.c.x.g.a.g.g.i.s.s.s.z.w.h @ % @ 6 -.B.n.g.g.x.g.4.h # B w.>.B # o N i.x.j.N.B.c.j.a.x.F.l.I : o X :  .Z.V.s.i.u.i.i.0.0.i.a.X.6 F x.c.X.",
"d Q *.3.0.i.i.i.i.i.i.i.a.a._ % X : o.N.x.i.i.s.g.s.=.u e e.I.P.p.i # H a.s.i.g.g.a.a.i.s.c.F.c.| % o i d.Z.g.u.i.i.i.9.@.+.8.a.@.6 w *.*.g ",
"5 v n T <.i.i.i.i.i.i.i.i.u.` < o B k.c.i.i.i.i.i.i.+.6 B l.F.c.s.P * x 8.s.i.i.i.i.i.i.a.a.g.c.p.N o h 9.z.i.9.8.9.i.9.@.' 8.a.=.0 * c j % ",
"@ w c M $.i.i.i.u.3.3.0.a.6.E 4 # Y x.s.i.a.i.3.3.6.R 5 V h.x.a.i...< w { i.a.i.i.i.i.i.i.i.i.i.<.S $ w ` 6.0.<./ =.i.i.i.i.i.a.#.0 o % $ . ",
"  @ w v Q <.8.i.6./ R <.i.3.R 4 # P a.a.i.a.u.=.{ ] v = h 9.s.9.0.@.6 = m *.i.a.9.3.8.i.i.i.i.<.R g % 4 b / [ ] ` <.i.i.a.a.i.3.K % o # : # ",
"# : * 4 f M / $.@./ E @.$.Q c = o l 1.i.i.a.i.8.] M d @ e =.9.$.$.! : O 5 M $.8.$.K ' 9.i.u.3.] M a @ $ d v v J =.i.i.i.9.3.[ v > # e | >. .",
"L -.I 0 = 7 f c v G T M j s = o   = G { <.<.$.( M d = o > ~ $./ v 5 o   O - j R ` / ` =.=.{ E M j = o o * 7 d G [ =.=.@./ v 7 * 6 Y h.G.S.t.",
"4.Z.Z.e.B * * 5 q q 7 - * $ # # # @ = q g j d 7 - $ X   o 4 w 5 $ O : < : $ % 7 v E R G M v f 7 = O # # # $ = 4 7 d g w 4 % : V w.S.P.n.g.;.",
"#.g.n.F.k.L # o O O * e N L Y | Y B < O o O O # : : < < : # o   o i -.e.>.P e % - d f d q ; = > e B I | ) L N 0 : @ O O o 1  .l.I.J.x.a.i.*.",
"..i.a.g.N.h.B o o 2  .h.M.S.L.L.L.M.>.i o o 1 I -.w.e.y.,.Y 2 o : -.L.R.I.Z.e.B $ $ = = $ 1 Z -.h.S.L.G.N.x.h.r.o.B # o 1 -.Z.G.B.c.a.i.i.=.",
"! 0.s.i.g.j...# < :.L.Q.R.J.C.C.J.Q.G.;.6 : O.M.P.I.I.P.I.Z.;.1 < =.S.J.C.N.C.h.Z O X # B w.M.L.E.Q.Q.P.x.s.g.c.n.i.Z # L m.C.j.s.g.s.a.i.=.",
"x 1.a.a.a.0.K > Y S.R.G.b.g.s.j.x.Z.G.i.V N h.C.c.N.b.x.b.N.g.P 1 K 9.g.j.g.g.c.:.< o B h.F.N.b.Z.I.Y.Z.g.i.i.g.x.s.U <  .b.j.d.a.a.u.8.9.*.",
"d ` 3.q.0.$.g e e.I.N.g.g.a.g.k.x.B.N.6.C F s.g.i.g.g.g.j.g.g.=.t w ` 6.a.s.a.s.=.0 : o.N.x.g.a.s.c.b.z.s.s.s.a.a.9.F e -.x.a.i.i.i.2.[ <.*.",
"4 v R ] ] b = h k.Z.g.i.i.i.a.g.b.B.z.=.h F u.g.s.a.i.i.a.i.a.2.h * z ` 1.0.i.5./ 5 6 ;.j.i.i.i.i.g.g.i.i.j.c.g.a.3.l e 4.g.i.i.i.i.3.=.3.*.",
"O = q f f 4 O h s.n.s.i.i.a.a.j.c.x.i.( t P s.x.x.g.i.i.i.i.3.` u O = z T ] } ] n = 0 #.q.8.9.i.i.i.i.i.i.j.b.j.a.$.0 i 6.g.a.i.i.i.i.a.i.*.",
"o # $ % % O o w 3.c.h.i.i.u.9.a.s.8.$.x < _ g.g.g.a.i.i.i.6.@.K 0 o o = a z m n f * 5 ( =.[ *.i.i.i.i.i.i.i.i.i.i.` = t 4.z.j.i.i.i.i.a.i.=.",
"i I L e % o . 5 / 9.a.i.i.=.[ 3.3./ v > > ' a.i.i.i.i.i.6.@.@.( 5 # 1 1 * = 7 a 7 @ = G { @.<.i.i.i.i.i.a.i.3.=.3.G @ < @.g.j.i.9.6.9.i.i.=.",
":.M.S.h.o.i # % c ] <.3.3.+./ ` Q M w O $ G 5.i.i.a.9.3.2.*.` x $ i r.>.y o O $ $ X O d R $.5.i.i.i.i.i.u.8.@.~ G 5 o $ G 3.i.u.=./ =.i.0.@.",
":.F.I.J.G.h.P : 4 c G R R E R M c w $ . O 8 R $.3.6.=./ ` / v = o u :.#.t : i B N < o $ w M / $.=.<.=.$.[ R v w = O . o 4 J *.3.@.E ] <.$.J ",
"..g.g.g.c.F.l.I : 4 d f f f d q = $ # # + $ 5 g v G b j d 5 % o   O > > h ;.b.S.M.w.N o O * 4 w j j g s 7 = = * , e i 1 % 4 z J W Q R M n q ",
"_ i.g.g.s.j.n.d.B O % = - = < 6 e B Y | L i : $ = = & $ $ : 6 y 1 o X e 4.C.B.G.Q.I.w.e o o # $ % % % % > e B  .w.l.m.r.L 1 = a f c c f a = ",
"..i.a.i.i.i.k.z.~ O o < N L | >.l.M.G.L.S.l. .1 o X o < Z -.h.m.7.e # Y c.j.i.j.Z.B.s.H # 1 Y I 1 o 1 L :.h.B.G.I.Q.K.n.j.X.6 $ - ; - = $ X ",
"..i.a.i.u.a.k.i.G $ < X.l.M.S.L.F.B.Z.L.J.K.M.-.< o e ;.b.N.F.I.d.l : ..z.a.i.j.c.g.i._ 1 P M.c.L e -.Z.G.B.n.c.b.F.N.j.x.g._ : o o O : : # ",
"_ i.i.u.9.g.g.$.j % g <.x.x.x.j.s.s.c.N.g.s.c.c.Y # V s.z.s.g.j.<.t : ' g.a.i.g.g.a.a.#.t F g.g.F B l.P.c.i.i.i.s.x.j.s.i.g.r.Z o # B -.:.Z ",
"_ 9.i.u.i.i.<.R w @ 5 / <.;.6.i.i.s.j.j.i.u.g.b.:.1 u 3.a.i.i.6.E > * ( a.s.a.a.i.i.a.=.t u 3.3.h N s.c.s.i.i.a.j.j.i.i.i.9.u...: i h.I.C.;.",
"D +.3.i.i.=.J j > o $ x { 8.s.s.i.i.i.i.i.i.j.b.3.w 4 ( 5.3.$.Q d @ # K 0.i.9.i.i.9.3.+.t 6 ] ` < w <.a.i.i.a.i.a.a.i.i.u.=.=.+.6 i r.v.a.` ",
"g ! =.i.i.@.v 5 O   o > G 6.j.g.i.i.i.i.u.8.u.g.=.d % g G b g 7 % . o x =.*.=.u.a.6.+.K > $ d d @ = E <.3.9.g.i.i.i.9.6.9.9.<./ w * D $.[ z ",
"~ 3.8.u.6.E 7 O o + o O 5 R 3.0.i.i.a.a.8.{ $.0.$.j $ * - = $ O o o X > G ` ] <.3.=./ g O . O O X % j E @.3.i.i.i.i.<.' <.8.$.T w O = a q & ",
"! { { =.E 7 O # i I L e $ 4 v ` =.3.6.8.3.` ` =.` g @ o # 1 N Z L B e % > j v v x d 4 * : < 1 < : O = f Q *.3.6.6.6.=.] [ ] T v 5 o o @ O o ",
"x T T v 5 O 1  .l.S.S.y.B # = s v M J R E R T J M w @ < Y y.M.S.S.M.y.L : @ * % $ > i L -.e.h.y.-.B : * a v M J T T T T G m c w % : i L L e ",
"5 z d = o 9 :.Z.G.N.B.G.r.y o @ - 7 a d f j c z s * e :.S.I.K.Z.B.C.P.l.I #   o e o.k.M.C.B.N.C.Z.c.X.1 @ = 5 q q a s d d s 5 $ 6  .l.S.m.:.",
"@ = $ X :  .B.Z.c.j.g.z.h.Y O   o @ * = - ; 5 - $ %  .Z.C.j.s.i.i.s.c.B.r.l o :  .M.C.j.s.a.i.i.g.c.b.-.1 o o O $ * * $ $ @ o : o.S.F.n.c.6.",
"o o o o N p.n.b.b.j.a.a.a._ % o < B A Z B y > o X 6 4.c.s.i.i.i.a.s.j.g.i._ > > @.j.g.u.u.r.9.u.i.s.x.h.^ # o < Z L Z i : o o N l.G.g.a.a.=.",
"i Z e # F a.g.g.s.a.i.a.0.K # < #.m.S.S.M.l.:.N # 6 %.a.i.i.i.g.g.a.i.6.=./ 6 * ( i.i.u.6.=.6.i.a.s.s.g.=.1 : ..m.L.S.m.-.1 o B g.c.a.a.i.=.",
"-.l.| % S 8.a.i.i.i.a.s.6.b $ u 9.b.C.Y.R.E.I.e.e > / 8.i.i.i.a.s.a.i.$.b c 7 $ G 8.s.u.=./ =.i.a.a.a.i.` < 6 *.z.C.I.T.k.F O g 3.g.a.a.a.=.",
"@.i.K $ g *.0.i.u.u.0.9.$.j $ t =.i.i.g.x.c.b.t.N % j / =.i.i.i.i.i.u.$.J v 7 $ g $.9.0.8.3.9.i.i.i.0.<.b = 0 { 1.1.0.a.9.K # 7 ] 0.i.a.i.@.",
"G Q w @ q T $.<.<.=.$.` G a $ 4 ` 6.8.8.8.6.3.+.t @ w v / 3.8.8.6.3.=.` T c > O 7 M ] *.1.6.9.9.8.6.$.J q $ < R ] ] [ } ] j @ = M } 5.0.8.R "
};
