/* XPM */
static char *_fc9f311b3fd4b7eb5d731b40ee4d46av9CiXhnrpQH78bl0[] = {
/* columns rows colors chars-per-pixel */
"70 70 253 2 ",
"   c #010101",
".  c #0B0302",
"X  c #020609",
"o  c #05090B",
"O  c #0B0C0D",
"+  c #130402",
"@  c #1B0402",
"#  c #180B07",
"$  c #0C120D",
"%  c #1B120E",
"&  c #080D13",
"*  c #0B1115",
"=  c #131314",
"-  c #161719",
";  c #1A1B1C",
":  c #240A03",
">  c #290B05",
",  c #370905",
"<  c #29120C",
"1  c #391406",
"2  c #3F0F11",
"3  c #271815",
"4  c #371812",
"5  c #0F2A16",
"6  c #0A3917",
"7  c #372514",
"8  c #021A28",
"9  c #10282F",
"0  c #262728",
"q  c #2E302F",
"w  c #363738",
"e  c #471705",
"r  c #54120C",
"t  c #471C16",
"y  c #64080A",
"u  c #74070B",
"i  c #482519",
"p  c #542610",
"a  c #582718",
"s  c #682B1A",
"d  c #67341C",
"f  c #703017",
"g  c #533828",
"h  c #682A21",
"j  c #772E21",
"k  c #683726",
"l  c #783827",
"z  c #094218",
"x  c #0C5128",
"c  c #0D7132",
"v  c #2E662B",
"b  c #576A1B",
"n  c #524633",
"m  c #66442A",
"M  c #7B452B",
"N  c #704D35",
"B  c #7A4A34",
"V  c #022B43",
"C  c #0A334B",
"Z  c #023A59",
"A  c #263E4E",
"S  c #12455F",
"D  c #394245",
"F  c #054467",
"G  c #084F75",
"H  c #434547",
"J  c #4C4D4D",
"K  c #534E4C",
"L  c #4A4D51",
"P  c #4E5153",
"I  c #4C545C",
"U  c #525354",
"Y  c #5B5856",
"T  c #53565A",
"R  c #55595D",
"E  c #5B5B5C",
"W  c #6C554D",
"Q  c #6A6458",
"!  c #4E5661",
"~  c #565C62",
"^  c #5A5E63",
"/  c #595F68",
"(  c #5D6166",
")  c #5C636B",
"_  c #5D6771",
"`  c #626364",
"'  c #686767",
"]  c #62666B",
"[  c #65686C",
"{  c #6B6B6D",
"}  c #78716C",
"|  c #606771",
" . c #636B74",
".. c #6B6D72",
"X. c #646E79",
"o. c #65717D",
"O. c #6D7279",
"+. c #737374",
"@. c #74777B",
"#. c #7B7C7D",
"$. c #94070E",
"%. c #A6060D",
"&. c #B3140C",
"*. c #B42C0B",
"=. c #853B2A",
"-. c #C51614",
";. c #D42A19",
":. c #D61B21",
">. c #E81423",
",. c #A76217",
"<. c #85462D",
"1. c #874932",
"2. c #934F30",
"3. c #8B5537",
"4. c #985939",
"5. c #A55B3C",
"6. c #AA663E",
"7. c #E74D17",
"8. c #D86409",
"9. c #885847",
"0. c #94644A",
"q. c #AC6842",
"w. c #B46C44",
"e. c #AD744E",
"r. c #B67549",
"t. c #8B746E",
"y. c #A47E6D",
"u. c #C37F4C",
"i. c #12903C",
"p. c #2D8F33",
"a. c #14A33E",
"s. c #6E951D",
"d. c #5D9924",
"f. c #159641",
"g. c #15AF44",
"h. c #9E9D11",
"j. c #94A715",
"k. c #CF8C08",
"l. c #F19409",
"z. c #CEAA07",
"x. c #F2B806",
"c. c #93CA1E",
"v. c #D4C909",
"b. c #F7CF03",
"n. c #F1E702",
"m. c #FAE500",
"M. c #BD845B",
"N. c #8F847F",
"B. c #A88475",
"V. c #CE8A56",
"C. c #C78766",
"Z. c #D89863",
"A. c #DBA67B",
"S. c #E3A674",
"D. c #025987",
"F. c #096797",
"G. c #0C76A9",
"H. c #337CA3",
"J. c #6B7784",
"K. c #747B85",
"L. c #7C7E83",
"P. c #737E8B",
"I. c #807F82",
"U. c #1687BA",
"Y. c #7A828B",
"T. c #678193",
"R. c #748392",
"E. c #7C8997",
"W. c #558AA9",
"Q. c #7C94A7",
"!. c #1F99CD",
"~. c #2AB0E6",
"^. c #838383",
"/. c #83868A",
"(. c #8B8B8C",
"). c #948D8B",
"_. c #848D97",
"`. c #8A929B",
"'. c #939394",
"]. c #95979A",
"[. c #9A9A9B",
"{. c #AA948D",
"}. c #828FA0",
"|. c #8593A2",
" X c #8B95A2",
".X c #8D9AA7",
"XX c #939AA4",
"oX c #9C9DA2",
"OX c #929DAA",
"+X c #A09EA1",
"@X c #99A1A9",
"#X c #9CA2AB",
"$X c #9AA6B3",
"%X c #A6A8AA",
"&X c #B6B0AE",
"*X c #A3AAB4",
"=X c #A9AEB6",
"-X c #A3ADBA",
";X c #AAB0B8",
":X c #ACB3BD",
">X c #B2B5BB",
",X c #B7B7B8",
"<X c #C3A89A",
"1X c #EDB886",
"2X c #C5B9B4",
"3X c #CFC3BC",
"4X c #ACB5C1",
"5X c #AEB8C4",
"6X c #B3BAC4",
"7X c #B8BDC5",
"8X c #B5BDC9",
"9X c #C0BEC4",
"0X c #BBC0C8",
"qX c #BCC3CD",
"wX c #BEC6D1",
"eX c #BFC8D3",
"rX c #C7C7C8",
"tX c #C2C5CC",
"yX c #D5CCC6",
"uX c #D7CFCF",
"iX c #C1C7D1",
"pX c #C4CBD4",
"aX c #C9CDD6",
"sX c #C6CED8",
"dX c #C9CFD9",
"fX c #CDD1D6",
"gX c #CCD2DB",
"hX c #D2D3D5",
"jX c #D8D8D7",
"kX c #D2D5DD",
"lX c #D5D9DE",
"zX c #DCDCDD",
"xX c #EDDCCE",
"cX c #F0E6DD",
"vX c #CED6E0",
"bX c #D4D6E1",
"nX c #D5DAE1",
"mX c #DADDE3",
"MX c #E1DDE1",
"NX c #DDE1E6",
"BX c #DDE3EA",
"VX c #E3E3E5",
"CX c #E3E5EB",
"ZX c #EBE7E8",
"AX c #E6E9ED",
"SX c #EAEBEC",
"DX c #F5EFEC",
"FX c #E6EAF2",
"GX c #EBEEF2",
"HX c #EEF0F4",
"JX c #F3F3F4",
"KX c #F5F6F9",
"LX c #FBFBFC",
/* pixels */
">XVXFXnXmXmX*X^ ` %XSXLXLXLXJXJXKXLXLXtXK.E [.SXKXHXGXGXHXJXJXrX#.] =XJXLXLXNX`.E t.,XZXLXLXLXLXJX%X{ %XJXLXCXnXmXCXGXJXAX:X..{ >XGXFXBXnX>X",
"XXtXgXaXgXpX X( ^.jXLXKXGXNXmXNXCXJXLXmX'...%XmXmXmXnXgXkXnXNXlX#X..].lXAXCXtX/.#.0XSXSXAXCXAXHXGX>X+.@XSXLXCXnXkXgXgXlXnX0X/.] XXgXvXgXpX-X",
"Y.$XqXpXpX:XP...&XJXHXNXnXaXgXlXlXAXJXlXXXL.=XdXaXaXaXpXaXgXlXnX7X^.L.:XgXsX#XO.+XSXGXkXaXaXgXnXgX;X@.'.mXCXnXkXgXpXqXqXaXpX].] Y.4XwXpX6X.X",
"X.E.$X4X:X|. .#.fXGXnXaXpXpXaXgXlXAXCXtX`./.>XaXpXpXaXdXgXkXgXgXiX].O.@XpXqX_...%XCXmXaXpXpXaXaXpX*XO./.pXgXpXpXaXpX5X-XqXaX#X[ X. X-X-X XJ.",
"/ X.P.E.E.o.~ ^.fXCXdXpXpXpXpXaXmXCXkX>X/.(.qXgXgXaXaXgXgXaXpXqX7X].[ /.5X-XO.] @XgXgXaXpXpXpXaXpX#X..@.7XgXpXpXpXpX5X-X8XpX*X../ J.P.J._ R ",
"U R ) _ _ ~ U L.tXNXkXpXpXpXpXgXlXkXpX%XL.'.pXmXmXgXaXaXaXaXpX6X$X_.`  .E.R.) )  X0XaXpXpXpXwXpXpX@X] [ *XgXgXpXpXpXpXqXpXpX*X{ P R ) ] ( T ",
"#.(.#.] T J U @.:XnXkXpXpXiXqXpXpXtX6X_...oXdXlXgXaXpXpXqX@X/.Y.K.) D D H H w D _ @XqXpXpXqX6X6X5X_.R ^ `.pXlXaXpXpXaXaXaXpX@X` U { '.=X%X(.",
",XzXzX&X^.E P  ..XqXaXaXpX:X*X7X8X-X`. .] @XaXaXpXpXpXgX>XP - 0 ; - O O = $ O O 0 J.$X5XqX6X*XOX`. .P T K.-XpXaXiX7X6XqXpX8X_.~ { ,XVXJXCXrX",
"rXJXLXJXzX%X{ ( Y.$X5XqX7X$XXX$X$X`.J.R (  XqXaXpXpX6X].O.D 6 6 6 6 6 6 6 z z z 6 D _ E.@XOX`.K.] T T U ) E.$X5X5XOX`.$X4X$XJ.^ [.SXJXCXnXtX",
">XzXAXCXGXCX,X+.[ R.|..X@XOX.X|.E.J.( P ~ P.$XqXaXaX].w - c g.a.a.a.a.f.f.g.g.g.c 5 ; I o. .) R E #.'.@.E _ R.|.|.E.R.E.E.R.) { ,XSXgXqXwX5X",
"%XpXgXaXgXCXVX%X.._ J.R.R.R.R.J.X./ U J U _ P.OXOXY.R 6 6 c g.g.g.g.g.g.g.g.g.g.i.x 6 q w J P J { ,XVX,X+.T ) X.J.J.o.o.o._ T @.rXlX;X*X7X;X",
"#XqXdXaXpXgXNXhX(.T ~ ) _ ) ~ / ] { +.#.+.[ | X.I ; 5 i.g.i.c p.s.c.c.c.c.s.p.c i.g.i.6 = E #.E ..>XFXkX'.T P R ( ) ( ^ T P U @.7XaX:X*X-XXX",
"#XqXaXpXpXaXmXkX].T U ` #.J o = - - 0 q 0 0 - ; q 6 x i.g.p.d.j.v.m.n.m.m.v.j.s.p.i.i.c x R I.` P O.XX XX.U ` #.'.[.[.(.+.E J ..-XaXpXqX;XXX",
"%XqXaXwXwXaXnXqX_.~ ` ].jX^.                    6 i.a.c c s.v.n.m.m.m.m.m.m.n.n.j.c c a.g.x 0 ; X X o $ = - 0 w w &XJXVXfX].E ( XXwXdXsXqX*X",
"%XtXaXwXwXgXaX$XP./ K.6XHX(.  - { ..] R P ;   $ 6 i.f.d.s.z.b.b.b.b.b.b.x.x.b.b.v.j.s.p.c x 5 -                   %XLXCXAXtXL.R K.-XqXqX:X`.",
"XX:XqXwXpXqX-X|.o.~ O.$XpXO.  w JXDXcXcXyXH $ c c c v j.n.b.l.7.7.7.7.7.7.7.7.8.b.m.v.v x c i.z   0 /.Y.@.#.( o   ].CXaXgX8XY.T ) Y.|.|.P. .",
"Y. X-XwXpX;X|.P.) U ) E.4XO.  w yXV.V.V.M + 6 i.p.d.s.z.b.l.7.>.>.>.>.>.>.>.>.7.l.x.x.h.s.p.i.x   K xXxXxXxX&XO   /.gXpXpX*XO.P U / _ ) ~ P ",
"_.$X6XpXpX*XR._ U J U X.$XO.  0 yXM.6.e.g 5 6 x v c.n.x.7.;.;.:.:.:.:.:.:.:.:.:.;.;.l.m.v.d.x x x n M 6.r.2.a .   O.gXaXwXXX) J U E { ..{ E ",
"%XqXpXiX6X`.X.T U T U T Y./   ; xXe.i m 5 c c x b z.x.8.-.$.y y y y y y y y r y $.&.8.x.x.h.b v c 6 + m 4.=.s .   O.gXpX5XY.R T +.%X,XrX>X].",
"XX-X4X:X`. .R ' ^.[.(.] ] L   o Y 7 # % $ c p.j.,.,.*.*.$.r + + # # + + # # + . e $.&.*.*.k.z.b x 5   g 4.<.k .   +.kX8XOXX.T ^.rXSXGXGXmX7X",
"K.E.|.E.) T +.&XzXAXzX&X#.D       < %   o 6 v z.l.*.%.u , > > 4 7 7 i i i 7 4 1 > > y %.&.8.k.b x 5   # < < % X   ] qXOXJ.~ +.3XJXAXlXnXgX:X",
"_ J.o.( U +.,XSXGXBXCXCX,XJ     q 2.k . $ v b k.8.*.u ,   @ e t 4 i k l i 4 t e >   > y $.&.*.,.h.7 . . @ 4 +     P  XJ.~ E [.VXHXlXpXaXpX;X",
"R / R P ' =XCXGXNXkXgXnXkX[   $ ,Xr.2.< < ,.k.*.&.u > .   @ e , @ > s k 1 @ > e >   . @ y %.&.8.z.p % i d <.t .   w  .T P { ,XCXnXgXpXaXiX;X",
"U E U U Y.tXCXNXmXkXsXsXgX..  $ yXC.2.< 7 k.l.*.%.y .     : e 1 3 4 k k i 3 4 e >       e $.&.;.,.e < d 1.4.h #   0 U J U #.0XkXaXpXiXqX8X;X",
"#.].#.E Y.qXgXgXdXaXaXaXwX .  O yXA.4.< < ,.8.&.%.y .     @ p Q _.N.W B t.`.t.k :       @ y %.&.%., < a <.5.h #   w ^.{ T @.:XdXaXpXqX5X5X;X",
";XzX,X[ J.4XsXpXpXaXaXaXwX .  O yXA.4.< : $.&.%.u >       @ a B.yX<X0.9.{.3X{.k :         , $.%.u 2 i k <.5.h #   ' lXoX` X.$XwXaXpXwXqX8X;X",
">XmX7XO.X..X8XqXwXwXwXqX4X)   O yXA.5.4 > y %.%.r         @ e M 9.B l k B 9.B p :         , $.u : W e.M <.5.h #   { vXXX . .E.-XqXpXqXpXeX;X",
"#XwX*X..) P._..XOX@X@X.X|.I   O rXA.6.k d > y %.r           @ 1 , + + + + > e , .       X , y , * ).Z.2.<.5.h #   J  XJ.R R o.E.$X:X*X5XqX-X",
"Y.OXE.R P ~ ) ) ) _  .X.o.H   O jXA.6.1.3.< > u r X           @ : q P J q < : +       X * = #   q ,X3.2.1.5.s #   0 ) R T T R  .P.E._.OX$X_.",
"~ ) / E { #.#.#.+.{ ( T T w   X B.Z.w.M q.s > @ % = o         + 1 t.hXhX).t @         o - * X   w rX3.2.1.5.h #   q Y.(.[.].N.{ )  .o.J.o.) ",
"J P { [.rXzXMXMXjXrX%X#.E w X   i V.r.M w.=.<   & ; o         + e W L.L.W p @         X = * .   q 3XV.3.M 4.a #   H hXVXVXSXzX=X..U T ^ R U ",
"P ..;XSXLXLXLXKXJXJXSXhX[.H X   3 A.r.M w.l <   O - o     o - 3 1 : X o # 1 < = .   o O - $ .   q uXZ.4.3.5.a #   H lXNXNXSXHXmX[.E ` (.'.+.",
"` #XCXKXGXCXNXnXkXnXNXCXkX..    B V.w.M w.=.<   O - - - X 0 @.E +         + K O.0 - ` E - % <   0 yXZ.6.3.5.h <   D 0XpXdXnXnXgX%X[ (.zXNX=X",
"K.;XmXmXgXaXgXdXpXaXaXaXmX'.X   3.V.q.M q.=.4     $ E ^.0 q >X%Xw O . . = w ].>Xw q rX%X; 7 a   0 yXZ.6.3.5.l <   D 8XiXqXqXpXpX%X..(.nXmX=X",
"J..X:X6XqXpXpXpXpXpXpXiXvX].o   3.Z.w.M q.=.t   . 0 %XzXH ; =XkX+Xn @ : K %XkX>Xw q hXzX+.g t   ; yXZ.6.3.M , +   q 7XqX*X*XqXaX*X..O.-X-XY.",
"X.R.E. X5XpXpXpXpXpXpXpXgX'.o   3.Z.r.1.q.=.4   w '.zXVX+.E tXGXhXt.e p t.fXHXrX+.{ rXLXzX' .   ; 3XZ.6.1.<., +   0 6XqX*X*XqXsX;XO.) P.P./ ",
"E O.Y.E.*XiXaXpXiX6X5XqXgX_.o   3.Z.r.<.w.<.4 O ..SXJXjX9XrXSXKXhXt.s l t.fXKXHXhXtXkXJXLX%Xg = O &XS.6.<.5.l <   0 6XaXqXtXpXaX-X..U ~ R P ",
"J R X.R..X4XqXiX8X@X X:XdX_.o   B Z.r.<.4.a 0 { rXLXKXmXmXCXLXLXMXt.r p t.zXLXLXCXbXkXSXLXJX,Xg   '.M.6.M 6.l <   ; 4XdXaXaXpX6X`.^ J E ' ` ",
"E ` ( | J.E.OX$X$X.X X$X4XO.X   B V.q.1.k # H rXLXJXzXtXaXmXJXLXDXt.e e t.VXLXJXmX;X'.7XKXLXjXJ   ^.9.4.M 6.=.<   ; 6XpXqX6X$XE.] ^ +.%X,X%X",
"[.&X[.+.) X.J.R.E._.|.E.R.! X   B S.M.1.m # H rXLXCX].E oXCXKXLXDXB.p h B.ZXLXKXCX/.0 ..mXFX,Xg   ).9.a l 6.=.4   ; #X-XXXE.X.( ..[.fXSXSXrX",
"7XVXAXrX(.` /  .o.o.X.) ) H X   M 1XM.<.M + q +XhX>XU $ L.AXKXLXDXy.r s B.ZXLXLXCX#.O w ).{.t.0   [.9.s l q.=.4   = X.J._ / ] (.2XSXHXCXgX6X",
":XgXCXSXhX].E U U T ` +.(.#.O   M 1XM.<.4.< % N 9.W 3 = L.CXLXLXDXy.e e t.ZXLXLXVXL.= # 4 a p #   [.9.M M q.=.4   o L T U +.%XzXJXHXnXaXqX:X",
"*XwXsXgXCXfX(.U P +.%XfXSXrX-   M 1XM.l 1.4 : e r 1 + = /.CXLXLXKX2XB.).2XJXLXLXNXL.= @ e p a t < Q W <.M q.=.4   o U U { ,XSXGXCXmXaXpXpX:X",
"XXqXsXpXgXkX#XE { ,XSXLXLXrX-   M 1XM.i 7 i k d f p : = L.CXLXLXLXZXjXzXVXLXLXLXNX#.O : s l M M a 3 n 6.M w.=.4   O { ` (.mXAXkXdXgXdXsXpX:X",
"E.4XsXsXsXwX`.[ [.SXLXSXCX=X-   M 1XM.4 # a 1.<.l a : = L.CXLXLXSX[.K Y [.SXLXLXAXI.O . 4 k 1.1.k % g q.<.q.=.4   O @.+.%XNXlXaXpXpXwXqXqX:X",
"J.OX6XwXwX-XK.@.rXJXCXfXgX*X-   B Z.r.4 # a 1.<.a <   - /.AXJXLXVX_ X * _ NXLXSXaX..O   . i <.M a % n q.1.q.=.2   o { @.=XkXaXpXpXpX4X*X:X;X",
" .R. X$X$XE.) ^.hXSXgXiXgX*X-   % 6.V.4 + i l l i .   - /.CXmXVXkXW.G D.W.vXGXqXJ.9 o + > p s a 4 O g q.1.6.=.t   X ^ #.>XgXpXpXpXpX7X:X6X;X",
"T ) o.J.P. .T L.aXNXdXpXgX*X=   < k 3.4   < p p r > . O P E.Q.Q.Q.H.F.F.H.Q.$XT.A &   : e e e 1 @ % m r.<.6.l :   X P #.7XgXaXpXpXpXpXaXiX:X",
"U E ^ ~ ~ U P @.6XnXkXpXdX#X=   k <.B a < : > 1 1 > +   8 C F G F F F F F G G S V &   . @ : @ @   7 e.r.<.q.l <     J @.6XnXgXpXpXpXpXaXeX:X",
"^.[.'.#.` P P  .OXqXpXpXpX].=   N Z.V.l k < . . . .     8 F D.D.Z 8 8 8 V F D.D.Z 8 X             m V.V.<.4.1.t     D ..*XgXkXpXqX7XqXpXpX:X",
",XVXSXhX%X#.E / R.$X:X6X7X_.$   k w.4.l 4.i .   o o   8 F G.U.G.Z & X X 8 G G.U.F.G 8   $ 0 0 ;   m V.V.=.j 1.t     w ( _.6XpXiX:X@X:XpXqX-X",
"7XAXKXHXSXhX[.]  .R.}. XOXP.$   a w.2.j q.l 4   Q } & C U.~.!.F.V & X X 8 F G.~.~.G.9   } xXxX&XX m V.r.l a =.t     w U [ `.-X5X$X.X#X4X-X`.",
"*XaXkXgXNXGXzX[.` _ J.J.P._ O   t u.5.s 4.=.t   N N   C !.~.!.D.V * X X 8 Z F.!.~.G.8   m m N q.  m r.l l , l a     U +.^  .Y.|..X.X|.Q.E.J.",
"#XqXgXaXaXkXCXaX^.T ~ ) _ I o   , q.6.s l l t   < 7 & V U.U.F.G C * X X 8 Z D.F.U.F.8   + } } 1   m r.s j < l a     #.rX'.{ ) o.P.R.R.P.o.) ",
"*XqXaXpXpXpXnXkX].T U { (.(.-   @ 4.6.a t l t   g N O Z G.G.G Z V 8 X X 8 V Z D.G.G.V   g C.C.4.  m r.a h < h a     /.FXfX%X..~ ) _ _ ) R P ",
"%XqXaXiXwXaXnXpX_.~ [ %XzXjX0   + 4.w.t < =.t   < < O C F.D.F 9 8 8 X o 8 8 C G F.G 9 . < 4 4 4   m r.< h < h a .   @.mXnXgXoX' P P T ` ' E ",
"%XqXaXqXqXgXgX-XP./ @.:XmXaX0   + 1.q.t < l 4     + 1 i D F F C 9 8 X o 8 V Z F S w p 1 +         g 4.< a < i t .   ( gXpXgXtX(.T E (.,X,X).",
"#XqXpXiXpXtX5X|.o.R  .OX6X*X;     # % . . . .   + i 9.0.m q C V 8 & X X 8 9 C C w B e.0.7 . . X   . .   X   X X X   ^ gXwXqXiX#X] #.fXJXVX>X",
"_.#X6XiXpX:X|.P.] U ^ P.*X=X-                 + 1 0.yX3X0.p 3 X X         X & 7 d y.cXuX9.1 3 -                     L gXqX>X:X#X..#.tXBXpX#X",
"L.XX:XpXpX*XY. .T J P ) `.5XL.[ [ [ [ [ ] P ; # d e.<X<X0.f p + + +   . + + : a <.e.<X<X0.p < ; 0 w L ~ ^ ..Y.L.L.@.].qXqXqX5XOXO.( _.-X$XY.",
"XX:XqXqX7X XX.T U Y T T  . X8XaXsXgXgXgXpX`.w # p d d d d d p , 1 > . + 1 1 1 a d d d d d p # - H ( Y.@X:XqXgXgXgXgX7X$X5XqX-X|.o.T / J.X./ ",
"XX$X-X-X XX.T ` #.[.].#.^ [ E.OX-X5X6X8X5XY.q . : : : : : > : > > < 3 % : : : : > : : : : # . 0 U T / J..X-X5X6X6X6X-X#X$X$X|.R. .U P R T U ",
"Y._.|.E. .T { %XjXSXAXrX(.E ) J.R._.|. X.XK.0                     0 t.T .                     D ].(.` / o.R._._.|.|.|.|._.E.R.o./ ` #.].(.#.",
"X.P.J.) U +.,XSXGXCXAXGXrX#.U T ) X.o.J.P.J.L q q 0 q H T T T U L O.hX&Xw ; ; ; 0 H J U U P J L.hXzX%X..R )  .X.o.o.J.J.J.J. .^ +.%XzXSXzX,X",
"R ) ~ P ` %XVXGXNXkXgXnXkX[.Y J U R ( ) _ _ ) / T E [.hXjXtX7X7X6XtXmXNX>XO.J E ].hXkXtXqX7X>X7XgXmXmX=X{ U P T ^ ( ( ~ ~ R U ' %XSXGXCXmX0X",
"U T P U ^.tXCXNXmXgXpXsXaX#X^ U { ^.'.'./.#.{ T P ..7XBXgXpXpXaXaXgXgXgXdX#X] [ =XmXkXpXpXpXiXpXpXaXnXkX[.E J { (.].'.^.' U U ^.jXGXkXaXpX:X",
"#.(.+.E (.pXgXgXgXaXpXsXwX`.^ [ %XzXSXSXVXjX,X^.E ..-XaXpXpXpXaXgXaXpX6X-XXX..` XXwXpXqX6X:X7XpXpXaXaXgX;X{ ` #XmXSXSXMX=X{ T /.fXmXaXpXeX:X",
">XhXoX( Y.qXdXpXpXpXaXdX8XE.~ @.0XBXGXKXLXLXJXrX+.] XX8XpXpXpXaXdXsXpX-X_.R.X./ _.8XaXiX:X#X:XpXaXaXaXpX#X ...;XmXAXKXLXlX(.E K.6XgXaXsXpX:X",
";XwX'.^ J.-XwXwXwXwXqXqX*XP.~ O.:XpXaXgXlXmXNXtXY./ P.OX:XqXpXpXpXpXqX-X_.R. .~ K.*XqXqX8X6XqXpXpXpXqX:XE.) O.#X5X5XqXsXqX_.^ X.$XwXpXsXwX*X",
"`..XJ.~ o.|.-X5X5X:X-X$X_.J.~  .@X8XqXqXqXqX8X*XO.R X.E.OX6XqX0X8X6X:X$X|.R.] T X._.$X:X6XqXqXqXqX8X-X|.J.~  .|.$X$X$X$X$XP.R ) E.*X8XeX8XXX"
};
