/* XPM */
static char *gate_close_mac1704970887[] = {
/* columns rows colors chars-per-pixel */
"52 54 240 2 ",
"   c None",
".  c #010101",
"X  c #0B0303",
"o  c #0D0907",
"O  c #0C0B0B",
"+  c #060809",
"@  c #130404",
"#  c #1A0706",
"$  c #140907",
"%  c #1A0A07",
"&  c #140D0A",
"*  c #1B0A08",
"=  c #170708",
"-  c #16110B",
";  c #1C120C",
":  c #131313",
">  c #1B1C1C",
",  c #1A1715",
"<  c #0C1011",
"1  c #240D0B",
"2  c #2C0E0C",
"3  c #250805",
"4  c #340E0B",
"5  c #24120D",
"6  c #2C120C",
"7  c #2A180E",
"8  c #34120D",
"9  c #3B120D",
"0  c #35190F",
"q  c #2D1511",
"w  c #2D1C13",
"e  c #241B16",
"r  c #3B1511",
"t  c #351B12",
"y  c #3C1B13",
"u  c #351511",
"i  c #2F2318",
"p  c #332316",
"a  c #3C2215",
"s  c #3D2B1A",
"d  c #3A261A",
"f  c #1E2123",
"g  c #222324",
"h  c #282828",
"j  c #332924",
"k  c #3B3A3A",
"l  c #373535",
"z  c #323230",
"x  c #411511",
"c  c #441B14",
"v  c #4A1B14",
"b  c #491B16",
"n  c #541E16",
"m  c #4D1509",
"M  c #4C2115",
"N  c #48291B",
"B  c #532216",
"V  c #5C2516",
"C  c #54231B",
"Z  c #5C241B",
"A  c #5D2A1B",
"S  c #532C1D",
"D  c #57341F",
"F  c #48301D",
"G  c #64251C",
"H  c #622B1D",
"J  c #692919",
"K  c #68331E",
"L  c #75341D",
"P  c #77381D",
"I  c #432E24",
"U  c #473426",
"Y  c #5B3322",
"T  c #5D3B25",
"R  c #523D2B",
"E  c #573827",
"W  c #413D3C",
"Q  c #583127",
"!  c #6B2D21",
"~  c #642E23",
"^  c #732F22",
"/  c #6B3B25",
"(  c #683725",
")  c #743325",
"_  c #7A3425",
"`  c #7A3A25",
"'  c #7D3B29",
"]  c #743B28",
"[  c #59412B",
"{  c #51433A",
"}  c #64442A",
"|  c #6A452A",
" . c #7B412A",
".. c #78442B",
"X. c #674735",
"o. c #764C35",
"O. c #7A5336",
"+. c #454A4C",
"@. c #4A4D4D",
"#. c #434646",
"$. c #514B46",
"%. c #4A4E50",
"&. c #464E51",
"*. c #4E5152",
"=. c #575757",
"-. c #695647",
";. c #785946",
":. c #69554A",
">. c #5E6161",
",. c #6E6D6B",
"<. c #696765",
"1. c #746C69",
"2. c #737473",
"3. c #7C7873",
"4. c #71706E",
"5. c #70655D",
"6. c #843D2B",
"7. c #843927",
"8. c #943E25",
"9. c #893818",
"0. c #84432B",
"q. c #8B432D",
"w. c #854A2C",
"e. c #8B4A2D",
"r. c #864526",
"t. c #934A2C",
"y. c #93512D",
"u. c #97582E",
"i. c #834C32",
"p. c #8C4C31",
"a. c #8C4733",
"s. c #944C32",
"d. c #9A4E33",
"f. c #924731",
"g. c #8D5235",
"h. c #8C5439",
"j. c #835A3A",
"k. c #8D593A",
"l. c #845336",
"z. c #9A5335",
"x. c #9E5C35",
"c. c #9C5439",
"v. c #94593A",
"b. c #9C5C3A",
"n. c #935736",
"m. c #A3563B",
"M. c #A25B3A",
"N. c #A65A38",
"B. c #99613D",
"V. c #8F6039",
"C. c #A5643D",
"Z. c #AB653C",
"A. c #B56F3F",
"S. c #BD723B",
"D. c #C4793E",
"F. c #865E46",
"G. c #975B40",
"H. c #A05F41",
"J. c #9E6746",
"K. c #826758",
"L. c #987159",
"P. c #AD6C44",
"I. c #A56845",
"U. c #B36A43",
"Y. c #BC6D44",
"T. c #B56D4A",
"R. c #AA734A",
"E. c #B37245",
"W. c #BC7245",
"Q. c #B3734A",
"!. c #BB7C4D",
"~. c #B87748",
"^. c #B87D56",
"/. c #A77559",
"(. c #997868",
"). c #87756F",
"_. c #BB7E66",
"`. c #C2754A",
"'. c #C37A4D",
"]. c #C87C4D",
"[. c #C87D52",
"{. c #BA825C",
"}. c #8B8178",
"|. c #978479",
" X c #AA8775",
".X c #B78F75",
"XX c #CA8149",
"oX c #C38555",
"OX c #CE8453",
"+X c #CB8A5A",
"@X c #C98658",
"#X c #D28956",
"$X c #D9925B",
"%X c #CD946A",
"&X c #D79968",
"*X c #C89879",
"=X c #CD8F71",
"-X c #D9A57C",
";X c #E5AC7E",
":X c #EAB27E",
">X c #E2A46E",
",X c #898785",
"<X c #968986",
"1X c #99928C",
"2X c #8D8F91",
"3X c #949494",
"4X c #A6978C",
"5X c #B79787",
"6X c #A29B97",
"7X c #A18E89",
"8X c #B1A69C",
"9X c #B9ADA8",
"0X c #AFAEAB",
"qX c #C19E82",
"wX c #C3AA96",
"eX c #CEA88D",
"rX c #E7B48B",
"tX c #E8B892",
"yX c #E3AB83",
"uX c #CEB9AE",
"iX c #EBBEA7",
"pX c #D4C5B7",
"aX c #C8C2B9",
"sX c #E8C6AB",
"dX c #F6C8A7",
"fX c #E8CEB8",
"gX c #FBD6BA",
"hX c #F2CEB3",
"jX c #D7CCC3",
"kX c #DCD3C9",
"lX c #DED9D2",
"zX c #F7D9C1",
"xX c #E4DCD3",
"cX c #E5D6C7",
"vX c #ECE5DB",
"bX c #E7E2DA",
"nX c #FFF2DC",
"mX c #FEE9D5",
"MX c #F9EDE4",
"NX c #FFFEF2",
/* pixels */
"                                                                                                        ",
"                                                                                                        ",
"                                                                                                        ",
"                                                                                                        ",
"          . . . . . . . . . .                                                                           ",
"          . . O : : : : + . .           .                                     . . . . . . . . .         ",
"          . : >.3X2X2X3X@.. .       . . . . . . . . . . . . . . . .         . . + + + + + . . .         ",
"          . g 0XNXnXMXMX|.@ . .   . . . O f > : + O : , O . < : : O . .     . . k ,.>.=.@.z + .         ",
"          . h <X&X'.XXu.6.~ X . . . . . *.0X1X=.> =.<X).l g 2.,X<.j . . . . < =.9XsXsXsXuX).: .         ",
"          . f 4X&XZ.oXC.6.H @ . < : < . }.mX=X} h 0XgX_.I &.xXiX(.j . . . . , 0XgXS.S.N.9.n X . .       ",
"          . g ).F.M C.B.J b X g 4.3.<.> 2.cXN.m > 0XtX9.3 %.pX@XJ @ < h h e : 2XsXI.v.0.9.~ X . .       ",
"          . O g 7 % w w 2 * . =.xXiX_.g <.hXU.v , 6XiXd.3 @.kX*X^ o >.jX9X1.: *. X[ N J G b X . .       ",
"          . . X 0 q X = @ . . #.4XM.m @ [ {.u.y - ;.[.e.3 l .X[.K @ 2.tXc.Z X . + @ X X # @ . . .       ",
"          . < U v.` C ! b = . : l j * X - s w o o e N t * , F Q a + #.).Q q . . 0 D y t I 1 . . .       ",
"          . h ).{.t.h.I.6.r & $.,.,.=., j 4.2.@., #.2.4.2.2.4.2.<.f z 2.2.=., g ;.c...] f.b . . .       ",
"          . h <X*Xs.p.M.q.4 , |.sXtXqXj -.dXgX Xj }.fXfXzXzXgXmXfX{ =.nXnXcX$.@.5XP.b.G.m.C @ . .       ",
"          . f 4XrXx.0.b.6.r $ Q -.{ | 7 c n.z.K ; U X.o.u.W.XXW.u.w s I.E.R.s +.5XW.n.g.c.n @ . .       ",
"          . h 1XrXx.0.M.6.9 $ U 5X5Xo.5 y h.g.D X $.5X-.V P.#XC.K * q ] ....6 +.wX+Xx.g.c.C @ . .       ",
"          . g 4XrXx. .M.q.r & X.I.I.F.w j I.I./ * ( R.G.g.n.n.v.o.6 t h.g.g.t +.wX+Xv.g.c.C @ . .       ",
"          . g 6XrXB. .M.6.x X X X X X + . @ @ X . X X X @ @ @ @ @ X + X @ @ . @.wXoXn.w.c.Z @ . .       ",
"          . f 6XtXx. .x.q.x X . @ # = + X @ = = + X * * X . $ * @ + . * * X . *.7Xv.w.w.z.A = . .       ",
"          . , ).yXC.` x.q.x X * Z ) C o u ' ^ c X N ' ! 6 o S ) C @ t ) ! r . *.<Xl.r.w.d.G = . .       ",
"          . X R %XR.P b.a.x X * h.`.' @ R oXH.n @ X.U.t.8 - ..z.! = s b.f.b . +.wX%Xp.0.z.Z = . .       ",
"          . . U -X^.P M.t.c . * h.[.' = [ +XN.n o O.OXm.8 > R.`._ * R $XY.~ . @.uX>Xy.` z.Z = . .       ",
"          . $ O.$XB.P x.e.9 . * h.'._ @ R #XZ.B o X.@Xm.4 , J.'._ @ R $XU.A . %.pX-Xy.` c.! 1 . .       ",
"          . & O.{.y.L e.0.r X * h.'.] @ R +XN.n X } '.c.8 - V.].6.@ U oXU.A . @.pX-Xy.` c.) q . .       ",
"          . - O.$Xx.` c.e.x . * h.'.` @ R @Xz.v $ D C.d.8 - j.W. .# s g.q.A . %.pXrXt.` h.C ; . .       ",
"          . ; F.$XC. .b.f.c X # h.[.) @ R @XS.H X R {.P.8 & j.`.` * p A J H . @.cXrXt.0.i.t @ . .       ",
"          . - j.$XC. .x.s.v . # h.[._ @ U +XOX| . [ -X{.8 o O.D.` # p | 7.H . &.kXrXy.w.M.) q . .       ",
"          . - j.$XC.] e.6.c X = h.[._ @ I oXOX/ . U %X[.8 + ..Y._ @ p {.`.C . &.jXyXy.g.M._ 2 . .       ",
"          . - j.$XC.) K H v . = h.[.7.@ F oXOX/ . F oXU.y . | W.` # w R.`.V . &.uX*Xe.n.M._ 2 . .       ",
"          . & j.>XQ.L ( ~ v X # v.#X` @ U oXOX/ . F E.y.8 . | W.` # 7 R.`.V . #.aX XJ p.M._ 2 . .       ",
"          . & O.:X{.P ` ) b X @ h.#X' @ j oXOX/ . N P.0.2 . } `.7.# & k.T.J X k 0X(.m q.M._ 4 . .       ",
"          . - j.:X{.P e.' x X = G.[.' @ N oX].H . s !.Z.9 . | ].7.% . T U.! @ h 6XK.V H.M.' 8 . .       ",
"          . & j.:X^.L z.q.x . # h.[.' @ d ^.W.C . s !.Z.9 . | OXr.# & V.`.! @ f 3X(.` C.M.6.8 . .       ",
"          . & j.:X{.L h.0.2 . = G.[.' = i !.W.A . N ~.N.9 . | OX0.# - g.Y.! * < ,XtXY.J.M.6.u . .       ",
"          . & j.yX{.P e.K @ . #  .T.' # p {.`.V . N Q.c.4 . | OX0.# - w.c.~ 1 . 3.tXA.b.M.q.u . .       ",
"          . o o.&X!.r. .y X . # n 7.) = p Q.Y.V . s P.z.9 . } [.6.3 & g.a.c 1 . 1.tXA.B.M.q.r . .       ",
"          . . w v.E.0.e.' 8 . * C 7.K % w y.d.G . 0 y.8.x . Y M.J 3 & i.d.~ 1 . 1.tXW.b.M.6.u . .       ",
"          . + 1 ( w.' c.d.v X * n J n $ w r.8.V . 0 q.7.9 . Y d.Z 1 ; o.f.n 1 . 5.rXU.M.M.' 1 . .       ",
"          . < T i.H  .z.f.x X * C J C * w r.t.J X a t._ 9 . T m.G 6 5 ..f.G 5 . X.$XW.b.x.) * . .       ",
"          . O o.+XQ.p.z.f.c X o 9 v c = * M V 9 . 6 / C 1 . N ] v 1 - D H 9 # . [ $X~.v.z.6.t . .       ",
"          . o ( U.M.r.z.f.x X > l k z < : l k k l k W k e + h W l h O h W k f . } $XXXe.6.6.y . .       ",
"          . X S M.m.6.z.q.9 o ,.lXbXaX{ @.xXvXbXvXxXxXbX3.O 3.lXxX<Xh 2XMXvX1XO D #X!.0.Z ) v X .       ",
"          . + M U.Q.6.s.q.9 X -.qX5X.XF U *X-X-X-X;X-XyXF.o ;.rXtX(.i K. X XL.O } Q.G.] 9 G B o .       ",
"          . . 8 c.T._ ^ ) x X N ;.:.| 7 w g.x.h.P.].].Z.D X N C.M.| 5 a U [ S & } P.a.~ 2 Z C @ .       ",
"          . . 3 g.T.H n ^ v . 5 /.*XO.; e ..p.w.b.~.E.v.S X y e.y.D % S /./.Y o [ P.^ n u Z C o .       ",
"          . . @ i.'.B 8 ) B . 5 B V A 5 & M B B M v M V M o 6 A H y o w M v y o | I.x 9 r C Z o .       ",
"          . . @ ..P.v 8 ~ c . X = & = + . X + . X X o X o . + X X X . . . . . . T l.8 6 6 v M o .       ",
"          . . X w d 1 $ * = . . . . . . . . . . . . . . . . . . . . . . . . . . X @ . X . X X . .       ",
"          . . . . . . . . . . . . . . . . . . .                             . . . . . . . . . . .       ",
"            . . . . . . . . .                                                 . . . . . . . . . .       ",
"                                                                                                        ",
"                                                                                                        "
};
