/* XPM */
static char *gate_open_linux1704972488[] = {
/* columns rows colors chars-per-pixel */
"70 70 256 2 ",
"   c #020101",
".  c #0B0002",
"X  c #070608",
"o  c #0B0B0C",
"O  c #130201",
"+  c #1B0401",
"@  c #190C08",
"#  c #0E0C10",
"$  c #131313",
"%  c #191011",
"&  c #181519",
"*  c #1B1A1B",
"=  c #250803",
"-  c #2C0C02",
";  c #330D01",
":  c #390D03",
">  c #2A140A",
",  c #371506",
"<  c #210F10",
"1  c #291915",
"2  c #371B15",
"3  c #21201F",
"4  c #392419",
"5  c #1A1C24",
"6  c #231422",
"7  c #1D2127",
"8  c #242427",
"9  c #2B2B2B",
"0  c #312E2F",
"q  c #323233",
"w  c #39383B",
"e  c #451A07",
"r  c #4B1A10",
"t  c #611E08",
"y  c #472717",
"u  c #542D13",
"i  c #562B18",
"p  c #6D3214",
"a  c #68361A",
"s  c #462A25",
"d  c #4D3627",
"f  c #52362E",
"g  c #593829",
"h  c #663B29",
"j  c #6F3A2D",
"k  c #63412F",
"l  c #7A4A2B",
"z  c #654430",
"x  c #674838",
"c  c #774B32",
"v  c #775135",
"b  c #7A5337",
"n  c #393943",
"m  c #463A4A",
"M  c #3D4247",
"N  c #394450",
"B  c #46474A",
"V  c #554A45",
"C  c #4A4C53",
"Z  c #564F53",
"A  c #4D5257",
"S  c #525355",
"D  c #53565A",
"F  c #585A5C",
"G  c #6F5247",
"H  c #6B5445",
"J  c #796454",
"K  c #555B63",
"L  c #5A5E63",
"P  c #585D68",
"I  c #524A70",
"U  c #6A4F72",
"Y  c #5C6064",
"T  c #5D636B",
"R  c #5D6773",
"E  c #626364",
"W  c #6A6567",
"Q  c #62666B",
"!  c #65696D",
"~  c #6A6B6D",
"^  c #7B6F69",
"/  c #636B74",
"(  c #6A6E73",
")  c #656D78",
"_  c #6B7177",
"`  c #6B727B",
"'  c #747577",
"]  c #72757A",
"[  c #7A7B7C",
"{  c #883625",
"}  c #89461D",
"|  c #844B27",
" . c #8A522D",
".. c #954F30",
"X. c #875835",
"o. c #975B36",
"O. c #955C3B",
"+. c #9A623A",
"@. c #A56837",
"#. c #B2713C",
"$. c #885947",
"%. c #95564B",
"&. c #B95C4A",
"*. c #976746",
"=. c #856A58",
"-. c #946B53",
";. c #B77546",
":. c #AE6F51",
">. c #8B776C",
",. c #B17864",
"<. c #CD7358",
"1. c #C57767",
"2. c #D67D68",
"3. c #E87D67",
"4. c #71B954",
"5. c #71977A",
"6. c #6BB66C",
"7. c #65C47D",
"8. c #AE8A4F",
"9. c #B7845B",
"0. c #8DB74D",
"q. c #AABA52",
"w. c #8F8774",
"e. c #BA8A66",
"r. c #AB8B70",
"t. c #B7947A",
"y. c #A9A061",
"u. c #C3824E",
"i. c #C88856",
"p. c #D38A58",
"a. c #D5935C",
"s. c #E2895E",
"d. c #C9936A",
"f. c #CD936D",
"g. c #D79A67",
"h. c #C89874",
"j. c #E58666",
"k. c #F0956E",
"l. c #DBA16C",
"z. c #CEA679",
"x. c #D7A478",
"c. c #ECAB72",
"v. c #F9B676",
"b. c #AAC558",
"n. c #B4CB64",
"m. c #C2C45D",
"M. c #D5CD6A",
"N. c #EECD75",
"B. c #FAD27B",
"V. c #72548B",
"C. c #516898",
"Z. c #72698F",
"A. c #6B7784",
"S. c #757B83",
"D. c #787E85",
"F. c #6D72A7",
"G. c #86568F",
"H. c #8D6796",
"J. c #9E71A6",
"K. c #7A8188",
"L. c #7B838C",
"P. c #6F8997",
"I. c #7A8694",
"U. c #67B298",
"Y. c #718CAB",
"T. c #5CA6A3",
"R. c #61C594",
"E. c #5AC5B0",
"W. c #65C6AA",
"Q. c #6F93C5",
"!. c #59AFD6",
"~. c #6AAED4",
"^. c #5BC4DF",
"/. c #66C3CD",
"(. c #838588",
"). c #8B8C8C",
"_. c #978F8F",
"`. c #868C94",
"'. c #88919A",
"]. c #8B939C",
"[. c #929394",
"{. c #94979B",
"}. c #9B9C9D",
"|. c #AF9585",
" X c #A29D98",
".X c #B6A292",
"XX c #8A95A3",
"oX c #939AA4",
"OX c #969EA7",
"+X c #B993BA",
"@X c #9AA1A9",
"#X c #9BA3AD",
"$X c #9DA7B3",
"%X c #A3A5A9",
"&X c #ABABAC",
"*X c #B3AAA9",
"=X c #B8B2AA",
"-X c #A3ABB4",
";X c #A6ADB6",
":X c #A9B0B8",
">X c #ACB3BC",
",X c #B2B6BB",
"<X c #B6B7B8",
"1X c #C8A688",
"2X c #DAAC85",
"3X c #DCB28B",
"4X c #CFB299",
"5X c #E8B689",
"6X c #C8B7A9",
"7X c #D5BBA6",
"8X c #FEC882",
"9X c #F3C596",
"0X c #D7C2AC",
"qX c #D9C4B3",
"wX c #ECCDB0",
"eX c #88A2CC",
"rX c #BDA0C7",
"tX c #ADB7C2",
"yX c #B4BBC5",
"uX c #B7BDC7",
"iX c #D0ACCF",
"pX c #DFBEE3",
"aX c #BBC0C7",
"sX c #BCC3CC",
"dX c #BEC6D1",
"fX c #BEC8D3",
"gX c #C6C7C8",
"hX c #C2C6CC",
"jX c #C6C9CC",
"kX c #D7D1CD",
"lX c #C1C7D1",
"zX c #C4CBD4",
"xX c #C9CED5",
"cX c #C8CFD8",
"vX c #CDD1D5",
"bX c #CDD2DA",
"nX c #D2D6DC",
"mX c #D7D8D9",
"MX c #E8D9CA",
"NX c #F7E3D0",
"BX c #D2D7E0",
"VX c #D5DAE1",
"CX c #DBDEE2",
"ZX c #ECD5ED",
"AX c #DEE1E4",
"SX c #DEE3EA",
"DX c #E3E3E4",
"FX c #E3E5E9",
"GX c #EBE6E8",
"HX c #E6E9EC",
"JX c #EBEBEC",
"KX c #ECEEF1",
"LX c #F3EDF5",
"PX c #F3F3F4",
"IX c #FAF6FB",
"UX c #FEFDFE",
/* pixels */
",XSXHXCXCXVX-XQ W &XJXUXIXIXPXPXIXUXPXzXK.F }.JXPXLXKXPXPXPXKXhXK.( &XKXIXIXVX[.E (.aXDXPXUXUXUXPX&X_ &XPXIXHXVXAXSXKXKXSX>X` ' <XHXHXSXBXtX",
"oXhXbXcXbXuXXX/ (.nXIXIXJXSXAXSXHXPXIXmX{.( %XCXCXCXVXbXBXVXSXbX%X[ {.nXHXFXsXL.(.aXGXJXHXHXHXKXKX>X[ @XJXIXSXAXBXbXbXBXVXsX(.( oXxXbXbXfX:X",
"I.$XsXfXuXtXD.' =XJXKXDXVXbXbXmXVXHXLXnXOXS.&XxXbXbXcXcXbXbXBXnX<X).K.,XbXfX%X] }.DXHXnXvXbXnXnXnX:X[ {.mXSXBXBXbXzXfXfXcXlXXX( I.:XfXfXsXoX",
"A.I.#XtXtX]._ 5.xXJXVXxXxXxXbXbXVXHXSXhX{.(.,XcXzXzXzXcXBXbXbXbXsX{.] @XfXsX'.( -XAXAXcXhXzXcXzXzX$X] ).xXbXxXxXfXfXyX:XuXzX%X( ) XX-X$XY.S.",
"K ) K.I.I.A.T L.xXDXbXzXzXxXzXcXCXDXBX,X`.`.uXbXbXcXzXbXbXcXzXsXaX{.( L.>X$XA.R @XbXbXcXzXzXzXxXzX@X_ S.<XbXzXzXcXlXyX:XuXfX-XA.Y ] K.A.R K ",
"D Y T R R Y F K.hXCXnXzXzXzXzXbXVXnXlX-XK.{.lXVXVXbXxXxXzXxXxXtX@X`.Q ! I.I.R T ].sXfXcXzXzXfXfXhXOX! ~ -XcXbXzXzXlXlXdXzXzX-X) D F T R T F ",
"S.).(./ Y A D ] >XnXnXcXzXdXsXzXzXsX>X`.] OXcXBXBXcXzXxXzXsXtX#X'.5.A N K D C F L.$XsXfXzXsXyXyXyXI.L T ].lXbXxXlXzXlXcXzXdXoXQ D ( [.&X%X[.",
"<XCXmX=X(.Y D ( oXuXzXcXlX,X;XyXuX;X]._ ~ @XfXcXzXdXsX>X].F 0 7 $ # o o o o o * n R XX:XuXyX$XOX]./ A F S.;XfXxXdXuXyXdXlXuX].P ( ,XAXGXDXhX",
"gXKXIXJXmX%X' T D.$XtXuXuX$XXX$X$X'.A.L T ].uXzXlXXXA 7 #                           5 M ` XX'.D.Q L F F Q I.$XtXtXOXXX$XtX#XA.R }.DXPXSXmXsX",
"<XCXHXSXGXDX:X[ ) D.XXoXOXOXXXXXI.A.T A L K.@XI.n $           # o % < @ % % X           X 7 C A L [ _.[ P ) D.'.XXI.I.I.I.I.R ` <XAXvXsXfX>X",
"-XhXbXbXnXSXCX&X) / A.I.D.I.P.A.) T D S D K q # X   X X O 2 j %.&.:.,.:.,.&.%.{ r + .         5 S &XmX<X[ L Q ` A.A.A.A.) R P [ iXmXtX;XaX:X",
"%XsXxXxXxXbXVXxX`.L P R R / ) A._ [ K.[ B $       O 2 x :.,.p.j.j.j.k.k.k.j.3.2.1.:.c r + .     $ ~ xXjX`.F S Y R / T P P D A [ <XxXtX;X:X@X",
"#XsXxXzXlXcXVXbX{.L S E A.D.[.%X<XvXmX] #       < $.1.2.j.k.v.v.9X8X8X8XB.8XB.v.k.j.s.2.%.2 O X   X C oXD.L ~ (.[.}.}.).' F S ' ;XzXzXuX:XoX",
"%XdXzXdXdXcXBXsX`.L ! {.jXmXDXGXGXHXw.$     X f ,.3.k.5XB.B.B.c.M.m.m.b.m.m.M.M.B.B.v.c.3.<.| =     X q ! ).<XmXGXJXDXCXjX{.E E oXuXxXzXuX-X",
"%XdXzXdXfXcXzX$XS.T S.tXCXHXHXCXvXK.#     O $.2.j.v.v.8XM.q.0.4.4.4.4.4.4.4.4.4.0.m.N.8Xv.s.2.&.e O     m gXJXPXPXPXJXHXFXaX5.E S.-XuXuX>XXX",
"oX>XsXhXfXdX:X'.A.P A.#XuXhXxXzX`.5     1 %.2.k.8XB.M.q.4.4.6.R.W.E.E.E.E.E.E.R.6.6.0.n.N.B.c.s.<.r .   o 5.vXmXVXSXCXbXbX<XH.F / D.XXXXD./ ",
"L.oX:XfXfX>XXXD.T D T I.;XaXlX-X8     @ %.3.k.8XN.q.0.6.R.W./.~.~.~.Q.~.~.~.eX^.~.W.7.6.0.M.N.v.<.<.e .   # `.jXcXcXxXzXfX-X` D S T / R T D ",
"`.-XyXfXdX$XI.R D Z F ` XXsXzXA     # $.2.5XB.N.0.4.7.E.^.!.Q.F.V.G.G.G.G.H.F.F.Q.^.^.E.7.4.n.N.v.j.&.: .   q >XzXxXzXcXsXoXQ A Z E ~ _ ! L ",
"#XaXfXfXtX].) K S F F L S.#XK.$     f 1.k.B.M.0.6.R.^.!.F.V.H.J.rXiXiXiXpX+XJ.J.G.H.eX~.^.R.4.n.N.c.3.O.= . X Q sXlXxXzXtXL.P F [ %X<XgX<X{.",
"oX;X>X:X]./ Y ! ).[.).~ T / 7     4 1.k.v.N.0.6.W.!.F.V.H.iXZXLXLXIXIXIXIXIXIXZXiXJ.V.Z.~.^.W.6.n.N.k.2.a O   # }.xXzXsXoX) K (.gXDXJXFXmXuX",
"K.I.'.I.R Y [ &XnXAXmX:X[ M X   @ $.j.v.N.q.6.W.!.C.V.+XZXIXUXUXIXUXUXUXUXUXUXUXUXKXiXZ.V.Q.~.W.4.n.N.a.<.: .   L uXyXOXS.T ` <XJXHXmXBXcX>X",
"R A.) T F ] <XHXJXSXFXAX,X9     2 2.k.B.q.4.R.!.C.V.pXIXUXUXUXUXUXUXUXUXUXUXUXUXUXUXIXZXH.U XX~.R.4.M.c.s.p .   8 oX].A.P P }.DXKXmXzXcXxX>X",
"K T F S ~ &XAXHXSXBXnXnX,X&   . G 3.v.c.0.R.!.C.H.pXUXUXUXUXUXUXUXUXUXUXUXUXUXUXUXUXUXUXGXJ.V.Y./.6.b.N.s.&.; . X S R K Z ( <XAXVXbXxXzXsX>X",
"D K F S K.jXAXSXAXBXcXxXL.o   > ,.k.B.q.6.W.C.U pXUXUXUXUXUXUXUXIXPXJXJXJXPXUXUXUXUXUXUXIXGXH.V.eXE.6.z.c.<.t .   9 Z D Z 5.<XnXxXzXdXaXsX>X",
"5.{.H.F L.aXdX,X,X:X:X-XB     s 1.k.v.0.U.T.V.rXIXUXUXUXUXPXmX}.( V w M w F _.qXKXUXUXUXUXUXmXZ.F.~.7.q.v.s.{ O   & Y F C ~ }.,XfXxXsXyX>X>X",
"&XnX&X~ K.XXw * 5 * * 5 X     k 1.c.i.0.T.C.V.LXIXUXUXIXCX[ 3 o             X # S gXPXUXUXUXIX+XU F.T.w.m.<...=     $ $ o # $ 7 ] sXdXsXsX>X",
",XmX<X_ R q X                 z ;.a.8.U.P.V.iXIXUXUXUX&X9 X                       & w.IXUXUXUXAXV.H.~.5.e.;.| +                 o [.sXfXsX>X",
"$XaX$X( K *     & 0 q 0 q q 9 4 *.p.8.T.C.V.ZXUXUXPX[.*                             o ( JXUXUXIXJ.G.Y.I.y.#.t 1 0 q 0 0 q 8     X [ #X>XsX$X",
"L.oXL.Y C $   o ).mXkXMXmXmX<X4 b i.w.P.C.m W ~ ).{.*                                 X 5.%XW W V U F.P.w.#.e |.mXMXMXmXkXqX8   X Y `.oX#X'.",
"Y R T E ! *   $ =XwXMXwXMXwXt.4 i ;.w.Y.C.6 w B q * q q o   X X               X   . * w 3 3 B B & B F.Y.w.} : *XMXNX0XNX0XMXq     C ) A.A.R ",
"C S ( }.<X9   $ =X3X9X9X8X3X8., s *.w.A.N 6 *XGX*XZ AXDXS q &X(.o           w =X5.1 <XKX|.E GXmXB B Z.F.5.p > =X0X9XN.wXc.wX0     w D K K A ",
"S ( &XHXDXq   $ =Xh.+.i.l.l.e.> % 1 * 5 & # 6 y J H 0XwXw.^ mXMX[.&       C kXgX=XM kXqXr.H J > @ $ * * * % @ &X7Xc.g.@.;.9X0     w ! ).[.] ",
"W @XCXPXmX0   $ =Xz.h e.l.l.9.d =XgXgXhXjXgX[.% H H 7X5Xr.^ qXc.wXw     X %X0Xx.1XB 0X2Xy.H d V jXjXgXgXgXkXZ %X7Xg.g. .-.wXq   X B ).mXmX:X",
"[ >XbXVXsX9   $ =X2X1Xx.a.g.9.d (.( ].tX(._ [ & H G 7X5Xr.^ 0Xc.z.d     X %X0Xl.2XV 7X2Xr.Z d V ).5.-X$XA.`.C %X7Xg.l.x.x.9X0     C ).vXmX&X",
"S.XXtXyX>X9   X V X. .| | | j s P & ` -XM 8 T & x x 6Xc.w.>.qXx.a.u     $  X3X5X1XV 7Xz.e.x d w n 9 `.XX7 P N B G  .| | | X.>     C ] &X;XL.",
") I.I.XX$Xq     + r : e y r 2 < m n B C m n w % H , , e.r.^ qXh.8.,     X ^ t.x.=XV 4Xa r k d 1 C m m C n B 7 f s r r , y - .   . D L S.D.T ",
"K ) I.I.tXoX7     s 2 G %.$.g + o # o # # X o & H u ,.x.r.G 2X;.} -       d +.l.i.x 7Xe.X.x f O # # # o # o # %X>.$.$.i y =   # E ~ D L Y A ",
"A F ) I.XX-Xn     >.t.f.l.f.X.= 1 y @ s s + s h =.a 2XN.r.x x.p , +       2 , r.u.k qX9X;.x -.i = 6 y > 1 2 < &X7Xf.g.O.| -   8 D.P D L ! Q ",
"E ~ / / S.I.n   .  X3Xl.l.a.+.- y | s -.-., ,.d.*.u :.c.r.c *., = @     X > = k @.k 0Xc.#.x h.i.t G ,.k y g ; *XqXl.g.;.o.; . & P W 5.}.=X%X",
"}.&X{.` R R 7      X5Xl.g.a.O., h ,.g e.8., t.l.9.u d t.-.u i = =.0     o ^ d = u d 2Xc.@.H z.c.u =.d.l v *.: *XqXg.g.#.@.;   $ W oXkXJXJXjX",
"<XDXCXaX).T 3      X*.@.l.a.+.- j ,.g d.,.e e.c.wXqXmX3X*., + J g.y     X =.t.4 @ d h.c.@.=.wX2Xu =.g. .c +.e ).G i.g.@.+.:   3 &XDXJXFXvX<X",
",XvXSXFXkX[.8     }.>.,.z.a.+.- k :.g d.i.e 1XNXwX3XN.:.u @ H 8.+.,     X x 8.9.4 > $.l.@.G NXwXu =.x.b c O.e >.>.|.g.#.@.:   0 mXKXmXvXzX>X",
"-XhXbXnXAXgXw      X7Xh.a.a.O.- s :.d d.e.e qXwX2Xc.;.p = g -.e 4 4 o   $ 4 2 g *.@ e *.i.d.3XNXv =.l. .l | ; *XqX1Xg...+.; . 0 xXmXcXzXzXtX",
"oXsXxXzXbXxXw      X3X9.i.a.O.- d :.g d.9.u 0X3Xc.i.p ; = x b S mXDXE & ,XFX}.@ +.> + , :.x.g.5XJ >.x. .c l ; *X6Xi.g. .O.;   9 <XvXvXzXfX>X",
"P.tXfXfXzXyXw      X3X<.i.a.o.- h :.f d.x.a 4Xd.i.p ; 0 f c  .0 <XjXS * oXnX( O *.4 f @ y *.i.x.l r.x.X.c X., *X4Xg.a. .O.;   9 ,XhXdXsXsX>X",
"K.OXaXsXsX$X0      X3Xu.i.a.+.; h :.g 4XwXd y.;.j ; 4 -.J l b 9 L.Y.N 6 Z.XXA o *.f r.d + g o.,.l t.NX$.c X.: *X4Xg.g. .o.;   9 ,XxX,X:XtX>X",
"R P.XX$X@XL.7 X    X3Xu.i.a.O.; h :.H wX1Xu *.j - - $.x.*.c b 3 Z I q $ m P m @ *.V 4X8.i @ i O.p -.wXr.v X.: *X.Xg.g. .O.; . 8 ,XhXaXtXtX>X",
"D R ) A.K.R 7   .  X3Xu.i.a.*.> k :.x 1Xd.p p : = 4 h.l.-.l *.@ 1 6 #   < 6 % 2 *.g 4Xz.| = = g u -.z.X.v X.e *X.Xg.g. .o.;   9 >XzXfXfXfX>X",
"S F Y T P A *     }.3Xu.p.a.%.; k :.k g.e.a - > G , a p y l 2Xd < .       3 s r.;.2 h a u d f @ e -.g.X.c  ., *X1Xg.a. .o.: . 9 ,XhXzXzXfX,X",
"(.{.[.5.W Z 5      X3Xu.p.a.+.; h :.k 9.l ; * -.>.y G G s k 9.l j 1     o >.-.d.;.y H G d x t.u @ g :... .X., *X1Xg.g...o.:   8 ;XaXsXzXfX>X",
"<XDXZXvX&X5.8      X3Xu.p.p.+.- h ..u l : O =.x.-.H 0Xx.$.v c.9.9.y .   o  Xt.g.u.k 7Xz.+.x z.8.- @ h a a | : *X.Xg.g...O.;   8 @X#X>XfXsX:X",
"aXHXKXJXDXgXw      X3Xu.p.g.+.- y i > > + + -.8.*.H 7Xl.X. .x.u.u.y     o  Xt.i.;.g 4Xz.@.x e.8.e @ + > 2 i , *X.Xg.g...O.; . 8 ].XX$X>X;X].",
"&XxXmXnXAXAXC     r.5Xu.i.a.+.- 1 2 1 1 1 1 > ; c H qXo., e d.u.u.y .   o  Xt.;.#.k 4Xx.@.g u , , 3 1 3 1 2 1 &X.Xg.g.o.O.;   * (.oXXXI.I.Z.",
"%XhXcXcXcXxXC     J d.u.p.g.+.s &XgXiXaXsXgX).% H x qX*.y y h.u.u.u     o %Xt.#.#.k 7Xz.@.k d V jXgXhXuXgXzXD %X.Xg.g.}  .; . * ) P.F.K.A.R ",
"-XdXxXzXhXhXB   . b 9.;.<.u.+.s S.P XXtXK./ / & H x 0Xl.X.c x.8.u.y     o }.z.#.#.g 7Xx.+.k d d 5.` $XtX) L.A [.t.u.<.a l ;   $ K R R R K A ",
"-XsXzXlXlXsXB   X i  .#.#.;.o.4 D 5 R oXN 8 n % x H 6Xx.X.c :.u 9.y     o %XJ a #.g 7Xx.@.k s 1 q 9 D.I.9 K N ^ ,.;.;.p | -   $ B D K T R K ",
"-XhXzXlXzXdXB   . 2 i *.<.#.o., q q n n n 0 9 % V x 7Xl.b l f.t.a.y     X  X6Xr.#.g 7Xx.@.k d @ q q n n q q 7 =.9.#.;.t | - . & Z L ).=X>X).",
"OXsXlXlXzXuXM     G -.:.#.#.%.- X X X X O X X < H x J X.b c d.e.i.y     X  X.X9.;.g |.u l x g O X X . X X X # =.:.;.#.p c ;   * Z 5.kXJXDX<X",
"`.-XyXlXdX;Xq   . b i @.#.<.+.; s s $ s s O s f k x  Xt.G u @.@.@.,     X W -.o.} d 4X>.X.d v y < 6 f < 1 f < =.9.<.#.p l - . * E K.aXnXjX-X",
"K.oXtXzXlX#Xq     d e j } | a = s i @ g f = i j y , b X.u , j p p =       2 a p t 1 J X.a 1 k a : 4 h : 2 g ; g l | } e i =   * Q Q ).-X#XD.",
"oX>XaXsXyX].9     = + ; e : - O = - . - - + - , > O - ; @ = , ; ; O     . @ : : ; O > - = O , : = @ - + + - + @ ; : : - - O . * T F T ` A.R ",
"}.$X-X;X]./ 7     . . . O O . .   .   . .   . . . . . . . . . O . .       . . . . . . . . . . . . . . .   . . . . . O   . .   & Y A A P K K ",
"L.XX'.I./ K w o   X X X             X         X X     X X X X . X X X X               o X X X o X       X   X     X X         8 L Q (.[.`.[ ",
") A.A.R F ' %X}.[.[.[._.5.Z w w M M M B C A C C B M C [ [.{.[.[.).[.{.).W M q w Z ' ).).[.).).).[.).' S M w M M M B B B C B M A ] %XkXmXmX,X",
"K T Y A ! %XAXHXCXBXbXnXvX{.F C S F T R ! R / R F Q @XDXDXmXvXjXzXxXCXDXiX5.F L %XAXDXmXxXxXhXxXvXmXmX:X( A S F Y T T Y Y F S ~ &XDXJXDXmXhX",
"A K D S w.dXAXSXVXBXxXcXxXOXE S ~ ).[.[.).K.) F D ( ,XmXvXjXzXxXcXcXnXxXhXoX! W %XnXvXjXfXiXdXdXzXbXnXvX}.E S ( ).{.[.L./ A S (.kXJXmXcXzXtX",
"K.).' F `.hXvXbXcXzXzXcXiX].Y ( &XmXHXHXDXmX<X(.E ( &XzXxXzXzXcXbXcXfXuX:XOX` E oXhXzXhXuXtXuXlXxXxXxXxX:X~ ! %XmXJXJXmX=X~ F ).cXVXcXzXzX>X",
"&XjX}.Y ).sXxXxXlXzXcXcXaXI.Y [ <XCXHXPXPXPXGXaX[ ! oXyXdXfXzXcXcXcXlX:X'.D.) P `.uXzXlXtX-XtXcXcXzXcXdX@X( ( &XnXFXPXPXvX).L D.<XbXxXxXlX>X",
":XaX[.T S.;XfXfXdXdXuXuX-XD.L S.,XhXzXvXmXSXAXaX(.T K.oX>XfXzXhXfXzXfX-XXXL.R K D.-XuXlXuXyXuXcXzXfXfX:X(.R _ #XtXyXsXcXaX`.L _ #XfXzXzXlX;X",
"].oX` P ) XX$XtXtXtXtX#X'.A.L ( @XsXsXsXsXaXaX%X] P ` I.@XtXsXsXsXuX>X#XI.P.R F ) '.#X>XyXuXuXdXsXuX;X].` T ( ].#X$X$X-X#XD.L / I.$XuXfXsXoX"
};
