/* XPM */
static char *standing_enemy_linux1704972488[] = {
/* columns rows colors chars-per-pixel */
"70 70 247 2 ",
"   c #030204",
".  c #090607",
"X  c #04040B",
"o  c #0B040C",
"O  c #0C0C0D",
"+  c #130401",
"@  c #160808",
"#  c #150C0A",
"$  c #19110B",
"%  c #010513",
"&  c #0C0C13",
"*  c #080918",
"=  c #140A15",
"-  c #0C1219",
";  c #131314",
":  c #17181C",
">  c #270805",
",  c #2A120A",
"<  c #241718",
"1  c #341A1A",
"2  c #35221C",
"3  c #050C23",
"4  c #020E2C",
"5  c #090F2B",
"6  c #0B1327",
"7  c #181A27",
"8  c #0B1738",
"9  c #151D36",
"0  c #221D28",
"q  c #241C33",
"w  c #1D2229",
"e  c #182C35",
"r  c #182439",
"t  c #272729",
"y  c #282836",
"u  c #352A32",
"i  c #2D3138",
"p  c #353538",
"a  c #46150D",
"s  c #4C1813",
"d  c #51281A",
"f  c #632112",
"g  c #4D2A2A",
"h  c #70382A",
"j  c #58423B",
"k  c #70492E",
"l  c #6B4936",
"z  c #794935",
"x  c #0A1E47",
"c  c #121E41",
"v  c #162648",
"b  c #132956",
"n  c #162A57",
"m  c #2D3446",
"M  c #2F354D",
"N  c #383A46",
"B  c #27395B",
"V  c #193367",
"C  c #1A346A",
"Z  c #243B69",
"A  c #223E75",
"S  c #4E3E48",
"D  c #39414A",
"F  c #3C4657",
"G  c #1E436D",
"H  c #2F476B",
"J  c #274378",
"K  c #46484A",
"L  c #544C4E",
"P  c #474956",
"I  c #4C4E51",
"U  c #4E5155",
"Y  c #4D535A",
"T  c #525455",
"R  c #53555A",
"E  c #55595D",
"W  c #5A5B5D",
"Q  c #714F4B",
"!  c #785945",
"~  c #47576B",
"^  c #46516D",
"/  c #555B63",
"(  c #5A5E62",
")  c #565B68",
"_  c #605F65",
"`  c #5D6064",
"'  c #576069",
"]  c #5C636B",
"[  c #496579",
"{  c #5D6671",
"}  c #5E6874",
"|  c #566678",
" . c #626364",
".. c #6D6664",
"X. c #62656B",
"o. c #65696D",
"O. c #6A6B6D",
"+. c #636B74",
"@. c #656875",
"#. c #6A6E73",
"$. c #646E79",
"%. c #706F71",
"&. c #667077",
"*. c #6E7175",
"=. c #65717D",
"-. c #6B737C",
";. c #727375",
":. c #72767A",
">. c #76797E",
",. c #7A7B7D",
"<. c #843F29",
"1. c #8B4531",
"2. c #A1583B",
"3. c #93695D",
"4. c #AA6E4F",
"5. c #B5836E",
"6. c #CE906C",
"7. c #DA9B77",
"8. c #E3A57C",
"9. c #2F528B",
"0. c #3C6799",
"q. c #4C5D82",
"w. c #56708A",
"e. c #496899",
"r. c #6B7582",
"t. c #6A7786",
"y. c #6D7985",
"u. c #747787",
"i. c #747B84",
"p. c #7B7E81",
"a. c #737E8A",
"s. c #667A98",
"d. c #7D7391",
"f. c #5776A4",
"g. c #5679AC",
"h. c #617FAD",
"j. c #877D8E",
"k. c #7E8184",
"l. c #75818D",
"z. c #7C838C",
"x. c #7C8692",
"c. c #7A8796",
"v. c #5E82AC",
"b. c #708BAF",
"n. c #7C9CCA",
"m. c #828384",
"M. c #83868A",
"N. c #85898E",
"B. c #8A8B8D",
"V. c #828193",
"C. c #848B94",
"Z. c #8B8E92",
"A. c #838E9A",
"S. c #8E9194",
"D. c #86919D",
"F. c #8B939D",
"G. c #939395",
"H. c #93969B",
"J. c #96989B",
"K. c #9A9B9C",
"L. c #B29282",
"P. c #8695A3",
"I. c #8B95A2",
"U. c #8E99A6",
"Y. c #939BA4",
"T. c #9B9EA3",
"R. c #939DAA",
"E. c #999FA9",
"W. c #889CB2",
"Q. c #99A1AA",
"!. c #9BA2AC",
"~. c #88A7BC",
"^. c #9CA5B2",
"/. c #9EA9B5",
"(. c #A3A3A4",
"). c #A3A6AB",
"_. c #A5A9AD",
"`. c #AAABAD",
"'. c #A3ABB5",
"]. c #A5ABB6",
"[. c #ABADB2",
"{. c #A4AEB9",
"}. c #AAB0B7",
"|. c #ACB3BD",
" X c #B2B3B3",
".X c #B2B6BB",
"XX c #B5B9BE",
"oX c #BBBCBD",
"OX c #DDA184",
"+X c #E9AD85",
"@X c #EAB288",
"#X c #F1B389",
"$X c #819ECD",
"%X c #86A5C6",
"&X c #93ACCF",
"*X c #9AB5D6",
"=X c #ADB6C1",
"-X c #ABB7C6",
";X c #B0B7C1",
":X c #B3BAC4",
">X c #BABDC3",
",X c #B6BEC9",
"<X c #B8BFC9",
"1X c #A3BED7",
"2X c #A2BEE3",
"3X c #BBC0C7",
"4X c #BCC3CD",
"5X c #ADC6DA",
"6X c #BEC6D1",
"7X c #B8C9D6",
"8X c #B3CDE9",
"9X c #BCD7F4",
"0X c #C3C4C5",
"qX c #C2C6CD",
"wX c #C5C9CD",
"eX c #CBCBCD",
"rX c #C1C7D1",
"tX c #C4CBD4",
"yX c #C9CED5",
"uX c #C6CED8",
"iX c #C9CFD8",
"pX c #CDD0D5",
"aX c #CDD2DA",
"sX c #D3D3D4",
"dX c #D2D5DC",
"fX c #D5D9DE",
"gX c #DADBDD",
"hX c #D5DAE1",
"jX c #DADEE3",
"kX c #C5DBF0",
"lX c #DEE1E4",
"zX c #DCE4EB",
"xX c #CBE4F8",
"cX c #CEE9FE",
"vX c #D5EAF9",
"bX c #DAF3FF",
"nX c #E3E3E4",
"mX c #E3E5E9",
"MX c #E6E9EB",
"NX c #EAEBEC",
"BX c #E3E8F1",
"VX c #EDEEF1",
"CX c #EEF1F3",
"ZX c #E5F4FD",
"AX c #F3F4F5",
"SX c #F5F8FA",
"DX c #FBFBFC",
/* pixels */
".XzXMXjXlXhX^.] X.`.NXDXDXDXAXAXSXDXSXwXj.W K.NXAXCXCXCXZXAXCXwXm.O.`.VXDXSXjXS. .m.oXnXDXDXDXDXCX`.;.`.CXDXMXlXhXzXVXCXmX|.:.#..XNXMXzXhX=X",
"Y.qXaXuXiX6XH.o.B.sXSXSXVXnXlXlXMXSXSXgXH.O._.jXlXjXhXaXdXhXzXaXQ.:.J.sXMXlX6Xk.k.0XNXNXMXmXMXCXCX|.,.Q.NXSXmXhXhXaXaXhXhX,XN.#.Y.yXaXiXtX{.",
"c./.4X6X7X|.z.*. XNXCXlXfXaXaXhXhXMXCXdXY.p.[.yXiXaXiXuXaXdXfXgXoXN.k..XaXtX^.:.Q.nXNXdXpXaXdXdXaX|.,.J.gXmXhXdXaXtX6X6XuXrXY.#.z.|.7X6X-XU.",
"=.c.^.|.|.D.&.k.eXNXfXpXuXyXaXaXfXMXmXqXH.z.|.yXtXtXuXyXaXdXaX7X>Xk.;.Q.6X3XD.#._.lXlXaXwXtXuXuXtX).:.N.wXaXiXtXuX7X:X{.<XtXE.#.+.I./.{.U.t.",
"' =.l.c.c.-.] k.yXmXiXtXyXtXtXaXlXlXaX;XC.Z.3XuXaXuXyXaXaXyX}.p.p : : E Q.!.y.o.Q.aXaXuXtXtXtXuXtX!.&.p.XXiXuXtXuXrX:X{.<XtX'.$.( r.a.t.@./ ",
"T ' ] } } ' E k.4XjXdXyXtXtXtXaXfXdXtX).k.S.6XlXhXaX:XJ.p.E t O : e - O w N D D c.3XuX6XtXtX6X6X6XT.o.*.).iXaXtXtXtXrXrXtXtX'.#.T W ] +.X./ ",
",.B.m.*.( T T :.}.dXdXyXtXtX4XwXtX4X|.C.:.Q.yXfXaX|.D 7 : 6 e [ v.l.l.H e - - O p Q.4X7XtX6X:X:X=XC./ ' F.tXaXiXrXtXtXtXtXrXR.X.R %.G.`.).B.",
"oXgXsX Xm. .E #.Y.<XtXtXtX|.].:X3X{.F.&.#.Q.7XuX}.I . e [ l.v.%X*X5X/.n.v.v.[ e X N H.-X3X:X!.Q.F.+.U E p.{.6XtXrX,X:XrXrX:XF.) %. XlXNXnXwX",
"0XVXDXNXsX(.;.} a.^.=X,X,X^.Y.^.^.c.l./ ] H.3X|.K % 9 A 0.9.9.&XbXSXAXF.9.9.0.A 8 X i c.R.U.D.a.o.W W T X.x.^.-X=XR.I./.|.!.y.} K.lXVXnXhXqX",
".XjXmXmXNXlX X,.+.l.P.R.Q.R.P.P.l.l.' T ( l.Y.K % 7 V n C J A f.MXSXMX} A 9.C b V 8 % i } $.} W ( ,.G.,.` +.l.D.P.c.c.c.c.c.} -.oXnXiXqX6X.X",
"_.yXaXaXfXmXgX`.*.+.y.l.l.x.l.y.&.] Y F E { &.O O 9 8 c x x 8 6 Q.zXH.- 5 9 c c 8 r % ; W ` T T o. XgXoX:.W ] -.t.r.r.=.=.} / ,.0XdX.X}.:X{.",
").4XiXtXiXaXhXyXZ.( / } $.$.$.=.-.>.l.5.>.O.{ D & X 3 * * 3 7 q i ' y w 6 * * * 3 % 7 O.K.K.p. .o.[.jXwXC.W R ( X.+.] ] / R T >..XyX.X{.{.E.",
"!.4XyXtXtXuXhXdXH./ T  .-.m.Z.(.oXeXlXnXsX Xm.( p   X w S ^ j.j.z.#.j.j.u.P M 7 X & K.NXNXmXeXB. .M.|.^.i.' ..m.G.K.J.B.;.W T ;.[.tXtX<X].Y.",
").4XyX6X6XiXaX4XC.( o.J.wXsXnXMXMXNXVXAXVXnXeXG.W t - s.s.s.*X{.|.|.{.'.^.s.s.s.w Z.CXDXVXnXlXXX:.o.y.-.&.Z.oXgXMXNXMXlXeXG. . .H.4XuXrX4X'.",
"!.6XtX6XrXiXtX^.a.] i..XjXMXMXjXdXdXlXzXgXhXmXwXm.K O 7 6 q m N ^ ^ ) N m q 5 : w fXCXSXnXaXfXuXZ.( R o.K.sXNXCXAXAXNXmXmX4Xk.` u.].<X<X{.F.",
"K..X3X6XtX4X{.P.r.( r.^.<XqXyXyXtXuXdXfXyXyXhXgX_.U O   = @ 7 N -.Y d.N 7 * = . : XXlXMXlXaXaXaX_.O.W Z.sXnXgXdXgXnXgXaXaX>Xk.W X.a.F.P.a.$.",
"z.Y.|.6X6X|.D.l.] R X.c.'.3XuXtXtXtXuXuXtXuXhXjX).i t 2 d $   o O ; O .   < 2 2 2 W 4XfXaXyXyXyX.Xu...`.gXdXqXwXiXiXiXiX6X'.-.R T X.+.@.) R ",
"S.^.-X6X6X'.x.} R L E -.U.4XaXaXtXtXtXtXrXrXiXiXz.& ..L h s .   $ g >     g g Q j : Q.iXtXyX7XyX,XM.*.[.dXuXtXtXtXtXtXuX4XY.] U T  .O.*.O.` ",
"!.3X7X6X=XD.&.E W W W / i.^.4XtXtXtXtXtX<X=X:X6X>.. L a h Q > < l 4.z : < 1.h , f $ K.tXtXwX7X6X:XM.#.Q.uXaXaXuXtXtXiXtX=Xz./ W ,.(.oX0X.XJ.",
"Y.{.|.|.F.+.` o.m.K.m.#.` y.Y.{.,X4XrXrX:XR.^.-Xy.O 2 d 1.6.4.5.OX7.OX4.5.7.h d a $ Q.uX6X3X{.|.{.a.` Z.4XhXaXuXtXtXtX3XR.&.' m.0XnXMXmXfX>X",
"l.c.c.c.+.( ,.`.dXjXfX X,.] -.M.U.R.^.{./.!.R.W.c.D # + 1.7.8.#X7.4.7.#X8.8.h @ , W .X6X6X.XR.R.F.&./ k.:XaXaXtXtX6X:XR.i.' :.oXNXMXfXfXaX|.",
"{ l.-.] E :.oXMXVXjXmXlXXX*.E ] r.a.a.x.c.c.c.c.a.} p . g 4.8.#X#X#X#X#X7.4.d + ` F.^./.}./.R.c.l.' T O.R.:X4X3X;X'.D.r.) ( K.nXVXfXtXyXtX|.",
"E ' ~ U o.`.gXNXzXhXaXhXyXG.W T / ] +.$.r.r.t.r.o.O.M.t > d 4.6.7.7.6.6.2.f > ; / &.=.y.y.-.&.&.' E U ( i.A.F.D.c.y.} / T ;..XlXfXaXtXtX6X|.",
"R ( / F 5.wXlXzXjXhXiXuXtXJ.` I T ( #.#.+.@.) R R k.eXXXu @ 2 f d d d d a + $ K E E E E E ( o.;.>.:.O.` ' +.$.{ ) / R T T ,.oXsXyXtXqX4X4X|.",
"p.J.,.W k.4XaXaXaXiXtXuX4XD.' R ;.K. X X`.K.m.W W m._.T.p & p < > > > 1 u = < L ,.p.W T O.B.`.0XsXeXoXK.*.W R R #.p.m.O.W >.}.yXuXtX4X:X=X|.",
" XsX XO.l.|.tXuXuXuXuXtX:XD.]  .K.gXVXCXVXNX0Xm.W R t ; & =.b.w.g g g @.b.w.* = p z.o. .(.sXMXVXAXDXSXnX(. .R ,. XsXpXK.X.;.Q.4XtXtX6X4X3X|.",
"XXgX.X&.&.Q.-X4X6X7X6X3X|.c.] :. XdXjXMXAXAX(.I t ; & t K -X9Xn.d.Q j.$X9X&XF u & - i K (.gXdXfXnXNXCXAXsXm. .G.fXnXyXY.#.+.A.{.4X7X4X6X4X|.",
"!.3X!.&.] l.c.U.R.R.Q.P.c.r.] M.:XtXtXpXdXK.: ; ; t T.sX4Xw.9XkXW.m R.kX*Xq.4XsX5.: ; & t G.6XsXhXdXhXlXeXB.` ,.!.'.F.t./ / -.c./.{./.|.3X/.",
"l.Y.x.` T ] ] o.} =.&.=.=.] ] H.3XrXrXtXZ.; t (.`.XXvXvXxX/.w.b.7 * y W.v.1XvXvXzX|._.S.: t K.yXyXtX4X3X].>.R ( $.&.+.' ( W ` &.l.c.D.R.!.D.",
"` } ] ` ;.m.m.m.p.-.o.` E T O.J..X<XtX!.t ; _.SXDXZXcXcXcXxX~.H *   * ^ *XZXZXBXcXbXSXSXG.; i ).6XtX:X^.C.] U T ] :.m.S.K.G.m.*.] $.-.-.=.@.",
"I T O.T.eXgXnXnXgX0X(.,.W T O.H.'.=X{.N O m.DXCXvXvXcXbXbXbXcX5Xi % m 8XZXDXDXDXvXcXbXZXDX;.. U {.-X{.I.-.E W ,.(.0XgXmXNXNXgX`.%.T E W / Y ",
"T *.[.nXAXDXDXAXCXNXMXeXJ. .X.C.'.R.=.= p NXCXxXcXxXcXW.w.l.xX8Xm 0 N xXDXDXDXDXCXxXcXcXZX0Xt 7 u.x.l.=.' O.(.sXnXnXlXlXlXNXNXsXJ.`  .B.G.,.",
"..Q.jXSXNXmXmXhXdXjXlXlXpXG. .&.l.=.D O X.vXcXcX9X8XxXW.| s.9X5Xm y M uX{.CXSX.X6X9X9XcXcXkXY X I ' ' ' *. XlXmXgXpXyXtXaXhXhXuX).&.Z.sXgX`.",
"i.[.dXhXdXiXaXiXiXiXiXaXdX>Xm.' ' I & ; R.cXcXkX%X5Xb.N F F P -Xi y M 5XM {.>XN W.5X%XkXcXvXc.& - K U  .(.nXnXaXwXwX6X6X4X4XtX6X).:.Z.aXfX`.",
"i.U.{.<XqXrXtXtXtXtXiXrXyXrXK.X.U K O ` BXZXxX%Xf.n.s.9 6 6 F *Xm y m 5X^ r m B &X%Xg.&XcXZXvXI O K T ,.eXmXaXqXtXtXtX4X{.'.4X7X].;.>.).].z.",
"$.z.c.U.;XrXuXrXtXrXrXyXrXqXE.O.T  .; :.hXzX8Xh.J e.$Xb.^ | *X5Xi 9 m uX*Xq.q.&X%Xe.J b.9XvXaX` O  .W p.3XdXyX4X3X4XtX3X{.'.3XyX{.:.] a.a.] ",
"/ -.a.c./.6XtXuXrX,X;X<XuX,XI.+.( O.O : F h.h.e.b H &X1Xv.b.cX5Xi q m kX9Xh.v.9X~.J n e.v.e.H 6 O  .` -.Q.:X3X-X^.|.6XtXqX4XtXtX].*.R W / Y ",
"I / r.x.U.-X,X6X<XE.R.=X6X=XP.+.` O.; 2 S u c 9 3 H $X5X$X*XcX5Xi q m kXxX&X&X8Xb.H 4 9 c m j 1 O ` ` o.x.Q.^.^.!.=X6XtXuXyX6X=XF.] T ` o. .",
"` ..X.$.a.c.R./.^.R.U.^.'.U.l.' E W O ! 5.Q g < o 7 0.b.5XxXbX5Xy * M kXcXxX2Xh.J 8 * q g Q 5.l # Y E ` -.x.c.F.|.6X4XtX4X;X!.C.+.X.,.Q. X(.",
"K.`.H.-.' r.a.l.x.A.D.c.l.r.] R I D O ! @XOX4.3.1 o B 0.g.2XcX*XM % N 5XxX*Xh.9.V % t 3.3.OX@Xz + I Y Y ] +.y.A.^.|.|.'.R.z.=.] *.K.sXNXNXeX",
"oXnXgXoXZ.o.] } &.=.&.+.{ {  . .W K O ! @X7.1.f > o 9 V 9.h.2Xn.v.[ s.n.&Xf.9.V x X $ d 2.7.+Xk + K W  ._ X.X.@.-.y.a.-.} ] &.Z.oXnXNXnXaXXX",
" XaXzXmXsXH. .E E ` } >.m.J.K.(.K. .$ ! @X8.1.$ L ..I 6 Z A f.f.f.f.f.e.e.A V 4 F  .L @ ! 7.+Xl + %.K.(.T.H.M.>...' E E / :._.fXCXCXgXyX6X.X",
"'.6XaXdXlXeXN.R T ;.(.eXnXnXnXMXnX(.$ ! @X8.1.# ( @._ ; 9 9 y M ~ ~ ^ v 9 8 9 * R @.U @ ! OX@Xk #  XNXnXgXsXwX>X_.m. .R %. XnXMXnXgXpXtXtX=X",
"T.4XuXtXaXsXQ. .%. XNXSXSXVXNXNXVX X: ! @X7.1.+ 7 U 0 : _ N o.p.BXjXhX) R i _ & o * o = ! 7.#Xk $ 0XDXAXgXiXdXhXjXqXB. .G.gXnXgXpXaXyXyX6X.X",
"c.|.7XuXuX4XF.*.K.nXDXNXlXaXaXdXfX`.; ! @X8.1.+ 0 M.0   : = : X.Y.P I.P 5 = : X o = o @ ! OX+Xk $ oXAXNXdXtXtXaXfXuXJ.%.(.lXfXaXtXtX6X4X4X|.",
"l.Q.:X4X4X/.l.,.oXNXnXgXpXyXaXdXfX`.; ! @X@X5.. 7 7 0 . X o o t m % p 7 o   o o 0 y 0 $ L.+X@Xk # `.lXfXiXuXiXiXaX4XS.>.`.sXaXqXyX6X:X{.-X|.",
"} k.P.^.Q.c.o.z.pXMXsXtXyX7XpXdXgX(.: ! #X8.2.@ 0 u y O 9 v v 9 5 7 6 9 v v 9 % 7 y q = 3.OX#Xk # (.pXyXuXaXhXaXuX;Xx.p..XaXyXqXtXtX3X.X=X|.",
"E { &.l.y.+./ k.wXlXaXtXyXyX7XdXgXT.$ l 7.6.k + 7 q q ; B Z Z Z Z B Z Z Z H B 3 = q 7 = Q 6.7.h # Q.wXtXuXaXjXdXuX].>.,.XXaXiXtXtXtX6XtX6X|.",
"Y W ' ' ' Y Y :.XXfXaXiXtXtX4XuXtXC.O 2 1.1.h + o = = * n C V b b b b b V C V 4 o = = @ l <.1.a # K.tXtXtXyXtXtX4XR.#.i..XaXdXuXtXtXtXtX4X|.",
"m.K.S.p.} F Y &.R.3XtX7X6X|.].;X;Xz.: > a a a + o o o : Z A n 8 4 4 4 5 b Z Z 4 o o o o 1 s a @ u `.yXtXuXtXXX|.|.C.' #._.aXaXtX4X,X4XtXtX=X",
"oXnXmXsX`.5.` ] l.Q.|.3XXX'.T.Q.U.c.T ; + @ @ O   . * y Z C V 8 % % % 9 n Z A n * X   . @ @ $ g Q.6X6X6X4X:X'.Y.C.$.R ` C.;XtX4X=X!.|.4X4X{.",
"oXMXAXNXmXeXK.#.$.l.c.U.P.U.I.c.l.-.) K p K  .W O O 8 Z Z C n 8 - y : 7 n Z C Z 9 * X u I / o.F.}.|.}.'.!.U.z.-.{ / U R #.D.'.=X/.U.!.|.'.I.",
"_.pXfXsXlXMXsXK.+.} t.y.a.a.t.=.@.( ( W W E @.) - * c C V n x * y T u % 9 n V Z x 3 * I E ' +.-.l.k.a.-.&.} ] } #.,.,.;. .+.l.D.P.U.P.D.c.t.",
"!.4XyXaXuXfXlXwXm./ ) } } } $.-.p.S.K.(.G.j.O.P - 7 Z J n n 8 . K R u   7 n V H A 9 - _ T T ` ] ' ' ' ] &.i.Z.(.3XsXgX3XJ.*.o.=.l.l.l.s.t.' ",
"`.6XyXtXtXyXfXaXJ.W E *.N.H.).oXeXgXnXnXnXsX(.W & 6 n A C b 4 O ,.,.N . - n V 9.b 8 7 ;.W ;.K.K.*.( ;.J..XeXgXnXVXSXNXlXpX).*.] { } } | ~ Y ",
"'.6XtX6X6XyXdX6XS.` O.(.fXnXNXNXNXMXVXAXCXNXnXB.; - b J V b 3 O J.m.K . * v V A b 4 7 m.*.J.gXsXS.,. XlXNXnXnXlXnXNXnXfXdXeXQ.o.R Y / X.o.( ",
"'.qXtXrXrXiXyX{.l.] >.[.fXgXgXdXpXaXjXmXdXaXjX).: - b A n x * : Z.>.U O O v n J b 4 7 N.:.S.pXwXZ.Z.sXVXjXiXyXtXsXhXdXiXyXiX<XB.W _ B. X XB.",
"!.<XtXrXrXrX=XP.-./ #.Y.;X:X4XwXtXiXdXdXtXtXdX[.: - b A b 4 X w z.o.Y &   6 v J b 4 7 J.>.k.|.|.i.B.wXfXpXwXtXuXdXdXyXtXrXqXrXT.X.m.eXVXnXoX",
"Z.).:XtXrX;XP.a.@.T ( a.^.>XtXyXtXuXtXuXtXtXdX_.7 7 Z J x 6   t &./ U O   - v J G 8 7 G.:.*.Q.R.+.>.|.tX6XtXtXtXtXtXtXrXrX:X;XE.&.p.3XfXwX).",
"z.Y.|.rXrX].x.+.R I Y +.A.:XaXiXtXuXrXrXrX<XrXE.7 r J A b 6   7 E Y U &   7 v J J 8 6 :.} ` y.-./ o.H.-X:X3XiXtXtXtX4X<X<X<X.XR.-.X.B.'.!.z.",
"Y.|.3X6X;XI.-./ T W W ( #.I.;X4X6X7XuXtX4X/.{.H.: 9 J A v 5   t E E I O   - v J 9.x * ] E U E E Y ` a.U.'.3X6X6XtXtX=X'.;X<X{.D.&./ ' r.r.{ ",
"J.^.'.{.I.#.(  .m.K.J.,.] +.C.Q.|.:X,X<X|.^.!.x.: 9 A A x 3   p G.B.;.:   - v J G x * Y o.%.*.%. .( ' i.U.{.|.3X:X:X{.^.^.E.P.x.$.Y R / / Y ",
"z.D.D.x.@.) ;.(.sXnXnX0XB.] ] r.x.c.F.I.P.U.P.-.6 3 x x 4 %    .gXgX0Xu   X 3 x x 4 - 5. X3XeX0X XB.#.] =.c.c.D.D.P.F.D.A.A.a.t.] o.p.G.S.,.",
"$.a.t.] W ,. XnXNXnXmXmX>X,.R / } } r.t.a.a.l./ - - 6 4       %.nXNXnXT       6 6 3 - K.gXnXlXlXnXsX(.>.' { $.=.=.r.t.t.t.t.| ' -.`.sXlXdX X",
"/ ' ' U O.Q.jXMXmXdXdXhXaXJ.W I R / ] +.+.} Y - w +.t.M       O.wXaXdX .      Y u.| 7 u _.yXwXyXpXjXgX[.*.R Y / ' ] ] ] ' / E O._.nXNXnXhX3X",
"Y / T T 5.5XlXlXhXdXtXiXyXT.W W O.B.S.S.Z.p.w X 7 P S m *   . ;.qXaXyXo.    # N P S 7   I >XrXrXtXaXgXiXK.( T O.Z.J.F.m.O.U R m.pXNXsXaXyX|.",
"p.B.;.W S.eXaXaXiXyXtXuX4XH.( %._.gXMXMXnXeXp   o * * * o     ,.aXuX6Xo.    . & = * * o p ].<XrXyXyXiXyX[.*...Q.gXNXNXgX[.%.W B.eXfXpXtXtX|.",
" XwXK.` N.3X7XyXtXtXtXuX:XV.( i.oXjXMXAXAXnXK     o o     . . m.yXuX6X#..           o   p E.;XtXtXtXyX6XQ.+.;.`.dXnXAXNXpXB.W p.XXaXyXiXtX.X",
"}.3XS.` l.{.6X6XrX6X4X,X].l.' >.}.yXyXaXfXgXH. .K p N I W  .O.}.6X6X3XU.I D p u N T _  .N.;X<XrXtXyX4X{.C.{ -.!.-X:XqXyX3XZ.' *.!.4XtXiX6X'.",
"F.U.>.' &.D.{.|.;X|.|.!.D.-./ &.E.<X4X4XqX>X:X_.:.W ;.x.E..X3X4X3X3X|.!.D.l.o.R &.S.!.|.:X<X4XqX4X:X{.F.-.) *.F.!.^./.'.!.a.( o.D./.:X7X3XR."
};
