/* XPM */
static char *standing_man_linux_701704972488[] = {
/* columns rows colors chars-per-pixel */
"70 70 252 2 ",
"   c #020102",
".  c #0B0302",
"X  c #040906",
"o  c #0C0B0C",
"O  c #140200",
"+  c #1C0100",
"@  c #150B08",
"#  c #021406",
"$  c #18110E",
"%  c #040C14",
"&  c #051219",
"*  c #181718",
"=  c #270803",
"-  c #340D01",
";  c #380903",
":  c #2A140B",
">  c #391506",
",  c #261A17",
"<  c #391B12",
"1  c #062D0E",
"2  c #342A14",
"3  c #021727",
"4  c #0D1D2A",
"5  c #311E21",
"6  c #1C2A29",
"7  c #032237",
"8  c #262627",
"9  c #372A27",
"0  c #2D3033",
"q  c #363739",
"w  c #490D08",
"e  c #570706",
"r  c #471606",
"t  c #630507",
"y  c #730102",
"u  c #71100F",
"i  c #492618",
"p  c #572717",
"a  c #592410",
"s  c #693518",
"d  c #462D25",
"f  c #573627",
"g  c #51342A",
"h  c #683928",
"j  c #753B28",
"k  c #663F31",
"l  c #065114",
"z  c #306D0A",
"x  c #0F532A",
"c  c #265A27",
"v  c #116E2F",
"b  c #277238",
"n  c #5C601A",
"m  c #6F422D",
"M  c #774535",
"N  c #022944",
"B  c #0B354C",
"V  c #043857",
"C  c #343B42",
"Z  c #003E62",
"A  c #254755",
"S  c #327344",
"D  c #074567",
"F  c #0B4E73",
"G  c #48494A",
"H  c #554847",
"J  c #4B4D51",
"K  c #4E5357",
"L  c #525355",
"P  c #52565A",
"I  c #54595C",
"U  c #5A5B5D",
"Y  c #6A5652",
"T  c #73635E",
"R  c #555B63",
"E  c #5A5E63",
"W  c #565E68",
"Q  c #5D6065",
"!  c #576068",
"~  c #5C636B",
"^  c #5B7465",
"/  c #5C6673",
"(  c #5E6974",
")  c #626364",
"_  c #696565",
"`  c #62666B",
"'  c #65696D",
"]  c #6A6B6D",
"[  c #6E7269",
"{  c #636A74",
"}  c #646B74",
"|  c #6A6E73",
" . c #656E79",
".. c #667077",
"X. c #6E7175",
"o. c #65717D",
"O. c #6B727B",
"+. c #717375",
"@. c #72757A",
"#. c #75797D",
"$. c #7A7B7D",
"%. c #960B09",
"&. c #95100B",
"*. c #A50C06",
"=. c #A9140B",
"-. c #992C00",
";. c #AB3003",
":. c #D03307",
">. c #E61B26",
",. c #D62223",
"<. c #D82226",
"1. c #B45102",
"2. c #91611D",
"3. c #DC6018",
"4. c #93664D",
"5. c #926C5E",
"6. c #108E36",
"7. c #2C8C34",
"8. c #30B231",
"9. c #659926",
"0. c #199243",
"q. c #289144",
"w. c #1BA445",
"e. c #1BB249",
"r. c #2AA84C",
"t. c #5CA64D",
"y. c #8BB133",
"u. c #A9A525",
"i. c #D59709",
"p. c #F19114",
"a. c #CCB10D",
"s. c #ECAA07",
"d. c #FDBB0B",
"f. c #E9A62F",
"g. c #ADD329",
"h. c #B2E337",
"j. c #FEDC02",
"k. c #F2CF10",
"l. c #E7D916",
"z. c #9B9570",
"x. c #045B89",
"c. c #125C82",
"v. c #056695",
"b. c #106894",
"n. c #2A6B8D",
"m. c #0F77A8",
"M. c #2677A2",
"N. c #6A7582",
"B. c #6C7986",
"V. c #717780",
"C. c #747B84",
"Z. c #7B7D81",
"A. c #747E8A",
"S. c #0F82B4",
"D. c #7D8184",
"F. c #75818D",
"G. c #7C838C",
"H. c #7C8692",
"J. c #798795",
"K. c #2CA4D8",
"L. c #4FB0DD",
"P. c #828384",
"I. c #83858A",
"U. c #86888D",
"Y. c #8A8B8C",
"T. c #938B8A",
"R. c #818790",
"E. c #838B93",
"W. c #8C8E92",
"Q. c #838E9A",
"!. c #8E9194",
"~. c #86919D",
"^. c #8B939D",
"/. c #939395",
"(. c #93969B",
"). c #96989A",
"_. c #9A9B9C",
"`. c #AD9C94",
"'. c #8B95A2",
"]. c #8C98A5",
"[. c #939BA4",
"{. c #9C9EA2",
"}. c #939DA9",
"|. c #989FA9",
" X c #99A1A9",
".X c #9BA2AC",
"XX c #9CA6B1",
"oX c #9EA9B6",
"OX c #A3A3A4",
"+X c #A2A6AB",
"@X c #A6A7AC",
"#X c #AAABAC",
"$X c #B3AEAC",
"%X c #A3ABB4",
"&X c #A5ABB5",
"*X c #ABADB3",
"=X c #A4AEB9",
"-X c #AAB0B7",
";X c #ACB3BD",
":X c #B2B2B4",
">X c #B3B6BB",
",X c #B6B9BD",
"<X c #BBBBBC",
"1X c #CBA797",
"2X c #D6B2A7",
"3X c #E7CBB9",
"4X c #ADB6C1",
"5X c #AEB9C5",
"6X c #B0B7C1",
"7X c #B3BAC4",
"8X c #BBBDC3",
"9X c #B6BEC9",
"0X c #B9BFC9",
"qX c #BBC0C7",
"wX c #BCC3CC",
"eX c #BEC6D1",
"rX c #BEC8D2",
"tX c #C4C4C5",
"yX c #CBC7C7",
"uX c #C2C6CD",
"iX c #C5C9CD",
"pX c #CBCBCC",
"aX c #D9CFCB",
"sX c #C1C7D1",
"dX c #C4CBD4",
"fX c #CACED5",
"gX c #C6CED8",
"hX c #C9CFD8",
"jX c #CDD0D5",
"kX c #CDD2DA",
"lX c #D3D3D5",
"zX c #D2D5DC",
"xX c #D9D6DF",
"cX c #D5D9DE",
"vX c #DADBDD",
"bX c #EBD4CD",
"nX c #EDE0DE",
"mX c #D6D7E0",
"MX c #D5DAE1",
"NX c #DBDDE2",
"BX c #DEE1E5",
"VX c #DEE3EA",
"CX c #E3E3E4",
"ZX c #E3E5E9",
"AX c #E6E8EB",
"SX c #EAEBEC",
"DX c #EDEEF1",
"FX c #F4EFF0",
"GX c #EEF1F3",
"HX c #F3F3F5",
"JX c #F6F7F9",
"KX c #FCFCFD",
/* pixels */
">XCXAXNXVXMXXX~ ` #XSXKXKXKXHXHXJXKXJXpXD.E {.AXHXGXGXGXGXHXGXsXD.X.#XGXKXJXvX!.| U.8XnXJXJXJXKXHX@X@.@XHXJXAXNXNXVXDXHXZX;XO.+.>XSXAXVXMX5X",
"[.eXkXgXhXrX(.' Y.lXJXJXDXBXBXBXAXHXJXMX(.| @XNXNXNXMXzXzXMXVXkX X#.(.zXAXVXuXG.t.tXAXFXAXZXAXDXDX>X#.OXSXHXAXMXMXkXhXMXmX9XR.| [.gXkXkXrX=X",
"F.oXwXrXrX;XG.X.:XSXGXVXcXkXkXcXMXSXDXzX[.C.*XfXhXkXfXdXkXzXcXzX<XU.D.,XhXfX+X@. XCXAXcXhXhXxXmXmX*XZ.(.MXAXMXzXhXgXeXeXdXsX[.| G.;XrXeX5X].",
"N.J.XX4X=X^...D.pXSXcXjXfXdXkXkXMXAXZXuX(.I.>XdXdXdXgXhXkXkXkXkXwX(.@. XrXqX~.} @XBXNXkXdXdXdXdXsX@XV.U.pXkXgXgXgXrX5X=X0XgX|.|  .'.oXoX].B.",
"!  .F.J.J.N.~ D.fXZXkXdXdXfXdXkXNXZXzX6XW.Y.9XkXkXhXgXkXkXfXgXuX7X(.] R.;XoXB.~  XkXkXgXdXdXdXdXdX|.| Z.7XhXdXdXgXsX6X;X0XsX&XO.E N.A.N./ R ",
"P ! ~ ( ( ! I D.uXNXkXdXdXdXdXkXMXzXsX+XG.^.sXMXMXkXjXdXdXsXwX-X XR.~ ) F.F.( Q ^.qXrXgXdXiXrXrXsX|.{ | @XhXkXdXdXdXsXsXgXsX+X .L U ` { E I ",
"$.Y.P.X.U L P @.-XzXzXgXdXrXwXdXdXwX;XE.O. XdXMXzXfXdXR.Q I I K G C 8 6 0 8 8 q J.oXwXrXdXrX7X7X6XE.R E (.sXkXgXsXdXdXdXdXuX|.{ P X.!.#X#XW.",
"<XvXlX:XP.) I | ].qXgXfXsX>X%X7XqX=X^.X.]  XrXgXdXwXwXJ X # X # X # X # X # # 1 ( J.XX5XqXqX.X X^.{ K I C.=XsXgXeX9X7XeXsX7XQ.~ X.:XCXSXZXtX",
"tXGXJXDXlXOX+.( F.XX5XqX7XXX}.XXXX~.N.! Q (.wXrXqXO.I G b c b c b b b b 6.7.b l * q F.].}.}.J.F.{ U U P ` E.XX4X4X}.'.oX4X.XB.{ _.CXDXBXmXuX",
">XvXAXVXSXBX:X$.} F.'.]. X}.'.'.J.B.~ K ! F.oXwX-X* X c r.e.e.e.e.e.e.e.e.8.e.l # * ! ( ....( ! U D.T.$.E { A.Q.'.J.J.J.J.J.( X.,XCXfXuXeX6X",
"%XiXkXkXcXCXcX#XX.{ B.F.F.J.F.B.o.! I R P ` ..K I c l b q.w.e.8.8.8.8.8.8.6.6.6.7.v 1 4 K E L L ] :XxX<X#.R ` N.N.N.o.o.o.( R Z.tXzX>X=X9X;X",
"+XwXhXgXfXkXNXfXY.Q ! ( (  . . .O.#.D.5.#.] K X % t.r.6.6.v t.g.g.g.g.h.9.z 6.7.e.6.1 # [ Y.$.) ` *XmXdXU.U L ) / { ' ~ R K P #.>XfX>X=X-X|.",
"+XwXdXdXdXgXMXkX(.U L ) O.Z.!.OX,XpXNXBXuXt.K 6 x q.0.0.t.9.h.j.j.j.j.j.k.u.y.9.v 6.7.S S G W.W.) R.;X+XC.E ] Z./._._.T.+.U L +.@XfXdX0X;X}.",
"+XeXdXuXrXhXzXwXE.W ' ).iXvXCXAXAXDXHXHX{.X 6 r.0.v x 7.l.j.j.j.j.j.j.j.j.j.j.n v 6.e.6.l # D.,X@.' V.N. .Y.<XxXZXFXZXxXpX/._ ` [.0XdXdX9X+X",
"+XwXdXrXrXhXdXXXA.~ C.>XNXAXAXNXzXzXzXzXT.% 1 q.6.t.9.y.k.k.d.d.k.k.d.k.k.d.k.a.g.u.z v l 1 ^ [.P.E P ' {.lXSXDXFXJXFXZXZXtXt.` C.&X0X0X=X'.",
"_.>XwXrXrXeX=X~.N.Q N.XX9XuXfXfXdXgX+XJ G S v v v y.l.l.s.1.:.:.:.:.:.:.:.:.p.k.k.a.z x 7.q.x # ` ` U W.lXZXxXxXxXVXxXhXhX0XG.W ` A.'.'.A. .",
"G.[.;XrXrX-X'.A.~ I ~ E.oX7XgXgXdXdX].* & q.0.t.9.u.d.s.3.:.>.>.>.>.>.>.>.>.3.p.d.k.u.9.z 6.1 # ] | ] *XNXlXdXdXfXhXhXfXrX&XO.P P Q { { W P ",
"Q.XX7XrXrXoXJ.( I H I O.[.wXkXkXuX.Xt.6 1 x c g.k.k.1.:.,.,.<.,.<.<.<.<.<.<.>.<.>.f.j.l.n x x b c 0 ) *XzXdXuXdXdXdXdXhXwX].` K L ) ] X.| E ",
".XqXeXrX4X^...I U U P W V.XXwXsX;Xq 6 S b x x a.s.i.;.*.y t t t t t e e e e e u ,.3.s.i.2.9.7.b 1 X P {.gXkXkXdXdXdXfXrX;XJ.R E $.OX<XtX>X(.",
" X%X;X=X^.} Q ' P.).Y.] ~ C.].;X+X8 & v S 9.u.1.1.;.%.%.; = = + + + O + + = + w &.&.;.-.p.i.n l # . J W.wXMXzXgXdXgXdXqX}...E P.tXCXSXAXvX<X",
"C.Q.~.H.( E $.#XzXNXcX:X$.~ O.H.E.6 % x c u.a.;.%.%.e w > < d 9 g g g d d 2 > ; w t &.=.3.f.n n 1 X G P.,XkXkXgXdXrX7X}.C.W @.<XSXAXcXzXkX;X",
"N.N.N.W I @.<XAXSXVXZXBX,X+.P ` { * X 6 z f.f.;.%.u O . > r > - i j p ; - ; r =   = u &.=.=.3.u.2 # q ] }.7XwXqX7X%X~.N.W W _.BXDXMXdXfXdX;X",
"K W W L ] #XvXSXVXMXkXMXfX/.U L K * * u.i.-.=.*.w +   . > > : : d k p < : > w =   X O e =.=.3.f.s @ q ) V.Q.'.~.J.N.{ R P +.<XvXMXkXdXdXsX;X",
"L R U E t.iXBXVXNXMXgXkXsX(.Q J J o , u.i.-.*.%.;     . > > : * i j p = = : r =       w &.=.:.;.t # H ^ ~ { ( ( W R P L L $.<XlXfXdXsXeX0X-X",
"Z./.Z.Y I.0XkXhXhXhXgXgXwX^.Q P ) , $ 2.3.&.*.%.=       r m @.5.T j 4.P.P.T w =       + e &.*.*.t . /.).| I P U | $.P.] U $.-XfXgXdXwX5X5X-X",
"*XxX*X{ V.4XgXgXgXgXdXgX7XQ.~ Q U.q @ u &.*.%.t =     . r 5.nXbX`.M 5.bXbX`.> ;         : &.%.%.t , yXCX@X_ L #.:XcXfX{.` +. XwXdXdXrXwXwX-X",
"6XxX6XV.N.}.5X0XrXsXeX0X=XJ.~ #.{.q @ u *.&.y +       . > p 4.Y 4.j M M M k w =         $ &.y e 5.:XAXHXlXP.) /.lXZXfX[.| } Q.oXwXrXwXsXrX-X",
".X0X.X] ~ A.Q.'.}.}.}.].Q.N.~ I.>XI.Y a y &.y O         O ; a r > > < < p a = O         = %.e < /.zXcXBXpXU.Q $.+XXX^.N.R R V.J.oX=XoX;X9X%X",
"G.[.R.R P Q ~ {  . .o.o.o./ ` ^.0XuX+X5 w &.y O           + - + $ , , . @ - O       X * $ = Y OX8XsXuX0X%X@.I U } ..( Q W U Q ..F.J.Q.}..XQ.",
"E / Q ) @.D.I.I.C.O.( / I K | (.;X0X6X@.H ; w , .         . : g $XtXtXH > + .       . * % . E 0XsXsX7XXXE.~ K P ` @.D./._./.P.X.` } N.N.O.( ",
"H P | {.yXnXCXBXxXtX@X5.I L [ (.&X4X4X[.R   o 4 %         . : j `.@X`.H r O         % * % . J |.;X5X=X'...R U $.OXtXvXAXSXSXvX#X[ P I Q R K ",
"P X.*XZXJXJXHXHXFXSXCXpX).` Q E.XX}.H. .J   o * o           < r O . o , r +         . * *   q  .A.J.A.o.Q X.OXjXCXCXNXBXBXSXSXlX/.) ` Y.!.$.",
"_  XNXHXSXAXCXMXzXMXBXCXjX/.` ..A.N.~ | X.X % * o     . G U , = .     @ - Y K   * L q * 8 * L ` E ~ W R X.:XNXAXvXfXdXdXhXmXMXhX+X| Y.lXvX:X",
"C.-XzXmXzXhXkXhXdXhXhXhXzX8XD.Q E W @.:X$XJ 0 * 8 U 0 o U.uX9 +       o , <X*X  C ZX/.. ` qXyX_.` P L ` OXCXCXzXdXuXsXsXuXwXdXsX%X@.!.jXzX%X",
"C.[.;X9XuXsXdXgXdXdXdXdXdXdX{.Q P ] $XNXzXqXZ.X ' HX] $ T.fXU.U $ @ $ Y /.sX*X  H FX@X9 ] 8XNXlX{._ L $.pXAXkXsXsXdXdXwX=X%XwXdX&X@.@.%X%XG.",
" .F.J.'.4XdXdXsXdXdXdXdXdXuX X] I Y.pXNX0XR.{ G /.HX) o U.xXxX|.< - > `.mXmX@Xo L ZXDXxXU 8 _.mXiXP.U Z.8XzXdXeX0XuXdXqX=X%X9XdX-X@.Q C.F.Q ",
"R o.F.Q.oXeXgXgXsX9X7X0XgX9X'.{ ) _.lXhX@X* G ZXHXSX<X_.lXGXmX*Xk h j 1XmXFXAX8X8XxXFXFX` 5 U.4X>XR.E @.|.9X0X4XXX;XsXdXsXuXgXsX%XX.P U R K ",
"J E o.F.].4X9XeX0X|.[.4XsX4X'.{ E /.iXqX&X* G JXGXlXxXlXGXKXBX:XM j j 2XBXKXJXlXfXxXSXJXvX>XG C R.C.E { J.}.XX.XXX4XrXdXgXdXwX5X^.~ P E ' ` ",
") ] ' { B.Q.}.oXoX].].XXoX].F.Q I A.&XG 0 xXxXKXDXlXzXzXGXKXJX8Xp w w 2XKXKXJXjXfXuXBXKXKXCXd & Z.N.R E N.H.E.'.;XeXrXwXqX7X.XE.} ` $. X:XOX",
"_.#X).O./  .A.F.J.Q.'.J.A.N.~ P L ~ A.0 8 SXKXJXCX>XpXxXGXKXKXtXp i p 2XKXKXJXyXU.0 Y.CXxXtXq % O./ K K E  .B.Q..X;X;X%X[.H.O.~ ..{.aXSXSXpX",
"<XNXNX<XW.' ~ ( o.o.o.( ( ~ ) ) E E ! 6 8 8XNXNX{.* ) lXFXKXKXaXM j j 2XKXKXJXlXZ.o ' fXuX8X0 o R E R ) ) ` ` { o.C.C.N.} ~ | W.8XCXSXCXkX,X",
">XlXBXAXjX).Q I I U ` #.U.(._.OX{.Y.' , * (.>X:X#.o E fXFXKXKXyXk a p 2XKXKXHXvX#.. 5 H H g = $ ] Y._.OX{./.U.V.] W I I R O.@XcXHXSXvXfXeX>X",
"+XsXkXcXBXpXU.I L +.OXpXNXCXAXSXAXvX@X8 o d p 9 , . P fXFXKXKXtXh p p 2XKXKXHXNX| . O : w a = 5 {.yXnXZXxXlXdX8X@XP._ P X.:XCXSXAXvXjXdXrX>X",
"[.wXhXdXkXlX X) X.>XSXJXJXFXAXAXFXvX<X9 = i p w : O H kXDXKXKXGXbXbXnXJXKXKXHXxX| X : i h j k g 9 _ AXFXxXkXkXxXNXuXU.) T.vXCXcXjXjXfXgXdX;X",
"J.4XrXgXgXwX^.| [.ZXJXDXZXkXhXzXzX] * g k M j s i . G mXDXKXKXFXpXyXyXSXKXKXHXxX| . : p h j j h = 9 ZXAXhXgXgXkXxXfX(.V.OXvXcXkXdXdXuXwXwX;X",
"F. X5XwXqX=XF.$.2XFXZXzXhXfXhXxXkX` % g M j j a r O G zXDXJXHXyX9 * 5 OXJXFXJXzX@.  . = d 2.2.h = 8 zXmXgXgXgXgXhXsXW.V.:XlXfXdXdXdX7X&X4X;X",
"' F.].XX.XJ.{ D.jXAXkXfXfXfXhXkXxX` o p j 2.j = O . H fXZXSXSX8X0 7 B `.DXAXBX|.W X . . d j j h = 8 tXdXgXmXxXhXhX6XR.Z.>XkXgXdXdXdX7X5X5X;X",
"I / o.B.B.' ! D.iXNXhXdXdXdXdXkXzX) % i h j p = . . L pXzXkXlX8Xn.n.n.L.zXzX*X0 4   @ : w p w w O 8 8XdXgXmXxXxXdX&XA.t.,XkXfXdXdXdXdXsXrX;X",
"P U ! ! W P K #.>XmXkXdXdXsXwXdXuXL . : > r r > =   * W N.N.B.N.x.x.x.M.J.J./ 7 3 X + < r r > - : G >XdXdXdXdXdXwX|.O.V.>XzXMXdXsXgXgXsXsX4X",
"P.).[.t._ U L  .[.0XdXdXdX4X&X6X;XR 8 + - r w - = . % 4 A Z Z Z V Z Z Z D D Z N 3   . . + O . : T.;XuXdXdXsX7X>X;XE.E | @XhXkXsX0X9X0XgXsX;X",
"8XxXAXxX@XZ.) ) A..X4X7X6X%X|.|.].J.~ $ . . O . .   & A c.b.x.N 3 3 7 N c.b.v.F N     $ * * * q >XsXsXsXsX7X@X[.Q. .P W E.7XdXrX4XXX4XrXwX&X",
"8XZXFXSXAXpX).|  .A.Q.].].'.'.E.F.o.R 8 * , 8 8 . % B c.m.m.b.7 & % % 7 c.m.m.m.c.7 X q ) $.H.(.&X;X-X=X.X'.H.N.~ R L P | Q.%X4XoX].XX5X=X'.",
"*XfXxXlXxXDXlX{.{ ( N.B.B.B.B.N.{ ~ E U I I ' ` * 3 n.K.L.S.x.7 3 % % 7 D m.L.L.v.N 3 C P ~ ( O.A.A.A.N. .{ ~ { | $.$.+.) { G.~.].].].J.J.N.",
"@XuXhXkXhXxXNXiXI.E W { {  .{ N.Z.T._.OX/.Z.{ K & 3 n.K.K.m.D 7 %   % 3 Z M.K.K.v.N % J L P Q ~ ~ E W ~ } C.W.OXtXlXvXqX(.X.( ..B.J.A.B.N.~ ",
"&XwXdXdXdXdXmXkX(.U P | U.).+X<XpXNXCXAXCXaX@X) $ & F K.v.v.F 7 &   % 7 D x.x.K.v.N & E U X._.).X.E @./.>XpXvXCXSXJXSXNXpX@XX.~ / ( ( / W K ",
"&XwXdXsXsXdXmXsXW.) ] +XxXCXAXSXAXAXSXGXHXGXCX_.* 4 n.S.v.F Z 7 3   % 7 N V x.m.m.N & ] X.).vXlX!.$.:XCXSXZXCXNXZXSXZXcXMXpX X' K P R ~ / R ",
"+XsXgXsXsXhXgX%XA.E V.:XzXxXxXxXzXfXNXZXzXkXzX:X8 3 F x.v.V 7 7 &   % 3 7 B c.x.x.B & [ ' W.jXiXW.!.lXGXvXjXdXfXkXMXzXhXdXhX0XY.U U Y.:X:XY.",
".XqXsXsXdXsX;X'.N.W X.[.6X7XqXiXdXhXzXzXdXwX} G 9 q A F Z V N 7 3   % 7 N B Z Z A q 2 * X ' >X;XC.Y.iXvXkXdXdXdXzXzXfXdXdXuXsX{.' D.pXHXCX,X",
"W.%X7XsXsX4X'.A.{ L E A.XX9XdXfXdXdXdXsX0X=XC $ m M j q V V V 3 3 % % 3 N V Z B m 4.4.r $ J F.^.{ #.-XdXeXdXgXdXgXdXdXdXsX7X6X|.O.$.8XcXpX.X",
"G.[.4XsXrX%XJ.{ P J K { Q.7XkXkXdXdXdXsX| q 9 g 1X3Xz.f q & % %       % % % q g z.bXbXY i : * Q R ] '.;X7XwXfXdXsXdXqX0X0X0X>X}.O.' U.%X.XH.",
"[.;XqXeX7X'.O.R P U U E | ^.6XwXsXsXgXrXJ   d M 1X3Xz.2.m : X . .   X . . o f 2.4.2X1X4.m : . G K E C.].oXqXeXdXdXrX4XoX4X9X&XQ.o.R ~ N.N./ ",
"(.XX%X%X'.| R _ P._./.#.~ } R. X=X5X9X7XJ . i m m f h h s > : : @   o : : : p h s h f h s = @ I ) E ~ C.].=X>X5X9X7X=X XXXXX'.J.( P P R R I ",
"G.^.^.J.} W +.@XlXCXCXtXY.~ / N.J.Q.~.'.C . = - > ; ; - - - - - - $ , - - - ; ; - - - - - O @ OX#XY.{ ~ N.J.J.J.^.'.'.'.Q.J.F.N.~ ` D./.E.$.",
"o.B.N.( I +.:XnXSXAXZXCXtX$.P R ( ( N.B.q   . O O O O O O + O O 9 $X) O O O . . . O O O O . o tXCXlX#X#.! / o.o.o.N.B.B.B.B.( ! O.#XlXCXlX>X",
"R ! R K _ @XxXFXBXxXkXxXkX).U J L W ~ / q $ $ @ .   o , 8 8 * @ q pX/.9 , o o $ 8 q 9 * $ * 8 ,XjXNXvX*XX.P K R ! / ~ ~ ! R K ] #XCXSXCXcXqX",
"K R P P I.uXBXxXmXxXdXhXdX{.) P ] Y././.P.+.W L J _ @X<X:X:X>X<X9XfXiX,X-X(.) U /.<X<X,X>X-X*XuXdXkXcXjX_.E P | W.(.!.P.} K I P.jXSXzXkXdX,X",
"t.T.V.W W.fXxXhXhXgXdXhXsX^.E ] #XmXZXSXCXlX,XP.Q X.%XdXdXdXsXkXkXhXdX0X-X[.| ) [.uXdXiX7X>X9XeXdXfXhXfX*XX._ OXvXSXSXvX$XX.U Y.jXcXjXdXdX>X",
"6XfX).Y U.0XdXgXdXdXdXdX7XE.Q Z.8XNXAXFXHXHXSX<X$.' (.7XeXdXdXdXhXgXsX=X^.H. .W W.7XdXuX4X&X4XdXdXfXgXsX X] +.%XzXCXFXGXjXY.U $.,XkXdXfXrX;X",
"*X0X(.E C.&X0XdXsXsXwX0X&XA.E V.*XfXhXzXxXNXNXtXI.Q F.[.;XeXsXdXrXrXeXoX'.F.} R C.&X0XwX0X7X0XdXdXdXwX-XH./ O. X4X4XwXfXqXW.E O.XXrXrXfXrX%X",
"^.[.V.R  .'.=X5X6X4X=XXX~.N.E  .|.9X0X0XuX0X0X@X#.E O.H. X5XwXqXwXwX4X XJ.F.( I O.Q.XX-X7X9XwXrXwX9X=X^.O.! X.^.XXXXoX%XXXZ.W ' J.oXqXrXqX}."
};
