/* XPM */
static char *walking_left_linux_701704972487[] = {
/* columns rows colors chars-per-pixel */
"70 70 255 2 ",
"   c #0C111A",
".  c #18171D",
"X  c #16191F",
"o  c #280E06",
"O  c #381607",
"+  c #29191A",
"@  c #381716",
"#  c #3B3212",
"$  c #181C24",
"%  c #071D33",
"&  c #281E22",
"*  c #1D222A",
"=  c #053B2A",
"-  c #112B37",
";  c #272428",
":  c #372628",
">  c #2B2D34",
",  c #393539",
"<  c #491705",
"1  c #54160F",
"2  c #471A17",
"3  c #701714",
"4  c #4A280D",
"5  c #792607",
"6  c #6D2E10",
"7  c #541D23",
"8  c #4F312E",
"9  c #483333",
"0  c #763229",
"q  c #2F4813",
"w  c #1F6119",
"e  c #074528",
"r  c #105434",
"t  c #0C663A",
"y  c #136C33",
"u  c #6F5E0F",
"i  c #554733",
"p  c #6D4C34",
"a  c #072846",
"s  c #162E43",
"d  c #0A2F50",
"f  c #063358",
"g  c #223243",
"h  c #3A3D44",
"j  c #063B68",
"k  c #003E79",
"l  c #4B3D41",
"z  c #184E4A",
"x  c #304C4F",
"c  c #0E6943",
"v  c #327056",
"b  c #054277",
"n  c #2E5471",
"m  c #474649",
"M  c #534C4E",
"N  c #4B4D53",
"B  c #4C5458",
"V  c #525456",
"C  c #595B54",
"Z  c #52565A",
"A  c #55595D",
"S  c #5A5B5D",
"D  c #6D5350",
"F  c #626458",
"G  c #4F5660",
"H  c #555B63",
"J  c #5A5E63",
"K  c #565E69",
"L  c #5D6164",
"P  c #576369",
"I  c #5C636B",
"U  c #4B766A",
"Y  c #5B6672",
"T  c #5E6974",
"R  c #626365",
"E  c #656867",
"W  c #62656B",
"Q  c #65696D",
"!  c #6A6B6D",
"~  c #756A6D",
"^  c #636A74",
"/  c #646B74",
"(  c #6A6D73",
")  c #656E7A",
"_  c #667077",
"`  c #6E7175",
"'  c #65717D",
"]  c #6B727B",
"[  c #727375",
"{  c #73767B",
"}  c #77787D",
"|  c #7A7B7D",
" . c #941212",
".. c #A6110E",
"X. c #A41313",
"o. c #8B3007",
"O. c #993C06",
"+. c #B0320B",
"@. c #9A2E2D",
"#. c #D4180C",
"$. c #CD1313",
"%. c #D9261A",
"&. c #E4241F",
"*. c #94480D",
"=. c #B0510E",
"-. c #AC6B18",
";. c #9E5A2E",
":. c #B87030",
">. c #D07511",
",. c #E96711",
"<. c #CD5A2C",
"1. c #CB7C28",
"2. c #8C5150",
"3. c #996955",
"4. c #B0784B",
"5. c #8B746D",
"6. c #F95843",
"7. c #F46754",
"8. c #338C13",
"9. c #318A30",
"0. c #59A51F",
"q. c #4E8F37",
"w. c #3B8751",
"e. c #6AA464",
"r. c #A7A631",
"t. c #D6860C",
"y. c #E78709",
"u. c #CBB20E",
"i. c #F1AA05",
"p. c #D2852F",
"a. c #E68B28",
"s. c #E48D30",
"d. c #FFB62A",
"f. c #F5CD12",
"g. c #D8D02C",
"h. c #A78F67",
"j. c #CF8F4B",
"k. c #E1A26D",
"l. c #A6D462",
"z. c #D8C75C",
"x. c #035392",
"c. c #20689C",
"v. c #0A70B2",
"b. c #527288",
"n. c #6A7582",
"m. c #6B7886",
"M. c #727681",
"N. c #747B84",
"B. c #7C7E81",
"V. c #737E8A",
"C. c #0476C4",
"Z. c #3D8FB8",
"A. c #7D8185",
"S. c #76828D",
"D. c #7C838C",
"F. c #6B8B91",
"G. c #7B8692",
"H. c #798795",
"J. c #528EB6",
"K. c #7493AF",
"L. c #2F91C3",
"P. c #56A6D1",
"I. c #6BCCEF",
"U. c #828384",
"Y. c #82858A",
"T. c #87878C",
"R. c #8A8B8C",
"E. c #9E8682",
"W. c #848B93",
"Q. c #8A8E93",
"!. c #838E9A",
"~. c #8C9294",
"^. c #86919D",
"/. c #8B939D",
"(. c #939395",
"). c #94969B",
"_. c #97989A",
"`. c #9A9B9C",
"'. c #A89993",
"]. c #8B95A2",
"[. c #8B98A5",
"{. c #939BA4",
"}. c #9B9DA2",
"|. c #949EAA",
" X c #989FA9",
".X c #869CB1",
"XX c #98A1AA",
"oX c #9BA2AC",
"OX c #93B0AD",
"+X c #9CA5B1",
"@X c #9CA9B5",
"#X c #A3A3A5",
"$X c #A4A7AC",
"%X c #ABABAD",
"&X c #B4ADAB",
"*X c #A3ABB4",
"=X c #A9ADB4",
"-X c #A4ADB9",
";X c #A9B0B8",
":X c #ACB3BD",
">X c #B2B3B4",
",X c #B3B6BB",
"<X c #BABBBD",
"1X c #D3A193",
"2X c #F6D9AB",
"3X c #8CA7C4",
"4X c #AEB6C1",
"5X c #AEB9C6",
"6X c #B7BBC2",
"7X c #B3BBC4",
"8X c #B6BEC9",
"9X c #B9BFC9",
"0X c #C6BFC5",
"qX c #B9C1C9",
"wX c #BCC3CC",
"eX c #B1CACF",
"rX c #BEC6D1",
"tX c #BAC7D6",
"yX c #9EDAF4",
"uX c #C5C6C9",
"iX c #C1C6CD",
"pX c #CBCBCD",
"aX c #D2CCCB",
"sX c #C1C7D1",
"dX c #C4CBD4",
"fX c #C9CED5",
"gX c #C4CED9",
"hX c #C9CFD8",
"jX c #C7D1D7",
"kX c #CDD0D5",
"lX c #CDD2DA",
"zX c #D3D3D4",
"xX c #D2D6DC",
"cX c #D5D9DE",
"vX c #DADBDD",
"bX c #F0DBD8",
"nX c #FCE6CD",
"mX c #CCD9E7",
"MX c #D5DAE1",
"NX c #DADDE2",
"BX c #D2DEEC",
"VX c #DEE1E5",
"CX c #DAE3EB",
"ZX c #D7E4F1",
"AX c #E3E3E4",
"SX c #EDE8E4",
"DX c #E3E5E9",
"FX c #E6E9EC",
"GX c #EAEBED",
"HX c #F5EFE9",
"JX c #EBEEF3",
"KX c #EDF1F5",
"LX c #F3F4F5",
"PX c #F5F7FA",
"IX c #FCFCFD",
/* pixels */
",XAXFXNXNXMX@XI E %XGXIXIXPXPXPXPXIXPXpXB.J }.DXPXKXJXKXKXLXKXuXU.( %XJXIXLXvX(.E U.<XFXLXIXPXIXPX%X[ %XLXPXFXNXNXCXJXKXDX;X{ [ ,XFXFXCXmX7X",
"{.rXlXgXlXrX).Q R.zXPXPXJXAXvXVXFXLXPXvX).( %XNXNXNXcXxXxXMXNXxX#X} _.xXFXDXwXD.A.0XSXGXFXFXFXKXJX,X| }.GXPXFXMXMXlXlXMXMX9XY.( }.hXlXlXdX-X",
"G.@XqXtXtX:XD.` >XGXJXAXMXkXxXcXMXGXKXxX}.M.=XfXhXhXfXdXfXlXMXcX6XW.A.,XlXdX$X{ XXAXFXcXkXkXlXMXxX=X| ).vXDXMXcXlXdXrXrXgXsX{.( D.-XrXtX5X[.",
"' H.+X4X;X^._ A.pXGXcXkXfXdXlXlXMXDXDXiX).D.,XfXhXdXhXfXmXlXlXlXwX).{ XXrXqX^./ %XVXNXlXsXgXjXdXsX*XM.T.dXlXdXhXgXdX4X-X9XgX X( ( ].@X-X[.m.",
"P ' S.H.H.n.P Y.fXDXlXdXdXdXdXlXNXDXxX4XQ.W.9XhXhXfXhXhXlXhXdXwXqX~._ D.:X@Xm.W oXkXlXdXsXgXdXdXdXoX` N.<XhXdXdXdXdX7X-X9XdX+X( J M.V.n.^ H ",
"Z J I ^ T J A A.wXNXxXdXdXdXdXlXxXxXsX$XD.(.iXMXMXxXdXfXfXhXdX4XOX~.L Y H.G.Y I ].qXjXdXdXdXsXdXsXXX^ _ *XdXlXdXdXdXsXsXdXdX*X( V A I ^ L A ",
"| R.U.` J V V { :XxXxXfXdXsXiXdXdXiX:X!.{ }.dXMXMXhXdXdXdXrXqX7X*XG.U C E R B H G.@XeXtXdXwX,X7X,XG.L L /.sXlXjXdXdXdXgXdXsX|.^ S ( (.%X$XR.",
"<XvXzX>XU.R Z ( {.9XdXfXsX:X=X7X8X-X/.( (  XdXgXdXsXdXfXdX7X:X:XH.w.h.e.h.q.x v v F.+X5XqX7XOXXX/./ B Z | ;XrXdXsX7X7X9XdX7X/.K ( >XAXGXDXuX",
"uXJXIXGXzX#X[ W V.+X5X8X7X@X[.+X+X^.n.J W ].9XgXjXdXrXwXtXeX@X@Xw.v l.l.l.q.9.t c U F.F.[.[.^.S.^ P S V ^ Y.+X5X4X|.[.+X4XXXm.^ `.AXJXVXcXiX",
",XcXFXDXGXVX>X} ^ S.].|.XX|.[.].H.N.K Z J V.*X9XrXrXqX;X:X@XU w.l.l.l.r.9.9.0.9.c c z z x P Y H H 5.(.| J ) V.!.].H.H.H.H.H.T ] ,XDXkXiXsX4X",
"%XsXlXlXcXCXNX%X` ^ m.V.H.S.V.m.) K S M A W V.{.@X=X+X).F.e.e.q.e.l.e.0.c 9.0.0.8.w w = - x x N ! >XvX,X{ H K b.n.n.n.) ' T H B.0XzX:X=X7X;X",
"$XiXlXdXdXxXvXfXQ.J J T ^ ) ) ' [ | B.B.| ( ^ ) n.M.~ ~ C v l.l.q.w 9.9.9.9.0.0.0.8.8.e = = e N L %XNXsXR.S G K Y ^ W I J B V | <XfX4X;X:X X",
"oXwXdXdXdXdXNXlX).H V R ] B.~.#X6XaXNXVXaX>XU.J A D 0 2.j.l.g.g.r.l.r.0.y 9.w 8.8.8.8.8.w e = z x S.;X@XN.L Q h._.`._.R.[ S V ( *XdXdX9X-X{.",
"$XwXdXsXrXhXmXqXW.J Q _.uXvXAXFXFXGXLXLXLXGX0X(.R p &.&.i.f.i.i.i.i.f.u.q.q.9.y t 9.8.8.w e e e = B ' ' _ Q.<XvXFXFXSXVXpX_.R E ).wXfXdX9X*X",
"$XrXdXsXrXhXdX+XV.I N.,XNXFXFXNXxXxXNXDXNXMXDXsXW.@.&.&.d.d.#.#.#.,.d.f.g.f.g.u r r y w y y y e e - g P `.zXGXJXLXLXGXDXDXuXB.L N.-X9X9X-X].",
"`.,XqXsXdXwX-X].n.J n.+X9XiXfXfXdXhXxXMXhXdXMXNX$X2.6.7.,.,.,.7.6.6.,.,.,.i.f.u.r.w e e e y y e r e r D.zXAXvXxXvXVXNXhXhX6XU.S W V.]./.V.) ",
"D.{.:XrXsX:X^.V.Q Z I W.@XqXdXdXdXdXgXfXdXdXMXMX,X2.7.7.#.&.7.7.k.6.%.#.#.,.d.d.f.u q q q r t t t e r H.rXlXjXiXjXjXkXdXdX*X' Z Z R ^ ^ K Z ",
"~.+X7XtXrX*XG.T Z M Z ] {.qXMXhXdXdXdXdXdXsXhXlX=X2.&.&.&.&.&.&.&.%.%.#.....+.,.f.g.u.t.-.q e r t c r z B qXrXjXsXjXfXdXqX{.W V V S ! ` ( J ",
"oXqXtXrX,X/.' A V S Z J m.+X9XrXdXgXgXdX9X4X5XrX*X2.$.$.$.#.$.#.#.$.$.$.X.....<.t.i.f.t.>.*.u r r t t = v eXkXdXjXdXjXsX:XG.K S | #X<XuX,X_.",
"{.@X4X;X^./ L Q T._.R.! R N.|.4X7X9XsXsX5X|.+X5XoXD X.X.............X.X.%.X..... .>.y.y.y.t.t.q = t r e x eXxXjXsXjXdXqX|.) H U.uXSXDXDXvX6X",
"V.!.^.G./ L } %XxXNXcX>XN.R ] G.[.|.*X-X*X|.|.|./.M 1 0 <.<.<.<.+. .1 1 3 3  .....+.+.,.y.y.y.4 = t t t v eXjXkXsXrX7X|.N.K } <XGXFXxXMXlX,X",
"^ n.' P A { <XFXJXDXDXVX,X[ A I n.V.V.G.H.!.H.H.N.x . 8 j.p.p.p.+.5 < $ . 7 3  ... ...7.y.y.>.6 > r t t v OXqXqX7X*X^.n.K J _.VXGXvXfXfXdX-X",
"A K H B ! %XNXFXNXMXlXMXfX(.S V H I ^ ) n.n.m.n.I h   i p.p.4 4 :.:.6 & $ + 2 7 .. . .+.+.,.y.>.r.q e t t F.^.^.H.m.^ H V [ <XvXMXlXdXfXsX-X",
"Z J C V U.uXVXVXNXMXhXhXdX).R M V L ^ ( ^ ^ K G C x X i j.:.O ; :.:.6 : & + . @ 3  . .....=.,.a.>.*.q q r U T Y K H Z V V | <XxXfXdXsXsX9X:X",
"| _.| S D.wXxXlXlXfXdXgX9X].K Z ~ `.>X>X%X`.B.S Z m , '.k.:.O > j.:.4 8 8 & . . @ 3  .X.X... .1.y.t.-., r x Z A ( | U.! S { >XdXdXdXtX6X4X;X",
">XxX>X! N.:XgXgXgXdXgXdX7X!.K W }.MXGXLXJXSXpXR.S M '.nXk.p.-.3.p.:.6 8 8 & . . $ @ 7 3 X.X.X.$.=.+.=.4.U.L Z | >XvXkX`.E { oXqXdXdXwXwX9X:X",
",XcX,X] ] {.5XwXrXrXrXqX-XH.I { >XzXNXFXPXPXDX$XQ p j.h.:.1.t.a.a.-.6 : 8 : . X $ X . 7  . . . ...X.7.bXzXU.R (.zXDXdX{.( / !.-XtXrXqXrXrX:X",
"oXqXoX( I S.H.[.|.XX|.[.!.n.I Y.6XdXdXhXvXNXsX{.P , # O # 4 # :.p.-.O ; 9 ; X : 7 . . & @  .X.X.$.1X0XbXaXR.R | oX*X/.n.K J n.H.@X-X*X4XqX*X",
"D.{.Y.J Z I W / ^ ) b.) ) Y R ).9XdXsXfXfX9X X] Z x ; + # @ o p =.*.O ; 8 & . , : . . . + 7 3  .@.1X0X9X=X{ Z S / ) T L J S J / S.G.!.{.oX!.",
"P T I R [ A.U.U.N.] Y G G Z ( ).:X9XsX9X=X!.( J S C h ; 3.;.O + o.5 O $ 9 & + : 7 + $ . . @ @ @ @ `.4XoXH.I B Z W { U.~._._.U.` I ( n.n.] Y ",
"N V ! }.pXvXAXAXvXuX#Xh.S V ! ).*X4X4X|.M.I W N.(.R.M & 6 u o X 1 3 2 : 8 ; ; | B.M.n.n.G . $ $ $ G W G N B S | #XuXvXFXGXGXvX%X` V A H H Z ",
"V [ %XDXLXIXPXLXJXJXSXpX_.E R W.*X|.G.^ ( Q.>XzXAXvX! $   X . . X ; 0 o.8 ; , lXmXmXmXBX|.* $ . . $ & $ ; ! #XpXAXAXVXVXVXGXGXzX_.L E R.(.} ",
"W }.NXLXKXDXVXMXxXNXVXVXkX(.R ) V.n.W ] %XzXSXHXGXDX[ $   N ; H N.i 1X3.8 & h VXKXJXJXKXmX$X[ * X h x i S %XvXFXvXfXdXdXlXMXMXhX$X( Q.zXvX>X",
"M.;XMXMXxXfXlXhXfXfXhXlXzX9XB.J K J [ _.>X<XaXaXvXAXY.* . } > !.qX2.nX'.7 . 9 FXIXIXPXIXKXLX%X; & m N L #XAXDXzXdXuXsXiXwXwXdXsX$X{ Q.kXcX%X",
"N.{.-X7XwXsXdXfXdXdXdXdXhXsX}.R V E (.V , , h.h.2XPXxX}.Y. X* }.mXh.nXdX} ) G.KXIXIXPXJXE.3.2.7 7 : > | pXDXxXsXdXdXdXwX-X-XqXdX=X] { *X*XD.",
") V.!.].4XfXdXdXdXdXdXdXdXsX X( H 5.#XW N 4 p.a.k.bXPXPXZX9X$ }.SXk.2XIXBXmXmXJXPXIXIXbXp @.<.@.5 @ : { 9XxXdXwX9XwXdXwX-X*XqXdX;X{ L N.V.P ",
"J ' V.!.*X9XgXgXsX7X5X9XgX8X].( H N V <X1X;.1.a.p i DXPXCXtX$ }.LXnXHXIXJXBXgX.X3XZXZXdX8 ;.s.p.:.p V ( XX7X9X4X+X4XsXdXiXsXdXsX*X` Z J H B ",
"V H n.V.[.4X9XrX7XoX{.5XrX4X^.^ J m : h.j.=.O.O.< & aXHXfX;X$  XIXIXIXIXPXFXtXK.J.tXtX4Xl :.s.s.p.p F Q G.|.+X+XoX4XsXdXdXdXrX7X/.I V J W E ",
"R W ^ ^ m.!.|.*X@X|.[.+X-X{.V.K G h : -.>.o.< < + & h.k.3.D + }.IXIXIXIXIXPXZXtX3XN h h ; ;.s.a.p.p D P ] G.H.[.:XrXsXwXwX4XoXW./ W | #X,X#X",
"_.>X).` Y n.m.V.H.^.^.H.V.n.Y V M h ; ;.*.5 @ + + @ :.p.+.3 o }.IXIXIXIXIXIXPXBX3Xh * . & :.s.a.p.p i B I / N.!.+X:X:X*X{.G.' I ] }.aXGXSXpX",
"<XAXNXuXR.W I ^ ' n.) T T I R R L Z V 2 2 O 6 0 0 o.o.O.o.3 o ).IXIXLXDXMXFXKXCXBXtX]   ; :.s.a.1.4 9 J R W W ^ ' N.N.n.T I ) Q.<XAXGXAXxX<X",
">XkXVXDXfX_.W Z A J I } Y._.}.#X}.R.E , > : 0 @.3 5 5 5 o.0 p ,XIXIXLXFXZXCXFXZXlX-X{ , i 4.s.a.1.< l `.}.(.Y.M.Q J H Z H { #XvXLXGXvXfXsX:X",
"$XsXhXxXVXpXT.V Z [ #XaXAXDXSXDXSXvX,X{ V M ~ h.8 @ @ @ @ 8 SXLXIXIXIXIXPXZXmXmXOX* D k.k.s.s.,.-.< J NXvXkXdX0X%XU.R V ` >XAXFXDXNXfXdXsX4X",
" XwXhXdXlXzXXXR ~ >XGXPXPXGXFXGXKXPXSX,X[ W %XhXQ.{ { { ( B.>X,X>X>X,XFXKXJXBXmXXXX p 2Xk.s.a.>.=.< D VXNXhXlXMXNXiXR.R R.vXDXvXfXxXfXgXsX4X",
"W.:XdXdXdXwX/.` `.AXLXJXVXxXhXxXNXGXGXiXR.A.pXDXNXMXxXhXlXeX> - * * > 8XBXPXKXmX|.* p p.j.-.>.=.o.< S cXxXhXdXhXMXdX{.~ #XvXcXkXdXdXiXqXrX:X",
"V.|.7XeXwX-XS.} 0XJXSXzXlXhXhXxXMXDXVX6XQ.Q.uXlXhXlXxXdXK.K.F.F.n x g m.F.G.$XmXeX' D 6 *.o.o.5 5 2._.kXhXhXhXhXhXsX/.M.>XzXkXdXdXdX6X=X4X-X",
"T S.^.+XXXH.^ U.zXDXlXfXdXfXfXlXVXFXMX;XY.Q.wXlXhXdXsXNXZ.L.yXyXZ.v.x.d %   N mXBXBXN.o o O + @ : &XpXdXdXlXMXhXhX6XY.e.,XlXdXdXdXsX8X4X4X:X",
"A Y ' V.V./ H A.iXNXlXsXdXfXhXlXNXMXsX}.N.).dXMXmXtXK.P.yXyXP.P.L.C.v.j d s g K K Y x . ; Q } e.D.6XsXdXhXxXNXxXdX*Xm.| <XlXkXdXdXdXdXdXsX:X",
"V H L P P B B } ,XMXlXhXdXsXiXdXgXqX-XD.]  XgXhXgXyXv.P.ZXyXc.C.C.v.x.k j f %   .   $   , ).=XwXuXsXdXdXdXdXdXdXiX X) B.,XMXlXdXdXdXdXgXsX4X",
"U._.(.| ^ A Z ^ {.9XdXdXsX4X*X4X5X.XG.^ ( }.tX8XJ.J.I.yXZ.c.x.x.k k k j a % $ $ . $ . $ * B I ^ ^ ' H.qXsXsX6X:X:XW.J ( $XfXlXdX9X8X9XdXsX4X",
"<XAXFXzX%X5.R I G.XX4X4X4X$X X X[.h.h.3.~ Y.S.F.P.P.I.P.v.x.k j j b n n s > ; $ $ . $ . $ $ $ $ $ s n b.G.4X*X{.W.^ G L W.4XdX9X4XoX4XrXwX*X",
"<XFXJXGXDXpX_.( ^ S.!.[.[.{.!.Y.h.j.j.j.p I s n I.I.L.v.x.k a - x n..X.X) K L $ $ $ $ $ $ $ $ $ * s d % , D.V.n.Y H V Z ( /.-X5X*X|.|.5X-X].",
"%XkXxXzXVXFXzX}.^ T n.V.V.V.K > 3.z.k.p.6 g n c.Z.L.C.C.x.j s > N H Q ^ Y.>X>X; * a - s s s s s d d f % $ , l J ( | | [ W ^ V.!.[..X].H.H.n.",
"oXrXjXkXlXcXVXpXY.H K ^ ^ T N $ D j.k.p.6 - x.v.v.v.C.C.x.j n } [ S V } <XAXuXB b.b.n d f f f f f f d % & + 8 (.0XzXvXuX(.[ W n.V.V.V.V.b.Y ",
"%XrXdXjXsXdXMXlX(.J Z ( W.).^ ; 8 O.>.p.*.i - a j b v.C.x.j H.aX,X{ S _.zXxXdX9XlXmX-Xg - f f f f % % : 7 @ M aXGXPXGXNXfX$X{ K Y T T Y K B ",
"*XrXdXsXsXdXcXwX~.L ! $XzXSX6XU.i 5 *.-.*.*.8 : % d x.x.k j K.GXpXY.~ #XkXfXdXlXMXmX8XY x x d a a > : 2 2 @ 9 aXSXGXDXxXxXfX}.! V B H W Q J ",
"*XsXdXsXsXhXdX-XV.L M.=XxXcXcXkXD @ 1 o.O.O.0 6 + % f f f f H.kX:X} Q  XfXfXhXhXlXfXdX*XM.M.Y - $ 8 7 2 @ 9 U.0XlXNXxXfXfXhXwXR.C J R.>X>XR.",
" X9XdXsXdXsX4X].n.J ( }.7X7X9XuXK . O < < < o.o.3 9 % % % a H.4X{.^ I }.sXfXdXhXdXdXdX;XV.h.&X`.2.0 o.< + D 0XfXlXlXfXdXdX9XiX XQ A.aXJXAX,X",
"Q.*X7XsXsX4X].V.W Z J V.$X9XdXdX!.~ ~ W : + 5 o.5 3 @ $ G K W.].M.H J /.9XsXsXdXdXiX7XoXU.j.1Xk.j.5 3 < 9 %XsXdXhXdXsXsXsX6X4X X] A.0XcXpX$X",
"B.{.4XsXsX*XH.^ G N V ^ !.7XlXkXsXsXrX9XQ 9 2 < 1 2 : h V.H.V.' K B Z B.-X-X4XsXdX9X*X/.R *.*.=.*.6 1 @ 9 ,XfXdXdXdXiX9XwX9X4X|.] I T.*XoXG.",
"{.:X8XwX7X].` H Z C S H ( ].4XiXsXsXdXsX4XB.9 8 @ : M S Q I P K J Z V Q !.|.+X4X4X-X{.M.m 5 o.o.5 < 2 : M =XsXdXgXtX4X+X:X8X-X^.n.H I ' ) Y ",
"{.$X*X;X].) J R U._._.| K ^ W. X4X4X8X9X4X X_.Y.: ; N V L [ Y.~._.R.[ R ^ M.G.G.D.N./ W m < < < < o : ! W.=X4X7X8X7X;XXX$XoX[.V.^ B B H K Z ",
"D.^.^.G.^ J [ %XzXSXAXiXQ.R K N.V.!./.].].].].G.B m Z [ `.pXvXDXSXNXuX_.( J K I K ^ A._.R.~ ~ ~ R M M L ' G.H.].!.].].].!.H.V.m.P ^ 5.(.~.| ",
"T V.m.Y A [ >XAXFXAXDXAX0XM.Z H Y n.n.m.V.V.V.V.' W { >XAXGXGXSXDXFXGXzX_.L N Z } %XaXvXvXvXvXAXvXfX%X| I Y T T n.n.n.m.m.m.T Y n.%XxXAXzX,X",
"H P H N ! %XNXGXVXxXxXxXlX).J M G H I ^ ^ T T T H W #XAXDXvXkXfXfXfXNXAX0XB.Z R #XVXAXzXkXfXdXfXkXNXNX%X[ Z V G I I I I K H Z ( %XAXGXAXvX9X",
"Z H Z Z U.0XVXVXNXxXhXhXfX}.J Z ! T.(./.Q.B.' H Z ( ,XcXkXdXsXsXhXhXxXlXiX}.~ W $XxXxXdXsXwXiXsXdXlXMXfX`.J Z ( Q.`.~.Y.Q B V U.zXFXcXfXfX,X",
"e.Q.~ S Q.sXlXlXhXdXdXhXsX).J ~ %XvXDXGXAXcX<XU.R ( %XdXdXdXfXkXhXhXdX9X;X{.) L {.iXdXuX7X4X8XdXdXfXfXfX=X( E #XvXGXFXvX%X( S R.fXcXfXdXdX,X",
"=XaX}.L T.9XhXhXdXsXhXdX7XG.J B.<XNXDXLXLXLXSX<X} Q {.7XsXdXdXdXhXhXsX-X/.G.) J Q.7XdXsX4X*X4XdXdXfXhXsX X( [ %XzXDXGXLXzXR.L | <XfXfXgXdX:X",
"=X9X).J N.-X9XsXsXsXsX9X*XV.J M.=XdXfXlXvXNXNX0XU.I S.|.:XrXsXdXtXdXrX-X^.S.^ H N.*X9XwX9X7XqXgXdXsXsX-XY.Y { oX4X7XiXdX9X~.K ` oXtXsXgXrX-X",
"/.{.M.H n./.-X5X4X4X-X+X^.n.J (  X9XwXwX9X0X9X*X| J ] G.XX7XqXqX8X5X4X|.].S.T Z ] !.+X:X7X8XqXrX9X8X;X^.n.K ( /.+X+X*X*X XV.J ( !.@X8XrX8X{."
};
