/* XPM */
static char *wall_701704799079[] = {
/* columns rows colors chars-per-pixel */
"70 70 256 2 ",
"   c #003E16",
".  c #01451B",
"X  c #044A1D",
"o  c #094D1E",
"O  c #05521F",
"+  c #0D511E",
"@  c #13571E",
"#  c #054E20",
"$  c #0A4D20",
"%  c #065322",
"&  c #0B5322",
"*  c #0B5B25",
"=  c #0B5C27",
"-  c #125623",
";  c #145C24",
":  c #1A5D25",
">  c #155D28",
",  c #245D27",
"<  c #0A6325",
"1  c #0D642B",
"2  c #0E6B2D",
"3  c #156226",
"4  c #1B6325",
"5  c #1D6A26",
"6  c #14642A",
"7  c #1B6529",
"8  c #136B2D",
"9  c #1B6B2C",
"0  c #15732D",
"q  c #1D722D",
"w  c #156D31",
"e  c #0E7230",
"r  c #147433",
"t  c #1C7432",
"y  c #157A35",
"u  c #1C7B35",
"i  c #187738",
"p  c #157B39",
"a  c #1B7E39",
"s  c #246728",
"d  c #246C2B",
"f  c #2B6C2C",
"g  c #376A2D",
"h  c #24732D",
"j  c #2B742C",
"k  c #24792D",
"l  c #2B7A2E",
"z  c #34772E",
"x  c #347B2D",
"c  c #2A6B31",
"v  c #247432",
"b  c #2B7432",
"n  c #247C33",
"m  c #2B7C33",
"M  c #277E39",
"N  c #337D33",
"B  c #357835",
"V  c #3A7E33",
"C  c #437735",
"Z  c #1C823B",
"A  c #1C873A",
"S  c #1C913F",
"D  c #3D832F",
"F  c #258136",
"G  c #2C8235",
"H  c #298837",
"J  c #24823A",
"K  c #2B8339",
"L  c #248B3D",
"P  c #2D8B3C",
"I  c #348335",
"U  c #3B8434",
"Y  c #378A36",
"T  c #33843A",
"R  c #3B8539",
"E  c #338C3B",
"W  c #3C8B3B",
"Q  c #2C943E",
"!  c #34943D",
"~  c #3B933C",
"^  c #39983C",
"/  c #3EA23D",
"(  c #438737",
")  c #448A3A",
"_  c #43933C",
"`  c #45993E",
"'  c #54943E",
"]  c #48A23F",
"[  c #1C8D42",
"{  c #1C9844",
"}  c #248C42",
"|  c #3A8C42",
" . c #259443",
".. c #2C9442",
"X. c #239B45",
"o. c #2C9A45",
"O. c #279D4A",
"+. c #349442",
"@. c #339C43",
"#. c #3B9B42",
"$. c #399846",
"%. c #1EA449",
"&. c #24A44B",
"*. c #2BA64B",
"=. c #34A346",
"-. c #3CA344",
";. c #33A44A",
":. c #3BA34A",
">. c #37AB49",
",. c #3CAC4C",
"<. c #39B24C",
"1. c #29AC51",
"2. c #38AC50",
"3. c #2DB453",
"4. c #29B957",
"5. c #34B453",
"6. c #38BB56",
"7. c #4E8B41",
"8. c #449342",
"9. c #439C43",
"0. c #4B9B42",
"q. c #4A9846",
"w. c #569944",
"e. c #679B48",
"r. c #44A344",
"t. c #4CA343",
"y. c #48AA46",
"u. c #44A54A",
"i. c #44AC4B",
"p. c #4BAC4B",
"a. c #56A849",
"s. c #49B647",
"d. c #44B34B",
"f. c #4BB44B",
"g. c #4DBB4D",
"h. c #54B34C",
"j. c #59B64B",
"k. c #53BC4D",
"l. c #45AA51",
"z. c #55AD52",
"x. c #44B552",
"c. c #43BC54",
"v. c #4BBC53",
"b. c #49B955",
"n. c #52BD51",
"m. c #58B851",
"M. c #68A74C",
"N. c #6BAC50",
"B. c #67B855",
"V. c #77B854",
"C. c #2CC55D",
"Z. c #33C45C",
"A. c #3AC559",
"S. c #3BC45B",
"D. c #3AD15D",
"F. c #2DCB61",
"G. c #33CB61",
"H. c #3ACB61",
"J. c #2CD666",
"K. c #33D365",
"L. c #3BD362",
"P. c #38DA65",
"I. c #33DC6A",
"U. c #3BDC6A",
"Y. c #2EE16B",
"T. c #37E56A",
"R. c #34E36C",
"E. c #3BE46C",
"W. c #3CEA6D",
"Q. c #3DF06B",
"!. c #3BE970",
"~. c #4BC24E",
"^. c #58C44D",
"/. c #43C255",
"(. c #4CC354",
"). c #49C957",
"_. c #43C359",
"`. c #4CCC5B",
"'. c #54C454",
"]. c #58C857",
"[. c #5CCB54",
"{. c #53CC5B",
"}. c #44D35E",
"|. c #4DD45D",
" X c #4CDA5F",
".X c #5BD455",
"XX c #54D45D",
"oX c #5CD45C",
"OX c #54DA5E",
"+X c #5BDB5C",
"@X c #63C958",
"#X c #74C75A",
"$X c #64D356",
"%X c #64D45C",
"&X c #65DB5B",
"*X c #6ADB59",
"=X c #59E25F",
"-X c #67E45D",
";X c #73EF5E",
":X c #46CC61",
">X c #5ECD60",
",X c #44D765",
"<X c #4BD461",
"1X c #45DB64",
"2X c #4CDB63",
"3X c #57D562",
"4X c #54DC63",
"5X c #5BDC63",
"6X c #6DCE61",
"7X c #64DC62",
"8X c #68D962",
"9X c #76DA65",
"0X c #4AE467",
"qX c #43E46B",
"wX c #44EB6D",
"eX c #4BEC6D",
"rX c #55E365",
"tX c #5BE464",
"yX c #53EA66",
"uX c #5DEA65",
"iX c #54E56A",
"pX c #5CE56A",
"aX c #53EB6B",
"sX c #5BEC6B",
"dX c #4AF16E",
"fX c #54F36D",
"gX c #5BF36C",
"hX c #5BF869",
"jX c #44EA71",
"kX c #43ED72",
"lX c #58EC70",
"zX c #4CF373",
"xX c #53F371",
"cX c #5BF671",
"vX c #64E463",
"bX c #6BE464",
"nX c #63EC65",
"mX c #6BEC63",
"MX c #63EC6B",
"NX c #69E96A",
"BX c #72E867",
"VX c #6CF365",
"CX c #64F46B",
"ZX c #64F76B",
"AX c #6BF46B",
"SX c #6CFA6C",
"DX c #73F365",
"FX c #73F36B",
"GX c #73FA6B",
"HX c #7AF868",
"JX c #73EA71",
"KX c #68F772",
"LX c #74F972",
"PX c #85BE5D",
"IX c #88CD5F",
"UX c #87F26F",
/* pixels */
". . X % 7 s j x ( ) T @.Z.jXxXKXHXHX-Xj._ :.P.R.KXbXv.3.R.fXvXs.* 2 y Z Z G G N G m n h ` $XHXxXK.1.=.HXfXwXJ.&.>.-XAXaXJ.y d z R T 9 % . . ",
". . % 9 K w 9 v M N P 5.1XcXLXHXBXoXd.! +.5.U.kXAX%X-.[ J.fXVX[.F u F G l m I G G n k n U h.DXhXwXZ.<.DXfXT.6.=..XmXgXP.1.G N T T a = # . . ",
"X # 6 P ,.a r a L +.2.XXMXmXbX*Xm.+.i t  .C.!.lXNXm.N y J.eXAX*Xr.I I N k t H #.-.+.J F P r.].mXeXL._.HXfXD._.~.mXhXE.C.P U V T M r % . . . ",
"* 1 a 2.4Xo.Z J o.x.{.3X[.k.z.j.8.7 # = X.F.kXCXvX9.s d 4.eXSX-X` V x l t u K u.]._.<.&.O.@./ *XyXE.}.HXyX}.`.-XhXqXZ.*.N U T M y 2 % . X X ",
"i a L :.pXl.! W r.j.a.! n M ) ].m.B . # { K.xXHX.XW , c } ,XZX%XN & O 5 n L T | g.VXgXwXI.G.X.^.-XyX2XUXsX}..XhXkXC.Q l U N u r e % X X % = ",
"W Y ~ h.LX2X>.I z d q n M Y y.{.l.c g > &.1XZXDXf.h , g | c.3X^.4 @ 3 8 J R R R #.g.mXZXfXqXK.L.uXZXiXFXpXtXrXD.4.A F W 0.#.Q Z 1 - d 9 d B ",
"z z U h.UXfXD.X.4 & 8 t G _ *XXX$.> g B 5.iXAX@X^ n j C B :.b.n.d d q u T ) ( R Y ~ m.$XvXCXfXqXyXsXnXvXNXpX2XS.3./ g.$X%X8X{.<.L m d 4 6 v ",
": ; s ` ;XZXqX4.y < 0 F _ h.VX2X .- , V b.lX8X^ T T N V V +.l.m.P G H K ) U I U I G ` t.[.8XvXsXaXpXMXvXbX7X2X(.~.=XNXAXAXAXvX).2.9.6 o o + ",
". . + l &XDXeXJ.4.y J T t.*XVXwX&.% . m ].5Xy.u K m l 5 l P ` t.>. .J W 7.w 8 d j N V D ) 0.h.oXMXMX5XJXbXvXpXsXfXxXzXE.E.K.3.Q m W 6 X . . ",
". . + l .X;XfXT.J.O.T W h.-XZXwX%.O . E v.b.E I b v n m G G Y ~ '._.} s s o . X $ 7 3 s I :.6.:XiXsX8XIXBXsXrX<XK.D.G.6.1.@.H V V T 9 = X . ",
". @ d Y ^.;XZXwXJ.6.T W g.GXfXW.%.* * r.p._ m d 9 q F W u.<.A.A.XX2Xx.W c < 3 < & + @ t ;.<XiXrX3X'.m.#X#X<X0XNX3Xc.:.@.E E I R _ p.n 1 X . ",
"- j I Y y.DXSXaXR.H.M K ~.GXwXT.&.9 q 8.U b d * 2 n Y W i.`.|.}.}.0X7XB.t.Q ..F 6 o 9 Q /.OX4X{.,.$.8.N.a.x.:XsXCX].r.E n M n G _ n.2.M = # ",
"G W R F A .XVXgXE.J.p H [.GXW.I.1.m m x s ; & = a K I G P ] f.<.S.}.JXUXJX4X_.+.9 & J :.,.i.;.} Z y K B.w.8.;.S.iXuX(.Q r r 8 9 I h.{.6.} y ",
"D.5...y < / -XAXwXR.{ / $XLXkXH.O.t - - 3 q G ! #.8.D G Z P =.6.1X5XiXlXpXpX@.9 = r p a a Z a M J K _ V.a.W M b q.d./.i.8 % O 4 I I '.vXiXK.",
"W.K.C.&.< q [.GXxXR.&.s.-XxX!.S.o.t u ` ^..X).;.+.W I G L 5.}. X{.2XaXlXsX2X3Xd.H K G G G N 7.R I l m V.a.W 9 & N ` ` ! u = o ; N F @.[.mXCX",
"gXeXE.F.%.r y.mXZXW.1.(.vXdXI.x.r.=.s.&XVXuX:X .I U U ! 1.<X4X{._.4XaXaXpX6.2XXXf.W U U U R V b s 4 9 a.a.R ; . s 8.t.E H M 3 3 l F J 9.@XFX",
"DXAXfXwXI.%.=.[.GXkX3.XXAXeXZ.p.j..XCXSXlXL.O.a I ) 8.:.6.XXn.i.S.pX X X0X/ *.x.f.U z b b c c - o % r +.` z - . - u.v.-.+.:.F 9 l Z 0 m t.oX",
"&XDXGXSXkXJ.Z.`.DXcXS.OXZX1X>.j.8XGXKX!.J.&.t K U R $.l.! K | ,.wXXX=.3.0Xy.5 8 v 4 o X $ # #   o 7 M G z 4 .     Y ).1Xd.A.S t m a t b W ~ ",
"H r.$XHXLXeXE.}.OXSX<X4XiX4.k.-XVXaX!.K.{ r 6 G Y T J A y u ..c.fXf.h A D.f.3 + - > . . . . . > E $.J Y I H L S A L >.|.<XH. .E q.a m I K a ",
"h I t.[.-XmXgX0X2XmX3X5X4XS.7XsXeXE.K.&.2 ; h U W K p y 1 0 } _.tX#.3 8 3.s.; . - 7 $ #   # - 9.:.$.N N d F >./.S.6./.3X7X{.9.8.W u T m v 0 ",
"! @.;.<.`.-XVXsXiXtXXX5X=XXXuX0XP.H.5.y @ 3 I ( T J p r O < A x.s.#.4 ; P y.7 o - d 3 O . - W >Xx.E V 9 & ; G s.`.2X4X5XNX6Xz.q.G n T m k n ",
"H.L.K.K.K.U.2XMXVX5X8XBXBXMX1X}./.x.u.H 8 d D D J a y 1 X O F ^ l j.G 3 l 9.h ; ; s n 1 > m *X4X=.I U 8 # . % u 2.}.0XsXMXbX'.$.G K T E ~ u.",
"aXaXaXdXwXW.wXeXpXNXUXUXBX2XsXsXyXsXsX-X].h.` G Z p e O . + 5 I D .Xf.! N n < X o 3 I n ! '.GX}.! N I y & < &.D.0XXXOX4XsXuX3X(.p.7.z.>X5XlX",
"SXKXZX=XuXuXtX=XMX5XBX9XB.;.3.G.U.0X0X<Xn.t._ a Z r < O + 4 z U ) +X).o.9 * O X X - V Y g.-XZXD.o.l Y y J >.).OX<.>.S.4X4X4X>.! 0.( 0.'.vXAX",
"8X7X.X[.k.y.d.`.yXrX].B.a.| A X.<.6.1.*.#._ E p e 2 > > d V U Y ) .X2X3.y o . . . & V a.*XDXfXK.o.N G Z J Q / ^ k *.6.`.6.3X! d V v T #.f.(.",
"9.:.9._ N 9 J 3.T.-Xp.w.M.a.a v N T y 5 V I n y e 8 s N ( U I G P .XnX1X{ % . . . X B @XUXGXwXP.*.I G p < X . o 9 5./.-. .{._ s , = v u r y ",
"p a J K R $.S.qXnXp.W ( M.PX| G G I y k I I y 2 9 N U ( I H u y L *XVXeXF.Z % . . o ! *XHXZXR.I.o.m G p O O + f r.oX,.8 w n.q., $ % v n q 2 ",
"* 1 8 r J S.aXuX'.4 : d ) N.B.E n I 0 x I n 8 h N U I G M Z a y u *XAXfXR.1.2 o % ; ~.-XVXhXY.C.Q m T y < @ d U -.E d & % 8.C , $ 7 y n l 3 ",
"X O = w } 2X5Xg.m X X - j ' V.t.Y m n V m n j V U G F a y r 8 1 > $XFXZXW.F. .w 8 H &X;XCXwXI.C.L m T w ; d I E +.T T v & c , > 3 P w t m s ",
"& 3 7 t $.].p.m O X % % ; h ' a.) G N T m m N T n u y r w 1 % X $ '.HXLX!.I.5.} G -.;XHXgXR.Y.4.L m | 2 h D ` -.-.9.p.9.6 - o > G *.1 6 q d ",
"T l.9.| | b = # * 1 2 w w 1 h l I T ) B N T M i w 2 8 = X X . . X r.BXGXwXR.Z.#._ h.mXGXgXR.Y.1.J m b 9 ) j.$XDXAXb.~ N v 1 X h d.%.* X * 5 ",
"8Xb.J $ $ $ : v m K J P @.O.Z n m T p.$.T m N v b E H - + o X . . n %XLXxXY.J.o.I [.HXZXeXR.Y.=.G T | y.$XBXDXsX:Xu 3 s Y n 8 Q  X6.2 X @ G ",
"cX2.8 . . X & 7 j m m m #.`.S.5...7.@Xc.+.M | B U r.f.$.F n d 3 + 4 g.DXZXT.I.*._ *XHXgXwXR.Z.+.T ] [.*XFXSXgXE.@.w ; j 9.K M ;.rXU.a - m ~.",
"wX{ %   . . X o - : 4 4 m n.sX1X_.l.@X:X:.N | q.I #.].5XA.<.=.! j 7 / &XVXkXR.3.y.*XHX0XR.I.1.E r.[.HXHXKXxXE.4.M 7 > K '.#.| ,.iXkX} J p.nX",
"C.p & . . . X . . . . . O I 8XCXiX,Xn.4X6.| 8.N.Z L b.GXhXwXP.A.,.I Y ^.GXaXR.4.f.-XSXR.J.L.o.#..X;XHXZXdXW.F.[ = # $ | vXS.$.l.iXkX&.i.5XaX",
"{ e % & 4 d 7 & X . .   X - M l.oXpXD.2Xc.z.N.b n Z +..XDXhXwXT.E.S.i.^.FXCXE.G.{.HXAXjXK.6.0.oXDXGXhXQ.W.C.a $ #   # v %XaX_._.uXU.c.XXhXW.",
";./ -.s.x.| m 9 * . & 2 a  .&.2.b.3X2X7XoXz.q.m m n u +.*XDXZXdXT.T.Z._.BXLXqXL.XXHXxXI.3.-.%XDXZXeXkX!.L.} * . . . . ; t.sX2X1XtXD.3XrX0XS.",
"{.|.XX`.,.b c N K u  .5.S.,X,X:X:X3X3X7X9X@Xp.9.W m w 4 r.$X;XSXfXQ.I.H.5XHXeX:X3XHXE.6.>.^.VXZXeX!.I.G.:.v & = * % o + v n.2X0XyXP.rX2X}.(.",
"sXeXD.&.8 + , ) u.c.2XiXsXsXCXNXvX+X+X%XNXNX4X{.k.#.w # @ ^ @XDXHXfX!.U.2XFXaX<X3XAXK.,.[.DXZXkXI.J.4.X.M t r r w 2 8 8 6 #.`.uXrXyXrX<X`.+X",
"G.%.y % o g C C q.z.g.n.m.n.d.c.:X2XtXrXMXsX<X:XiX3X$.1 X + z '.mXSXgXW.E.tXnXrX4XnXA.%XFXcXR.I.F.2.| m J a a a p Z o.6.).4.<X5X5X.XvXtX0XeX",
"..w ; , g , @ , m W P n G #.C.D.iXvXOXsXgXpXXXL @.-.+.u = o % 9 Y k.-XZXfXeXMX5X3X4X3XpX1XG.1.[ a k I W W Y I G H K E -.s.).`.{.].8XvX+X`.~.",
"v.#.V z z : $ o ; x n u S 3.D.0XvX5X|.nX2X2X5XP n I E Z e & . X = Y n.-XtXcX5X3X>X8X7X<X_.c.x.-.^ ] t.j.j.a.] _ R I Y W ^ y.u.z.m..XOX4XOX|.",
"vXoXh.W v 9 6 = * h m ..3.R.aXvX].v.E.tXA.S.sXp.I N T M p < = 2 y L ,.{.+XCX3X>X9X9X>X`.XX%X%X&X&X-XbX-X-X*X$Xj.t._ ( V V V R 7.a.d. X X2X0X",
"C.}.(.r.N T G u y 6 G 6.wXZXDX'.=.3.zX+X! &.aX%X_ ( R P Z Z { 4.I.I.I.I.P.iX7XUXUXUXmXAXLXLXGXGXSXZXSXSXSXGXSXnX-Xj.Y j d s ) w.) o.|.{.c.6.",
"E E W Y v 4 f G G n *.<XVX-Xs.P  .C.hX'.n y A.bX8.U ) 8.g.XX=XfXhXfXfXgXnXoXn.N.#X8XVX|.D.U.R.W.Q.T.W.T.R.W.T.qX<.r.~ M 8 6 W | t A S.|.f.m ",
"T K G G T 7 4 4 h +.c.v.f.] I m *.K.ZXp.5 = } v.m z ( 8.u.c..X-X-X%X].v.<.o.E w.a...0XOXXX<XZ.G.K.J.F.J.F.4.%. .u n L J r y K P F G ^ >.-.x ",
"T N G P t.l 5 3 t $.i.#.Y N b v o.1XMX+.; # 6 J * 4 U ( } ..#.i.y.t._ P Z y t q.w.w S.yXnXvXg.=.{ S { S [ p w r 0 e p Z Z J K | ` I n P E m ",
"} N E =.~.~ I n M T m m m z f 6 } `.8XJ = % o & X @ j U M u 8 = s V R J y 2 v w.w.c ,.T.fXZX-X^ 3 . . . # = r Z p a a J K T Y 8.h.H y G I k ",
"M q.].XX%.Z G Y U d 9 h v ; : f $.b.q.I u r 8 % X $ 7 U I Z r 8 j U G Z p < ' M.w.V W 6.qXdXVX&XY + X * 2 y a p Z K T W ( D x / OX3.L m l 0 ",
"$.@XvX<XS r k G N @ 6 h 9 + o f T T f V G F y r 8 & @ x I M y 9 j U J p 0 O e.N.' R P  .&.Z.wXZXs.n * 2 y Z H G R Y U D V s 5 ^ =XL.:.I k y ",
"^.mXgXS.e * 1 q h ; 9 9 ; . o b b 3 + j U I H a p 8 9 j U G u t z Y J r 2 @ V.M.W K Z y Z S X./.(.#.r n G I Y D ( V x j 4 * 3 #.=XW.>.H t Z ",
"HXSX0X4.* . X O 3 9 7 - $ . : W Y * . 4 x U Y M F L F q U T u v V G u 0 5 l V.M.J a 0 y u 9 * Z ,.i.E G U ( D D x N f ; X % t ,.CXfX5.y q o.",
"UXZXP.%.O X . . $ - X . . $ d a.~.Q % X : z ( Y E y.>.y U T n n ( J r h V ( V.p.L J 8 ! i.=.4 d Y ) ) ( ( z j 5 : v d O . 1 a l.AXKXZ.Z t ].",
"GXdXC.&.0 * X X & 3 ; % . & V ` g.|.3.{ y 9 d x W ^.`.[ n N J n ( n M V R J P o.o.Q P ).>.8 4 f l j s : @ @ + o . 7 E =.e y a i.mXZXL.S H %X",
"hXT.6.^ E P G Y $.$.G > X @ ( U y.+XhXD.4.{ 0 4 D ^.=X1.Z N T T R m B T K i 2 J *.c.(.:X<.H -.d.-.H 7 X O X . . . + ! XX6.1. .r.$XnXK.&.#.mX",
"Q.D.<.` h.].(.{.{.:.G - X 4 ( I ~ ~.HXcXwXZ.{ - 5 f.yXD.L K T V m N T M i 9 3 v $.5XpX1X/.6. X).=.m ; . . . . X . . k .XhX,X5.i.^.nXT.5.b.GX",
"J.6.p.@XDXGXZX1X&.& . . $ j ) R J @.8XDXZXkXI.%.0 <.sXU.$.T V C j R M n b z z U p.8XsXpX0X1X6.Z &   . . . X . . . . ; / HXcXqX:Xg.gXqX<X3XSX",
"Z.'.*XFXKXxXE.3.Z = # . & j ) R K a #.%XFXKXjXI.5.`.yXU.o.T V 7.V.w.W T I W ) w.#XUXJXMXOX'.j.8.b + . . . . . X & X % J %XAXcX1X XCX0XrXvXzX",
".XvXCXcXkXL.5. .p 2 % . o x ) 7.K i t ^ '.bXgXkXP.2XiXqX..b C N.V.7.T n n J ..x.3XFXMX4X|.2X4X+Xn.W 9 $ . # & ; s o % t r.@XMXaX0XvX4XpXpX<X",
"tXyX1XS.4.;.| K p y 1 % ; K $.$.O.[ a H 9.n.&XnXaXrX3X,XK B e.e.8.M m n t r o.6.<XMX<X2X}.S.S.`.(.u.m # . > k l d & = u W 9.k.OX0XvX{.>X5X2X",
"2XS.1.S n x U E } [ Z u A 2.S.G.C.4.3.&.X.@.f.-XMXpX3X}.c ' e.7.. 2 M N b h $.2.c.lX5.2X<X;.p a Z M v $ o m ~ Y t & 8 | 9.P o./.=X=X[.oX3XvX",
"v.p.~ G I Y ` f.b.5.Z.H.L.E.!.U.Y.Y.T.R.J.F.Z.:X5XNX-XB.N.' C g . % t H T R b t ;.MXu.5.2X3Xc o . . . . 9 #.y.I w v $.{.4X1XP.}.|.{.9X9XoX'.",
"OXOX+X+X%X&X[.h.z.g.XXBXLXLXKXKXhXhXhXfXhXfXyXrXpX5X8XIXB.q.C g   . = v T T m v +.5X0.@.5._.+.$   . . X r.{.(.W a c m @.f.c.g.(.n.p.N.].3X2X",
"}.0XwXeXsXvX+X'.j.t.f.'.>X9XBXBX;X=X.X+X+X+XOX2XrX5X6X6X[.'.n.0.9 % O 3 m K M m | g.~ :.;.2.:.> $ . X - ].pX<Xq.J 9 ; 3 k n k m | a.a.n.2XpX",
"S.C.C.C.Z.S.S.<.h.Y H L +.r.j.'.^.f.r.f.v.c.).2XiX5X3X3XtXrXpX5Xf.H > + 5 I J K T ~ T m.x.O.:.7 # . $ m $XfX1Xl.L 8 $ .     . o : e.w.f.<XsX",
"=X=.Z p e < * 5 D ) K u y d I Z y y Z C.P.W.eXKX7X5XsXcXvX|.1XxXKXNX$.- % j G K G I G m.3X6.[ w # . - u.BXdXK.u.J 0 % . #   - 3 ; f V ~ S.wX",
"hX(.+.p y y r 0 v V U G r 9 N } 1.6.P.I.wXxXVX&XS. XfXrXiXXX`.S.qXsX5Xi.t 3 h G K G h h.bX4X&.[ w # 6 ].FXeXF.$.J 8 % . & m $.| B e.d d ! S.",
"/.n.u.T K Z u r t j D I G t ! 3.F.R.!.xXZXmX+X(.L.aXZX0XeXvXg.! >.6.{.].#.v v m G m d 0.%XCXP.1.Z w M 8XFXxXK.;.u y 9 l p.v.@.v g e.: : j Y ",
"P #.q.) R K J M p t n I E O.6.K.R.kXcXAXBX.Xx.H.!.MXbXP.wXZXg.k 7 n +.u.u.M v m N N s C ].GXdXL.&.a E bXAXxXK.O.Z H ^ k.NX<XZ & : V s : : 4 ",
"- d N ( ) ( Y K J p r m #.Z.Y.!.kXCXHXHX[.r. .R.zXtX{.6.wXZX].k . o - 7 m M m m N C f B k.DXgXR.1.S @.HXCXwXG.*.Z ,.&XGXKX5.2 . o 9 B d * . "
};
