/* XPM */
static char *_86abce5bfab40cfb68cc3aca35edbfax9WEfNzRmbI50dmV[] = {
/* columns rows colors chars-per-pixel */
"70 70 253 2 ",
"   c #030003",
".  c #0C0207",
"X  c #05000B",
"o  c #0B010C",
"O  c #17060C",
"+  c #0D0512",
"@  c #040B1B",
"#  c #080918",
"$  c #130A15",
"%  c #150814",
"&  c #130C1B",
"*  c #0A121A",
"=  c #19131C",
"-  c #2B0B0E",
";  c #271518",
":  c #381917",
">  c #11271E",
",  c #312918",
"<  c #090D25",
"1  c #0B1324",
"2  c #0A162A",
"3  c #141423",
"4  c #191826",
"5  c #141C2C",
"6  c #0D1A34",
"7  c #151D32",
"8  c #231B23",
"9  c #251B28",
"0  c #162434",
"q  c #192434",
"w  c #122837",
"e  c #182739",
"r  c #1A2A3A",
"t  c #27232B",
"y  c #36262B",
"u  c #282A36",
"i  c #323034",
"p  c #393338",
"a  c #461A16",
"s  c #531E1A",
"d  c #791F1E",
"f  c #4F281A",
"g  c #6F3419",
"h  c #4F312C",
"j  c #673324",
"k  c #61352C",
"l  c #783A26",
"z  c #105130",
"x  c #2F5929",
"c  c #0D672C",
"v  c #6E4E0F",
"b  c #615D1F",
"n  c #49482D",
"m  c #6D4E27",
"M  c #122945",
"N  c #17354B",
"B  c #183A54",
"V  c #243448",
"C  c #3A3944",
"Z  c #433D45",
"A  c #7F2F42",
"S  c #1B4256",
"D  c #2F454F",
"F  c #194967",
"G  c #1F506C",
"H  c #1A587A",
"J  c #2E556E",
"K  c #3E627D",
"L  c #4A484C",
"P  c #4E4B4F",
"I  c #534D53",
"U  c #4F5153",
"Y  c #4C525B",
"T  c #525355",
"R  c #53555A",
"E  c #5A5459",
"W  c #55595D",
"Q  c #5B5B5C",
"!  c #65595B",
"~  c #745752",
"^  c #6E615F",
"/  c #495665",
"(  c #565B62",
")  c #565C67",
"_  c #5A5D63",
"`  c #665D61",
"'  c #5D6165",
"]  c #55616E",
"[  c #5C636C",
"{  c #5C6873",
"}  c #506B7D",
"|  c #636465",
" . c #63656B",
".. c #6A6569",
"X. c #6A6B6D",
"o. c #756A68",
"O. c #7A726D",
"+. c #646B73",
"@. c #6C6E73",
"#. c #646C78",
"$. c #726C72",
"%. c #65717E",
"&. c #6D727A",
"*. c #737375",
"=. c #76777B",
"-. c #7C7B7C",
";. c #951A22",
":. c #823D24",
">. c #DF3730",
",. c #EF362A",
"<. c #A35B13",
"1. c #8A462D",
"2. c #924E32",
"3. c #8D7027",
"4. c #E9511E",
"5. c #C97406",
"6. c #F37518",
"7. c #C63747",
"8. c #995850",
"9. c #A7624C",
"0. c #816B69",
"q. c #857B75",
"w. c #CE4752",
"e. c #CD7356",
"r. c #56871E",
"t. c #B29611",
"y. c #AFA112",
"u. c #CE900A",
"i. c #EE900D",
"p. c #F8AD06",
"a. c #FEC901",
"s. c #F1D703",
"d. c #FDD901",
"f. c #8A837A",
"g. c #94897C",
"h. c #B48D69",
"j. c #D38555",
"k. c #E09A6B",
"l. c #EAA574",
"z. c #F1AF75",
"x. c #1E5E82",
"c. c #225F82",
"v. c #1D6285",
"b. c #587583",
"n. c #6B7885",
"m. c #777C83",
"M. c #737E8B",
"N. c #847E83",
"B. c #867B85",
"V. c #C87682",
"C. c #79828B",
"Z. c #678998",
"A. c #748392",
"S. c #7B8592",
"D. c #7C8B99",
"F. c #7A97A8",
"G. c #838384",
"H. c #85868A",
"J. c #8B8B8C",
"K. c #938E89",
"L. c #9B9588",
"P. c #868D97",
"I. c #89929B",
"U. c #949394",
"Y. c #97979A",
"T. c #9B9B9C",
"R. c #A69989",
"E. c #AF9593",
"W. c #A49C97",
"Q. c #AAA495",
"!. c #B3A993",
"~. c #B5AC96",
"^. c #8593A2",
"/. c #8B95A3",
"(. c #8B9AA6",
"). c #949BA4",
"_. c #979DA7",
"`. c #A79CA1",
"'. c #97A2AB",
"]. c #9CA3AC",
"[. c #9BA5B2",
"{. c #9AA7B4",
"}. c #91AFB8",
"|. c #A5A6A7",
" X c #A2A6AB",
".X c #ABAAAC",
"XX c #B6AFA9",
"oX c #A3AAB4",
"OX c #A9ADB5",
"+X c #A4AEBA",
"@X c #AAB1B8",
"#X c #ACB3BC",
"$X c #B4B3B4",
"%X c #B4B6BA",
"&X c #BCBCBC",
"*X c #CFAA91",
"=X c #E7B894",
"-X c #C8B5B4",
";X c #F7C78D",
":X c #FBCD94",
">X c #FCD49A",
",X c #C9C3B8",
"<X c #FAD8A9",
"1X c #FFE6A8",
"2X c #ADB6C1",
"3X c #ACBBC5",
"4X c #B3BAC4",
"5X c #B7BDC6",
"6X c #C1BFC1",
"7X c #B9C6C9",
"8X c #BCC3CD",
"9X c #BDC5D1",
"0X c #B4CCD1",
"qX c #BCCCD2",
"wX c #BFD8E3",
"eX c #C3C3C3",
"rX c #C2C6CB",
"tX c #C5C8CC",
"yX c #CCCCCD",
"uX c #C0C7D1",
"iX c #C4CAD4",
"pX c #C9CED6",
"aX c #C8CED9",
"sX c #D7CED5",
"dX c #C6D2D5",
"fX c #CDD2DB",
"gX c #D5D4D5",
"hX c #D1D6DD",
"jX c #D5D9DE",
"kX c #DBDBDC",
"lX c #E8D7D1",
"zX c #EFE4D5",
"xX c #F7E6D8",
"cX c #CADAE1",
"vX c #D2D7E0",
"bX c #D5DAE1",
"nX c #DADDE3",
"mX c #DCE3E7",
"MX c #E3E4E6",
"NX c #E9E7E6",
"BX c #E2E6EA",
"VX c #E5E9EC",
"CX c #EBEBEC",
"ZX c #F7E9E2",
"AX c #F8F4EF",
"SX c #E5EBF1",
"DX c #EBEEF1",
"FX c #EDF1F3",
"GX c #E8F8F5",
"HX c #F3F4F5",
"JX c #F5F7F8",
"KX c #F6F9FA",
"LX c #FEFEFE",
/* pixels */
"%XMXSXbXnXnXoX_ ' .XCXLXKXKXHXHXKXLXKXiX=.Q T.CXJXDXFXFXFXHXHXyX-.| .XHXLXKXnXI.Q G.&XNXKXLXKXLXHX.XX..XHXLXBXbXnXBXDXHXVX#X@.X.%XDXSXmXbX%X",
").uXfXpXfXiX/.' G.gXKXJXDXmXnXmXNXHXKXnXI.@..XnXnXnXbXfXhXbXmXjX].@.Y.hXVXNXrXG.-.eXCXDXVXBXVXFXDX%X*._.CXKXBXbXhXfXfXbXbX8XH. .).fXhXfXiX+X",
"C.{.8XiXiX#XM.@.$XHXFXmXbXpXfXjXjXVXHXjX).m.OXpXpXpXiXuXpXfXbXbX5XH.m.#XfXaX].=.T.CXDXhXpXpXfXhXhX@X=.U.nXBXbXhXfXiX8X8XpXiXY. .C.2X9XiX3X(.",
"%.D.{.2X#X^.+.-.yXDXbXpXiXiXpXfXjXNXBXrXI.H.%XiXiXfXhXhXfXhXfXfXrXI.@.).iX9XP.@..XBXnXiXuXiXiXpXiX X&.H.iXfXiXiXpXiX2X+X8XpX]. .#./.+X+X/.n.",
") %.M.D.D.%.( G.fXBXpXiXiXiXiXpXnXBXhX2XH.J.8XhXpX(.D.'.fXiX9X8XrXOXH._.9X{.#.' _.pXhXpXpXpXpXpXiX].@.=.4XfXiXiXiXuX2X+X5XiXoX@._ n.M.n.{ R ",
"T ( [ { { ( T m.rXmXfXiXiXiXiXfXbXhXiX Xm.I.8XbXS.M M M [.FXmXfXCXKXHXHXJXiX]. X8XfXiX5X5XrX5XiXdX'. . .oXfXfXiXiXiXuX8XiXiXoXX.U ( [  ._ T ",
"-.H.-. .R P T &.#XbXhXiXiXuXrXiXiX8X4XP.[ J K } V n n n D [.kXLXLXLXLXLXLXLXLXLXLXHXV.7.w.w.w.E.E.B.W ( /.iXjXpXiXiXpXpXpXiX'.' T ..U..X|.J.",
"&XkXkX$XG.Q T +.(.8XpXpXiX#XoX4X5X+XP.) u w w w u u.d.d.b < R LXLXLXLXLXLXLXLXCX-Xe.>.,.,.,.,.,.,.7.~ Y m.@XiXpXuX5X4X8XiX5XP.( X.$XMXHXNXtX",
"tXHXLXHXkX|.X.' M.[.3X8X5X[.).oX'.] D r r e q 5 9 5.a.a.m X E LXLXLXLXLXLXLXlX8.;.>.,.4.6.i.i.i.6.,.w.0.[ S.{.3X2X).I.{.2X[.n._ T.CXJXBXbXrX",
"%XjXVXNXDXNX$X*. .A.^.(.'._.(.S.C 5 7 5 1 3 & 5 q 2.5.3.& E CXLXLXLXLXLXLXNXA ;.>.6.p.a.d.d.d.d.d.p.4.7. .{ A.D.^.D.A.D.P.A.[ X.&XCXfX8X9X2X",
" XiXfXpXfXBXMX.XX.{ n.A.A.A.A.{ 4 o o o f : # q e e 6 M 5 eXLXLXLXLXLXLXLXE.;.4.p.d.s.y.t.t.t.t.y.d.a.6.9.( [ %.n.n.%.%.%.{ W =.rXjX@XoX5X@X",
"].8XpXpXiXfXmXfXJ.W ( [ { { [ @.`.L X % , : X X < # 1 r 0 C yXLXLXLXLXLX-Xd 5.p.p.t.x c c c c c c r.y.a.i.8.U W _ ' ' _ W U T =.5XpX#XoX+X).",
"].8XpXiX9XiXnXhXY.R U | *.G.U.yXLXyX$   o 9.2.f h h h h Z I J.LXLXLXLXJX8.<.i.5.b c c z D D D D S z x t.i.l.I.-.Y.T.T.J.*.Q P @.OXpXiX8X+X).",
" X8XpX9X9XpXbX8XP.( | T.yXkXHXLXLXpX: m : a j k k 9.j.a L kXLXLXLXLXLXsX:.u.<., z z N M 2 2 2 2 6 r z x 5.>XKXMXCXCXCXMXyXY.Q ' ).9XpXaX8XoX",
" XrXpX8X9XfXpX{.M.' m.4XmXHXLXLXLXdXm k.l.h.~     y h   o 6XLXLXLXLXLXzX5.<., > > r 3 = f j j j : 4 r > v ;XLXLXKXKXDXVXVXtX-.W m.+X8X8X#XI.",
").#X8XrXiX8X+X^.%._ &.{.jXLXLXLXLXLXlXj.z.1X:Xh h *Xg.; q.HXLXLXLXLXLXxX5.g > = + + X f l j l 1.j : + 1 f ;XLXLXHXBXbXpXfX5XC.T [ A.^.^.M.+.",
"C./.@X9XiX@X^.M.[ T ' ].LXLXLXLXLXLXLX*X2.z.1X>X>X1X<Xz.<XLXLXLXLXLXLXzX<., * o o o o ; O X - a O X o + O Q.LXLXLXVXiXpXiXoX&.T T ) { [ ( T ",
"P.[.4XiXiXoXA.{ R P L  XLXLXLXLXLXKXLXFXq.9.l.1X<X<X:X=XxXLXLXLXLXLXLXLXf.* o o o o o : % X : j % X o X L mXLXLXLXDXpXaX9X).[ P U Q X.@...Q ",
" X8XiXuX4XI.#.R T T G.CXLXLXLXLXLXLXKXT.8.e.2.k.:X;Xz.xXLXLXLXLXLXLXLXLXHX-.o o o o o f f : 1.1.j - X = kXLXLXLXLXLXHXfX2XS.W T =.|.&XtX%XY.",
").+X2X#XI.+.W | G.|.HXLXLXLXLXLXHX#X+.X : 9.e.9.1.8.lXLXLXLXLXLXLXLXLXLXLX$.X o o o o a 1.1.1.1.1.f X . U.KXLXLXLXLXLXbX(.#.W G.tXCXDXDXnX5X",
"m.D.^.S. .R *.$XjXHXLXLXLXLXLX$XY V # 3 3 1 ~ j.: 7 L @.HXLXLXLXLXLXLXLXHXp   o o o o % j 1.1.1.j O + P L CXLXLXLXLXLXCXP.R *.,XHXVXjXbXfX#X",
"{ n.%.' T *.&XCXDXKXLXLXLXLX&Xu # & 4 r 4 + o ; % 6 @ X &.HXLXLXLXLXLXLXN.Z J.X   o X . - j l g O X o .XJ.CXLXLXLXLXLXLX XQ T.MXDXhXiXpXiX@X",
"R _ W U | .XNXSXCXLXLXLXLXKXZ 1 q 5 q q q q = X # p t.3.1 @.KXLXLXLXLXLXU.|.|   t o u y O O O I L X $ | HXLXLXLXLXLXLXLXHXH.%XBXbXfXiXpXuX@X",
"T Q T T C.tXmXBXHXLXLXLXLX$Xu 0 r r 0 6 6 w r % < n a.d.b 6 Y.LXLXLXLXLXHXY.D +.( . S.'.: - . ] (.+ -.L G.LXLXLXLXLXLXLXHXU.5XhXpXiXuX8X8X@X",
"-.Y.-.Q C.8XfXnXLXLXLXLXyX9 5 r 0 0 u n n n q + < h p.d.b 6 5 U.HXLXLXLX7Xb.cXVXT T J.cX! s -  ./.T m.-.Z CXLXLXLXLXLXLXKX X@XfXpXiX8X2X2X@X",
"@XkX$X .n.2XiXbXLXLXLXHX=.1 r e q # n t.t.3.r + + 0 3.3.q q 0 5 &XLXLXKX'.3XLXMX$.G.[ wXR.l g R.%X*.N.T.U.FXLXLXLXLXLXLXLXnX[.9XpXiX9X8X5X@X",
"%XnX4X&.#._.3XfXLXKXLX$X# r e 0 3 o & 6 0 5 0 + o 5 6 6 + 5 r 0 &.JXLXbXF.KXLXDX]. X_ mXQ.:.:.R.jXeX XyXLXLXLXLXLXLXLXLXLXnXI.+X8XiX8XiX9X@X",
"].9XoX@.[ n.P.jXLXLXNXR 5 e e 7 % + & & & 5 0 + o 4 & # o 4 q e 2 -.KX}.7XLXLXHXbXHXgXFXR.l :.g.KXLXdXmXLXLXLXLXLXLXLXLXLXgX%.D.{.#XoX2X8XOX",
"C.).S.W U ( [ MXLXLXkX9 2 r 5 & o $ 4 0 0 e 0 + o 0 5 D C   & @ y j.-XZ.jXLXLX7X}.BXLXLXXX1.:.Q.KXLXqXmXLXLXLXLXLXLXLXLXLXMX=.{ A.D.P.).[.P.",
"( [ _ Q $.-.|.HXLXLXZX9.f 3 & + o & 0 0 3 q r + o q # ) yX9   : j.>Xf.}.LXLXHX{.3XHXLXHXdXQ.R.qXKXmX}.CXLXLXLXLXLXLXLXLXLXLX&X| [ { %.n.%.[ ",
"P U X.T.yXkXHXLXLXLXZXk.k.2.! m.X & e 0 3 5 r + o q 1 Y LX&X..*Xj.;Xk.{ cXLXmXF.0XLXLXHXiX0X0XqXKXdXZ.BXLXLXLXLXLXLXLXLXLXLXCX.X@.T R _ W T ",
"U X.@XCXLXLXLXLXLXLXxXk.>Xz.xX$X  & 0 0 0 0 0 + o q 6 / LXLXLXLX-Xe.2.- Z H. .o.,XmXLXHXdX7X7XqXLXtXC.DXLXLXLXLXLXLXLXLXLXLXKXnXY.Q | J.U.*.",
"| ].BXKXDXMXFXLXLXLXxXl.>Xl.xX$X  $ 5 r 0 0 5 o o q 5 Y CXKXLXLXLXlX~ s l - - j.=XmXLXHXdX7X7XqXLXXXR.LXLXLXLXLXLXLXLXLXLXLXSXfX X..J.jXMX$X",
"m.#XnXnXfXiXVXLXLXLXxXl.:X>XAXY.# + & 5 5 0 7 X X q 7 4 p yXLXLXLXLX0.g l O I ;X=XmXLXJXdX7X7XqXLX-XW.LXLXLXLXLXLXLXLXLXLXLXmXiX X@.P.bXnXOX",
"n.(.#X4X8X9XNXLXLXLXZXl.:XxXY.4 V $ 5 q u M i b b q M 5 X &XLXLXLXLX^ g j X f j.*XDXLXHXdX7X7XqXHXDXmXLXLXLXLXLXLXLXLXLXLXLXmXiXoX@.&.+XOXC.",
"#.A.D./.2XiXBXLXLXLXZXl.:XzXp   3 3 0 e V 6 v t.v v V 0 $ 6XLXLXLXLXW.l l - y I.wXLXLXJXqX7X7XqXHXFXBXLXLXLXLXLXLXLXLXLXLXLXmXpX@X&.[ M.M._ ",
"Q &.C.D.oX9XVXLXLXLXZXl.:XzXC   4 7 o o O X v 5.<.g o X $ 6XLXLXLXLXCXk :.a V }.cXLXLXKXqX7X7X0XJXFXmXLXLXLXLXLXLXLXLXLXLXLXBXiXOX@.T ( W P ",
"P W %.A.(.#XnXLXLXLXZXl.:XzXZ   3 7 & & & & ; f f & & + $ 6XLXLXLXLXCX~ l a u 3XJXLXLXJXdXqXqXdXHXFXBXLXLXLXLXLXLXLXLXLXLXLXnX3XI._ P Q | | ",
"Q | '  .n.D.[.FXLXLXZXl.:X<Xp X 3 5 3 q q q 0 6 6 q r 5 o &XLXLXLXLXLXeXa s / 0XKXLXLXLXOXm.=.].KXDXmXLXLXLXLXLXLXLXLXLXLXDXoXS. ._ *.|.&X|.",
"T..XT.*.[ #.M.BXLXLXZXl.>X>Xp X 3 5 3 q q q e N N q r 5 $ 6XLXLXLXHXLXpXO 9 n.qXJXLXLXLX=.# 1  .LXHXFXLXLXLXLXLXLXLXLXLXLXMX&.' @.T.yXCXCXyX",
"7XMXNXeXH.| ( ].LXLXxXk.>X;X!.4 & 7 3 q q 0 5 & 3 q r @ $.KXLXLXCXJ.XXXX. 3 Z.dXKXLXLXLXm.w B  .LXLXCXHXLXLXLXLXLXLXLXLXLX5X .H.eXCXFXBXfX4X",
"#XfXBXVXgXY.T G.LXLXZXk.;X:X,Xt o 3 5 q 0 0 $ o 3 q r @ J.LXKXLXU.N.~ - : ; J 3XGXLXLXLX^.S N n.LXLXmXFXLXLXLXLXLXLXLXLXKXJ.|.kXHXFXbXpX8X#X",
"oX9XaXfXBXpXG.| tXLXgXk :.<XbX; o 3 q q e 3 o % q 0 r @ N.LXLXLXgX` = a s :   u { qXCXfX] F B D iXiX#XLXLXLXLXLXLXLXLXLXHXeXMXDXVXnXpXiXiX#X",
").8XaXiXfXhX].T K.CXZ ( `.h J.i + e q q 0 & o % 5 0 r @ N.LXLXLXLXeXh s a : 9 X # t C J G S N B J B (.LXLXLXLXLXLXLXLXKX&XkXSXhXpXfXpXaXiX#X",
"S.#XaXaXaX9XI. .|.kX` kXLX=...i # r 0 e 3 X o % q 0 r @ N.LXLXLXLXLX`.a - B.J.o M N F G S 3 = G x.F (.LXLXLXLXLXLXLXLXkX$XnXbXpXiXiX8X8X8X#X",
"n.).4X9X9X+Xn.=.tXyXT kXLX-.$.i # r q 0 4 E $ o 3 0 r # N.LXLXLXLXLXLX-XXXLX`.X B v.v.S 4 o & F v.F (.LXLXLXLXLXLXLXLX.X.XbXpXiXiXiX2XoX#X@X",
"+.A./.[.[.D.[ m.nXN.; Q -.=.yXt @ r q 5 Z -Xp   & 0 r @ N.LXLXLXLXLXLXLXLXLXY.# G H H B X   = F x.F (.LXLXLXLXLXLXLXNXG.%XfXiXiXiXiX5X#X4X@X",
"R [ %.n.M.+.R H._.i L E L eXMX= * r r 1 J.LXJ.  & 0 r # N.LXLXLXLXLXLXLXKXLXT.# F H H F $.L & G x.F '.LXLXLXLXLXLXHX@X-.4XfXpXiXiXiXiXpXuX#X",
"T Q _ ) ( T T  .C t i T.LXLXkX8 1 r r @ J.LXU.  & 0 r # N.LXLXLXLXLXLXLXLXLXT.@ F H H J LX.XX G x.H K jXLXLXLXLXLXgX) =.4XbXfXiXiXiXiXpXiX#X",
"G.Y.U.-.| P R C C hXoXL bXLX&X4 5 r 0 u $XLXJ.  & 0 r @ N.LXLXLXLXLXLXLXLXLXU.@ H v.H J FXeXt B H H F 8XLXLXLXLXLX7XR +.oXfXhXiX8X5X8XiXiX#X",
"&XMXCXgX.X-._ L i I.m._ 2X8Xp & r r 1 E LXLXyX= + q r @ N.LXLXLXLXLXLXLXLXLXgXC B c.H K NXLX..6 c.H F tXLXKXLXLX5X#.U _ P.4XiXuX#X_.#XiX8XOX",
"5XVXJXFXCXgXY. .L u 8 M.).P.9 & r r < P LXLXLXp X q r @ N.LXLXLXLXLXLXLXLXLXLXT 1 c.H K NXLX..1 G H F tXLXKXLX5X_ U P U +.I.+X2XoX/.'.2X+XI.",
" XpXjXfXmXDXkXT. .Y / n.M.C $ 0 e q 5 $.LXLXLXi X q r @ N.LXLXLXLXLXLXLXLXLX$X= r G H J NXLX..# F x.F rXLXHX$X ...-.-.*.' +.C.^./.(.^.D.S.n.",
"].8XfXpXpXjXBXpXG.Q ' [ { t & e r 1 I KXLXLXLXi X q r @ N.LXLXLXLXLXLXLXLXLXG.< F x.F } HXHXI 6 H H K kXLX&XJ.|.eXkXjX7XU.X.[ %.M.A.A.M.%.[ ",
" X8XpXiXiXiXbXhXY.R T X.J.Z 1 r r < E LXLXLXLXi X q r @ N.LXLXLXLXLXLXLXLXgXt B x.x.N J.LX|.X G v.F '.LXgXyXMXCXHXLXFXmXfX|.@.( [ { { [ W U ",
" X8XiXuX9XpXjXiXP.(  . XkXR 1 r 0 u %XKXLXLXLXi X q r @ N.LXLXLXLXLXLXLXLXgXt F v.G D pXLX`.X G v.F '.LXNXVXmXnXMXCXBXvXbXfX_.| U T W  .| Q ",
" X8XpX8X8XfXfX+XM._ =.5XY.= 0 r 5 C nXBXNXHXLXi X q r @ N.LXLXLXLXLXLXLXHX` 1 G v.F J FXHXp 3 G H B P.LXnXpXiXiXfXbXhXpXiXfXrXJ.T Q H.$X$XJ.",
"].8XiXuXiXuX2X^.%.W +.[.@.o q q 5 C pXhXiXiXJXp X q r @ G.LXLXLXLXLXLXLXHXC 1 G v.F D.LXCX$ 7 H x.N S.BXpXiXiXiXfXfXiXiXuX8XuX].| -.yXHXMX%X",
"J.[.4XuXiX#X^.M. .T W S. .+ q q 5 C 8XiXiXiXnXp o q r 1 =.LXLXLXLXLXLXLXHXL 2 G H F iXLXtX= N v.H N n.pXuXiXpXiXpXpXiXiXuX2X#X].@.-.rXmXiX[.",
"m.).#XiXiXoXS.+.R P P +.R + q r 5 C 8XiX9X8X9Xi o 4 q 0 4 6XLXLXLXLXLXLXHXL 2 F N M D.rX .$ N F N M { 3X4X8XpXiXiXiX8X5X8X8X2X).&.' P.+X[.C.",
").#X8X9X5X/.#.R T T T W C + q q 5 i 8XpX8XoX+Xi X 3 q e 3 ..I.&XCXNXNXCXCXZ # D }.0X+Xn.L & e M.7X0X'./.+X5XiXiXiXiX2X[.2X8X+X^.%.R ) n.%.) ",
").[.oX+X/.#.R | G.T.T.-.C o & & & P 5X5X2X'.'.t X $ & & $ E J.T.|.|.J.=.m.9 h +X).P.P.*.R O Y 0X@XP.&.n.(.+X3X4X5X5X@X'.[.[.^.A.+.U U W R T ",
"C.I.^.S.+.R @.|.gXMXMXeXL X o o $ Z %././.I.^.t X o o o o P *..XCXkXeXU._ = y D u q.*...T.= u D 4 @.T.W { C.H.P.I.I././.I.D.A.%._ | -.Y.U.-.",
"#.M.n.[ T $.$X,X~.W.G.f.p X o o % & 4 P ......= X o o o o o + t |.U.q.q...8 X   8 X.*.$XLX-.    $ ..$.T.yX|.......f.Q.L.Q.m.[ _ *..XkXCXjX%X",
"W [ ( T ` ..K.L.o.0.O.O.y   o X X o X y ! ! ` 9 o X X X X X o   I ! I ! ! { b.b.b.I.pXLXLXHX(.} A.(.7XHXLXKX|.E o.L.L...f.O.! ! T.CXDXBXbX8X",
"T T P T o.o.q.O.o.o.` q.L = 8 8 8 ; ; Z ` ! ! ..h = 8 8 9 8 8 8 L ! o.O.! ] { b.} M.[.].'.[.D.{ %.M.].].'.oXU.q.q.o.! o.q.Q.f...$XFXhXaXiX#X",
"-.J.*.Q P..X~.Q.Q.W.L.~.g.| O.o.O.f.! O.g.g.g...O.g.g.q.! q.f...g.g.Q.R.f.q.! ! ! O.o.q.f.q.! ! ^ q.q.q.q.q.R.~.!.L.K.Q.~.!.q.G.gXnXpXiX9X#X",
"%XgX_.' H.8XtXrXrXrXtXrX@XU.K.L.W.L.K.Q.~.~.~.Q.!.R.R.R.R.!.L.g.!.R.g.o.g.~.Q.g.R.~.!.R.R.!.R.R.Q.~.~.~.~.!.Q.~.XX-XkXNXyXU.| m.4XfXpXaXiX#X",
"@X8XI._ n.+X9X9X9X9X9X8X+XM._ =._._..X&X,X,XeXXXf.....J.XXW.).|.XXW.-.=.-.H.L.L.W.|.$X).W.XX$X&X&X&X$X XU.@.@.'.2X4X9XfX9XP.Q #.[.8XiXaX9XoX",
"I.(.n.( %.^.+X2X2X#X+X'.P.%.( +.'.9X9X9X9X8X8XoX=.W %.D.).5X9X9X8X8X3X{.^.A.[ Y { ^.{.2X5X8X8X9X9X5X+X^.%.W +./.{.[.{.{.[.M.W [ D.{.5X9X5X)."
};
