/* XPM */
static char *_a0ad702ed934ff2de983684233ae2c9gMt56yJa6aWjukcp[] = {
/* columns rows colors chars-per-pixel */
"70 70 247 2 ",
"   c #030102",
".  c #0B0303",
"X  c #01050B",
"o  c #09080B",
"O  c #0B0B0C",
"+  c #130303",
"@  c #1C0302",
"#  c #170907",
"$  c #140C0C",
"%  c #1C0C0B",
"&  c #1C110F",
"*  c #040B13",
"=  c #091416",
"-  c #181618",
";  c #250604",
":  c #360908",
">  c #28160B",
",  c #31110E",
"<  c #261817",
"1  c #351B19",
"2  c #152A12",
"3  c #2B200D",
"4  c #36221D",
"5  c #0A1623",
"6  c #171D25",
"7  c #2A1E20",
"8  c #1C222A",
"9  c #093725",
"0  c #192736",
"q  c #26272A",
"w  c #372725",
"e  c #262D35",
"r  c #362E31",
"t  c #2A3339",
"y  c #333335",
"u  c #3A393B",
"i  c #4B0E0F",
"p  c #5A0712",
"a  c #710A10",
"s  c #4B230E",
"d  c #58251B",
"f  c #6B2517",
"g  c #472A24",
"h  c #55382B",
"j  c #513531",
"k  c #753726",
"l  c #144F2B",
"z  c #0A6B35",
"x  c #266E27",
"c  c #236D28",
"v  c #5B4438",
"b  c #6D453B",
"n  c #5C672C",
"m  c #1D3246",
"M  c #273646",
"N  c #393E43",
"B  c #273D52",
"V  c #403F42",
"C  c #3C4147",
"Z  c #2B4458",
"A  c #354757",
"S  c #0D7945",
"D  c #22784E",
"F  c #3D5569",
"G  c #3E586E",
"H  c #454649",
"J  c #4C4C4E",
"K  c #534A49",
"L  c #4C4E52",
"P  c #454D5A",
"I  c #4E5154",
"U  c #4E535A",
"Y  c #525355",
"T  c #53565A",
"R  c #55595D",
"E  c #5A5B5D",
"W  c #75574A",
"Q  c #725250",
"!  c #60605F",
"~  c #465667",
"^  c #555B62",
"/  c #565D67",
"(  c #5A5E63",
")  c #435D73",
"_  c #6C5D67",
"`  c #5D6165",
"'  c #56616D",
"]  c #5D636B",
"[  c #486278",
"{  c #5D6772",
"}  c #626365",
"|  c #62666B",
" . c #65696D",
".. c #6A6B6D",
"X. c #77706F",
"o. c #636B73",
"O. c #656A75",
"+. c #6A6E72",
"@. c #656E79",
"#. c #6C7175",
"$. c #66717D",
"%. c #6B737C",
"&. c #727375",
"*. c #73767B",
"=. c #7B7679",
"-. c #76797C",
";. c #7B7C7D",
":. c #870D10",
">. c #990D1C",
",. c #9E1F1B",
"<. c #AA2D12",
"1. c #C9251B",
"2. c #CA2131",
"3. c #945610",
"4. c #B1460A",
"5. c #8E4F31",
"6. c #9B6A20",
"7. c #C8570C",
"8. c #D06C09",
"9. c #E77E13",
"0. c #895843",
"q. c #B4704F",
"w. c #947366",
"e. c #C47952",
"r. c #108536",
"t. c #368532",
"y. c #548436",
"u. c #0C8446",
"i. c #679D4E",
"p. c #5EA848",
"a. c #A99223",
"s. c #E58B08",
"d. c #C3A919",
"f. c #F1AE05",
"g. c #FBB606",
"h. c #FEBB14",
"j. c #C7B628",
"k. c #FFAE27",
"l. c #FDCA1A",
"z. c #B2A25D",
"x. c #C59157",
"c. c #51708A",
"v. c #6B7581",
"b. c #6B7886",
"n. c #6E7985",
"m. c #717683",
"M. c #737B84",
"N. c #7A7E82",
"B. c #747E8B",
"V. c #777E92",
"C. c #7E8184",
"Z. c #75818E",
"A. c #7B828C",
"S. c #7B8692",
"D. c #7B8796",
"F. c #7C8996",
"G. c #828384",
"H. c #82858B",
"J. c #86898C",
"K. c #8A8B8D",
"L. c #848B94",
"P. c #848B95",
"I. c #8B8E93",
"U. c #838E9B",
"Y. c #908A90",
"T. c #8E9195",
"R. c #85919D",
"E. c #8B939D",
"W. c #939495",
"Q. c #94979B",
"!. c #9A9B9C",
"~. c #898EA1",
"^. c #8895A2",
"/. c #8A95A2",
"(. c #8E99A5",
"). c #939BA4",
"_. c #959BA5",
"`. c #9B9DA2",
"'. c #939DAA",
"]. c #9BA1A8",
"[. c #9BA3AC",
"{. c #99A5B3",
"}. c #9CA5B1",
"|. c #9EA8B4",
" X c #A3A4A5",
".X c #A2A6AC",
"XX c #A5A8AC",
"oX c #ABABAC",
"OX c #B9AAAE",
"+X c #A2AAB5",
"@X c #A7ACB7",
"#X c #ABAEB3",
"$X c #A4ADBA",
"%X c #AAB1B8",
"&X c #ACB3BC",
"*X c #B3B4B5",
"=X c #B3B6BB",
"-X c #B6B9BC",
";X c #BBBCBD",
":X c #ADB5C1",
">X c #AEB9C4",
",X c #B3BBC4",
"<X c #B5BCC7",
"1X c #BBBEC3",
"2X c #B5BCC9",
"3X c #BCC1C7",
"4X c #BCC3CD",
"5X c #BEC5D1",
"6X c #BDC8D3",
"7X c #C2C3C5",
"8X c #C1C6CD",
"9X c #C5C9CE",
"0X c #CBCBCD",
"qX c #C1C7D1",
"wX c #C4CAD4",
"eX c #C9CED5",
"rX c #C6CDD9",
"tX c #C9CED9",
"yX c #D0CED0",
"uX c #CCD0D5",
"iX c #CDD2DA",
"pX c #D3D4D4",
"aX c #D2D6DC",
"sX c #D5D8DD",
"dX c #DBDCDD",
"fX c #DFE0DF",
"gX c #CFD8E4",
"hX c #D5DAE2",
"jX c #DADEE3",
"kX c #D5DAE8",
"lX c #DDE1E5",
"zX c #DEE2EA",
"xX c #DCE7F2",
"cX c #E3E4E5",
"vX c #E3E5EA",
"bX c #EDE7E9",
"nX c #E6E9EC",
"mX c #EAEBED",
"MX c #F0EFEE",
"NX c #E7ECF4",
"BX c #EBEDF1",
"VX c #EEF0F4",
"CX c #EEF3FB",
"ZX c #F2F3F5",
"AX c #F5F6F9",
"SX c #F7F9FB",
"DX c #FDFDFD",
/* pixels */
"&XvXNXhXjXjX+X( ( oXMXDXDXSXAXZXSXDXSX0XM.E !.mXAXBXBXVXVXZXBX9X;.| oXVXSXSXjXT.E G.;XnXSXSXSXDXZXoX..XXAXSXvXhXjXzXBXAXnX&X+...=XBXNXzXhX,X",
"_.8XiXeXiXqXE.` G.pXSXSXBXcXjXlXvXAXSXjXT.+.XXlXjXjXhXiXaXjXvXjXXX&.Q.jXVXBXwXH.-.7XmXmXvXvXnXVXBX=X&.].BXSXvXhXaXiXiXhXhX4XH.| `.iXiXiXwX%X",
"Z.|.4XwX6X&XB.+.*XZXVXlXsXeXiXsXsXnXZXsXQ.N.#XeXrXtXrXrX8X%X&X&X).+.| ).$X$XL.| ].mXmXaXeXeXiXaXaX#X*.W.jXvXhXaXiXqX4X4XwXwX).| C.&X6XwX2X(.",
"@.F.{.:X&X^.o.;.0XBXsXeXwXwXeXiXsXnXvX8XT.H.=XrXwXwXwXeXH.& 1 1 3 > % > > > % - W.lXjXrXqXwXwXrXqX.X%.J.9XiXwXwXrXqX:X$X4XrX[. .o.^.$X$X^.v.",
"/ @.B.F.F.%.^ C.uXvXeXqXwXwXwXeXjXvXaX=XJ.I.2XiXiXeXrXY < d k q.z.z.a.a.6.3.s   - Q.jXrXwXwXwXwXqX[.+.-.,XiXwXqXwXqX:X$X2XrX+Xo.( %.B.v.{ T ",
"Y ^ ] { { ^ T N.8XlXaXwXwXwXwXiXhXaXwX.XM.T.wXjXlX.XC   h x.n i.p.p.p.p.y.n l =   8 &.wXqXwXqXqXqX].|  .XXiXiXwXwXwXqX5XqXwX+Xo.I R ] | ` T ",
";.J.N.| T J I *.&XhXaXwXwXqX4XwXwX4X:XI.+.`.iXaXzXI.  9 n i.t.r.r.r.r.z z z l 9 =   C iXrX4X,X,X,XL.R ( E.rXhXrXqXwXrXrXrXqX].] I  .I.oXXXK.",
";XdXdX*XG.E I o.).4XrXeXqX&X@X<X2X$XE.O.| `.rXrX:X@.= D S z S u.u.u.u.S S z z 9 9 = t E.,X2X}._.E.o.L Y M.$XqXrXqX<X,X4XwX2XU.^ +.*XcXZXvX0X",
"7XZXDXZXdX X..` B.{.>X4X<X}.).}.}.R.v.^ ] E.4XrXK 2 x c c c c c c x c c c c l l 9 2 2 $ X.].R.B.] R Y Y ` S.|.>X:X'.R.|.:X}.n./ !.mXZXvXsX8X",
"*XjXnXvXBXnX*X&.| Z.^.(.[.'.(.R.D.n.] I R A.'.N 6.d.d.j.j.j.j.j.d.d.d.d.d.d.a.6.6.3.3.3.s u ] R E N.W.;.E | Z.R.^.F.Z.D.U.Z.{ +.;XmXuX4X4X&X",
".X9XiXeXaXvXcXoX+.] n.Z.Z.S.Z.n.O./ I J I | $.  5.k.h.l.l.l.l.l.g.g.g.g.g.g.f.s.8.8.7.4.i < I J ..=XcX1X&.T ] $.$.$.$.$.$.{ ^ -.7XsX&X+X<X%X",
"[.4XtXwXwXiXlXuXK.R ^ ] { { { o.+.&.;.;.&. .T O p 7.k.g.h.f.g.g.g.g.g.g.g.g.g.s.7.8.4.a i j ;.E  .*XzXiXI.T L R ` ] ` ^ R I I -.;XeX&X@X$X_.",
"[.4XrXqXqXrXjXaXQ.T I } &.C.W. X;XeXdXcXpX*X&.  i <.7.k.h.h.h.h.h.h.h.h.h.s.8.8.8.4.:.a : K yXK.} H.&X+Xm.^ | G.W.!.!.K.&.E J ..#XrXwX3X@X).",
"[.4XwXqX5XeXhX4XL.^ | !.0XjXnXmXBXVXZXSXAXZX1Xr , a ,.8.9.s.9.9.9.9.9.9.9.7.<.4.4.:.a p d =.cX1X&.] m.@.| J.;XcXmXmXmXcX0XW.E ` Q.5XiXrX4X+X",
".X8XrXqXqXiXrX|.M.] M.,XzXNXBXzXaXaXjXvXjXjXNXeXr ; a :.,.1.1.1.1.1.1.1.1.>.:.:.a a p ; OXjXaXuXT.R I } !.sXZXAXAXSXBXnXnX8XN.R M.@X4X4X&XE.",
").&X4X5XqX4X&X^.$.^ %.}.2X4XqXwXqXwXaXhXrXwXwX+.v g : a >.>.2.2.2.2.2.2.>.>.:.a a p : > K K.iXiX.X| Y K.sXmXsXiXhXlXhXeXiX1XA.T ] A.E.E.B.o.",
"A.E.$X5XqX%XR.B.] Y ] L.|.<XwXwXqXwXeXrXqXtX,X  w.z.. : i p a >.>.>.>.>.>.>.a a i ; + <   H eXtX&X&. .#XcXiX8XqXrXeXeXwXqX+X%.I Y / ] ] ^ U ",
"L.}.,XwX6X+XS.{ T J Y @.).4XgXiXqXwXqXqXqXrX=X  v W       + i p p p p p p p p i @   O 7   H eXtX,XA.+.#XaXrXqXwXwXqXwXtX5X).] J Y E ..#...E ",
".X4XwX6X,XE.O.T Y Y Y R m.}.4XrXwXwXwXrX4X:X$X+.w > % 1 < . . + + + + + + + + . . O $ $ J I.8XwX<XA. .`.eXiXuXwXqXwXrXrX:XA.^ Y &. X;X7X=XQ.",
").$X:X&XE.o.R | J.!.J. ./ m.).&X<X4XqXqX,X'.[.4XN . 1 h g + < $ & - . < + $ - .   & <   `.rX+X&X$Xm.( I.qXhXaXeXqXrXrX4X'.O.R G.7XmXmXmXjX1X",
"M.F.R.S.| T &.#XdXnXjX*X-.( @.S.^.[.|.$X+X[.'.'.t o w g , + 4 # < < + w # % < .   - < . W.2X(.(.^.O.T N.,XiXiXrXwXqX2X[.n.^ #.7XZXnXsXhXiX&X",
"{ v.%.] T &.;XmXBXvXvXvX=X+.T ] %.B.Z.S.F.F.F.D.e   + h g % v > 4 g @ j > 1 j + & . .   C.%X(.U.n./ I o._.2X4X2X>X+XE.v.^ R !.cXVXsXwXtXqX@X",
"T / R I | oXvXBXzXaXiXhXuXT.T L R ] o.@.$.v.v.%.q O j v 4 ; h > g v @ w $ 1 j @ < H u o R m.+.o./ I J E m.U.^.R.S.v.] T I +.;XcXhXiXwXrXqX@X",
"Y E Y Y C.9XvXlXjXaXrXtXqX_.( J Y E  .+.o.| / T H &.yXK % + 4 # 4 g @ 4 # % < + $ XX=XN I R } +.*.&. .E ( { o.] / T I J Y ;.3XaXwXwXqX4X3X@X",
";.W.;.E A.4XiXiXtXrXwXrX4XE./ I ..!.*X*XoX!.;.Y E ..y w < # w % < < + w # % < . & r J E } J.#X0XpXpX7X!. .Y I T | ;.G...Y *.=XtXrXwX4X:X:X@X",
"*XdX*X .m.:XrXwXwXrXrXrX2XU./ ( !.jXZXZXZXmX0XJ.H H H < $ > b , < < # v , % < . - r V H  XdXmXVXSXDXSXcX X} I *.*XdXsX`.} +.[.5XrXwX5X4X2X%X",
"=XjX,X%.@.'.2X5X5X6X5X4X$XS.] #.*XaXjXnXZXSXnXXXq E DXq   & v , > < @ v , % < . $ `.I.q 1XcXiXhXvXnXZXSXsXG.E W.jXNXiX_.o.o.L.$X5X6X4XqX5X%X",
"[.4X+X+.] M.U.(.'.[.'.(.U.%.] H.1XqX8XeXhXvX7Xe J.cXDX0X... w # 4 g @ w $ % < .   H.vX;XH J.hXeXgXiXaXzXuXJ.E N..X}.E.v.^ R $.U.|.&X+X:X4X@X",
"A.).A.R I ( ] ] ] o.o.@.@.] | W.4XqXqXwXiX`. . .pXDXBXDXXX  o   g h + $ . - < $ H @XCXAX;.&.XXwXeXqX4X3X+X*.Y R | o.] ^ R Y E o.B.F.U.'.}.U.",
"^ ] / ( +.;.N.;.*...` R T Y  .Q.&X2XqX4X,XN = ZXDXBXjXDX!.  y $ w j + O . $ & - =XrXtXAXDX .8 rXwXwX,X}.L.] L L ( +.C.I.!.W.G. .` o.$.%.@.] ",
"J I ..`.0XdXcXdXpX7XXXN.E J ..).@X:X:X).o.J  .AXSXjX2XDX!.q cXH # 4 + w %     6 &X|.2XCXDXI.N I.+X>X$X^.@.T E ;. X7XdXcXnXmXdXoX#.Y T ( R I ",
"Y +.#XmXDXDXSXAXZXZXmXpXQ.( ` L.$X[.A. .= G.AXZXcX@Xm.SX!.- nXH     . &   J } O @XB.~.jXAXbXY.= | F.B.@.^  . XpXmXnXcXjXzXBXVXjXQ.E } K.W.&.",
"} ].vXSXBXvXlXhXaXhXzXvXpXW.` o.Z.%./ +.7 w 0.W Q _ m.ZXpXG.ZXH y H $ =.- &.0XT :XV.] _ Q Q j + J ] ^ T +.#XcXmXhXeXqXqXiXhXhXaX.X .K.jXlX*X",
"m.%XhXjXiXeXiXtXwXrXrXtXsX1XN.R ^ T &.oXy , k f d g H dXDXDXDXy G.*X< MXu  .DXqX2XU r g d k d @ I Y J } XXvXnXuXqX8XqXqX4X4XwXwX.X+.I.hXjX#X",
"m.(.&X,X4XqXwXwXwXwXwXqXeXrX`.` L | oXdXy h e.5.f , O pXDXDXDXy G.XX- cXu  .SX5X2Xq + d k q.5.; ;.| J ;.eXmXuX8XqXwXwX4X@X+X4XrX+X+.&.#X$XA.",
"O.A.F.^.:XwXwXwXwXwXwXwXwX5X]. .Y J.pXsXq h e.5.f : $ pXDXDXDX*XpXcXXXDX-X0XZX5X>Xq + d k q.5.; ].J.T N.4XhXwX4X2X4XwX4X@X.X3XrX@X%.` N.B./ ",
"^ $.Z.U.+X5XrXwX5X,X>X4XrX2X(.o.E !.sXwXq h q.f b j $ pXDXDXDXDXDXDXDXDXDXDXBXqX2Xq w Q d q.5.; T.I.( #.].2X5X&X[.&XqXqX8XqXwXrX@X#.Y R R L ",
"L R @.A.(.&X4X5X2X].^.:XwX>X^.o.( W.rXwXq h q.@ -.*.o pXDXDXDXDXDXDXDXDXDXnXaXwX>X6  .oX+ W 0.@ -.B./ | S.'.}.[.[.:XqXwXrXeXqX,XE./ L E | } ",
"E } ` o.n.U.'.|.|.(.(.|.$X'.B.] T N.>X4Xq h q.% M.] O pXDXDXDXDXDXDXDXDXDXjXrXwX>X6 ( [.. W 0.@ +.v.T ( %.S.D.^.&XqXqXqX4X,X}.S.{ / *. X-X X",
"!.oX!.&.] O.n.Z.F.U.R.F.B.%.] Y J ` L.[.q h q.+ ^ T O pXDXDXDXDXDXDXDXDXAXjXiXrX>X6 R E.o W 0.@ ` o.L I ( O.v.L.}.&X&X+X).S.@.] #.!.0XmXnX0X",
"1XcXnX7XK.` / o.$.$.O.] / / ( E E R ] O.- h q.+ N C O pXSXZXDXDXDXDXDXDXhXtXiXwX>X8 L M.  W 0.@ J ^ R E E ( ] | +.m.m.%.o./ | J.3XmXVXvXiX-X",
"&XiXvXmXpXW.( Y T R ` &.G.W.!. X!.J...Y O h q.+ C H O pXSXAXDXDXDXDXBXaXtXrXiX2X:Xq C {   W 0.@ ! K.!. X`.W.G.&.| R T T T #.XXdXZXZXsXwX4X&X",
"+X5XrXiXvXeXJ.Y L &. XpXcXmXmXmXmXcX;X-.O h q.. ;.W.o eXCXNXNXNXNXNXvXhXhXrX5X2X2Xq t T   W 0.; XXmXmXmXlXsXeX7XoXH.( I ..*XmXBXvXjXeXwXqX&X",
"_.4XrXwXiXaX[.(  .*XmXDXSXVXnXnXZXDXBX#X- h q.k w.w..  .M.*.&.&.*.&.*.*.*.o.} | O.- 7 K h q.5.; 0XDXDXZXjXiXaXjXzX9XJ.E K.jXnXaXeXiXeXrXqX&X",
"F.&XrXrXrX5XE. .!.mXSXBXlXiXuXaXdXmXVX3X6 h e.e.5.s . * * * * * * X X * * * X X X   > k q.x.5.; ;XSXZXnXiXqXqXiXhXtXQ.+. XlXsXeXwXrX4X3X3X&X",
"n.'.,X5X5X$Xm.*.7XAXvXiXeXrXuXaXhXvXvX-X6 h e.q.5.s . F [ [ [ [ [ 0 B [ [ Z t t e * > k q.q.5.; XXzXjXaXeXeXeXwXtX4XI.&.#XsXeXqXwXqX:X+X&X&X",
"o.Z.^.}.}.F.] C.pXmXiXqXwXwXrXiXzXnXhX#X- h q., d d . F 2XNXCXgXc.m Z b.xXzXwX^.M X , d : 0.0.;  XaXeXwXwXaXhXiXeX,XA.-.-XaXwXqXwXwX<X&X,X%X",
"T ] $.n.n.o.T C.eXzXeXqXwXrXrXiXjXhXwX).= g 0.: s i o F 4XwX(.^.F 0 M ~ '.R.}.$XM X > g : b b @ ].iXwXqXwXgXjXaXrX@X$.-.1XaXrXwXwXwXwXrX4X%X",
"Y E ( ^ ^ U I &.,XhXiXwXwX5X4XrXeX2X+XB.e w d s j g o A |.'.M 0 m 5 6 e 0 M m.$XM X < j 1 g d g #XtXqXqXwXwXwXwXqX'.] *.-XhXiXwXqXwXwXrX6X&X",
"G.!.W.;.} I L o._.4XrXrXqX&X+X,X>X'.S.]  .J + . w.Y.  0 (.kX{.6 0 * o 6 8 F.wX}.e   y X.& . u 1XwXwXwXwXwXqX,X&X:XL.^ o.+XiXiXqX3X2X4XwXqX&X",
";XcXmXpXoX;.E / A.[.&X,X,X}._.[.'.F.@.T ` M.H.I.4XI.  0 A P A 6 * R ;.= - N A M 8 X e %.@.M.).qXwXqXqXqXqX2X+X).U.O.I ( I.,XwXqX&X'.&XwX4X$X",
"1XmXAXVXmXpX!.| o.Z.U.^.(.(.^.U.Z.@.^ L Y %.).:X5XB.X Z Z B m 6 X &.`.O = e B M 0 X q ( %.R.[.+X&X&X&X$X[.^.A.%./ U L I  .U.$X>X+X(.[.:X$XR.",
".XeXaXiXlXBXdX!.| ] v.n.n.n.v.@.] ^ E E T R | v.U./ X ~ c.c.B 5 = L R - O M [ [ M X u E I / o.%.M.B.M.%.o.] ] ] ..-.;.#.`  .Z.R.(.(.^.~.D.v.",
"[.4XiXrXeXaXvXeXG.T ^ ] ] ]  .+.;.K.!. XW.;.} ^ ] C   0 G Z * q } Y J  .y X B [ M X T ;.L Y E ( ( / ^ /  .*.K. X7XdXdX3XW.+.] $.B.Z.Z.B.v.' ",
"+X4XrXwXqXwXhXaXQ.T Y +.H.W. X;XpXcXmXmXmXsXXX..Y y   0 G ) * H 1X&.E !.N = ) [ m X ( Q.R +.!.!.+.T +.W.;XpXcXmXAXSXZXlXiX.X+.( ] { { ] ^ I ",
".X4XrXqX4XrXhXqXI.^  .XXsXvXmXBXBXnXBXZXVXVXvX#X..y   M ) c.5 L uXC.|  Xy 6 [ G Z * / .X+.Q.jXdXT.&.*XcXmXnXvXlXzXNXvXaXhXiX`.| I Y R | | E ",
".X8XrXqX8XiXiX$XM./ *.=XhXjXhXsXeXeXjXvXaXiXlXdX`.N X ~ c.Z X H =X%.| ].y * t G c.= ( &X&.I.iXiXI.K.sXZXjXwXqXwXiXhXaXeXwXiX8XI.Y E J.=X*XI.",
"[.3XqXqXqXqX:X^.%.R +.).:X,X1XwXwXrXiXiXwXqXiXlX-XJ   M [ Z X u ).] ] ).y X A [ Z * ` =X%.M.,X:XB.H.eXjXeXqXqXwXiXiXwXwXqX8XqX[.| ;.0XAXcX=X",
"I.[.,XqXqX&X^.B.| Y ^ A.}.3XrXeXwXwXwXwXwXwXgXjX1XU   0 A B X y m.R ( T.t * A F M X R #X%.+.].'.o.%.&XrXqXwXrXwXrXwXqXwXqX:X&X[.$.M.7XzXwX[.",
"N.).&XqXqX+XA.o.T J I | L.<XiXiXwXqXwXwX5X4XqXtX%XU X 0 0 0 * q ( L Y N.q O e 0 0 * L I.] ( m.%.^ | ^.:X,X4XrXqXqXqX4X2X4X3X:X'.%.] I.$X{.Z.",
").&X3X5X<X^.O.T Y Y Y Y o.E.>X5XqXwXrXtX3X+X$X4X^ e F ) Z 5 X - T Y L | 8 X 6 A G ~ A e J L Y Y L ^ M.(.$X2XwXwXwXwX:X}.:X3X$XR.$.T / %.@./ ",
"_.}.$X$X^.O.T } G.!.W.-.( o.S.[.&X>X2X2X:X}.+X,Xe X ~ ~ A 0 * y W.K.&.` - = e A F ) 0   } &.....} R ` M.(.$X>X,X2X,X%X[.}.{.^.S.o.U L R R I ",
"A.R.R.S.o.T ..XXsXmXnX0XJ.E ` %.S.U.^.^.'.M.^ ^ ` H 5 5 6 8   J mXcX0XW.- O 8 5 5 5 t ` |  XpX7X*XJ.| ` %.S.U.R.^.^.^.^.R.D.Z.$./ ` N.W.K.;.",
"@.B.n.] Y &.*XmXBXvXnXBX7X-.Y R ] o.@.v.v.H - - ;X0X- - - -   J vXNXZXsXq   - - 6 - C.mXe *.lXvXnXdXoX&.R ` o.@.@.$.%.v.n.v.{ ^ #.oXdXmXdX-X",
"R ] ^ I } XXvXBXjXaXiXhXaX!.R J Y R ` ] 6 &.lXpXZXZXaXsXeX#X6 u eXtXlXvXe J ,XtXsXpXmXZX9X^ J eXiXlXjX#X..I I T ( ` ` / ^ R I | oXmXBXvXjX3X",
"Y T L Y G.9XzXlXjXaXwXrXrX].` Y  .H.W.K.O  .NXzXhXhXkXkXkXtX6 y eXrXiXiXq T kXkXxXkXkXgXkX~ 6 9XwXeXhXaX`.E J ..K.Q.W.C.| I I G.sXBXaXrXwX&X",
";.K.&.E I.wXiXiXiXrXwXrX4XE.(  .XXdXmXcX..T *.%.%.%.$.@.%.m.H ..iXtXqX,XL L M.%.%.%.%.%.M.P ^ wXrXeXtXiX&X+.` ].jXmXmXfXoX..Y J.uXjXeXwXqX&X",
"=XaX`.` H.4XrXwXwXwXrXtX2XH.^ -.3XzXBXZXDXH.O - O * = = = - XXiXeXtXwX+XE.P X * O = = = X / 1XqXrXwXeXwX].o.+.%XjXnXAXSXsXI.R -.,XiXrXrXwX&X",
"#X4XT./ m.$X5X5X5X5X4X3X+XM.^ *.%XqXrXiXjXwX=X]...L | A.T..X4XqXqXqX4X$XU.b.^ J | L._.`.).@X4XwXqXqX4X&XS.] #.[.:X>X4XrX4XI.( o.[.5XwXrX5X@X",
"E.).%.^ @.^.$X:X:X:X$X}.U.%.^ o.'.2X4X4X4X4X4X#XN.( %.L.{.2X4X3X2X,X&X[.R.Z.o.^ $.^.+X:X2X4X4X4X3X<X$XR.$./ o.E.{.{.{.|.{.B.^ ] L.|.2X6X2X)."
};
