/* XPM */
static char *collectible_linux1704973968[] = {
/* columns rows colors chars-per-pixel */
"70 70 234 2 ",
"   c #020403",
".  c #0A0302",
"X  c #000B01",
"o  c #040B09",
"O  c #0B0B0B",
"+  c #1A0300",
"@  c #07170A",
"#  c #0B1913",
"$  c #131414",
"%  c #151C1A",
"&  c #1C1D1C",
"*  c #28130D",
"=  c #053501",
"-  c #102B11",
";  c #302A19",
":  c #182D23",
">  c #252525",
",  c #282A24",
"<  c #2B2B2B",
"1  c #2B342D",
"2  c #263732",
"3  c #383838",
"4  c #481101",
"5  c #691100",
"6  c #502715",
"7  c #662609",
"8  c #054A05",
"9  c #104D0F",
"0  c #1A5E1F",
"q  c #36570E",
"w  c #127010",
"e  c #334B38",
"r  c #126E2B",
"t  c #337525",
"y  c #48512E",
"u  c #476C25",
"i  c #3D524B",
"p  c #424343",
"a  c #4B4B4B",
"s  c #49514E",
"d  c #4D4F51",
"f  c #4E5254",
"g  c #4E545A",
"h  c #525455",
"j  c #575C56",
"k  c #52565A",
"l  c #54595D",
"z  c #5A5B5C",
"x  c #506659",
"c  c #555C63",
"v  c #5A5E63",
"b  c #565E69",
"n  c #595F69",
"m  c #5D6064",
"M  c #5C636B",
"N  c #586569",
"B  c #5B7069",
"V  c #5D6671",
"C  c #5B6876",
"Z  c #5E6974",
"A  c #626364",
"S  c #646963",
"D  c #62666B",
"F  c #65696D",
"G  c #6A6B6D",
"H  c #6E706D",
"J  c #626972",
"K  c #646B74",
"L  c #6A6E73",
"P  c #646E79",
"I  c #6E7174",
"U  c #65717D",
"Y  c #6B737B",
"T  c #727374",
"R  c #707C72",
"E  c #73767A",
"W  c #76797D",
"Q  c #7A7B7C",
"!  c #883413",
"~  c #B04E33",
"^  c #B16937",
"/  c #C85F2B",
"(  c #CF7131",
")  c #E1792D",
"_  c #A77159",
"`  c #D07E47",
"'  c #2D8F10",
"]  c #33AE18",
"[  c #168925",
"{  c #35AE25",
"}  c #519402",
"|  c #52AD07",
" . c #68B501",
".. c #4C9134",
"X. c #46AC30",
"o. c #61B438",
"O. c #7BC709",
"+. c #5BCC3A",
"@. c #72D32A",
"#. c #6AA14A",
"$. c #8DD913",
"%. c #A3E122",
"&. c #B28E73",
"*. c #D98548",
"=. c #D19A73",
"-. c #E09863",
";. c #657381",
":. c #6A7582",
">. c #6E7986",
",. c #6E7B8A",
"<. c #707782",
"1. c #737B84",
"2. c #7B7D81",
"3. c #737E8A",
"4. c #7E8084",
"5. c #768E87",
"6. c #76818D",
"7. c #7B828C",
"8. c #7B958E",
"9. c #758291",
"0. c #7B8592",
"q. c #7C8996",
"w. c #7D8A9A",
"e. c #828385",
"r. c #828589",
"t. c #86898D",
"y. c #8A8B8C",
"u. c #838A93",
"i. c #848B94",
"p. c #8B8E92",
"a. c #838D9A",
"s. c #8E9194",
"d. c #889D96",
"f. c #86919D",
"g. c #8B939D",
"h. c #939394",
"j. c #909E95",
"k. c #93969B",
"l. c #96989B",
"z. c #9B9B9C",
"x. c #91A88D",
"c. c #8CA39B",
"v. c #96A19D",
"b. c #8794A2",
"n. c #8B95A2",
"m. c #8E99A5",
"M. c #939AA4",
"N. c #9B9EA2",
"B. c #939EAA",
"V. c #999FA9",
"C. c #9EA2A4",
"Z. c #9AADA6",
"A. c #96A1AD",
"S. c #9BA2AC",
"D. c #9CA5B1",
"F. c #9DA9B7",
"G. c #A3A4A4",
"H. c #A2A6AB",
"J. c #A5A9AC",
"K. c #ABABAC",
"L. c #A2B0AA",
"P. c #A1A7B1",
"I. c #A3ABB5",
"U. c #ABAEB3",
"Y. c #A4ADB9",
"T. c #A9AFB9",
"R. c #ADB0B4",
"E. c #AEBCB6",
"W. c #A6B0BC",
"Q. c #ABB3BD",
"!. c #B2B3B4",
"~. c #B2B6BB",
"^. c #B6B9BD",
"/. c #BCBCBC",
"(. c #B9C5BC",
"). c #FFC892",
"_. c #EEC5A3",
"`. c #FCD5B5",
"'. c #ADB6C1",
"]. c #AEB8C4",
"[. c #B0B7C1",
"{. c #B3BBC5",
"}. c #BABDC2",
"|. c #B6BEC9",
" X c #B8BFC9",
".X c #BDC0C4",
"XX c #BBCCC4",
"oX c #B7C1CC",
"OX c #BCC3CC",
"+X c #BEC6D1",
"@X c #BEC8D2",
"#X c #C3C3C4",
"$X c #C9C9C5",
"%X c #C1C6CD",
"&X c #C5C9CD",
"*X c #CBCBCD",
"=X c #CAD5CE",
"-X c #C1C7D1",
";X c #C4CBD4",
":X c #CACED5",
">X c #C6CED8",
",X c #C9CFD8",
"<X c #CDD0D5",
"1X c #CCD9D3",
"2X c #CDD2DA",
"3X c #D4D4D5",
"4X c #DFDDD5",
"5X c #D2D5DC",
"6X c #D5D9DD",
"7X c #DBDBDC",
"8X c #D5E1DA",
"9X c #DBE4DD",
"0X c #F3E5D6",
"qX c #D5DAE1",
"wX c #DADEE2",
"eX c #DEE1E4",
"rX c #DCE4E7",
"tX c #E3E4E5",
"yX c #E4EAE3",
"uX c #E9ECE6",
"iX c #E3E5E9",
"pX c #E6E8EB",
"aX c #EAEBEC",
"sX c #ECF3EC",
"dX c #F5F2EC",
"fX c #E7EBF0",
"gX c #ECEEF1",
"hX c #EFF1F3",
"jX c #EDF2F9",
"kX c #F3F4F4",
"lX c #F7F8F6",
"zX c #F5F6F8",
"xX c #F7F9FA",
"cX c #FCFCFC",
/* pixels */
"~.rXpXwXwXqXP.M S K.aXcXcXxXkXzXxXcXzX*X4.v z.pXzXhXhXhXjXkXjX&X4.G U.aXcXzX6Xh.A e.(.tXcXcXxXcXzXK.T J.kXxXpXqXwXiXfXjXiXT.E I ~.aXpXrXqX].",
"M.%X2X,X2X-Xm.F y.3XzXzXgXiXwXwXiXzXzXqXk.L K.qXwXwXqX2X2XqXwX5XG.W l.6XpXiXOX4.e..XpXaXpXiXpXgXgX~.Q C.aXzXiXqXqX2X2XqXqX|.t.L N.,X2X2X@XT.",
"6.F.oX@X+XW.7.I !.aXgXiXqX<X5XqXqXpXhX5XN.1.U.:X,X2X,X>X,XqXqX6X{.t.2.~.2X>XP.E C.tXuX5X:X,X5XqX5XT.2.k.7XiXqX5X2X;X@X X>X-XM.L 3.T.+X+X].m.",
"U w.D.'.W.b.P 2.*XaX6X:X:X;X,X5XqXpXiX%Xk.4.~.>X>X;X;X,X2X5X,X,X%Xk.E V.+X|.g.K J.rXeX>X;X;X>X;X;XP.E t.;X<X>X>X>X@X].'. X;XV.L P n.F.Y.m.,.",
"N P 6.w.w.;.N r.:XiX,X;X;X;X:X,XwXiX,X~.u.t. X,X<X,X,X<X2X,X;X-X{.k.J t.W.F.1.D S.<X2X>X;X;X;X;X;XV.L 2.}.,X>X;X>X-X{.T. X;XP.U m <.3.:.J c ",
"k v M J Z c l 4.OXwX5X:X;X;X:X<XqX5X;XP.4.k.&XqXqX2X;X:X>X>X:X[.S.u.D F q.9.V N g.oX>X;X;X;X%X;X-XV.J L H.>X<X;X;X;X-X-X;X;XP.P d v M J m c ",
"Q y.e.L v h h W T.5X5X>X;X%X+X;X;X%XQ.u.E V.>XqX5X,X;X;X;X-X X{.W.i.v l D V l v 0.F.oX;X;XOX{.{.[.u.c n k.-X2X>X-X;X;X;X:X-XV.D h I h.K.H.p.",
"/.7X3X!.e.A j K M. X;X:X-X[.I.{. XI.g.Y L V.-X>X;X;X;X>X;X{.T. X'.7.l j D m h k Y b.F.].oX].D.V.g.J f l 1.Y.;X;X+X|.|. X-X{.g.n I !.tXaXiX#X",
"$XhXcXaX6XG.T M 3.D.].|.|.D.B.D.F.w.,.b J g.|.;X;X;X-XOX-X X[.[.A.K z e.G.z.W z D 3.w.n.B.B.a.1.C b k j M u.D.].'.B.m.I.'.A.,.J z.tXgXiX6XOX",
"~.qXpXiXaXtX!.W K 9.b.B.B.B.n.b.9.,.b g c 3.I. X-X;X{.T.[.{.'.B.1.c G K.pXiX^.E v J :.>.;.P M b b _ h.Q v K 9.f.b.w.9.w.w.3.C I /.tX:XOXOX[.",
"J.;X2X<X5XrXwXK.I J >.3.9.9.3.,.;.b h h k J 3.M.P.T.S.M.n.g.3.L c h G R.iXqXT.1.j h b M D v h h Z R.7X^.W z D Y :.:.:.P P Z c 2.#X5X~.Y.{.T.",
"H.OX:X>X>X2XqX<Xp.v v J J P P U ;._ e.2.Q L J P :.<.:.Y P D D G D z A s.~.V.3.A G Q e.h.G.z.e.G T Q.wX:Xk.z h v V J D N b k k W ^.;X~.T.~.V.",
"H.OX>X;X;X>XqX2Xk.v h A E 2.p.G./.*X7XtX3XU.e.m c c c c F W h.G.K.e.m D I J K G.3XtXaXaXkXkXpX*X(.:XeXwX:Xp.G e.l.z.l.y.T z h T K.>X-X XT.M.",
"S.%X;X%X+X>X5XOXu.n D z.&X7XtXpXpXgXkXkXdXiX*Xp.v h A e.U.*X7XaXtX/.Q h j E #XxXaX7XcXcXxX4X3X3X3X3X3X3X7XkX3X7XuXaXtXwX*Xh.A A k.OX,X;X XP.",
"H.%X;X+X@X,X;XD.3.M 1.~.wXpXpXwX5X5XwXiXwXqXiX*Xr.z 2.#XwXwXwXiXwX.X7.k F K.aXcXh > *XcXG.$ O O O O O O p tXxXlXkXlXgXpXiX#X2.m 1.I. X|.T.n.",
"l.Q.OX@X;XOXT.f.:.v :.S. X%X:X:X-X,XqX5X:X;XqXqXK.G e..X2X>X>X>X;XT.7.D y..XhXcX& . E lXG .     & > & > p *XtXlXaXiXqX<X2X X4.z J 3.n.g.3.P ",
"7.M.W.+X@XW.b.3.D k D u.I. X;X;X;X;X;X>X;X;XqXqX~.E W T.;X;X+X|.W.m.u.!.7XwXdXcX&   S lXG   . $ U.#X/./.K.a z tXgX<X:X;X-XP.Y k h A J J n k ",
"s.P.{.;X+XI.0.J k d k U M. XqX,X;X;X;X;X;X-X2X2XT.<.J g.W.T.I.B.b.w.2XcX3XkXcXlX& X S lXG .   $ uXcXcXcX3X% & 3XaX*X>X>X+XM.J f h A L L K v ",
"S.oX+X+X'.g.U l z z k v <.D. X-X;X;X>X;X X'.].+XI.<.n Y 3.3.3.:.U >.jX^., d A S u t e j < . D G.lXcXcXcX7X& & 3XgX:X:X;X[.3.c k Q G./.#X^.l.",
"M.Y.W.W.g.K m F e.l.y.G D >.M.'.|. X-X-X].A.D.].D.1.c l M n m A M F kXy.O   . . #.X.8 X     V.zXcXcXcXcX3X& & 3XaX:X;X XB.Y v r.#XtXpXiX6X/.",
"3.a.a.0.K v W K.5XeX6X!.2.A U u.n.D.P.T.Y.B.B.B.b.:.c z G e.k.z.z.z.kXy.O @ e 9 ..{ ..t q 9 x #.W Q Q *X4X& & 3XaX;X{.B.1.n E /.aXaX6XqX<XQ.",
"Z :.Y n l R ^.aXfXiXiXeX~.I l D :.3.3.3.q.w.w.q.3.J D y./.7XaXgXaXaXcXy.@ : o.%.o.{ @.%. .[ = X     O z.3X& & 3XiXP.g.:.n v z.eXgXqX;X:X;XQ.",
"c b v h G K.wXaXwXqX,XqX:Xh.z d c M J ;.:.:.;.;.J F N.3XaXaXiXwXwXfXcXy.O @ ..| ] ]  .O. .X.t q y ; @ v.4X& & 3X3X<.J c k T !.eXqX<X;X;X-XT.",
"k z k h 4.&XeXeXwXqX,X:X;XM.A d h m J L P J n g k 4.&XiX6X:X:X;X;X5XxX!.d $ = w [ [ ] ] @.%.%.%.%.} = (.3X& & 3X&Xv k h h Q }.3X:X;X-X%X XQ.",
"2.l.2.z r.OX5X2X<X>X>X>X Xb.n h I z.!.!.K.N.2.m z e.#X2X;X-X;X>X,X2XkXlXaX3 @ 0 r r r ' +.O.O. .} = x.uX*X> 3 4X:Xe.e.G z Q ~.;X;X;X@X{.'.T.",
"R.3XR.G 1.W.;X>X>X>X;X>X|.a.n D z.qXaXhXgXaX*Xe.m E T.>X>X;X;X,XqXfXkXtX*X3     X X X = { | ' w = X j T G z.3XcXtX7X:Xz.F I S. X>X>X+XOX|.Q.",
"~.qX~.E U B.].+X+X+X+X|.Y.0.M E U.5XeXpXkXzXiXH.F J M.{.-X;X;X:XgXxX:Xa ; & > < * * . @ ..{ [ [ 9 - @ . , tXlX7X7XpX:XM.L J a.Y.oX@XOX-XOXQ.",
"S. XH.K M 3.w.m.B.A.B.m.a.:.M r.}.;X;X<XwXwX&Xk.D n ,.m.].;XrXgXxXgX< 3 ^ ( _.0X&.^ 6 . i [ X.@.$.| ] 8 : tX$Xe.V.P.g.:.c b Y w.D.Y.I.W.OXI.",
"7.M.7.v k M M J C P U Y P V D k..X-X-X,X>X XV.Y k k C 0.A.>XcXhXiX7X> y ` *.`.dX=.) 7 + > 9 9 9 8 w w = : tX/.A K P J n v z m L 3.w.a.B.D.a.",
"v V M A T e.e.e.2.Y D v c k J k.[. X;X XT.u.P v v v V w.|.rXcXe.p p !.$X`.`.=.-.*.) ^ ^ 4   X   . X X . , tX/.z A E r.s.l.h.e.I D J Y :.:.J ",
"d h L N.*X7XtXtX7X$XG.Q k h G k.P.'.'.M.<.n J 2.h.p._ rXcXcXcXj . $ aXcXcXzX=.) ) ) ) ) 5 . < p p p p p z aX$XQ G.%X7XuXaXaX7XK.T k k v c f ",
"h T U.tXlXlXlXkXgXaXpX*Xl.A A p.P.A.3.Y L y.!.7XaXgXfXxXG.f a h.!.^.cXcXcXcX`.).*.) / ~ 5 . l.hXkXdXdXkXkXaX#X*XtXtXwXrXeXpXaX3Xl.v G y.p.Q ",
"A G.qXjXgXiXwXwX5XqXeXeX<Xk.A Y 3.:.M E G.3XaXxXkX3X:XuXz O o G.cXcXcXcXcXcXuX0X_ / ! 7 * . z.lXK.K.G.G.!.$XtXpXqX<X;X-X2XqXqX,XH.L p.3X7X!.",
"2.T.5XwX5X,X2X,X,X,X2X<X3X}.2.n v v E !.wXeXrXxX#X< , z _ y.r.4XcXcXcXlXaXuX9X4X_ ~ 4 + + O G.kXT h h A G.tXiX2X&X&X-X%X%XOX;X-XP.E p.:X5XU.",
"<.M.Y.|.OX;X;X,X;X;X;X;X>X-XN.A h F K.7XaXiXgXcX/.$ o I fXxXcXcXcXcXaXaXyX8XL.G.; 4 6 H T Q 3XzXK.A h 2.*XiX2X-X-X;X;XOXT.Y. X;XI.I W J.I.4.",
"U 3.a.n.[.-X;X-X;X;X;X>X;XOXV.F j y.:XgXcXhXhXaX^.$ O rXxXxXcXcXcXxXuXyXrX1Xc.x.O   G lXcXzXzXpX*Xe.z 2..X2X:XOX X-X;XOXT.P. X;XT.E A 1.3.N ",
"c U 3.a.F. X,X>X-X{.[.OX>X|.n.L v G.iXxXtXj a a z G.K.zXcXcXcXlXkXuX9X=XZ.d.i , S G G.cXtX6X6X;X~.0.m Y V.{. X[.P.'.-X-XOXOX;X;XI.L k v b g ",
"f v ;.3.n.'. X-X{.S.m.'.-X'.b.P D #XcX<XG.$ . O y kXcXcXcXcXcXkXuXrX8XXXc.5.# o 7XkXkXkX:X;X-XT.M.1.m J 0.B.D.D.S.[.-X>X>X>X-X[.g.M k v F A ",
"m F J J >.a.B.Y.F.m.m.P.Y.B.M.U.#XgXuXp a z.z.z.!.cXcXkXkXsXlX$XE.L.k s i 2 3 s.kXaX*X;X&XOX[.D.u.;.c n <.3.a.n.T.+X-XOX.X[.D.u.P D Q z.!.G.",
"z.!.l.I V ;.,.3.0.f.f.q.3.Y.xXcXtX7X/.$ A cXcXcXcXcXcXaXuXuXsXE.c.8.      o z.cXlX}.S.W.Q.D.m.w.,.V g g m K ,.a.S.'.'.P.B.0.U n I z.3XaXaX*X",
"/.4XeX/.p.D n P P ;.P K J aX#XQ 3 > p _ ].cXcXcXcXkXkXrX9X(.(.B i i g j j h !.cXJ.n.n.f.a.0.,.U V v z A A D J K :.<.<.:.P n L p./.tXaXtX5X^.",
"~.5XwXiX3Xk.D k l v D <.y.zXh.O   . 3 aXxXxXcXcXlXsXuX9X9XZ.m.2 X $ yXkXlXkXlX7XE :.,.:.;.C Z P <.y.z.G.N.h.r.E K c c k c E K.6XhXgX6X:X;XQ.",
"P.;X,X6XwX&Xy.h h T G.*XeXcXh.O $ h Q hXcXcXcXxXkXyXrXXXXX#.;.g p k kXcXcXxXtXl.F c V b M E h.R.*XtXpXtX7X3X*X}.K.y.A h T R.eXpXpXwX:X;X%X'.",
"V. X>X;X5X3XN.A H !.aXcXxXcXh.O < cXcXcXcXcXlXuXyX8X8Xc.c.-   B.kXlXcXkXpXiXiX<Xy.c g n t./.7XgXzXcXcXkXqX,X2XqXqX#Xy.A y.7XtX7X<X<X:X;X;XQ.",
"q.'.;X,X>X Xg.L z.tXcXgXyXcXh.. 1 cXcXcXcXsXuX9X=XZ.Z.x x > 3 ^.lXtX7X5X5X2X5XqXR.G k y.*XtXiXeXaXkXzXaX2X>X;X2XqX:Xk.T G.wX6X:X;X;X%XOXOXQ.",
">.A.].OX+XY.1.2./.dXtX5X3XcXh.O 3 lXcXcXcXuX9X1XXXd.8.#   h dXcX7Xe.A.|.;X,X>X>XT.Y G K.eX7X5X:X2XqXeX6X>X>X>X,X>XOXg.E !.3X:X:X;X;X}.I.[.W.",
"K 6.n.A.A.q.K r.<XtX<X;X;XcXh.O < uXuXuXyX8X#Xc.5.i i < > s.cXeXp.D 3.B.].OX@X|.B.P T R.3X;X;X;X;X<X<X;X;XqXwX,X:X{.t.2.~.3X;X;X;X-X X'.{.Q.",
"l V U 1.,.J b 2.&XeX2X;X:XxXh.O < 7X9X9X8X1XE.8.B o O #X3XlXkXU.W z D 6.b.D.F.A.q.J Y U.%X X X;X;X;X;X;X-XqXwX5X;XI.<.2.^.,X>X;X;X;X;X;XOXQ.",
"k z N N v k k <.~.qX,X:X:XcXh.. & j.j.v.j.d.B o o   $ pXxXtX^.k.I k k n ;.9.0.q.,.N L A.T.I.W.+X>X;X;X;X>X;X&X;X-XV.P 2.~.5X5X;X;X;X;X;X-X[.",
"e.l.h.Q D h h K B. X;X;X;XxXl.O % 5.8.8.8.8.x s l j G.lX6XU.P.n.K m T T J C C :.C l M i.D.I.{.+X;X;X;X;X>X-X[.'.T.u.m L H.,X5X-X X X X;X-XQ.",
"/.tXtX3XK.e.A M 7.B.'.{.}.zX7XA % 2 2 2 2 2 % 7XkXkXxXpX}.T.V.3.m 2./.!.E l k M N g c Y n.F.|.+X-X-X-X-X-X{.P.M.u.P k n u.[.-X-X'.D.'.@XOXT.",
"/.pXhXaXtX*Xl.L J 9.a.m.M.&XxXgX<     . o   o 3XkX:X%XJ.V.B.3.J k Q R.J.Q G e.p.e.I z m U w.m.I.'.'.T.Y.S.M.3.<.V c h k L f.Y.'.F.m.A.].Y.b.",
"I.<X5X5XeXaX3Xz.J J :.3.,.3.;XzXz.y.y.y.y.y.e.aX7Xp.u.3.Y K n k f k F L r.!.7XtXtX.Xe.z l n J :.<.3.3.<.P V V D L Q Q I A K 3.g.m.B.b.w.0.;.",
"H.OX>X<X<X5XeX*Xr.c b V J J p.wXzXzXzXzXzXzXzXtXy.M M n M J E Q T z h E ^.eXiXgXxXaX/.E k k n D n n n M L 1.p.G.}.3X7X#Xk.L J U ,.3.,.,.;.V ",
"J.+X;X;X;X;X6X2Xk.z k E t.l.J.*XaXkXkXzXzXgX3Xp.v h v T h.!.&X3X!.Q A h.3X6X:XqXpXpX*Xs.v T z.l.I m T k.~.*X7XiXhXxXgXwX:XG.I n V Z C V b g ",
"I.+X;X;X+X>X5X+Xg.m K G.3XtXpXpXaXpXaXhXdXgXtXT.G h T U.6XeXaXgX*Xr.G G.:X:X:X5X6X5X&XS.I l.7X3Xs.Q !.eXpXiXtXwXtXaXiX6XqX:XN.G g g c D J b ",
"P.-X>X-X-X,X>XY.3.m 2.T.5X7X7X3X2X2XwXiX5X2XeX5Xz.A e.%XqX,XqX2X~.<.J G.;X,X;X,X,X:X;XI.2.p.:X&Xp.p.3XhX7X:X;X:X2XqX5X,X:X<X.Xt.z A y.U.!.p.",
"G. X-X-X-X-X'.n.Y v L M.[.{. X&X;X,X5X5X;X-X5XwX!.I 2.[.;X;X-X|.M.J A M.-X,X;X,X;X;X;XT.1.2.~.Q.1.y.*XqX<X;X;X;X2X5X:X;X-X-X-XV.D 2.*XdXtX^.",
"p.P.{.-X-X[.n.3.J k c 3.P. X:X>X;X;X;X;X;X;X2XqX~.E P M.[.[.I.n.<.c n g. X-X-X;X;X%X{.H.W I V.M.J Q U.;X-X;X;X;X>X:X-X;X-X[.[.V.Y 2.}.5X&XH.",
"3.B.'.;X-XP.0.J k d h J a.{.2X,X;X;X;X;X-XOX-X,XT.<.n >.a.u.3.U b f k 4.T.T.'.OX;X XI.f.J m <.:.c J n.'.{.OX>X;X-X;XOX XOX X[.M.Y D p.I.V.0.",
"N.Q.|.OX[.n.Y c h z z v L n.[. X X;X>X;X|.I.T.|.I.1.n n J M n c v k h G u.A.D.'.'.Y.M.<.l h c l f v 1.M.I.{.;X;X-X-X'.I.[. XI.f.;.c n Y ;.V ",
"M.H.I.T.k.P c A e.z.h.2.n L u.V.'.[.{. X'.B.D.'.A.>.c k n T r.k.h.y.T D J 1.9.0.7.1.K D D L T T D v n 3.m.T.'.{.|.{.T.D.D.S.m.3.P g h b c g ",
"7.f.f.0.K v T G.3XtXtX#Xy.n V :.3.f.f.n.n.n.b.b.0.U n T z.$XtXtXpXtX*Xh.F c n n N K 4.l.!.#X$X#X!.y.K M :.9.w.b.b.g.n.b.a.w.3.:.n D 2.h.p.Q ",
"U ,.>.M v E !.tXgXtXiXtX.X2.k c V ;.;.,.3.3.3.3.:.V E !.tXaXaXaXtXtXaX3Xz.m f l W K.*X7X7XtXtX7XtX<XK.E N M C P ;.;.;.,.:.:.C V E K.3XtX3X~.",
"c N c f F K.wXaXiX5X2XqX3Xk.z d k c M J J J ;.V b M G.iXtX6X<X*X:X<XeXiX.X4.k A G.eXtX5X,X,X*X:X<XqX7XU.I k g c n V M n b c l F K.tXgXiX6X.X",
"g c h h e.&XeXwXwX2X,X,X;XN.A h G t.h.g.p.2.J c k I !.6X2X;X;X;X>X,X<X2X%XN.G D J.5X3X*X-XOX%X-X;X2X6X<Xz.z h G p.k.k.e.K f h e.3XaX3X:X;X~.",
"Q y.T j p.;X3X2X,X;X>X>X-Xg.m G K.7XpXpXtX7X/.r.z I K.;X>X;X;X,X2X,X-X{.T.M.T A M.-X;X-X X'. X-X,X:X,X:XU.I F G.7XaXaX7XR.H z y.:XqX:X:X-X~.",
"!.*Xl.A t. X;X>X;X;X;X;X[.u.m 2./.wXpXkXkXkXtX/.Q J M.{.-X;X;X:X,X,X-XT.g.3.P n p.{.;X%X'.P.].;X>X;X,X-XV.K I K.3XiXhXgX<Xy.z 2.~.,X:X,X-X[.",
"I.}.k.v 1.Y.OX+X-XOX-X|.I.3.c Q U.;X,X2XqXeXwX#Xr.D 3.B.T.-X;X-X;X-X+XY.b.9.J c 1.P. X X X{. X;X;X;XOXT.u.V Y S.'.[.-X>X.Xp.m I D.OX;X>X-XT.",
"g.M.<.c Y b.Y.].[.'.T.D.g.:.c Y V. X XOX%X.X XH.2.c Y u.V.[. X X|.].'.A.b.3.C k I f.D.'.{. X-X X X{.T.g.:.c K k.D.D.P.I.S.3.n K a.F.|.+X|.B."
};
