/* XPM */
static char *enemy_walking_right_linux1704972489[] = {
/* columns rows colors chars-per-pixel */
"70 70 244 2 ",
"   c #010102",
".  c #090504",
"X  c #0D0806",
"o  c #02050A",
"O  c #06080C",
"+  c #0A0B0C",
"@  c #140401",
"#  c #1A0402",
"$  c #12100F",
"%  c #010612",
"&  c #040A13",
"*  c #0A0E13",
"=  c #030C1B",
"-  c #070D1B",
";  c #0C1117",
":  c #0C121B",
">  c #131314",
",  c #13161C",
"<  c #16191E",
"1  c #1A1B1B",
"2  c #30130C",
"3  c #37261E",
"4  c #071427",
"5  c #0B1524",
"6  c #0A162A",
"7  c #0C192D",
"8  c #131A25",
"9  c #1B1D22",
"0  c #121C2C",
"q  c #0C1B32",
"w  c #0E1E3B",
"e  c #111D33",
"r  c #141F39",
"t  c #1D2127",
"y  c #162338",
"u  c #242628",
"i  c #2A2B2C",
"p  c #322826",
"a  c #262C35",
"s  c #2D3035",
"d  c #323334",
"f  c #343739",
"g  c #3A3B3C",
"h  c #481104",
"j  c #5A1503",
"k  c #6E1C07",
"l  c #48281D",
"z  c #6D230E",
"x  c #4A362E",
"c  c #693D32",
"v  c #6D4537",
"b  c #1A2A47",
"n  c #1E304A",
"m  c #232E44",
"M  c #273448",
"N  c #333A45",
"B  c #3B3D42",
"V  c #2A3956",
"C  c #303D56",
"Z  c #3D4147",
"A  c #394458",
"S  c #344668",
"D  c #384969",
"F  c #444344",
"G  c #45474B",
"H  c #4A4B4B",
"J  c #524C49",
"K  c #434A57",
"L  c #4B4E52",
"P  c #4E5155",
"I  c #4E545B",
"U  c #525355",
"Y  c #53565A",
"T  c #54595D",
"R  c #5A5B5C",
"E  c #6E564D",
"W  c #4C576E",
"Q  c #555B63",
"!  c #5A5E63",
"~  c #565E68",
"^  c #465677",
"/  c #5D6065",
"(  c #576069",
")  c #5C636B",
"_  c #4F607E",
"`  c #5C6572",
"'  c #5E6874",
"]  c #586578",
"[  c #626364",
"{  c #6F6060",
"}  c #62656B",
"|  c #65696D",
" . c #6A6B6D",
".. c #626973",
"X. c #646B74",
"o. c #6A6E73",
"O. c #656E79",
"+. c #667077",
"@. c #6E7175",
"#. c #66717D",
"$. c #6B727B",
"%. c #767070",
"&. c #727375",
"*. c #72767B",
"=. c #75797D",
"-. c #7A7B7D",
";. c #893217",
":. c #9B4226",
">. c #8E4830",
",. c #A75235",
"<. c #A36F5E",
"1. c #8F786F",
"2. c #CB7A61",
"3. c #B18779",
"4. c #D38F77",
"5. c #5A6A87",
"6. c #5D7093",
"7. c #6B7582",
"8. c #6E7986",
"9. c #65718A",
"0. c #6A7788",
"q. c #717782",
"w. c #737B84",
"e. c #7B7E81",
"r. c #737D8A",
"t. c #697899",
"y. c #6B7DA3",
"u. c #7E8185",
"i. c #75818E",
"p. c #7C838C",
"a. c #758391",
"s. c #7B8592",
"d. c #7D8996",
"f. c #7B849A",
"g. c #7E8A9A",
"h. c #7988A8",
"j. c #7E8EB4",
"k. c #828385",
"l. c #82868B",
"z. c #88878A",
"x. c #85898D",
"c. c #8A8B8C",
"v. c #818793",
"b. c #848B94",
"n. c #8B8E92",
"m. c #838E9B",
"M. c #8E9195",
"N. c #86919D",
"B. c #8B939D",
"V. c #939395",
"C. c #93969B",
"Z. c #97989A",
"A. c #9A9B9C",
"S. c #B2988F",
"D. c #828EA6",
"F. c #8B95A2",
"G. c #8E99A5",
"H. c #8894A8",
"J. c #939BA4",
"K. c #9B9EA4",
"L. c #979DAA",
"P. c #949EAA",
"I. c #8A98B7",
"U. c #8D9AB9",
"Y. c #9AA1A9",
"T. c #9BA2AC",
"R. c #9CA5B2",
"E. c #9EA9B6",
"W. c #A3A3A5",
"Q. c #ADA6A7",
"!. c #A2A6AC",
"~. c #A5A9AD",
"^. c #ABACAD",
"/. c #A1A7B1",
"(. c #A3ABB4",
"). c #ABAEB3",
"_. c #A4ADB9",
"`. c #A8AFBA",
"'. c #ADB0B4",
"]. c #A6B0BC",
"[. c #ACB3BC",
"{. c #B2B3B4",
"}. c #B2B6BB",
"|. c #B5B9BD",
" X c #BBBCBC",
".X c #D59E88",
"XX c #D5A599",
"oX c #E7AB94",
"OX c #EEAB92",
"+X c #EDB29A",
"@X c #EFBBA6",
"#X c #8D9FC4",
"$X c #98A8CA",
"%X c #9FB0D3",
"&X c #ADB5C1",
"*X c #ABB6C6",
"=X c #B0B7C1",
"-X c #B4BAC4",
";X c #BABDC3",
":X c #B6BEC9",
">X c #B8BFC9",
",X c #ACB8D2",
"<X c #A8B8D7",
"1X c #C5BFC1",
"2X c #BEC0C5",
"3X c #B7C0CC",
"4X c #BCC3CC",
"5X c #BEC6D1",
"6X c #BAC4D6",
"7X c #B7C4E2",
"8X c #C3C4C5",
"9X c #C1C6CD",
"0X c #C5C9CD",
"qX c #CBCCCD",
"wX c #C1C7D1",
"eX c #C4CBD4",
"rX c #CACED5",
"tX c #C6CED8",
"yX c #C9CFD8",
"uX c #CDD0D6",
"iX c #CDD2DA",
"pX c #D3D3D4",
"aX c #D2D5DC",
"sX c #D5D9DE",
"dX c #DADBDD",
"fX c #C9D2E7",
"gX c #D5D9E1",
"hX c #DADEE3",
"jX c #D2D9E8",
"kX c #DEE1E4",
"lX c #DCE2EA",
"zX c #DCE5F1",
"xX c #E3E3E5",
"cX c #E3E5EA",
"vX c #E6E8EB",
"bX c #EBECED",
"nX c #E6EBF7",
"mX c #ECEEF1",
"MX c #EEF1F3",
"NX c #ECF1F9",
"BX c #F3F4F5",
"VX c #F3F6FA",
"CX c #F6F9FC",
"ZX c #FBFBFC",
/* pixels */
"}.lXvXhXlXkXT.) } ^.bXZXZXZXBXBXCXZXVX0Xu.R K.vXBXMXMXMXNXBXBX0X3.] ^.MXCXCXgXV.} k. XxXZXZXCXZXVX^.*.~.BXCXvXgXlXlXnXBXcX'.$.&.}.vXvXlXgX&X",
"J.9XiXtXiX5XB.| c.pXBXCXMXxXkXkXvXBXCXdXC.o.Q.hXhXhXgXaXiXjXlXiXY.+.C.aXvXkX5Xu.k.1XvXbXvXvXvXMXMX'.=.W.bXVXcXsXsXiXiXsXgX>Xb.o.A.tXiXiX5X].",
"i.E.3X5X5X].p.&.{.bXMXkXgXiXiXsXgXbXMXaXK.w.).rXyXyXyXeXyXaXgXsX;Xx.u.|.yXtXR.*.Y.xXvXsXuXuXaXaXaX'.-.C.dXcXgXaXiXeX5X4XtXwXC.o.p.[.6X5X3XG.",
"#.g.R.&X].N.+.u.qXbXsXuXuXeXuXiXsXvXcX9XC.l.[.eXtXeXtXyXiXiXiXuX5XC.&.Y.5X3Xn.o.~.kXhXeX9XeXtXeX5X!.=.x.rXiXeXeXtXeX*X].3XeXT.o.#.B._.E.H.0.",
"( #.i.d.d.#.) u.rXcXiXeXeXeXeXuXhXlXaX=Xn.b.2XtXyXrXyXiXiXtXeX5X3XC.@.p.[.E.8.T M.'.'.^.(.(.!.;XtXY.+.e.|.rXeXtXeXwX=X`.>XwX(.O.! $.i.0...Q ",
"Y / ) ' ' ( T u.9XhXiXrXeXeXeXiXsXaXeX!.u.M.5XkXhXaXeXrXyXeXtX[.Y.n./ | d.a.I O O O O O . O + w.wXP.| O.(.yXiXeXeXeXeX5XeXeX/.o.Y R ) ..) T ",
"-.c.k.@.! U Y *.[.aXsXeXeX9X4XeX0X9X[.b.*.Y.tXsXaXrXeXeXeXeX3X;X].8.d s N N i   g %.-.k.c.R . o.[.b.Q / M.eXiXeXeXeXeXeXeX9XP.X.U @.V.^.Q.n.",
" XdXpX{.k.[ Y o.J.:XeXeXeX[.`.-X3X(.B.+.+.Y.5XrXeXwXeXyXeX-XY.(.!.T > 1 1 1 1 1 k.BXZXBXkXM.O Q B.X.P T e._.5XtX5X-X-X4XeX-XN.) o.{.xXvXxX0X",
"8XmXZXbXdXW.&.) r.R.&X3X:XE.J.R.R.N.8.( ) B.3XeXeXeXwX9X4X[.a u t I qXpXpXpXaXdXbXBXV.&.r.K o G | R R U ) s.R.3X*XP.G.E.].T.8...Z.xXmXxXgX2X",
"}.gXvXvXvXxX{.-.X.i.F.G.Y.G.G.D.d.8.( U ! i.E.3XeXwX-X`.&X(.> X s X.lXlXhXrXrXqXpXqXL y *X9.o f ! -.V.-.[ ' i.g.F.g.a.g.g.a.' *. XxXrX9X5X-X",
"^.0XiXuXsXkXgX^.@...8.i.a.a.i.8.#.( I A Y ) p.G./._.R.J.F.p.* , D.H.I.U.D.m t 9 1 9 8 7 m e o d | {.dX|.*.R ( #.7.7.#.#.#.' Q =.8XaX'.`.-X[.",
"T.5XtXtXtXiXgXrXc.! ( ' O.O.+.+.+.-.e.3.-.o.| #.7.q.7.$.O.} L H f M M A C e 6 - : : y b b 4 o g | ^.hX0Xn.T I W ) ..| ) ~ I U -.|.rX=X`.`.P.",
"!.4XrX0XeXtXgXaXC.T U [ $.-.M.W. XqXdXxXpX^.u.! Q Q Q Q } =.V.c.* o O % & 8 e e q r C D D b o U / p.[.R.u.( [ 3.V.A.Z.c.&.R U &.).eXeX>X`.J.",
"!.5XeX5X5XtXaX4Xb./ | A.0XdXxXvXvXmXBXBXBXvXqXV.! U [ z.).qXdX8X$               o   O : y M C N i ! w.$.+.n. XdXvXvXvXkX0XV.[ [ C.4XeXeX3X/.",
"T.5XeX5XeXtXeXR.r.) w.=XhXvXvXkXaXaXhXcXhXsXcX0Xz.R 1.>XhXhXhX|.$       u E 3 . 2 2 @ . - y A y > H Y  .A.pXbXmXBXBXvXcXcX2Xu./ w.(.>X>X`.N.",
"A.}.4X5X5X4X].F.#.) $.T.>X9XrXeXeXrXaXgXrXeXgXgXQ.| l.>XaXyXrXK.+       J XXE . E >.2 @ O O ; p.x.) R c.pXxXdXgXgXxXkXuXiX2Xu.R } p.N.D.p.O.",
"p.Y.].5X0X[.B.i.) Y ) g.(.3XtXeXeXeXeXeXeXeXiXlX}.*.*.[.eXeX5XF.+       x .X<.l 4.4..XS.S.x X V.[.=. .^.hXiX0XrXeXuXrXrX5X(.$.Y Y [ X...) I ",
"n.T.3X5X4XE.s.' Y H R $.C.4XaXtXeXtXeXtXeXeXiXiX[.q.| B.`.].(.a.i >     o <..XOX+X+X+X+X@Xv @ V.2Xp.&.^.aXtX5XeXeXeXeXtX3XJ.| P U R o.@. ./ ",
"T.3X5X5X}.N.+.Q R R Y / 8.Y.3X0XeXeXeXeX3X&X*X5X(.q.) +.8.q.7.7.O.Z       c <.OX@X+X+XoXoXE 1 Z.2Xu.+.Y.rXiXtXrXeXeXtXeX[.p.Q R -.W. X8X{.A.",
"Y.E.].].N.+.! | k.Z.c.o.) i.Y.].:X3X5X9X:XY.R.=XR.r.Q K < < 9 t u N K N a c :.OXoX+XoX4.:.3.Z.(.E.i./ n.5XaXsXrXeXtXeX3XP.+.( l.8XvXvXcXgX;X",
"i.g.N.s.+.! -.^.pXkXsX{.-.) $.s.G.T.E.(.R.Y.G.P.F.O.B g F g i 9 8 C R.U.P.c z h 2 l x 1.3.S.Y.G.B.+.T u.|.tXiXtXeXeX*XY.q.( *. XbXvXsXsXuX}.",
"' 7.#.) T &. XvXbXkXkXkX|.&.T ) #.8.i.s.d.g.f.f.r.Q * i dXCXCX`.P.*XjX#X#X{.1.# & O   U ~.R.P.g.i.) U +.Y.3X4X3X&X(.N.7.( / A.xXMXsX0XuXeX[.",
"T ( T U  .^.hXvXlXjXaXgXqXV.R U ( ) ' #.7.7.0.' 9 8 8 0 ~ @.!.mXfXjXCXwX$XjX0X7 b 7   + 9 ) #.+.( T P ! 7.m.B.N.s.0.' Q U @.{.kXsXiXrXeX5X[.",
"Y ! R U u.0XkXkXkXjXtXtX5XA./ H U / | @.+.' ( L + o 0 N M r 7.CXZXZXZXCXNXU t O % f b.d   H } &.=.&. .[ ) ' ' ' ( Q Y U U -.2XpXtXeX9X4X3X`.",
"-.V.e.R p.2XaXaXiXiXtXtX3XB.) R %.A.{.{.^.A.} G > ; 7 5XtXm 5.,XCXeXO.=XBX1.Z o ; / BXT . %.^.8XpXpX XA.%.R Y ! O.-.k. .R -.[.eXtXeX4X3X[.].",
"'.sX'. .i.].5XtX5XyXtX5X3Xg.) / A.sXbXMXbXxXu 9 v.] 0 _.-XA r.%XCX'.a m.CXZXrX: A T.CXP . ~.vXMXBXZXBXkXW.[ Y &.{.dXqXA.| @.T.4XtXtX5X4X3X'.",
"|.sX}.&.+.P.3X3X5X5X5X3X].s.) =.'.iXkXkXz. .I ~ >X9.4 6 K nX_.%XCXBXkXNXZXZX0X5 n I.CXH * |.aXsXkXvXMXVXpXl.[ V.pXcXeXJ.+...b._.3X5X4X5X5X[.",
"T.4XT.+.( i.d.H.P.R.P.G.g.*.) p.;XeX'.'.g , I.6XCXcX9X>XP.<XR.%XCXuXQ.;XpXBX9X8 6 g.VXF + ^.eXuXgXpXsXkXqXx.[ =.Y.(.B.8.Q ( $.g.R.].E.].3X(.",
"p.G.s.! Y ) ( ' ' +.+.+.#.) ) C.3X9XP 9 7.D.lXNXZXZXcXcXE.D.I.<XCXu.7 A _ lX3X7 7 N.VXg + T.eXrXuXtX5X3X(.*.T ! X.+.' / ! R ! +.p.d.g.Y.T.N.",
"/ ) ) [ &.k.i.3.w.$.| ! T T o.C.}.3Xg & f.%XZXZXZXNXR.D.r q V 5.6X] 6 a A lX;X8 7 h.zXs $ n.&X3X5X5X;XT.b.) P Y } *.u.M.A.V.k.@.} ..#.7.#.' ",
"P U o.A.qXdXxXxXdX8X^.-.T U o.C.(.[.s + f.,XZXCX4X!.C C & * m _ <X5.M y M kX}.7 q 0.*Xt + ) s.Y.[.*X].F.+.Q R -.W.8XdXvXbXbXdX^.@.Y T / ( P ",
"U @.^.vXBXZXBXBXMXbXxXqXZ.[ / n.R.Y.t ; D.,XZXBXI.t.< .   & m 5.7XzXMXvXcXZX}.7 q 5.I.7 > | | #.r.a.i.#.( %.W.qXxXvXkXhXkXbXbXpXA./ [ c.V.&.",
"[ Y.hXVXbXcXhXhXaXhXkXkXuXV.} X.r.O., 9 D.7XZXxXu a C.P O t 0.h.$X6XjXCXZXZX[.0 q 5.h.q u W.e...~ ) ~ Q @.'.xXvXsXuXeXeXiXgXgXrXT.@.M.pXsX^.",
"e.'.aXgXaXuXiXiXeXyXyXyXaX;Xu.R a 9 ` r.fXnXZXdX< i ).[ O a h.h.j.j.U.nXZXZX).7 q 5.I.y.W B x g L U B B &.).1X;X9X9XeX5X3X4XeXeX~.*.M.uXsX^.",
"q.J.`.-X5XeXeXeXeXyXeXeXtX0XK.[ $ O H.,XVXZXZXqX> i /.Q . o & 4 q t.U.*X:XeXd.7 e W t.I.t.a 9 1 R R 9 X     + < Y.eXeX2X`.(.3XeX_.@.&.!.`.u.",
"O.a.g.F.&XwXeXeXeXeXeXeXeX9XL.} * + y.U._.[.-XC.* f P.L o   . s g ` h.h.I.I.5.7 r - 9 G.<XvXxXdX[ 1 R 1.1.%.p . M.2XeX3X`.(.3XeX'.&.) i.i.( ",
"Q #.i.m.E.5XeXeXwX>X=X>XeX-XG.) * * 5.y.y.y.I.5.: L B.G o O = G.uXu O $ : 8 , % &   ; W h.hX0X^.J > E 4.oXoXv @ u.[.wXeX4X9XeXeX(.@.Y ! ( U ",
"P Q #.i.G.[.4X5X-XL.J.=X5X&XF.~ +   & - - 5 8 N l.m.r.B   O = M Z + t u   o > B u   o 0 ^ ,X..& p >.h 2 v ,.j @ e.[.5XeXeXeX5X=XB.) Y ! | ) ",
"[ | | ..8.m.Y.E.E.G.G.R._.G.r.Q + . 2 l x x x { P.m.7.s   + t - % o F P O : K nXK.O   & A #XW o l ;.h # c :.j # x.4XeX4X4X=XT.d...} -.W.{.W.",
"Z.).A.$.` #.0.i.d.g.F.f.r.7.` G . # :.<.@X@X@XS./ O.) i   u *.t o   G H . : a m.} O     f D.A o x :.2 # c :.j # =.[.[.(.J.p.+.' +.A.pXbXvXqX",
" XxXkX2Xc.| ) ' $.0.O.` ` ) [ H . 2 2.4.OXOXOXE @ B I u u f H > O 1 F f     o O O       O : *   @ 2 # @ l ;.h # P 8.r.7.X.) +.n. XxXbXkXpX;X",
"{.uXkXcXqXZ.} T Y Q } =.x.C.A.&.O p 4..XOXOX4.c @ G  .i H J .   > [ 1 . o 5 ;       9 f i u u u X .     h k j 2 H ! T T Q $.W.dXMXmXdXuX5X[.",
"!.eXtXsXkXqXx.Y U &.W.qXxXxXbXQ.+ 2 ;.:.,.,.:.j @ z.8XF U H     1 [ $ . : a n y -   d ( } *.n.^.F X . . @ # { Q.W.k.[ U %.{.xXbXvXgXuXeX5X}.",
"Y.4XeXeXiXpXY.[ %.{.bXZXBXmXvX{.i 3 j z ;.z z 2 3 {.mXH J F + + i [ X * y A S S y   i / c. XdXbXqX{.W.c.%.! K.gXhX9Xc.[ M.dXxXsXuXuXrXrXeX}.",
"g.}.5XtXtX4XB.@.A.xXZXbXkXpXuXuXqX%.# # # # 2 1.1XsXxXd X d [ [ f $   * 7 y S y.V o s z.qXxXxXxXvXMXBXxXuXeXeXiXgXeXC.&.W.dXsXuXeXeX5X4X4X[.",
"i.G.3X4X3X/.p.=.1XbXxXaXiXtXyXaXgX).-.{ F F { 1XrXiXiXi   1 d g 1 X O * 7 w V 6.^ N F k.pXhXaXyXyXhXhXdXrXiXeXyXiX4XM.-.^.sXuXeXeXeX-X(.&X[.",
"' i.B.R.Y.d...u.pXcXpXeXtXeXrXfXkXcXaX`.z.z.;XyXyXeX2Xt           * 5 5 4 y n D U.hXY > W.eXeXeXtXrXyXtXeXfXgXiXeX-Xs.-.}.iXeXeXeX0X3X[.3X].",
"T ) #.8.i.' ( u.0XhXiXeXeXtXrXiXhXgX9XL.e.J.eXgXeXb.=.$           o & : 4 e w n 9.*XO.B *.n.`.eXtXeXeXeXeXaXhXaXeX`.=.-.|.iXtXeXeXeXeXeX4X[.",
"I ( ( ( Q I U *.}.sXpXeXtX0X5XeXeX3X(.e.$.!.tXpX}.;                 o : 5 q q q V D D.6Xa o $.9XeXtXeXeXeXeXeXwX9XP.X.e.}.aXaXeXeXeXeXeX5X[.",
"3.g.M.e.| U U +.Y.3XeX5X5X[.(.-X&XY.d.....K.F.q...o                     o = 4 q w b ^ y.y O =.wXeXwXeXeXeX9X-X}.[.b.) o.!.yXiXeX3X2X4XtX5X}.",
" XxXxXpX^.k.[ / i.Y.].3X-XE.J.Y.P.d.O.Q ! b.B O                           % = 6 6 q M D b & e.4XwXeXwXwXwX:X(.G.m.X.Y ! b.=XeX5X[.R.].4X4X].",
" XvXMXbXvXqXA.#.X.i.N.F.G.G.B.g.i.#.Q P Y ..a                             o   o % q b S ^ 7.K Q K.`.`.(.T.F.p.7.` Q U Y o.m._.&XE.G.R.*XE.B.",
"(.rXsXaXhXbXpXA.| ' 0.0.8.8.8.#.' / ! R 1 O                         . g g O     o 7 b V 6.$XM o ! r.r.7.O.....} @.=.-.&.[ X.i.N.H.G.F.g.a.7.",
"~.5XiXrXrXsXkX5Xx.Q ( ' ' X.#.$.e.c.k.k.1                         . > @.c.> .     5 6 q V ^ r   G ~ ~ } O.q.n.W.2XpXdX2XC.@.| #.i.i.i.0.9.` ",
"~.5X5XrX5XrXsXiXV.R R @.c.C.!. XqXpXi + .                       d [ P V.8XW.u.O   = 5 q b D m : H U %.C.{.qXdXxXbXZXbXhXuXW.@.) ' ' ' ` ~ I ",
"(.4XrX5X5XrXsX5XM./ | W.sXxXqX|.|.W.>                       i d %.k. .W.uXrXY.O   = = 6 w V _ h.m , u.xXbXcXxXhXxXbXcXsXsXrXY.| P I Q } ' Q ",
"!.9XeXwX5XiXtX(.i./ =.'.sXsX[ O   .                       + {.rX'.=.| W.eXrXT.O   o % 5 q b S y.b o z.bXdXrXeXeXuXsXaXrXtXyX4Xc.R R c.{.{.c.",
"T.>XeXwXeXwX[.F.7./ X.J.&X|.H   + o                   > d B '.-XG...) J.9XyX!.* o   + 8 q q n S w . e.dXuXeXeXrXiXaXtXeXwX9X9XK.| u.pXbXxX X",
"n.(.-XeXeX[.F.r.` P ! p.T.3XG o & 4                   i !.`.(.F.8.Q / B.3X5X-XY.e.+   o = 6 w n b u F q.k.v.b.b.b.b.(.9X9X-X}.L.+.u.2XsX0X!.",
"p.J.&XwX5X(.s...Y P P ..N.-XB     o               1 g Q v.d.r.#.( P Y u.(.[.[.wX`.;     o = 6 q b ^ e % . & o & * + [ -X>X>X&XL.$.} x.(.T.p.",
"C.[.2X4X-XF.+.Q Y R R ! o.B.f           O         i T ) | ) ) ( ! R U X.n.P.R.&XY.$       o o % % 4 - - * * a ..H   Y !.&X-X_.F.#.Q ) $.#.` ",
"J.E.(._.B.#.! } k.A.V.-.) X.i       * : 8 *       + , B / &.l.M.V.c.&.[ ..r.a.s.$.1 $         o o o - 8 0 r K *X8.o U Y.R.T.F.a.' I Y ( ( T ",
"p.N.N.s.X.! &.Q.pXxXxX8Xc.) G B >   % % 5 7 t g T s   F A.qXxXxXxXxXqXV.| Q ) ( ) ) L         , , 5 8 0 b ^ S b 7 o B N.m.g.r.7.( | e.V.M.-.",
"' i.7.` T *.{.xXbXxXcXxX8X-.Y I 9       % e V 5.I.K   %.dXbXbXcXxXbXbXpXC./ P Y =.~.V.$ .     % = = = 4 q b b = o o d #.7.7.] ` *.^.pXkXpX}.",
"Q ( ( U } R.hXvXlXaXiXsXuXZ.R H 1         % 5 6 q =   z.xXdXrXrXrXuXhXcX;Xk.R [ W.kXdXQ.[           o % = = = o * i F ( ( T Y | ^.cXbXkXdX2X",
"U ( U U 3.3XkXkXkXaXtXuXeXK./ U u           % % % o   -.rXeXqXeXeXiXiXpX9XK.| | !.pXpX0X*.O   O   o   o o o o o p V.V.k. .P Y k.pXbXsXuXeX}.",
"e.c.@.R M.5XiXiXuXeXeXtX4XB./  .R H H H H H B d u s F J.eXeXwXrXiXtXeX-X`.J.o.} J.wXeXwX).n.V.K.W.W.W.W.z.R U u.2XbXbXdX'. .R z.qXgXuXtXeX[.",
"'.qXA./ x.4XrX5XeXeXeXrX:Xb.! -.{.pXkXvXbXbXxX X*.} M.-XwXeXeXtXtXeXeX`.N.a.O.! n.-XeXwX[./.&XwXeXeXeX2XK.X.@.^.aXxXmXMXuXc.[ -.|.uXeXtXtX[.",
").2XM./ w.].3X5X5X5X4X3X(.i.( -.'.eXrXaXsXhXhX8Xk.) p.J.[.wXwXeXeXeX4X_.N.a...Q w.(.>X9X>X-X>XeXeXeX4X`.s.` *.Y.*X-X4XrX2Xn.! @.T.3XtXtX5X(.",
"B.J.8.Q $.F.].=X&X}.].R.N.#.Q +.P.3X4X4X9X2X-X~.=.! #.v.P.-X3X>X-X:X[.T.D.a.' T O.m.R.[.-X:X5X4X4X-X`.F.$.Q o.B.T.R.E.(.R.r.! ..g.E.3X5X2XG."
};
