/* XPM */
static char *enemy_walking_left_linux1704972489[] = {
/* columns rows colors chars-per-pixel */
"70 70 243 2 ",
"   c #010102",
".  c #0D0302",
"X  c #02050A",
"o  c #080608",
"O  c #06090C",
"+  c #0A0B0C",
"@  c #150504",
"#  c #1C100D",
"$  c #000612",
"%  c #030A14",
"&  c #0B0E12",
"*  c #060C19",
"=  c #020C1C",
"-  c #0B111A",
";  c #131314",
":  c #12151B",
">  c #171A1D",
",  c #1A1A1B",
"<  c #2C0A02",
"1  c #381308",
"2  c #261A16",
"3  c #20201F",
"4  c #020E21",
"5  c #051124",
"6  c #0A1424",
"7  c #06142A",
"8  c #09172C",
"9  c #07182C",
"0  c #0C1A2D",
"q  c #1C1E22",
"w  c #141B28",
"e  c #0B1B33",
"r  c #0B1C39",
"t  c #111E34",
"y  c #1E2126",
"u  c #162237",
"i  c #252627",
"p  c #24262A",
"a  c #2B2C2D",
"s  c #262C36",
"d  c #2C323A",
"f  c #343537",
"g  c #3A3B3B",
"h  c #510C02",
"j  c #471709",
"k  c #6B1401",
"l  c #702B14",
"z  c #5D2E20",
"x  c #50362D",
"c  c #57403A",
"v  c #714538",
"b  c #1A2A47",
"n  c #1E3050",
"m  c #222E45",
"M  c #2A3447",
"N  c #363C45",
"B  c #283755",
"V  c #333D53",
"C  c #313E60",
"Z  c #3D434D",
"A  c #374358",
"S  c #2E4165",
"D  c #374766",
"F  c #434344",
"G  c #43474C",
"H  c #4A4A4B",
"J  c #5C4B44",
"K  c #444B54",
"L  c #4B4E51",
"P  c #4E5155",
"I  c #4D535B",
"U  c #525355",
"Y  c #53565A",
"T  c #54595D",
"R  c #5A5B5D",
"E  c #6C5752",
"W  c #414E66",
"Q  c #485369",
"!  c #555C63",
"~  c #5A5E63",
"^  c #565E69",
"/  c #465677",
"(  c #535F7A",
")  c #5D6064",
"_  c #576068",
"`  c #5C636B",
"'  c #5D6671",
"]  c #5E6874",
"[  c #58657A",
"{  c #626364",
"}  c #62666B",
"|  c #65696D",
" . c #6A6B6D",
".. c #636B74",
"X. c #656B76",
"o. c #6A6E73",
"O. c #646E79",
"+. c #706F71",
"@. c #667077",
"#. c #6E7175",
"$. c #66717D",
"%. c #6B727B",
"&. c #727375",
"*. c #7C7577",
"=. c #72757B",
"-. c #76797D",
";. c #7A7B7D",
":. c #883115",
">. c #893D25",
",. c #8A462E",
"<. c #A55034",
"1. c #9F6D5A",
"2. c #AF6A53",
"3. c #92746C",
"4. c #CA7D62",
"5. c #8B817F",
"6. c #B68574",
"7. c #D59078",
"8. c #485980",
"9. c #596886",
"0. c #667385",
"q. c #6A7582",
"w. c #6D7985",
"e. c #6E7A8A",
"r. c #717780",
"t. c #747B84",
"y. c #7B7D82",
"u. c #737D8A",
"i. c #697591",
"p. c #6D7EA5",
"a. c #7E8185",
"s. c #75818E",
"d. c #7C838C",
"f. c #758291",
"g. c #7B8592",
"h. c #7D8996",
"j. c #76829B",
"k. c #7E8B9A",
"l. c #7688AD",
"z. c #7A8AAC",
"x. c #828384",
"c. c #82868B",
"v. c #8B878A",
"b. c #85898D",
"n. c #8A8B8C",
"m. c #988882",
"M. c #838996",
"N. c #848B94",
"B. c #8B8E92",
"V. c #838E9B",
"C. c #8E9195",
"Z. c #86919D",
"A. c #8B939C",
"S. c #939395",
"D. c #93969B",
"F. c #96999B",
"G. c #9A9B9C",
"H. c #B29387",
"J. c #8B95A2",
"K. c #8D99A6",
"L. c #8995A8",
"P. c #939BA4",
"I. c #949BA7",
"U. c #9B9EA3",
"Y. c #939EA9",
"T. c #8696B8",
"R. c #909AB0",
"E. c #A395A8",
"W. c #99A1A9",
"Q. c #9BA3AD",
"!. c #9CA5B2",
"~. c #9EA9B5",
"^. c #9BA8BB",
"/. c #A3A3A4",
"(. c #A2A6AB",
"). c #A5A8AD",
"_. c #ABABAD",
"`. c #A3ABB4",
"'. c #A5ABB5",
"]. c #AAADB2",
"[. c #A4ADBA",
"{. c #AEB0B3",
"}. c #A6B0BC",
"|. c #ACB3BC",
" X c #B2B3B4",
".X c #B2B6BB",
"XX c #B6B9BD",
"oX c #BCBCBD",
"OX c #D6A390",
"+X c #EDAD94",
"@X c #ECB29A",
"#X c #D2ADA1",
"$X c #EBC0AF",
"%X c #8F9FC2",
"&X c #97A5C5",
"*X c #ADB5C1",
"=X c #ADB7C7",
"-X c #B0B7C1",
";X c #B4BBC4",
":X c #BABDC4",
">X c #B5BDC9",
",X c #B9BFCA",
"<X c #A9B6D1",
"1X c #BEC0C4",
"2X c #B7C1CB",
"3X c #BCC3CC",
"4X c #BEC6D1",
"5X c #BEC8D2",
"6X c #C3C4C5",
"7X c #C1C6CD",
"8X c #C5C9CD",
"9X c #CBCBCD",
"0X c #DAC9C8",
"qX c #C1C7D1",
"wX c #C4CBD4",
"eX c #C9CED5",
"rX c #C5CCD9",
"tX c #C9CFD8",
"yX c #CDD1D5",
"uX c #CDD2DA",
"iX c #D3D3D4",
"pX c #D2D5DC",
"aX c #D6D9DD",
"sX c #DADBDD",
"dX c #C1CCEA",
"fX c #D5DAE1",
"gX c #DBDEE3",
"hX c #D7DEEF",
"jX c #DEE1E5",
"kX c #DDE2E9",
"lX c #DAE4FA",
"zX c #E3E3E4",
"xX c #E3E5E9",
"cX c #E6E8EB",
"vX c #EBECED",
"bX c #E4EAF6",
"nX c #ECEEF1",
"mX c #EEF1F3",
"MX c #EDF3FC",
"NX c #F3F4F5",
"BX c #F4F5F9",
"VX c #F6F9FC",
"CX c #FBFBFC",
/* pixels */
".XkXcXgXkXfX~.` { _.vXCXCXVXNXNXVXCXBX8Xa.~ G.vXBXnXnXmXMXMXnX8Xa.+._.nXCXVXsXC.) x.oXzXCXCXVXCXNX_.#._.mXCXxXjXjXkXmXMXxX{.=.#..XcXcXkXfX=X",
"P.7XuXtXuX5XD.| n.iXVXBXmXzXjXzXxXBXCXaXD.o._.gXgXgXfXpXpXfXgXpX/.=.D.pXcXxX6Xd.x.6XvXvXcXzXcXmXnX.X;.W.nXBXxXfXpXtXuXpXfX2Xb.o.P.yXuXuXwX}.",
"s.~.2X5X5X}.d.#. XvXnXkXfXuXuXaXfXvXnXpXU.y.].eXtXtXtXrXtXpXfXfX;Xb.y.XXyXeX!.=.W.zXcXaXyXyXpXfXpX'.-.F.sXxXfXfXuXrX5X3XwXqXP.o.d.}.4X5X;XK.",
"$.k.!.*X}.Z.@.a.9XvXaXyXyXwXyXuXfXcXxX7XS.d.|.wXeXeXwXtXpXuXtXtX7XD.=.W.4X2XZ.X.).jXjXeX5XwXwXtXwX`.-.b.wXuXwXwXrX5X=X}.3XwXQ.o.X.J.^.[.L.q.",
"_ $.s.h.h.q.` a.eXkXuXwXwXwXwXuXgXkXpX-XB.N.:XyXtXtXtXuXiXtXeX7X2XD.o.g.|.!.w.| W.tXuXeXwXwXwXeXwXW.#.-.XXuXeXwXwXqX;X[.>X5X`.@.~ %.u.0.] ! ",
"U _ ` ..] ! T a.7XgXpXeXwXwXwXuXfXiXqX).a.C.W.a.b.a.y.y.y.b.B.'.W.B.` | g.f.' ` A.2XrXwXwXwX4X8X7XW.| #.~.tXuXwXwXrXqXqXwXwX`.o.Y R } ..` R ",
";.n.x.#.! U U =.|.pXpXwXwX7X3XwXwX7X|.N.%.U.-.+ & ; ; + & + + C.Q.d.T U ` ` T _ g.[.2X5XwX3X;X=X.Xh._ ` A.qXpXeXwXwXwXwXeX7XI...Y +.C._.).v.",
"oXsXiX Xx.{ T o.P.>XwXtXqX.X'.;X2X[.A.%.X.U.%.O n.sXiX9X1XR o p d i > > H ) U U $.Z.[.=X2X;X~.P.Z...P Y ;.[.4XwXqX>X;X3XqX;XZ.^ o. XzXvXzX9X",
"6XmXVXnXiX/.&.' s.!.*X2X;X!.Y.!.Q.Z.w._ ` A.%.O Y C.vXCXCX/.U U H H F F {  .U F ) u.k.K.W.K.Z.s.| ~ R U { g.!.=X*XY.K.!.*XQ.w...G.zXnXkXfX6X",
".XsXcXxXnXzX X-...s.J.K.W.Y.L.J.h.w._ U ! a._ O ` R.V O.NXCXCXCXNXCXCXNXU o . + Y ] q.w.$.X.' ! R ;.S.;.) ] s.J.L.k.f.h.k.f.] %.oXxXeX7XqX-X",
"_.7XuXuXaXkXsX_.#...w.s.f.f.s.w.$._ U U T ' K   ` L.u M S.n.x.x.g.=X2X>Xz.O.* + H U ! ` } ) U U | {.sXoX-.~ ' $.$.0.$.$.$.] ! -.1XiX.X[.>X|.",
"Q.4XtXwXeXuXfXyXn.~ ^ ] O...O.O.=.-.5.;.-. .Z   - e e 8 % & % : t e.j.i.i.i.p i ~ &.x.F.G.F.a.{ | {.aXeXb.T I _ } ..| ` _ I U ;.oXwX.X'.[.I.",
"(.3XwXwX5XwXfXuXD.R Y ) %.a.n./.oX9XsXzXiX_.L o u V S B 0 w w 0 0 5 4 = $ * T ;./.6XzXvXvXcX9XB.{ b.}.~.t._  .3.S.G.G.B.&.R U &.].qXwX,X[.P.",
"(.4XwX7X5XtXfX3XM.~ | F.8XsXzXcXcXmXNXBXvXeX*.: s C n b 5 6 5 5 * $ $ X   + n.iXcXNXCXCXmXjXkXXX=.| t.$.@.C.oXsXzXvXcXsX9XS.{ { P.3XtXwX,X).",
"(.4XwX4XwXtXwX!.u.` y..XgXcXcXjXpXuXjXxX X; q Q B 8 $ X       o + O       & oXvXzXcXmXNXzXuXaXwXS.~ Y | G.iXvXmXNXNXvXcXxX1Xa.) t.'.,X>X*XZ.",
"F..X3X5X5X3X}.J.%._ q.Q.,X7XwXeXwXeXuXaX|.L L u 6 $   o z z . F 6.x       +  XfXuXuXjXcXsXuXpXuX(. .R n.iXzXaXaXsXzXaXuXuX:Xa.R } u.J.J.u.X.",
"d.K.}.5XqX}.J.u.' U ` M.`.2XwXwXwXtXtXwXwXqXP.O ; 2 2 f <.<.< E OXv       + D.qXwXtXuXfXpXwXwXtX|.=. ._.jXuX8XwXeXeXeXwXwX'.%.Y U { ....^ Y ",
"C.~.;XqX5X`.g.] U U T %.K.3XpXuXwXwXwXwXwXqXA.o J #X@X@X@X#X3.H.6.1       + t.*XqXwXwXuXwXrXwXwX,Xc.=.].pXwXwXwXwXwXwXtX3XK.} P U {  .#.o.~ ",
"Q.2X5X5X.XZ.@.T Y R R ~ -.Q.2XqXwXwXwXwX3X|.c.O J $X@X@X@X+X@X7.2.@     i L B.*X4XqXqXwXwXqX3XwX;Xb.o.U.wXuXuXwXwXwXtXwX*Xd.^ R ;./.oX6X.XF.",
"F.[.}.}.Z.@.) | x.F.v. .` t.Y.}.>X3X4X4X;XY.d.N E 4.OX@X@X@X@X<.l @   o Z t.J.W.A.A.;XwXwX>X[.*X[.t.` B.4XfXpXeXwXwXwX2XY.X.^ x.6XxXcXxXsXXX",
"u.k.Z.h...) -._.iXjXaX X;.` %.M.J.Q.~.[.~.Y.Y.K.3.E 2.7.6.3.1.>.:.E [ q.d q 6 : ; > P.2X4X|.I.K.A.$.T a.=XuXuXwXqX4X;XY.t._ =.oXvXcXaXfXuX|.",
"] q.$.` T =.oXcXvXkXxXgXXX#.T ` q.u.u.g.h.k.h.h.a.E x @ @ . @ j v E.%X&XQ d N R x.n.N N I.!.Y.V.s._ U o.W.;X3X2X;X`.Z.q.^ ~ G.zXvXaXwXeXqX{.",
"T _ R U  ._.sXvXkXfXuXfXeXS.R U ! ` ..O.0.0.0.0._ G a   & w :  X0XR.&XlX=X%XdXMXzX1Xi ; I ! O.X._ U P ) w.N.J.Z.h.q.] ! U &..XsXgXuXwXwXqX|.",
"Y ~ U U a.8XjXkXhXpXtXuXqXF.) H U ~  .o.o...^ Y F . + ; w t 0 _.6X>XlXCXMXMXVX-.u u u w $ ; ~ &.-.=. .{ _ ....] _ ! T U U ;.oXpXeXwXqX7X3X}.",
"a.S.3._ a.3XuXuXuXtXtXrX2XA._ Y +.G. X X_.G.a.R F   H 6XZ X X ; F BXMXzXNXCXcXr.u f.u.0 $ : G.1XiX9XoXF.o.T Y T o.y.x. .R -.{.eXwXwX5X;X-X}.",
"{.iX{...s.}.wXwXeXwXwXwX;XZ.) } G.gXvXmXmXcX9Xv.H o U NX#.w % =. XNXC.s {.BX'.9.m fXtXw t N v.G.NXCXVXjX/.| U *. XaXeXG.| &.W.3XrXwX5X3X2X}.",
".XaX.X%.@.W.=X3X5X5X5X2X[.g.` =.].iXgXcXNXVXxX(.U o U NX[.Q 7 eXCXCX].X.rXBX*XT.R.t.Y t [ L.0 q sXcXNXNXiXx.{ S.iXxXwXI.o.X.V.^.2X5X3XqX7X|.",
"Q.3XQ.@.` s.k.K.R.Y.W.K.Z.q.` c.:XwXwXuXfXgX9XP.U o H NXB.u 9 8XCXCXCXnXBXBX*X&XxX` A W R.hXV.0.d U iXjX9Xn.{ -.W.`.A.w.^ ~ %.k.~.[.`.}.2X`.",
"d.K.d.~ Y ` | ..] @.@.$.$.` ' D.3XqXqXeXeX,XY.%.L o F NXb.9 9 4XnXC.e.I E.BX=X%X^.<XlXbXVXCXrX^.d N a.c._.=.T _ X.@.' ` R Y ) #.s.h.k.Y.Q.Z.",
") ] ` { &.a.x.x.a.%.| ) T Y | F..X,XqX3X[.M.O.~ L O f NXA.6 9 2XgXQ B 4 e.bXR.i.9.q.5XrXVXCXVXMX^.j.% d N.` P U } =.x.C.F.F.x.#.| ..%.q.$.] ",
"L U o.U.9XsXzXsXiX6X_.;.T U  .F.`.*X*XI.t.) ..;.a.+ a yXd.0 9 2XgXm e 8 Q <X( b = : L.&XMXCXCXCX}.l.% p #.T ) ;./.6XsXcXvXcXsX_.+.U T _ ! I ",
"U +.{.zXNXCXCXNXmXnXzX9XF.{ { N.!.Y.g.@.o.n. XiX9X, 3 <Xi.e 0 =XnXA.L.Y.&X<X9.m = o w u L.<XVXCX-Xz.* , )  ./.9XzXxXjXsXkXvXvXiXF.R  .n.C.*.",
"| W.gXBXvXxXkXfXaXfXgXkXyXS.` @.s.%.` =.(.iXcXvXsXp : T.9.e 0 *XCXCXVXVXgX>Xi.B - X p g ^ i.bXCX3Xz.0 : +. XsXvXaXeXwXwXuXfXfXtXQ.#.n.iXsX{.",
"-.{.pXgXiXuXuXuXwXeXuXuXpXoXa.) _ ! #._.sXaX3X{.W.f N z.9.e e }.CXCXBX*X&X&XT.z.b & F.;Xs y zXCXwXR.m p y. XzXiXwXqXqXqX7X,XwXwX_.=.C.yXpX_.",
"t.P.[.;X3XwXwXwXwXwXwXwXeX1X&.F a a f *.iXa., O & %.T.T.9.r e ~.VXMXlX^.T.i.i.9.u + S.2Xs , iXCXVXMX|.M.X g wXqXqXeXwX3X[.[.,XqX`.%.-._.`.d.",
"X.s.k.J.*XwXwXwXwXwXwXwXwXD.&     + # U W.=.R +.c.K.%XV b e 0 q.[.^.!.T.i.- X X   + n.3Xs & 9XVXmXcX<XV.= i 1X,X,X7XqX,X].`.,XrX{.%.` t.u.` ",
"^ @.s.k.~.4XwXwXqX;X=X3XwXA.X x H.OX7.E . ) mXNXNX*Xl.w % 6 7 D 9.9./ W D d.{ & X + a.3XG o g.&X&X%X%Xl.4 3 |.*X!.|.qXwXqXqXwXqX'.#.Y ! ! P ",
"L ~ $.f.K.}.3X4X>XQ.K.|.4XM.O c OX7.1.v z x U C.rX[ b $   O X X $ $ $ X w ,XM.4 $ O -.qX..i ' 0.( Q Q V % ; D.(.Q.*XqXwXwXwX4X;XA.` Y ~ | } ",
"{  .| ..e.V.Q.~.!.K.K.~.~.q.O 1 ,.:.@ 1 v l X ^ <XQ 8 X   Y b.a % X x d X q w * $   ~ 6X,XXXZ $ $ * % +   ; t.A.|.4XqX4X2X;XQ.M...} ;.U. X/.",
"G._.F.%.' O.e.f.h.V.Z.h.s.! O j ,.:.. 1 ,.k   K L.B X   O F.kXZ 6 X L F   o 6 V :   I [.|.!.N.3.m.m.E x @ + X.M.!.}.|.`.P.d.$.` #.G.iXvXvX9X",
"oXsXsXoXC.| ` ] O.0.O...' Z O j >.:.. < l h . p W t       d A 6 % X G H     3 *.i   F B.X.d 3.$X@X+X4.<.h o U X.%.u.u.q...` X.B.oXzXvXkXuXXX",
"{.pXkXcXiXS.` T T T } -.x.| o < l k . . . . o O + + + .       o X   i g f + o a F g d q.A X J #X+X+X7.7.j . { &.| ~ T T ! =.).aXmXnXsXyX7X.X",
"`.5XuXuXkX9Xv.Y U *./.9XzXoX .c 1 h       ; U &.v.S.E.U     O 6 w X   ; { 2     H U p ` G o x 6.7.7.4.2.j @ C.:X).c.{ U +. XzXvXxXsXyXwX5X-X",
"U.3XtXwXyXiXW.{ +. XvXCXBXvXcXm.# # , : ; a ).zXmXmXmXy.o : N B V u + ; { 3     F U 3 ) { o # z :.:.:.k 1 @ F.fXgX6Xn.{ C.sXcXiXyXyXyXwX5X.X",
"V.|.5XwXwX3XD.#.G.cXCXmXjXpXeX3XXX9X9X].3.;.9XxXzXzXgX=.o u / S n r = + U a i i g f , x._.U x h k k k h v 3.=XuXfXwXF.&./.sXsXuXeXwX4X3X3X|.",
"s.K.2X3X3X^.a.-.oXvXzXiXuXeXeXfXgXxXxX:XZ.N.8XuXtXuXuX+.X M p.S r 0 5   o f { { a   , _.sXiXF.; < # # 2 *.wXtXtXuX3XC.=._.iXyXwXwX5X;X[.-X|.",
"] s.Z.!.W.h.] d.yXcXuXeXeXwXwXpXgXxXaX|.c.B.3XuXtX-X| ~ ;.q.8.B r 9 5 - O O ; & o   , {.uX9X2X).).].{.|.>XuXfXuXwX;Xd.a..XuXwXwXwXwX2X|.;X}.",
"T ` $.s.w.] _ a.8XjXeXwXwXwXwXfXgXfXqXY.t.F.wXpXpXI.O ~ nXQ.S b u e 5 - *           ; G.2X2X3X8XeXwXwXwXrXpXgXpXwX'.-.y.XXuXeXwXwXwX8XwX4X|.",
"U T _ _ _ P T -..XfXuXeXwXqX4XwXtX,X'.u.&.Q.rX).I P u.y.' V r r e 7 4 X               y d P.}.qXwXwXwXwXwXwXwXwX3XW.X.-.XXuXuXtXwXwXwXwX4X.X",
"x.G.S.y.} U P o.P.2XqXwXwX|.'.-X-XY.g...X.U.qXb.o s <Xp.S b 9 7 7 4 = X                 & A..X3XwXwXwXrXwXqX;X.X|.N.` o.(.uXuXqX3X2X3XwXwX}.",
"oXzXcXiX_.5.) ` s.Q.}.;X-X`.Y.W.P.h.X.! ) M.-Xy.$ p / B r e e 7 = X                       a g %.qXqXqXqXqX;X'.P.M...Y ) N.-XwX5X}.Q.}.5X3X}.",
"oXcXmXvXcX9XF.#...f.Z.J.K.J.J.M.u.0.^ U T %.M.%.: M D n e 5 = $ $                             N ].|.[.'.Q.J.d.$.' ! I Y o.A.`.*X~.K.!.*X[.Z.",
"_.eXaXiXjXcXiXG...] q.e.u.e.w.$...~ ~ R R K : N '.i.C b e $       o O                         q ` | t.q.O.] ` ..o.-.a.#.} ..s.Z.L.K.J.k.g.0.",
"~.3XtXtXtXaXjX8Xx.! ^ ] ] ] O.%.y.C.G./.S.{ X d p./ n r e $     o g F +                         X q ^ ` X.t.C./.oXsXiX1XS.#.' $.s.f.s.e.0.' ",
").5XeXeXwXwXaXuXF.R Y &.b.F.(.oX9XsXzXzXjXS.. w W n e 8 7 $   f g ) R g F ,                       + f U  X9XsXxXmXVXmXgX9XQ.&.` ' ] ] ' ^ I ",
").3XwX5X5XeXpX4XZ.{ | /.aXxXcXvXvXcXvXzX9Xv.s V C m 0 4 = X o .X6Xx. .U.8XU                           , aXgXsXsXzXvXxXaXaXyXG. .P I ! ' | ! ",
"`.7XwXqXqXuXwX[.u.{ =.|.pXsXaXpXuXyXgXS.+ s L.8.B u 8 = = X   _.{.t.| /.qXU.o.{ O                     + T ) R C.iXaXpXuXwXuX,Xn.Y { n. X Xn.",
"W.2XwXqXwXqX*XJ.%.~ o.I.XX-X1XwXwXtXpXb.o w 8.B r e 8 $     X D.D...} P.qXtXqX].;                           X P pXpXeXwXqXqX7XU.| a.9XmXzXoX",
"B.`.;XqXqX|.J.u.' Y ~ u.Q.-X8XeXqXqX4X#.O q D n r 7 5 X X i f d.w.! ~ A.2XqX4X3Xc.;.3                   ; % o P eXeXqXqXqX;X*XY.%.;.1XaX8XQ.",
"a.P.*XqXqX'.g...T L P K N I ~ T T K N s V m r r 7 $ X   o o.t.@.^ P T y.[.|.|.3XqX|.g ;                 % %   Z 7XqX7X,X3X,X-XI.%.} b.`.Q.d.",
"P.{.2X3X;XJ.%.! U R U a   o O o   X   w C t 5 4 4 X     + Y _ _ ~ U U | M.Y.!.*X.X`.N.` q                     g 8X8X=X`..X>X'.Z.$.! ` %.$.' ",
"P.~.`.}.A.X.! { x.G.S.F o o.!.Z : : : $ $ $ X X X       @ { c.S.F.n.&.} ..t.g.g.d.w.' P q       o * O X       g ;X2X}.Q.!.Q.J.f.] Y T ! ^ T ",
"d.V.Z.g.X.^ *./.iXcXsX{ o Q p.D B t e - & + +         f  .oXzXzXcXsX9XS.| ! ` _ ` ..K O o       & 0 = %     o a A.A.Z.Z.Z.h.f.0.` } a.S.C.-.",
"@.s.q.' R &. XzXvXzXgX{   % 6 A / b e 8 6 6 5 X       ;.sXvXvXcXzXvXvXiXG.) P Y *.).&.  G c.! d u = $ X   > L _ $.$.0.w.w.q.[ ` =.(.iXzXiX.X",
"! _ _ P | (.sXvXgXfXeXY o   X 4 e 7 4 $ X X X     o ;  XxXaXyXeXwXuXjXxX:Xx.Y { /.sXv.  f 9.A b 8 $       , P T _ ` ` ` _ ! T o._.kXvXkXsX1X",
"Y ! U U x.9XjXjXgXpXwX).S.p   X $ $ $ X           Z _.aXuX8X8XwXwXtXuXiX7XU.| } ).iX;.  X 4 4 4 $         , U o.C.F.C.d. .P U x.iXcXaXeXwX.X",
"y.n.+.R C.8XiXuXtXwXwXeX,XN + & : > > , , , : ; + H _.wXwXwXwXyXuXtXqX:X[.P.o.} P.7X=.o   % % X X o o O   i { /.sXvXvXsX{. .R v.9XfXyXwXwX.X",
"{.9XF.{ b.3XwXwXwXwXtXwX;Xu.U +.(.6X9XaXiXsXiX_.+.{ P.;XqXwXwXwXtXyXqX[.A.g.O.~ B.;X|.B.x.-.y.b.n.N.v.a.| U #._.iXzXmXmXyXn.{ ;.XXeXeXtX5X|.",
"].1XS.) w.`.5X5XqX4X3X,X`.u._ -.].wXeXuXsXgXgX6Xx.) d.Y.*X7XqXwXqXqX3X[.Z.f.O.! t.'.2X3X:X;X,XqXwXwX3X}.M.` %.Q.*X;X3XyX3XB.) #.Q.3XwXeX5X[.",
"A.K.-._ $.J.^.-X-X|.[.!.A.0.~ @.Y.>X3X7X6X3X;X).-.~ %.g.W.=X2X2X>X=X*X!.J.f.' T #.Z.!.}.;X2X3X4X2X:X[.A.%._ #.A.Q.!.!.[.Q.u.~ | k.^.>X5X2XP."
};
