/* XPM */
static char *_08a1e1489d0477cf907e999f36d4124dWJX3pFzHHiBFCyC[] = {
/* columns rows colors chars-per-pixel */
"70 70 254 2 ",
"   c #010101",
".  c #0B0403",
"X  c #050909",
"o  c #0B0B0B",
"O  c #130402",
"+  c #1C0501",
"@  c #1C0A04",
"#  c #160B09",
"$  c #0A140D",
"%  c #1A130A",
"&  c #080D12",
"*  c #0B1114",
"=  c #131314",
"-  c #181719",
";  c #1B1B1C",
":  c #260A05",
">  c #340C04",
",  c #28140D",
"<  c #3D1303",
"1  c #381509",
"2  c #360A11",
"3  c #241914",
"4  c #371B14",
"5  c #093115",
"6  c #24221C",
"7  c #3A2419",
"8  c #011927",
"9  c #261C25",
"0  c #182929",
"q  c #02253A",
"w  c #232323",
"e  c #27272A",
"r  c #2A2B2C",
"t  c #2D2E30",
"y  c #342F32",
"u  c #373639",
"i  c #500B07",
"p  c #471807",
"a  c #431C13",
"s  c #670A0C",
"d  c #760A0C",
"f  c #482518",
"g  c #572710",
"h  c #582918",
"j  c #682E17",
"k  c #4D3229",
"l  c #563525",
"z  c #653227",
"x  c #673728",
"c  c #763A28",
"v  c #0B481B",
"b  c #13491C",
"n  c #0C5628",
"m  c #2F5E27",
"M  c #0F7232",
"N  c #7B442D",
"B  c #664830",
"V  c #764C36",
"C  c #7B5436",
"Z  c #666023",
"A  c #052F48",
"S  c #013957",
"D  c #363A45",
"F  c #013E62",
"G  c #462040",
"H  c #433A46",
"J  c #613A64",
"K  c #1B465E",
"L  c #3D4246",
"P  c #38504F",
"I  c #034A71",
"U  c #444648",
"Y  c #4C4C4D",
"T  c #534D4D",
"R  c #484B52",
"E  c #4E5155",
"W  c #525354",
"Q  c #5A5756",
"!  c #54565A",
"~  c #55595D",
"^  c #5B5B5D",
"/  c #705049",
"(  c #786454",
")  c #465A68",
"_  c #565B62",
"`  c #565B65",
"'  c #5A5D63",
"]  c #5D6165",
"[  c #57606B",
"{  c #5C636B",
"}  c #496A7F",
"|  c #5E6771",
" . c #646465",
".. c #62666A",
"X. c #66686B",
"o. c #6B6C6D",
"O. c #636B73",
"+. c #686D75",
"@. c #6A717A",
"#. c #737474",
"$. c #76787B",
"%. c #7B7C7C",
"&. c #8F070C",
"*. c #AB050D",
"=. c #AF0E0E",
"-. c #B9300A",
";. c #823C28",
":. c #DD201F",
">. c #D23114",
",. c #D81B21",
"<. c #E81523",
"1. c #A2590E",
"2. c #86472C",
"3. c #874933",
"4. c #8F4D31",
"5. c #8A5638",
"6. c #965738",
"7. c #955A3A",
"8. c #97623D",
"9. c #A6633D",
"0. c #E54D16",
"q. c #D96511",
"w. c #855743",
"e. c #936952",
"r. c #A96946",
"t. c #B36C43",
"y. c #BC7446",
"u. c #AC6B5B",
"i. c #AC7752",
"p. c #847772",
"a. c #C5784E",
"s. c #E37765",
"d. c #138D3B",
"f. c #2A9136",
"g. c #74931B",
"h. c #4E9328",
"j. c #64A626",
"k. c #17934C",
"l. c #13AB43",
"z. c #24BF41",
"x. c #919B15",
"c. c #AF910F",
"v. c #AEAF0F",
"b. c #E99404",
"n. c #CAAF09",
"m. c #F6B406",
"M. c #A2C919",
"N. c #CECB0B",
"B. c #F4D303",
"V. c #EAE204",
"C. c #FAE600",
"Z. c #B68953",
"A. c #8D9063",
"S. c #B18870",
"D. c #CA8957",
"F. c #D18D56",
"G. c #D8965B",
"H. c #E09B5C",
"J. c #CA9469",
"K. c #DA9B65",
"L. c #E99267",
"P. c #DDA374",
"I. c #E4A66A",
"U. c #EFAC6E",
"Y. c #035987",
"T. c #086797",
"R. c #357398",
"E. c #0C75A7",
"W. c #56698F",
"Q. c #6B7684",
"!. c #747C87",
"~. c #1987B7",
"^. c #7B828A",
"/. c #638E93",
"(. c #798694",
"). c #6194B1",
"_. c #178FC5",
"`. c #2AAFE4",
"'. c #4A9CC7",
"]. c #838384",
"[. c #88898B",
"{. c #948D8A",
"}. c #868D95",
"|. c #8A929B",
" X c #969799",
".X c #B69B8B",
"XX c #A49C98",
"oX c #9FA09F",
"OX c #A3A19D",
"+X c #BCA39A",
"@X c #8996A4",
"#X c #959CA6",
"$X c #9BA1A7",
"%X c #9CA3AC",
"&X c #9BA5B2",
"*X c #9BA6B4",
"=X c #A3A3A2",
"-X c #A3A7AC",
";X c #ABAAAC",
":X c #B5AFAC",
">X c #A3AAB4",
",X c #ABADB3",
"<X c #A4AEBA",
"1X c #AAB0B9",
"2X c #ACB3BC",
"3X c #B3B4B7",
"4X c #BBBCBC",
"5X c #D0A985",
"6X c #EAB789",
"7X c #F3BE8F",
"8X c #C6B7B2",
"9X c #F5C28C",
"0X c #F8C796",
"qX c #DBC9BA",
"wX c #F4D4B2",
"eX c #9CB5C5",
"rX c #ADB6C2",
"tX c #ABB8C4",
"yX c #B4BBC4",
"uX c #B7BDC6",
"iX c #BDC1C4",
"pX c #BCC3CD",
"aX c #AFC7D0",
"sX c #BEC6D0",
"dX c #BFC8D3",
"fX c #C2C6CB",
"gX c #C7C8C9",
"hX c #D6CCC9",
"jX c #C1C7D1",
"kX c #C4CAD4",
"lX c #C9CED6",
"zX c #C6CED8",
"xX c #C9CFD9",
"cX c #CDD1D5",
"vX c #CCD2DB",
"bX c #D3D5DD",
"nX c #D7D9DB",
"mX c #E4DCD3",
"MX c #EAE2D8",
"NX c #CDD6E0",
"BX c #D5DAE1",
"VX c #DADDE3",
"CX c #DADBE6",
"ZX c #DDE1E7",
"AX c #E3E6EB",
"SX c #E5E6E9",
"DX c #EBEBEC",
"FX c #E5E9F2",
"GX c #EFEFF1",
"HX c #ECEDF2",
"JX c #F2F3F4",
"KX c #F4F5F9",
"LX c #F7F8FB",
"PX c #FCFCFD",
/* pixels */
"3XSXFXBXVXVX>X' ] ;XDXPXLXLXLXJXLXPXLXkX$.^  XDXLXHXHXHXHXJXJXgX%. .,XJXPXLXVX|.^ ].4XSXLXPXLXPXJX;Xo.;XLXPXAXBXVXAXHXJXFX2Xo.o.3XHXFXZXBXyX",
"#XjXvXlXvXkX@X] ].nXLXLXDXZXVXZXSXLXPXVX|.o.;XVXVXVXBXvXbXbXZXnX$Xo. XbXFXAXfX].%.fXDXDXAXAXFXHXHX3X#.#XDXLXAXBXbXvXvXBXBXpX]...#XvXNXvXkX<X",
"^.*XpXkXkX2X!.o.3XJXHXZXBXlXvXnXnXFXJXnX#X!.,XxXlXlXlXkXlXvXbXBXuX].!.2XvXzX%X$. XDXHXbXlXlXvXbXbX1X$. XVXAXBXbXvXkXpXpXlXkX X..^.rXsXkXyX#X",
"@.(.*XrX2X@XO.%.cXHXBXlXkXkXlXvXnXSXAXfX|.].3XlXkXkXkXlXvXbXvXvXjX X@.$XzXsX}.o.-XAXVXlXkXkXlXlXkX-X@.[.kXvXkXkXlXkXrX<XpXlX%XX.+.@X<X<X@XQ.",
"` @.!.(.(.@._ ].cXAXxXkXkXkXkXlXVXAXbX3X[.}.pXvXvXlXlXvXvXlXkXpXuX|.X.^.rX*X@...#XlXvXlXkXkXkXlXkX%Xo.$.yXvXkXkXkXjXrX<XuXzX>Xo.' Q.!.Q.| ! ",
"W _ { | | _ W !.fXZXbXkXkXkXkXvXBXbXkX-X%.|.kXVXBXvXkXlXkX%X$.+...! u L ! E D u ` %XkXkXkXkXjXkXkX$X..X.>XvXvXkXkXkXjXpXkXkX>Xo.E _ { ..' W ",
"%.[.%...! Y W Q.2XBXbXkXkXjXpXkXkXfXrX}.o.#XvXbXvXlXkXvXpXO.- = = * o o o o o o ; O.uXjXkXpXyXyXrX}.~ ' |.kXbXlXkXkXlXlXlXkX$X] W X.{.;X;X[.",
"4XVXnX3X].^ W O.#XpXlXlXkX2X>XuXuX<X|.+...$XlXkXkXvXpX}.~ 0 v v v v v v v v v n v t ! |.pXuX&X#X|.O.Y ! !.<XkXlXjXuXyXpXkXuX}._ o.3XSXJXSXgX",
"gXJXPXJXnX=Xo.] !.&XtXpXuX&X#X&X*X|.Q.~ ] @XpXvXkX#XY o   v l.l.l.l.l.l.l.l.l.z.d.5   w O.|.|.!.{ ! W W { (.*XtXrX#X@X*XrX&XQ.'  XDXKXAXBXfX",
"3XnXFXSXHXSX3X#...(.@X#X%X#X@X@X(.Q.{ E ~ (.*X}.u o   5 v M l.l.z.z.z.z.z.z.l.l.l.M n 5   = L ~ ^ %.{.%.^ | (.@X@X(.(.(.(.(.{ o.4XDXvXpXsXrX",
"-XkXvXlXvXAXSX;Xo.| Q.(.(.(.(.Q.O.' E Y ~ _ t       $ M l.d.M M j.M.M.M.M.M.h.M M l.l.n X     - W 4XSX4X#.~ { @.Q.Q.@.@.@.| ! $.gXnX1X>XuX1X",
"%XpXxXlXkXvXZXcX[.~ _ { | | | O.o.#.%.].Y o     X 5 b M l.f.h.g.v.C.B.B.C.B.v.g.h.d.d.M n 5 X   X X.ZXbX}.! Y ~ ' ] ] ' ~ E E $.uXlX2X>X<X#X",
"%XpXlXkXdXkXVXbX X! E  .#.].{.=X4XcXSX%.X       $ M l.d.M h.N.V.C.C.C.C.C.C.C.C.v.m M d.l.M X       E %X!.~  .]. X X X[.#.^ Y o.<XlXkXuX<X#X",
"-XpXlXsXsXlXBXpX}._  . XgXnXSXDXDXKX].X     X % 5 M k.h.g.v.B.B.m.m.m.m.m.m.m.B.B.v.x.h.d.M 5 $       r X.[.4XSXDXDXDXSXcX X^ ] #XsXxXzXpX>X",
"-XfXlXsXsXvXlX*X!.] !.yXZXFXFXZXZX].X       6 m M M n g.V.C.b.0.0.0.0.0.0.0.0.q.m.C.V.g.n M d.M $       U nXJXJXLXLXHXFXFXfX%.~ !.<XpXpX2X|.",
"#X2XpXjXkXpX<X@X@.' Q.*XuXpXjXvX}.o     # 4 5 M f.h.g.v.B.m.q.<.<.<.<.<.<.<.<.:.q.m.m.v.g.h.d.M $ o       ^.VXvXnXZXBXxXvXuX^.W { (.@X@X!.O.",
"^.@X1XsXkX1X@X!...W { (.*XyXvX2Xw     # x y 5 n M x.V.B.q.:.:.,.,.,.,.,.,.,.,.,.:.>.q.B.V.x.n n b b %     o  XvXkXlXlXlXkX>X@.Y W ` | { _ W ",
"}.&XyXkXkX>X(.| ! Y W @.#XsXvXY     . f 7 n M n m c.B.b.>.*.d s s s s s s s s s d *.>.b.m.c.Z m M n = .     r yXlXjXkXzXsX#X{ Y T ^ o.o.X.^ ",
"-XpXkXjXyX|.O.! W W W ~ Q.<X!.      l x $ n f.g.c.1.q.-.*.d + O # # O O O # O . : d =.-.-.q.n.x.M 5 o 4 .     ] lXkXlXlXrX^.~ W $.=X4XgX3X X",
"#X<XtX2X|.O.~  .]. X[...] @.w     4 a.V $ 5 m v.m.-.*.&.i > : , 7 7 7 f 7 7 4 1 > > i &.*.>.b.c.m 5 X x k     = %XvXlXpX#X+.~ ^.gXDXHXHXVXuX",
"!.(.@X^.{ ! #.3XnXSXVX3X%.u       w.L.C $ b Z c.b.-.&.i . O < p 7 f l c l 4 4 p < . O s &.=.-.1.c.Z # x u.%     ^ lXuX#XQ._ #.fXJXFXbXBXvX2X",
"| Q.@.] W #.4XDXHXZXAXSX3Xw     7 s.L.C % Z c.1.-.&.i O   O < < : : h c f : : p < .   + i &.*.-.b.1.% B s.x     w @X@XQ._ ^  XSXHXnXkXlXkX1X",
"! ' ~ E  .;XSXFXZXbXvXCX1X*     5.L.U.Z % 1.b.>.*.&.+     O < < : , h c f , , p < .     + &.*.-.q.1.% B L.t.o     R O.! E o.4XSXBXvXkXlXjX1X",
"W ^ W W ^.fXAXAXZXBXxXBX^.    % a.L.U.Z % 1.q.-.*.d +     O p B #.#./ c ( %.#.B < .     . i &.=.=.d O Z H.s.4     e W Y W %.fXBXkXkXjXpXpX1X",
"%. X%.^ ^.kXxXuXyXyXrXuXR     f s.U.I.m O d =.=.&.i .     O p e.8X8Xu.3.S.qX8Xe.< .       + d *.&.s # Z I.L.c     ; o. .Y o.$XuXzXkXpXrXrX1X",
"1XnX3X..!.@Xu - ; ; ; ; o     x a.U.Z.m = s *.*.s .       O < N e.e.w.N w.e.e.c < .       O d &.i 9 P Z I.L.3.    X ; - o * - - @.kXjXpXuX1X",
"3XVXyX@.@.t                   x a.G.Z.} D 2 s *.s           + < p : + : + : p p +         + s d : D ).A.G.a.2.                  o  XkXsXsX1X",
"%XsX>X+._ -     = r r r r r w , r.G.A.'.W.y 4 d s .           + : = r t w % : :         o = : k Q J '.].F.a.4 - r r r r r ;     X !.<X2XpX<X",
"^.#X(.^ Y -     {.MXnXmXnXSX8X= 5.F.A.'.W.y 3 > : * X         . : / 3XgX Xk : .         = - X ; H J )./.a.y.@ {.DXnXmXmXMXgXw   X [ |.#X*X}.",
"_ { ' ^ X.;   o 3XwXwX0XwXwXJ.= h y.[.'.Q.3 r * X ; *         . < V XX,X{.x >           * - X * = J W.).a.2.. OXwXwX9XMX9XMXu     R Q.Q.@.{ ",
"Y E o.=X4Xu   o :XU.0X6X6X6Xi.# a 6.o.R.J 3 p.r X ; o       X # < 1 - ; 3 p > o X       * - X u y G W.R.8.j   OX0X6XU.0XU.qXy   X u ~ ' ~ W ",
"E o.,XDXDXu   o :XP.N D.I.I.Z.# X % = * o o #   o - = X   * U Q , .       O 7 Q y X r U w = o   o o * * = %   =X9XG.K.5.t.mXt   X u  .[.{.#.",
" .$XAXPXVXu   o 3X5Xk S.I.I.i.e ,XlXiX4XiXcX$.X 3 o u ^ r - {.;Xu X       = ^ 3X..= p.4XL % 3 L fXgXuXuXfXlXL  X9XG.I./ e.mXt   X U {.nXZX,X",
"!.2XVXVXfXt   & :X7X6XP.K.I.Z.y (.+.@XaX^.^.!.3 k o o.nX .o [.cX|.Y + O 4  .1XlX .=  XHX$.y 3 R |.@.eXtX@.}.D XX0XG.I.6X6XqXu   X Y |.BXVX,X",
"Q.#X<XuXrXr   X / 6.4.3.2.3.x e { = +.tXu t | = k W 3XLX].r  XAXVX{.1 > x :XFXbX%.u  XJXnX[.% e H ; @X@X- E L k 6.3.3.2.4.w.=   X Y !.<X<X^.",
"+.(.(.@X1Xu     . 4 , 1 1 4 , = H H H R H H y   L 4XHXSX3X XlXKXCXXXj j w.:XHXHXgX=XuXDXPXgXu - H D R R H U w y 4 2 4 : 4 #     o ! { !.!.' ",
"^ @.^.(.2X#X;     a a 3.7.6.z . . o . . . . o y ].DXPXVXnXZXJXPXAX.Xz j / 8XKXPXHXCXBXAXPXDX:XQ o   .   o .   =Xu.2.6.f f #   o ..#.W _ ~ Y ",
"Y ~ @.(.#X2XL     p.J.K.I.K.6.. 1 a # h f . e {.SXLXJXVXbXVXJXPXLX+Xg > B 8XPXPXDXlXyXfXHXPXLX[.o @ h : , a   =X0XG.K.r.2.#   w ^.] Y ^  . .",
"^  .] | Q.(.y     =X0XG.P.K.7.. h N 7 Z.r.# r 3XPXLXfX{.-XbXJXPXPX+Xh p / hXPXPXHX4X' ..lXLXAX].o k D.B f c . =X0XG.K.y.9.%   - _ ' #.=X3X=X",
" X:X X#.{ | e     XX0XK.P.K.7.. 2.i.l J.i.% r  XFXVX[.r ..bXLXPXPX8Xc j e.hXPXPXJX,Xr w  XgX3X .o l K.V V t.O =X0XG.K.t.7.%   *  . XcXDXDXgX",
"iXSXSXfX[.] ;     XXe.8.I.K.7.. 3.i.k J.i.% -  .XX{.T . ! bXLXPXPX+Xg i V hXPXLXHX,Xt o k / V k   l I.V C t.@ %.V i.I.t.9.%   - ;XDXHXAXvXyX",
"2XvXAXFXnX{.w     OXp.i.I.G.7.. N i.k K.Z.@ # f j f , o ' bXLXPXPX8XV x p.nXPXLXHX,Xy   : p g < # k G.V V 9.# %.p.S.I.t.9.%   e nXKXnXlXpX2X",
">XsXzXvXAXgXt     =XwXK.K.K.7.. l r.l i.C , 4 g g p : . ' bXLXPXPXDXhXhXnXJXPXPXGX;Xt . p j c x h 4 B l V 6.  XXwXP.K.7.7.%   r lXZXlXkXkX2X",
"#XpXzXkXvXlXu     OX6X9.D.K.6.. z r.l C 3 f c c c j 1 . ^ bXLXPXPXnX;X;X8XDXPXLXJX,Xt . p j N 3.N 4 3 f C 6.  =X6XD.K.5.7.%   w yXbXlXzXkX2X",
"(.2XzXlXvXuXu     XX6Xy.D.K.6.. c r.l B # f 3.3.c f : . ' bXKXPXLXoXw - Y gXPXLXJX,Xt   . 4 c 3.c 4 7 f C 7.. oX6XF.K.5.7.%   w 3XxXpXpXpX2X",
"Q.#XyXsXdX*Xr     OX7Xy.D.K.7.. N i.k ( - f 2.3.z %   o  .VXHXJXHX@XA q K pXPXDXpXQ.;   . 1 c c z , y k C r.. =X6XG.K.5.7.3   w 2XlXrX>X2X1X",
"O.(.@X&X&X(.w     OX7Xy.D.K.7.. N r.T p.# 1 j j h :   X ! uXkXjXjX).T.T.R.eXbXpXQ.0 X . > p g g p O y T C 9.. =XP.F.K.5.7.3   w 2XlXuX2XyX1X",
"! { @.Q.!.{ ;     OX7Xy.D.K.7.. N r.x ( # + p p p < +   0 ) W.W.W.R.Y.Y.Y.R.W.W.K 8   . > < < > + @ B B C 9.. =XP.F.K.6.7.3   w 2XlXkXlXjX2X",
"W ^ ' _ _ E -     OX7Xy.D.K.7.. N i.l i.l # + : : : O   X q F I F S A A S S I I S 8 X   . . . . . f D.C C 9.O =XP.F.K.6.7.3   w 2XlXkXlXdX2X",
"]. X{.$. .Y -     XX7Xy.D.K.7.. N i.x D.c .   . .     X 8 I T.E.I 8 & & 8 S T.T.I S 8 X   , k #   a a.5.C 9.. =XP.F.K.6.7.3   w <XpXpXkXkX2X",
"4XSXDXcX;X%.;     XX7Xy.D.K.7.. c 7.h 2.,   l C l - = 8 I ~._.E.I 8 X   & S E._._.T.S * 3 l J.i.3   c x x 6.O $XP.F.K.6.7.3   w #X&X1XkXpX<X",
"uXFXKXHXDXgXu     =X0Xa.D.K.7.. a f : @   O 8.D.w.u w q E.`.`.E.S 8 X   & A T.`.`._.I * 4 B J.Z.7   # @ , h . =XP.F.K.6.7.3   ; @X#X%XrX<X|.",
"-XlXbXvXZXSXU     {.7Xa.D.K.7.# ; w 3 ; 3 w - 6 V k w 8 E.`._.T.S 8 X X 8 A Y.~.`.~.S & 4 B l o w w 6 3 6 w X =XP.F.K.6.7.%   ; (.#X@X(.(.Q.",
"%XpXvXlXvXvXY     5.K.y.D.I.6.6 1XcXfXiXfXbX}.3 V k w 8 E.~.Y.I S 8 X X 8 A I Y.E.~.S * 7 B f U bXlXfXfXkXcXL  XP.F.P.N 2.%   = @.(.(.!.@.{ ",
"-XpXlXkXkXpXU     5.G.y.y.F.6.e !.` |.aX!.+.O.3 V k w q E.E.I S A 8 X   8 q A I T.E.I - 7 B f D !.O.eXeX..^.P A.J.a.D.c 2.%   * _ | | { ~ E ",
"-XpXkXjXjXjXU     h 2.t.t.y.4.w _ - O.*XD r H 3 B r 4 0 I Y.I A q 8 X X 8 q A I Y.I D 3 , l 7 e u 9 }.@X9 E D 5.D.t.t.z N %   = U E !  . .^ ",
"-XpXlXpXkXkXU     4 l r.y.y.6.% y u u u u H e % 7 # p g k K I S A 8 X X 8 A S I F u j g 1 , 3 = u u u u u u = 8.D.t.t.z N %   - Y ^ [.3X3X[.",
"%XpXkXfXkXpXu     w.u.t.y.y.7.o               # , 7 e.i.C y 0 q 8 & X   & 8 q q y B i.S./ , %                 w.D.t.t.z N ,   - ^ %.cXJXSX3X",
"}.&XyXjXkX<Xt     5.l 9.a.a.7.o h h # z h # , @ < 5.qXmXS.j f o               , j w.qXHX.Xg , # . a c , 4 j O e.F.y.y.z N ,   ; ..%.fXZXkX&X",
"!.#X2XkXkX&Xr     l a c 4.2.x . z l # c z # , O g 7.S..Xe.2.h : + + .   O + + p ;.7.S..Xi.c 4 # . f ;., 4 c O l 4.2.4.a h #   ; { { }.<X&X^.",
"#X2XpXpXuX|.e     # O : 2 , :   # @ . : : . . # f j g g h j g < < < O . : < < p h h g g g h , .   # , . O :   # , , , O @ .   - { ~ ` Q.@.` ",
"#X&X>X<X@XO.-                                   O + + + + + : : : + .   + : : : + + + + + + .                                 = ` W Y ~ ! W ",
"^.|.|.(.O.^ u                                                                                                   X X           w _  .%. X{.%.",
"O.!.Q.{ W #.;X-X X X X X].W u u L U R R E R D r e w e u U Y U U U E ^.].u - - - e u U U U U U Y %.{.#.Y u L U R R R R R R R L E #.;XnXDXnX4X",
"~ { _ E  .;XSXKXFXVXVXZXBX X^ Y W ' { O.O.O.| { ! '  XnXVXlXfXpXpXkXZXFXuX$.Y ^  XbXVXlXfXpXuXpXvXZXZX3Xo.W ! ~ ] { { ] ] ' ! ..;XDXHXAXBXiX",
"W W Y W ].gXAXVXVXvXkXkXkX#X' T o.].{.{.[.$.X.W Y o.yXZXvXkXkXlXlXxXvXvXlX%X..X.,XBXbXkXkXjXsXsXkXlXBXbX X^ Y o.[. X{.p. .Y E ].bXHXbXzXkX2X",
"%.[.#.^ }.kXvXvXxXlXkXzXsX|.' X.;XnXDXDXSXnX4X].^ o.<XlXkXkXkXlXvXlXkXuX<X#Xo. .#XsXkXfXyX2XuXkXkXlXxXvX1Xo.] $XVXDXDXVX,Xo.W [.cXVXlXkXkX2X",
"3XnX#X] [.pXxXkXkXkXlXxXuX(._ $.pXZXHXLXLXPXJXfX#...#XuXkXlXkXlXxXlXkX<X}.(.+.' }.pXlXjX2X%X2XkXlXlXlXkX%XO.o.1XBXFXLXLXnX}.^ !.yXvXlXzXkX2X",
"1XpX|.' Q.<XsXsXsXsXpXpX>X!._ $.2XkXkXvXnXVXZXfX^.' !.#X2XsXkXkXkXkXpX<X(.(.O._ !.>XpXpXuXyXpXkXkXkXpX2X(.{ @.%XtXtXpXzXpX}.' +.&XpXkXzXsX>X",
"|.#XQ._ @.@X<XrXrX2X<X*X}.Q._ O.#XuXpXpXpXpXuX>X$.~ @.(.#XyXpXpXuXyX2X&X@X(...~ @.}.*X2XtXpXpXpXpXuX<X@XQ._ O.@X&X&X*X*X&X!.~ { (.*XuXdXuX#X"
};
