/* XPM */
static char *gate_close_linux1704972489[] = {
/* columns rows colors chars-per-pixel */
"70 70 238 2 ",
"   c #040303",
".  c #0C0301",
"X  c #060708",
"o  c #080808",
"O  c #0B0B0B",
"+  c #140402",
"@  c #1A0502",
"#  c #1C0905",
"$  c #160B08",
"%  c #17120E",
"&  c #0E0F11",
"*  c #131313",
"=  c #1A1615",
"-  c #1B1A1B",
";  c #250C07",
":  c #330900",
">  c #261209",
",  c #2C130D",
"<  c #37170C",
"1  c #261B16",
"2  c #371713",
"3  c #3D1B13",
"4  c #3E200D",
"5  c #372318",
"6  c #1C1F21",
"7  c #262627",
"8  c #342E2C",
"9  c #373738",
"0  c #47150C",
"q  c #441B15",
"w  c #461B16",
"e  c #4A1D17",
"r  c #472616",
"t  c #4F2A15",
"y  c #4C231B",
"u  c #58251B",
"i  c #652A1C",
"p  c #732E17",
"a  c #6B3219",
"s  c #753619",
"d  c #7A3B1C",
"f  c #482B22",
"g  c #5A2B22",
"h  c #483224",
"j  c #593728",
"k  c #4A3D36",
"l  c #652C21",
"z  c #663727",
"x  c #743726",
"c  c #7B3B24",
"v  c #74362A",
"b  c #7B3B29",
"n  c #7C401F",
"m  c #544235",
"M  c #67442B",
"N  c #794227",
"B  c #694835",
"V  c #774A36",
"C  c #795338",
"Z  c #3B3E42",
"A  c #3E4144",
"S  c #46484A",
"D  c #524C47",
"F  c #4C4E52",
"G  c #4F5154",
"H  c #535455",
"J  c #595653",
"K  c #53565A",
"L  c #55595D",
"P  c #5A5B5D",
"I  c #6F574B",
"U  c #756458",
"Y  c #565B62",
"T  c #5A5E63",
"R  c #595F69",
"E  c #576067",
"W  c #5D6165",
"Q  c #5D646B",
"!  c #5F6771",
"~  c #636465",
"^  c #6D6865",
"/  c #62666B",
"(  c #64686D",
")  c #6A6B6D",
"_  c #726B69",
"`  c #646B73",
"'  c #636B75",
"]  c #6A6E73",
"[  c #6E7174",
"{  c #66717C",
"}  c #6A737C",
"|  c #727374",
" . c #7C7773",
".. c #73767A",
"X. c #76797C",
"o. c #7B7C7D",
"O. c #813D27",
"+. c #80411E",
"@. c #84422C",
"#. c #8A472B",
"$. c #92502E",
"%. c #8B4A33",
"&. c #924E37",
"*. c #875539",
"=. c #935334",
"-. c #97563A",
";. c #A25C3A",
":. c #A6623D",
">. c #895B44",
",. c #985C42",
"<. c #A35E43",
"1. c #956448",
"2. c #896955",
"3. c #926950",
"4. c #A56245",
"5. c #AB6946",
"6. c #B16C46",
"7. c #B5734C",
"8. c #B8754A",
"9. c #AB795B",
"0. c #B17150",
"q. c #B57C57",
"w. c #8C796F",
"e. c #AB7D65",
"r. c #C37F51",
"t. c #BD825B",
"y. c #968475",
"u. c #B98666",
"i. c #AD8870",
"p. c #C4804D",
"a. c #C68659",
"s. c #C48C65",
"d. c #C69673",
"f. c #DEA578",
"g. c #6B7581",
"h. c #6E7A86",
"j. c #747B84",
"k. c #797D82",
"l. c #737E8A",
"z. c #7E8185",
"x. c #75818E",
"c. c #7B828C",
"v. c #7B8692",
"b. c #798695",
"n. c #7D8996",
"m. c #828384",
"M. c #82868B",
"N. c #87898C",
"B. c #8A8B8C",
"V. c #978F89",
"C. c #858C94",
"Z. c #8C8E92",
"A. c #828D9A",
"S. c #8D9194",
"D. c #85919D",
"F. c #8B939C",
"G. c #939495",
"H. c #93969B",
"J. c #96999C",
"K. c #9A9B9C",
"L. c #AB998E",
"P. c #B3A59D",
"I. c #8693A1",
"U. c #8B96A3",
"Y. c #8D9AA7",
"T. c #939BA5",
"R. c #9A9DA4",
"E. c #939DAA",
"W. c #98A1AC",
"Q. c #9BA3AC",
"!. c #9BA5B1",
"~. c #9CA8B5",
"^. c #A3A4A5",
"/. c #A3A6AC",
"(. c #A5A9AD",
"). c #AAABAC",
"_. c #B8ABA5",
"`. c #BFB3A8",
"'. c #A3AAB4",
"]. c #A7ACB7",
"[. c #ABAEB3",
"{. c #A4ADBA",
"}. c #AEB0B3",
"|. c #A6B1BC",
" X c #ACB3BC",
".X c #B2B3B4",
"XX c #B1B6BC",
"oX c #B6B9BD",
"OX c #BBBBBC",
"+X c #CFA78B",
"@X c #EDB385",
"#X c #CBB9AC",
"$X c #CEB9AD",
"%X c #D8C0AF",
"&X c #DAC5B6",
"*X c #E5CBB6",
"=X c #E6CDB7",
"-X c #ADB5C1",
";X c #AEB9C4",
":X c #B3BBC5",
">X c #B8BCC4",
",X c #B6BECA",
"<X c #BAC1C9",
"1X c #BBC3CD",
"2X c #BEC6D1",
"3X c #BFC8D2",
"4X c #C2C3C4",
"5X c #C1C6CD",
"6X c #C9CACD",
"7X c #DED2C7",
"8X c #C1C7D1",
"9X c #C4CBD4",
"0X c #C9CED5",
"qX c #C6CED8",
"wX c #C9CFD8",
"eX c #CCD0D6",
"rX c #CDD2DA",
"tX c #D2D3D4",
"yX c #D1D6DD",
"uX c #D5D8DE",
"iX c #DADBDD",
"pX c #E4D5C8",
"aX c #F0D8C7",
"sX c #EAE1DB",
"dX c #D3D7E1",
"fX c #D5DAE1",
"gX c #DADEE3",
"hX c #DEE1E5",
"jX c #DEE2E9",
"kX c #E2E3E4",
"lX c #E2E5EA",
"zX c #E6E9ED",
"xX c #EAEBED",
"cX c #E3E9F0",
"vX c #ECEEF1",
"bX c #EEF1F4",
"nX c #F3F4F6",
"mX c #F8F9FA",
/* pixels */
"XXlXzXgXhXfX~.! ~ }.vXmXmXmXmXnXmXmXmX6Xz.~ K.lXnXbXbXvXbXnXvX9Xm.) [.xXmXmXgXH.~ m.4XkXmXmXmXmXbX).| ).nXmXzXfXfXjXvXbXjX X..[  XzXcXgXdX:X",
"T.5XrXqXqX3XH.( B.tXnXmXbXkXhXhXzXnXmXuXH.../.gXgXgXfXrXyXdXgXdX^.| H.rXzXlX5XN.o.4XzXxXzXzXzXbXxXXXo.Q.xXmXlXgXdXyXrXdXdX1XN.] E.qXrXrX9X-X",
"b.~.<X2X2X|.c....XxXvXhXgXeXtXgXgXxXbXyXR.z.[.0XqX0XwX0X0XyXdXyX:XM.M.XXrXqX(.k.R.kXzXuXeXeXrXuXrX[.X.J.iXlXgXrXrXqX2X2X0X5XT.` l.-X,X,X;XY.",
"{ n.!.-X|.D.] z.6XxXiX0XqX9X0XrXdXxXkX5XH.M.-X0X9X0XqX0XyXyXrXwX5XH...R.8X1XA...(.hXgXqX6X3X0XqX9X(...B.9XrXqX9XqX3X;X{.,X9XQ.] g.I.{.-XU.g.",
"E { x.n.b.g.E M.0XjXeX9X9X9X9X0XgXjXyX-XZ.Z.,XqXwXwX0XwXwXwX9X8X>XF.[ M.-X~.g.[ W.qXyXqX3X9XqX3X2XQ.[ k.:XqXqX9X9X8X>X|.,X9X/.{ R g.l.h.` Y ",
"K Y Q ` ! Y L z.5XgXyX9X9X9X9XeXdXyX8X/.k.H.0XgXfXrX0XqX0X0X9X-X!.C.! ` n.x.Q ` F.<X3XqX9X9X3X3X1XW.! [ ).qXrX9X9X9X8X8X9X9X/.] H T / ( ~ Y ",
"o.B.z.) Y G H X. XyXyX9X9X9X5X9X9X5X-XC...R.qXdXyX0X9X9X9X8X,X>X[.C.W K ( ! K E v.{.1X3X9X1XoX<X XC.Y W F.2XyXqX9X9X9X9XqX3XR.( K | G.).^.Z.",
"OXiXtX.XN.~ L ] T.,XqXqX5X-X].>X:X{.F.[ { R.9XqX0X0X9X9X9X:X-X,XXXc.L P ( W H K { I.~.;X<X:X!.W.S.` G K j.].3X9X2X:X:X1X3X:XC.Q _ }.hXxXkX4X",
"4XnXmXxXtX^.| ! x.!.;X1X:X~.E.~.Q.D.g.Y / F.,XqXqX9X5X1X<X<X:X:XW.` P y.^.K.X.T Q x.n.Y.E.E.D.z.( P K J ! n.~.;X-XE.U.~.-X!.h.( K.kXvXjXdX5X",
"XXgXzXlXxXhX.XX.` x.I.Y.E.E.U.I.b.h.Q G T l.'.<X9X9X>X|. X<X|.Y.g.Y ( ].lXhXoXo.Y ! g.g.{ ] ! Y W o.G.o.W ! b.n.I.n.x.b.n.b.! [ OXkXwX5X5X-X",
"'.6XeXeXuXlXgX).] ! h.l.x.b.l.h.{ T H G L ` l.Y.~.].~.E.Y.F.z.! P G ] .XzXhX Xk.K G E E Q T J G ] .XhXoX..T ! { g.g.g.g.{ ` Y o.4XrX-X].>X].",
"/.1X0XqXqXrXhX6XB.T E ` ! Q Y R E / ) | ] / Q ' g.g.} { ] ( / ) ( P W F.}.W.x./ / | m.G.K.K.o.P ) [.gX5XC.P K W ! ` Q Q T K K X.>X0X-X].-XR.",
"/.1X9X9X9XqXfXeXH.P K ~ ..F O & * * - 7 6 - - 7 K Y Y T ( X.S.^.^.m.W ( ..( / m.^.&XiXsXxXkX6Xo.P j.R.H.[ K P | m.J.K.B...P J ] ].9X9X,X XT.",
"W.5X9X5X3XqXrX1XC.T / J.5XX.X                 - H H T m._ E | o.o.| F 9 A K m.).<X3XiXnXbXhXgXA & O & * & * 6 8 9 OXkXkX6XG.~ / T.,X0X9X,X/.",
"/.8X9X9X3XwX9X~.l.E j.XXfXm.X = P ~ T H S 7   1 | T | m.9 X   X   O     X X O O O & 6 oXgXeXuXZ                 O }.zXlXlX<Xz.T l.].,X,X|.F.",
"T.XX1X5X9X1X{.I.} W g.W.:X{ X 8 7XaXaXaXaXw.+ 7 G.^ T *   X X       X o X           X 7 | eXrXZ   9 m.z.o. .P O O R.gXwXwX>Xm.T ( l.F.F.l.' ",
"M.T. X3X3X XF.x.Q K Q C.!.' X 8 &Xi.a.s.*.V f $ 6 = *     ~ _._._ O o.L.L.9 * _  .^ *   7 X.X.7 7 w.&XpXaX%XP.* X Z.0X0X9X'...H J Q ` ` Q K ",
"Z.!.:X3X3X~.v.! K H K } U.]   7 $Xu.a.p.=.N l .           S.7Xu.k * #X#Xw.5 7 pX#XL.=   X X     y.&Xt.a.q.>.l +   k.8XwX,XT./ G H P ) ] ) T ",
"!.<X2X3X XF.{ L J P K T ..Y X * %X9.j a.=.l g $ * _  .~ O m.%X-.e % #X+X$., 1 &Xq.p + - 8 7 =   y.&X=.*.&.@.i +   j.8XqX-Xc.T P o.^.oX4X.XJ.",
"T.{.|.|.F.` W ) m.K.B.) Q S X X S h 1 m f 2 2 o 8 pX#XL.% y.%X:.u # P.+X%., = &X9.x + o.kXpXP.O | %XM M >.@.g O   k.8X,XE.' T m.4XzXzXlXuX>X",
"l.n.D.v.( W X.).uXkXuX.XX.A X   $ 2 < # ; @ .   7 &Xw.z O B i.,.f + w.u.$., # i.q.v @ m.%X3.j X - 8 ; ; > , ;     ` -XR.j.T X.#XzXzXuXfXrX X",
"! g.{ Q P X.oXkXcXjXkXgX.XF X X 8 V a : u 2 +   O k 5 q O 5 j r , . h B j > + m B y + S w.j 2     > r > ; 2 #     K A.g.E T R.gXvXfXqX0X9X X",
"L E Y H ) ).hXxXjXdXrXdX9X/ X O +X3.;.a ,.v < o ^ y.o.^ O J w.w.J O D ~ P J D D m 8 O = 7 7 1 O 7 U &.z z v r .   Z Q Y H _ XXgXfXrX9X9X5X].",
"K W J H z.5XhXjXgXdXrX0X1X) X O #X9.;.s <.x 2 $ L.#X+Xi.> y.*X*XL.> L.=X*X*X*X*X&X=X8 I &X=X=X8 S +X0.*.$.&.l #   7 H H H o.>XyX0XqX8X1X<X X",
"o.G.z.P c.<XrXrXrXqXqXqX,X' O O #Xd.7.c <.x 0   I k 8 M O j 3.3.>.# k 5 U u.t.t.t.u.5 h i.u.u.1 m $Xt.=.%.&.l $   9 o.) L X. X0XqX9X1X-X-X].",
"}.tX).( x.|.9XqX9XqXqX9X:X! X O #Xi.6.c <.v 2   y i.i.z + g =.*.M # m +XC #.r.a.5.#.> < M d N > S &Xs.=.&.,.l #   ( 4XT./ } W.<X9X9X3X1X<X X",
"XXuXXX} { Y.;X1X2X2X1X<X~.E X O #Xd.8.d <.b 0   h V V z O f V >.V + j 3.1.1.,.,.1.1.1 3 >.1.1.2 9 &Xa.-.$.-.l #   ) <XR.` ` A.~.1X2X1X2X8X X",
"Q.1X!.[ Q x.n.Y.Y.W.W.Y.n.K X O #Xd.8.d <.c q   + $ # $   + # ; @   + $ # @ ; # ; # . . # ; ; . 9 *Xs.-.&.-.l #   F A.g.T T g.A.~.{.'.-X<X{.",
"c.Y.c.P K W ! ! ! { { { ` S X O #Xi.:.+.5.N 0   . , , ;   @ , ; #   $ ; ; @   @ ; #   + @ ; @   9 $XC *.$.-.i #   8 W W P L Q ` l.n.A.Y.Q.A.",
"W Q W ~ [ z.y.o.X.[ ~ P K 9 X . y.d.8.N 4.N 3   @ y u w + , u u 2 . 2 l u , . r i y . ; g g 2   9 &X*.,.&.-.l #   9 o.Z.K.G.m.] / ' g.g.} ` ",
"F K | K.4XiXiXiXtX<X^.m.W 9 O . t u.8.d 4.O.0   @ *.,.z + r 3.&.u . z 5.%.2 + I ,.v $ < 1.&.t . 8 %Xu.-.$.&.u #   A 4XiXhXkXtX)...P P Q W L ",
"H ] }.xXmXmXmXnXnXbXxXtXJ.S X   4 +Xt.d 5.O.q   + 1.q.b + t s.;.u + V r.&.< ; 1.6.b # 4 q.4.g . 9 &Xu.:.=.-.u @   S 0XiXhXxXxXuXK.P ~ N.Z. .",
"/ R.gXnXvXlXgXgXyXgXlXjX6X| o . C a.8.n 4.O.w   + 1.q.x + r t.-.i + V t.=.3 @ 1.6.c # 4 t.:.i . 8 &Xs.5.-.-.l ; X Z :X9XwXdXfXwX/.) B.eXiX).",
"k. XdXfXrXqXfXwX9X0XqXwXtXZ.O . C p.5.d <.b w   @ ,.8.x $ r q.$.u . M a.$.3 + 1.8.#.# < t.:.i . 7 &Xs.5.=.-.v ;   Z XX5X1X3X9X9X(...S.rXuX[.",
"j.Y.{.:X8X9X9X9X9X9X9X9X9XH.& . C s.8.N 4.@.e   @ >.7.b + r 9.n u . z -.=.< + 1.:.#.$ < M %.a + 6 %Xs.7.=.b < +   8  X1X].].,X9X'.| X.'.{.c.",
"] l.A.U.-X9X9X9X9X9X9X9X5XF.O . *.a.8.N 4.@.e   @ *.8.N + r t.a.a + M d.,.3 + 1.:.@.# q u %.a + 6 %Xs.6.$.v < +   7  X1X|.].<X9X]...Q j.j.E ",
"T } l.A.~.9X9X9X2X:X;X2X9XC.O . C s.t.+.<.@.e   @ *.6.x # 4 t.a.s o B f.5.q + 1.6.@.# < *.-.l + - #Xd.5.#.-.x :   7 [.9X5X5X9X9X{.[ K T Y H ",
"G T { l.Y.{.,X2X:X!.Y.-X1Xb.% . C a.8.+.,.N w X @ *.7.b + 4 t.a.x   M f.7.q + 1.6.@.; < q.6.x @ & _.9.5.d ;.v ,   6 [.9XqX9X3X-XS.~ H P ) ~ ",
"T ~ ~ ` h.A.E.~.~.E.Y.!.~.} O . C a.8.n b l e   + *.7.x + 4 t.a.x o M t.7.r + 1.6.#.# < 9.5.x $ o P.C 4.s -.b ,   - [.3X1X-XW.n.` W  .^.oX^.",
"K.).K.X.` { l.v.n.A.A.n.x.L X . C f.p.n N l e   + %.7.c + 4 t.a.s . M q.s q . 1.8.@.> > t.6.x @ o P.C a s 4.b <   - F.].T.C.} ` ..K.6XkXkX5X",
"#XgXkX4XZ./ Q ' { } { ( Q S O . C @Xa.N N u e . @ C 8.c @ 3 t.a.M + M q.N e @ >.8.#.; ; C 7.v @ X _.I b x <.O.:   & ) } ' / ` B.OXlXxXjXrX:X",
"-XdXjXlX0XG.~ H L P / X.M.X.& . C f.s.n 1.c w   @ V 5.b @ < q.6.a + z q.;.y + 1.8.%., @ V 5.b @ X _.V #.p <.b <   O S K P | ).tXvXvXgX0X9X X",
"/.8XwXrXgX0XB.L K | ).6XkX4X- . C @Xa.n <.c e . @ N 0.b # 4 t.:.i + M t.:.t + >.8.%., ; 9.5.v @ O _.2.=.p <.c 2   X F H | .XkXzXlXgX0X9X5XXX",
"E.2XqXqXrXrXR.~ _ .XxXmXnX4X- . B @Xt.n <.x ,   @ N 6.v # 4 q.5.z . z a.-.y + >.8.%.< ; ,.;.v @ O _.+X8.s 4.c <   X ~ T Z.iXzXyXrXrX0XqX9X X",
"n.-X3X2XwX1XF.] H.jXnXxXhX}.= . V @Xa.d &.u #   + l &.O.@ 3 q.6.a + M t.#.e + *.r.%., ; >.O.u @ o P.+X8.s 4.O.2   O | ) ^.iXyXwX9XqX1X<X1X X",
"x.E.<X2X2X'.c.k.&XxXjXuXqX(.-   B s.a.+.b : +   @ u v O.# 3 s.6.x + z u.=.e + >.r.&.< ; >.s q @ O L.+Xr.s 4.c 0 . X ~ | }.uX0X9X9X8X:X'. X X",
"! x.I.~.W.n.( M.0XxXrX9X9X'.-   < 1.p.d <.b w   + y x x # q ,.#.x + j &.@.e + V &.l 2 @ *.O.u @ o V.+Xt.d 4.b 0   X P ..XXyX0X9X9X9X,X X:X X",
"L Q } h.h.( Y z.9XhXeX9X9X(.=   < x 1.c 4.@.e . @ e i u # r -.#.p + z &.x q + M O.i 2 @ V x i ; . 2.d.r.s 4.x ;     F k.oXwXqX9X9X9X9XqX5X X",
"L W W Q W K K ..XXdXrX9X9XW.=   j @.=.d <.@.y . + f u l $ 5 ,.#.x $ z &.x 3 + M %.l 2 @ C x u # + B s.p.p <.O.2     S ..-XyXrX9X2XqX3X9X9X-X",
"z.K.G.o.~ J G { E.<X9X9X1XH.* . V s.a.d 4.O.e . . 2 w 3 $ > j j y . 5 j e , . f g q ; + j u q $ . M a.p.O.,.O.q .   Z ` ].wXrX9X1X;X2X3X8X X",
"OXkXzXtX).o.W W x.W. X,X;XC.* . z 5.;.s <.@.e   . $ & *   X * - - - = = = $   X * % O   & = - % . M p.p.O.v b e .   Z Y C.;X9X2X-X!.-X8X1X{.",
"OXzXbXxXzX6XK.[ ' b.A.I.Y.j.&   u 4.;.p <.b w . w.=X7XpXm 9 %X=X=X=X=XpX&XL.O L.pXpXV.% L.pX=X`.1 M p.8.O.u V y .   9 K ` A.'.-X~.Y.!.-X{.D.",
"(.eXuXrXhXxXiXK./ ` g.j.j.! & X r 0.-.a &.b e   I U k i.h 3 i.u.u.s.s.s.s.3.$ 2.s.s.2.# U j B y.> M 8.s v 0 v f +   F [ / ` l.A.Y.Y.I.n.b.g.",
"W.3XqXqXeXuXhX1XM.Y R ( ` Y O   < 4.;.p v v q   r B e.j > ; a s s =.a.r.+.g # j @.d a # 4 3.2.r + M 8.z z 0 v e .   | OXH.} ` } l.x.x.h.g.E ",
").9X9X3X9X9XuXrXH.P K ] M.N.=   : ,.;.u u v q . B i.i.e.5 4 3.9.9.q.q.q.9.>.@ I e.9.U @ I e.e.2.# j 7.t z 0 l y . . m.fXeX/.| E ! ! ' Q Y G ",
"(.8X9X6X2XqXuX1XF.T / ^.tX6X7   ; >.;.u 0 v q   , 3 q q # + 5 3 3 q 3 q q 2 . , q 3 2 + 1 3 3 2 . M 5.< l 2 g e .   ..yXyX0XR.) H K T / ) T ",
"/.3X9X8X3XwXwX{.l.Q j.[.yX5X7   # V ,.y < j 3                                                     h >., f , h 3 .   W 9X0XwX<XB.L W B..X.XG.",
"W.,X9X8X8X8X-XF.} P ' T.-X[.-   . $ # + . @ .             X           X X X X   X X         X X   . #   + . . .     Y 9X8X5X5XR.' w.6XzXgXXX",
"C.].:X8X8X XU.l.( H T c.!.].7 X X   O   X   X   & S S Y { ` ` Y S Z Z T c.z.c.c.M.z.X.` F S ! S X     X   X X X X X K 8X8X>X-XR.} o.,XdX9X!.",
"k.T.-X8X3X'.v.` K F H / Z. Xj.) / / / / ( Q / ( ( { E j.A.n.j.` Y G K c.].|. X1X9X<X{.Z.` Y g.Q 9 9 F Y R | Z.M.C.M.E.,X,X,X-XE.} / C.~.!.c.",
"T. X<X1X:XU.] P J J L L ' F.-X1X1X8X9X9X<X~.{.,X~.l.Y W / Q T T P K H ) C.Y.!. X-X|.Y...P F L K F Y j.U.~.:X9X9X9X3X-X~.-X,X{.A.} L Q g.{ ! ",
"H.~.{.|.U.] T ~ m.K.K.o./ ` b.W.{.:X:X,X-XW.W.|.W.h.Y H ~ | m.G.G.N. ./ ` j.v.v.c.X.` / ~ | | ) Q Y Q h.Y.|.XX;X:X:X|.!.'.!.U.l.` H H T Y K ",
"c.D.D.b.` T  .^.tXhXkX4XB.~ Q } b.A.I.U.Y.I.D.D.n.} W [ K.6XiXkXkXgX4XG.) T Q W W ] z.K..X<X6X4X}.B.] Q } x.n.D.I.I.I.I.I.b.l.g.Q ( m.G.S.X.",
"` x.} Q L ...XkXzXlXlXzX>Xo.K T Q { g.h.h.x.x.x.} / ...XkXxXxXzXzXxXxXtXJ.W H K X.).6XiXhXkXhXhXhXtX)...E Q { { } } g.h.g.g.' Q  .^.tXkXuXXX",
"L Q R H ~ ).hXzXgXdXrXdXwXT.P G H T Q ` ' ' ' / Y / ^.kXlXfXrX0XwXwXgXjX5Xm.H / ^.kXlXdXrXrX9X0XrXgXdX).| H H Y W / / R T T K ( ).kXvXjXfX5X",
"H P H H m.6XhXhXgXdXwXwX0XR.T H _ B.G.G.B.o.] P G ..XXfXwX9X9X0X9XwXdXwX8XR./ ) (.rXrX6X8X8X5X8X9XrXdXwXK.~ H _ B.J.G.m.) H J M.tXxXdXwX9X-X",
"o.N.| P S.3XrXrXwXwX9X9X,XF.T ) ).iXzXxXkXiXOXm.P | ].qX9X9X9XqXrXqX2X;X{.T.' ` T.5X9X8X>X-X,X9X0X0XwXrX X[ ~ ^.fXxXzXgX}.) P B.0XfXwX9X8XXX",
".X6XJ.W c.<XqX9X9X9XqX9X:XC.W k.>XfXzXbXnXnXzXOX..( Y.:X8X9X9X0XwXqX2X-XA.b.] ! C.:X0X8X-XW.-X9X9X0XqX1XQ.] ] ].dXlXbXbX0XB.T k.;XwX0X9X9X X",
"].<XF.E l.{.2X3X2X2X2X,X'.l.W g.].0XqXrXfXhXhX4Xz./ l.E. X8X9X9X3X9X2X{.I.l.' E k.'.,X,X,X,X,XqX9X8X8X].C.Q g.W.-X;X,XqX,XF.Q } !.2X2XqX8X'.",
"F.E.g.Y { I.{.-X;X-X{.!.D.g.T ] E.,X2X,X2X,X,X(.k.T } A.E.;X,X,X,X:X-XE.I.l.` Y { A.!.-X:X,X8X,X,X,X{.I.g.R ' D.!.!.-X~.!.k.T ' n.~.,X2X,XR."
};
