/* XPM */
static char *a2d31af5d2224563f72abf83a21fe8eeM5pvsqsx1ZgWFbwu[] = {
/* columns rows colors chars-per-pixel */
"70 70 254 2 ",
"   c #010101",
".  c #0B0103",
"X  c #0A090A",
"o  c #18040A",
"O  c #190914",
"+  c #0F1011",
"@  c #121314",
"#  c #17171A",
"$  c #270514",
"%  c #2F0711",
"&  c #301926",
"*  c #1E2023",
"=  c #322D33",
"-  c #470519",
";  c #59031B",
":  c #421317",
">  c #66021A",
",  c #760319",
"<  c #5A0320",
"1  c #4D1733",
"2  c #660323",
"3  c #780323",
"4  c #611E3E",
"5  c #4C2D3C",
"6  c #5A263D",
"7  c #6A2839",
"8  c #363948",
"9  c #462548",
"0  c #592945",
"q  c #5C3B52",
"w  c #662946",
"e  c #68374C",
"r  c #703852",
"t  c #3C4752",
"y  c #385166",
"u  c #444547",
"i  c #4D4D4D",
"p  c #4A4D52",
"a  c #564953",
"s  c #4F5053",
"d  c #4D525C",
"f  c #525354",
"g  c #54565A",
"h  c #5B5658",
"j  c #55595D",
"k  c #5B5B5C",
"l  c #764959",
"z  c #4C506E",
"x  c #565B62",
"c  c #5A5E63",
"v  c #575F68",
"b  c #6E556D",
"n  c #5D6165",
"m  c #5C636B",
"M  c #5D6671",
"N  c #5D6775",
"B  c #636465",
"V  c #62666B",
"C  c #6D626B",
"Z  c #66696C",
"A  c #6B6C6D",
"S  c #74696E",
"D  c #636B74",
"F  c #626876",
"G  c #6B6E72",
"H  c #646E7A",
"J  c #6E7175",
"K  c #66717E",
"L  c #6B737C",
"P  c #737474",
"I  c #73767B",
"U  c #76797B",
"Y  c #7B7B7C",
"T  c #89041A",
"R  c #93071A",
"E  c #A9041B",
"W  c #B80119",
"Q  c #840223",
"!  c #940726",
"~  c #AB0124",
"^  c #B60224",
"/  c #BA1528",
"(  c #922B2B",
")  c #A72D32",
"_  c #C4031C",
"`  c #C30622",
"'  c #CE1227",
"]  c #D52E2F",
"[  c #D93834",
"{  c #E03E36",
"}  c #CA453E",
"|  c #DD443B",
" . c #DE493F",
".. c #E34E3B",
"X. c #B2354D",
"o. c #C43C4B",
"O. c #83545E",
"+. c #AA4954",
"@. c #854D61",
"#. c #875765",
"$. c #905B67",
"%. c #92696E",
"&. c #997376",
"*. c #BA6E73",
"=. c #A57C7B",
"-. c #DB4C47",
";. c #E45449",
":. c #DE6961",
">. c #A8837D",
",. c #B5847C",
"<. c #EB9276",
"1. c #5C6D9E",
"2. c #657284",
"3. c #6B7582",
"4. c #6D7985",
"5. c #6D7B8A",
"6. c #737A84",
"7. c #797D84",
"8. c #737E8B",
"9. c #657194",
"0. c #857E84",
"q. c #A47483",
"w. c #D17A85",
"e. c #6E828E",
"r. c #7A828A",
"t. c #748291",
"y. c #7A8593",
"u. c #7C8A97",
"i. c #7D8B9A",
"p. c #5C88B2",
"a. c #748CAB",
"s. c #6C9ACB",
"d. c #838384",
"f. c #84878B",
"g. c #8B8B8C",
"h. c #948B8B",
"j. c #848C95",
"k. c #8B8D94",
"l. c #828E9B",
"z. c #88919B",
"x. c #8B939D",
"c. c #939394",
"v. c #95969A",
"b. c #9B9B9C",
"n. c #AC8582",
"m. c #AB8C82",
"M. c #B48B86",
"N. c #B9958C",
"B. c #BD9B8E",
"V. c #AA9195",
"C. c #BA9994",
"Z. c #BFA59D",
"A. c #828FA0",
"S. c #8593A2",
"D. c #8B95A3",
"F. c #8C99A6",
"G. c #8099A9",
"H. c #8E9BA9",
"J. c #939BA4",
"K. c #9C9EA4",
"L. c #939DAA",
"P. c #A79BA3",
"I. c #97A1AB",
"U. c #9BA2AC",
"Y. c #98A4B3",
"T. c #9BA5B2",
"R. c #9EA9B4",
"E. c #A4A4A5",
"W. c #A2A6AC",
"Q. c #A4A9AD",
"!. c #AAAAAB",
"~. c #B1AFAC",
"^. c #A3ABB5",
"/. c #AAADB4",
"(. c #A3ADBA",
"). c #ADB1B5",
"_. c #A6B1BC",
"`. c #ABB3BD",
"'. c #B4B4B4",
"]. c #B3B5BB",
"[. c #B6B8BC",
"{. c #BBBCBB",
"}. c #ED9D91",
"|. c #C6A699",
" X c #DDA196",
".X c #CCB2A7",
"XX c #CDB2AA",
"oX c #D4B7A8",
"OX c #EAB8B2",
"+X c #CEC2B7",
"@X c #DBC4B4",
"#X c #DDC9BA",
"$X c #E4C8BC",
"%X c #ECCCBC",
"&X c #95B4C6",
"*X c #ADB6C1",
"=X c #AFB8C4",
"-X c #B3BBC5",
";X c #B7BCC5",
":X c #B5BDC9",
">X c #A0BFD0",
",X c #98C1D6",
"<X c #BCC0C6",
"1X c #BCC3CD",
"2X c #A8C7D8",
"3X c #BEC6D1",
"4X c #BFC8D3",
"5X c #96CCE1",
"6X c #B4D2E2",
"7X c #C3C3C4",
"8X c #C1C6CD",
"9X c #C5C8CB",
"0X c #CBCCCD",
"qX c #DCD2C9",
"wX c #C1C7D1",
"eX c #C4CAD4",
"rX c #C9CED6",
"tX c #C6CED8",
"yX c #C9CFD8",
"uX c #CCD1D6",
"iX c #CDD2DB",
"pX c #D4D4D4",
"aX c #D9D8D6",
"sX c #D2D6DD",
"dX c #D4D8DE",
"fX c #DBDCDC",
"gX c #ECD5CF",
"hX c #E6D8C9",
"jX c #F0E7D7",
"kX c #F5E7D6",
"lX c #F3E8D6",
"zX c #F5EBDA",
"xX c #CDD6E0",
"cX c #D2D7E0",
"vX c #D5DAE1",
"bX c #DADDE4",
"nX c #DDE1E6",
"mX c #DEE2E9",
"MX c #E3E4E5",
"NX c #EFEEE7",
"BX c #E3E5EA",
"VX c #E6E9EC",
"CX c #EBEBEC",
"ZX c #F5EEE1",
"AX c #FAF4E6",
"SX c #FAF5EA",
"DX c #E5EBF1",
"FX c #EBEDF1",
"GX c #EEF1F3",
"HX c #F2F3F5",
"JX c #FEFDF5",
"KX c #F5F6F9",
"LX c #F8F8F8",
"PX c #FDFDFC",
/* pixels */
"].MXDXvXbXbX^.c n !.CXPXLXLXKXHXLXPXLXeXU k b.CXLXFXGXGXGXHXHX0XY B /.HXPXLXbXc.k d.{.VXLXPXLXPXHX!.A !.KXPXBXvXbXBXFXHXVX`.G A [.FXDXmXvX[.",
"J.wXiXrXiXeXD.n d.aXLXLXFXnXbXnXVXKXLXbXx.G !.bXbXbXvXiXsXvXnXdXU.G v.sXVXBX8Xd.Y 7XCXCXVXBXVXGXFX].P K.CXLXBXvXsXiXiXvXvX1Xf.V J.iXxXiXeX(.",
"t.R.1XeXeX_.8.G '.HXGXnXvXrXiXdXdXVXHXdXJ.7./.yXrXrXrXeXrXiXdXvX;Xd.7.`.iXtXU.I b.CXFXsXrXrXiXsXsX).I c.bXBXvXsXiXeX1X1XrXeXv.V r.*X3XeX:XF.",
"H i.T.*X_.S.D Y 0XFXvXrXeXeXrXiXdXVXBX8Xc.f.].rXeXeXeXrXiXsXuXiXwXv.J K.tX1Xj.G Q.BXbXrXeXeXrXrXeXQ.J f.eXiXeXeXrXeX*X(.1XrXU.Z H D.(.(.D.3.",
"v H 8.u.u.L x d.uXBXyXeXeXeXeXrXbXBXsX].f.j.1XiXiXrXrXiXiXrXeX1X;Xv.Z f.=X(.L V I.iXiXrXeXeXeXrXeXU.G U ;XiXeXeXeXwX*X(.:XeX^.G c 3.8.3.M g ",
"f x m M N x f 7.8XnXsXeXeXeXeXiXvXsXeXQ.U c.eXbXvXiXrXrXrXrXeX*XU.j.n V i.y.m m D.1XrXeXeXeXwXeXeXI.V Z ^.iXiXeXeXeXwX1XeXeX^.A s x m V c f ",
"Y g.Y V g i f L `.vXdXeXeXwX1XeXeX8X=Xj.G K.iXdXsXrXeXeXeXeX1X-X_.j.k f m m g c t.(.1XeXeX1X-X-X=Xj.j c x.eXsXrXeXeXrXrXrXeXI.n f Z c.!.!.g.",
"{.fXfX'.d.k f D H.1XrXrXeX`.^.;X;X/.z.H V I.rXrXeXeXeXrXeX-X_.1X-Xr.f f B k s g K S.R.-X1X-XR.L.z.D s g 6.(.eXrXwX;X-X1XeX:Xj.x A '.MXHXVX9X",
"7XHXPXHXfXE.A n 8.T.=X1X;XT.J.T.T.S.4.j n D.1XrXeXeXwX1X8X1X-X;XI.D g Y !.K.P k m 8.i.F.L.L.z.6.m g f f m y.R.=X*XL.z.R.*XT.4.c b.CXKXBXvX8X",
"].fXVXVXFXVX'.P V t.S.H.I.L.F.S.u.4.m s x 8.(.1XeXeX;X/.*X1X`.L.4.g B '.CXCX;XU g M 3.3.K D m j k Y c.Y k N t.S.S.i.t.u.l.t.m A {.CXiX1X3X*X",
"Q.eXiXrXiXBXMX!.A M 4.t.t.t.t.5.H c f i f M t.L.(.(.T.J.D.z.8.D j i Z ].FXmX=X6.f s x n n j s i A '.MX{.P g m K 2.2.K K K M g U 7XdX_.^.;X_.",
"U.1XyXrXeXiXnXuXg.j x m M M M Z A P Y Y P V m D 3.4.3.H D m c n B f c x.*XI.4.c k A Y c.b.b.Y h Z ).mXiXk.g s j c n n c g s f U ;XrX`.^.(.J.",
"U.1XrXeX4XrXbXsXv.g s B P d.c.E.{.0XfXMXpX!.d.c g g g j V Y c.!.!.d.c V L V B Y E.7XfXCXCXVX0Xg.B y.*X^.6.k B d.v.b.b.g.P h i G /.rXeX1X(.J.",
"W.1XrX3X3XrXvX1Xj.x B b.0XfXVXCXFXGXHXLXLXCXpXc.h i k d.'.rXMXGXCX7XI s f A E.aXCXLXPXPXGXmXBX;XI m 4.H V g.{.MXCXCXCXMX0Xv.k n J.3XyXtX1X^.",
"Q.8XrX3X3XiXrXR.6.n 6.-XmXDXDXmXsXiXbXBXbXbXVXrXd.f Y 9XnXbXnXBXbX1Xr.f B !.VXFXBXVXHXKXmXiXvXiXc.j s B b.aXHXHXLXLXFXVXVX9XY j 6.(.1X1X_.z.",
"v.`.1XwXeX1X(.S.K c L T.:X1XeXeXwXeXsXdXrXwXcXnX!.V d.wXcXtXeXrX4X_.8.j U 1XmXvXrXrXbXCXbXrXiXiXQ.B f g.aXVXvXiXvXnXvXyXiX:Xr.f m t.D.D.8.D ",
"r.D._.3XeX_.S.8.m f m u.R.;XeXeXeXeXrXrXeXeXsXnX[.J I _.eXeX3X:X_.H.4.c I ^.1X3XeXeXiXdXiXrXrXyX`.I Z /.nXiX1XeXrXrXrXrXeX^.J s f v M m x f ",
"j.T.-XeXeX^.t.N g i f L F.1XsXiXeXeXeXeXeXeXiXsX_.L V z.*X*X(.L.S.y.H x H l.L.*XeXrXrXrXeXeXeXtX;Xr.G /.sXrXeXeXeXeXeXyX3XJ.m i s k A J Z k ",
"Q.1XeXwX-Xx.H g f f f j 4.T.1XrXeXeXeXrX1X_.-X3X(.6.n L 8.6.L H H M j s D u.J.`.1X3XeXeXeXeX3XeX;Xf.Z K.rXiXuXrXeXeXrXrX*Xy.j f U E.{.9X[.v.",
"J.(.*X_.z.D j B d.b.g.Z c 4.L._.:X1XwXeX-XL.I.*XT.4.g j = + @ @ @ @ X @ s t.L._._.`.1XrXeX;X^._.(.6.c k.eXvXsXrXeXrXrX1XL.D j r.7XCXFXFXbX;X",
"6.i.S.t.V g P '.fXVXbX'.Y c H y.D.I.R.(.^.L.L.T.d # # @ X               + * * 8 F.(.1XeXeX=XH.F.D.H g 7.-XiXiXrXeXeX:XL.4.x P +XHXVXdXvXiX`.",
"M 3.K n f P {.CXFXmXBXBX'.A g m 3.8.t.t.u.S.m 8 @   . .   : ) R T T ; .       X = p D.(./.R.H.l.5.c f H L.;X1X:X=X^.z.3.x k b.MXFXdXeXrXeX/.",
"g c j s B !.VXFXnXsXiXvXuXc.f s j m M H K p @   5 ,.( ( ) / ' ' _ ' W T , ; ; o     * m 6.L H D c s i x 4.l.D.z.y.3.m g s A {.MXvXiXeXrXwX/.",
"f k f f r.9XBXnXbXsXrXtXeXJ.c i f k A I u   # c.aXPXOX<.}.:._ _ _ ` ` ' ^ ! ! > % .   @ i c B G P P Z c c N N m v g f i f Y <XsXrXeXwX1X1X_.",
"Y v.Y k r.1XiXiXyXrXrXtX1Xz.c f A b.!.f   u '.LXPXJXPXOX..;.] _ _ ` _ _ E T Q Q > % o   X B '.9XaXaX7Xv.Z f s g B Y d.Z f I `.yXrXeX1X*X*X_.",
").fX'.Z 4.*XrXeXeXrXrXyX:Xl.c k K.fXk   u pXPXLXJXJXPXgX[ [ ] ` _ _ :.w.w.X.T Q 3 % $ $   # K.LXLXPXLXMXE.B f Y '.fXaXK.B H T.3XrXeX3X1X:X_.",
"].bX;XJ H L.:X1X3X3X3X1X(.t.m J ].G   h CXPXLXPXJXJXPXgX[ | ] _ ]  XSXPXJXOX*.! T ; . $ $   X /.FXVXHXPXaXd.h c.bXFXiXL.D D i.(.1XeX1XeXwX_.",
"U.3X^.G m 5.l.F.L.I.I.H.i.3.n k.k.  = CXPXJXJXJXJXJXPXOX[ | ] W :.PXSXAXzX#X$X+.! > o . % $   * 8XsXsXmXuXg.h 6.R.R.S.4.j j K i.R._.^.*X1X/.",
"r.L.y.j s c m m m N D H H m V f.= # 7XLXJXJXJXJXJXPXgX-.| [ _ -.ZXSXAXSXzX#X#X$X+.> %   O 1 O   G yX1X:X^.I f j D D m j g f k D 8.i.l.L.T.j.",
"x m c k A Y Y Y P A n j f s J s   u PXPXJXJXJXJXPXkX:.[  .[ W -.JXSXAXAXzX#X#X@X7 ; - .   & 1   # /.1XU.j.m i s c G r.k.b.v.d.Z m N K 3.K m ",
"i s A b.0XfXfXfXaX7X!.&.h f n @ X ,.%XJXPXPXPXJXgX:.] | | [ W o.SXSXAXSXzX#X#X@X7 ; ; .     9 *   H *XS.H g k Y E.7XfXMXVXCXfX!.J f g c j f ",
"s A ).CXPXPXPXLXHXHXCXpXv.j *   % } -.gXOX}.}.<.| { | |  .[ W / OXPXSXAXzX$XhX*.2 > -     . 8 z   # 3.K j Z K.pXCXCXBXbXnXCXGXbXv.h B g.c.P ",
"B U.BXLXFXBXnXvXsXvXnXBXaXY     ( }.:.[ ] [ [ [  . . . . .' W W o.%XzXjXhX$XN.3 > 2 -     & 2.s.#   p j A '.VXFXvXrXeXeXiXvXvXiXW.Z g.fXMX).",
"6._.bXbXiXrXiXuXeXeXrXyXbXK.X   T :.<.;.[ [ [ [  .-.| [ ] W W ^ W E  XoX.Xw.( , 2 < o     = 9.p.#   u B E.VXVXiXwXwXwXwX1X1XeXeXQ.G k.vXbX/.",
"4.F._.-X1XeXeXeXeXeXeXwXiXW.X   , / } :.;. .;.-.] ' ' _ ` W ^ ^ ^ ^ ^ ! 3 Q 3 2 2 %     . 9 1.a.@   u 7.rXVXiX3XeXeXeX1X/.^.1XrX^.G L (.(.r.",
"H t.i.D.*XeXeXeXeXeXeXeXiXU.@   % T E / ' / ` ` ^ ` ` ` ^ ~ ~ ~ ~ ~ Q Q 3 2 2 ; $     $ 9 1.s.t   X u 7.1XvXeX1X:X1XeX1X/.Q.:XtX/.J m 8.8.c ",
"k L t.i.(.wXrXeXwX-X*X1XrX-XH     % T R R R ~ ~ ~ ~ ~ ~ ~ ! ! Q Q 3 ; 2 2 < - $     o 9 1.s.t     u m H I.:X1X`.U._.eXeX8X8XeXrX/.J f x j s ",
"i j H t.H._.1XwX:XI.F.*XwX:Xl.#     % > > , Q Q Q 3 Q Q Q 3 3 > < < 2 2 2 < o . . o 1 q 9.z     # m V m y.L.T.U.I.*XeXrXrXrXeX-Xz.c i k B B ",
"k B n D 4.l.L.R.R.H.F.R.(.H.t.t       $ ; ; ; - - ; ; ; ; ; ; ; ; < < ; ; - - % . : - 1 =     @ M 4.g c 3.y.y.D.`.eXeXwX1X-XT.t.V c P E.{.E.",
"b.~.b.P m H 5.t.u.l.S.i.8.2.m s = X     . . .     . . . . . . . . .       . . .   .         + M 8.m s s n H 3.u.T._._.^.J.t.H n J b.0XCXCX0X",
"<XMXVX7Xg.B c D K K H m c c k k k u                                                   X   + v K c g h k k c n V H 4.6.L D c V g.XXCXGXBXiX-X",
"`.iXBXVXpXv.k f g j B P d.c.b.E.b.g.n u a 5 & & & & & & # # # O O O O O O O O O O O = e.p p m Z P g.b.E.K.v.d.P B j g f f P !.fXKXGXvXrX1X`.",
"Q.3XtXiXBXuXf.f i P E.pXMXCXCXCXCXMX{.U &.M.>.>.=.=.=.=.&.&.%.l l l 0 0 0 1 5 9 9 1 z G.n P g.'.pXMXCXCXnXdXrX7X!.d.k f A '.CXFXVXbXrXeXeX`.",
"J.1XtXeXiXsXU.k Z '.CXPXLXGXVXVXHXPXFX).V.B.m.m.m.m.>.>.>.>.=.%.%.$.O.$.e 6 w 0 9 1 q i.r.{.MXHXPXPXPXHXvXiXiXbXmX9Xf.k k.bXVXsXyXiXyXtXeX`.",
"y.`.tXtXtX3Xx.Z b.CXPXFXnXiXiXsXvXCXFX7X|..XoXhXhXhXhXhXqXqXqX#X#Xm.%.&.l r l e 0 0 6 d 5XFXVXnXVXHXKXVXiXeXeXiXvXyXv.A E.nXdXrXeXeX1X1X1X_.",
"4.L.-X3X3X(.6.I 7XHXBXiXrXeXrXsXvXVXnXaXqXZXJXPXPXPXPXPXPXPXPXJXzXhX#XhXZ.%.%.#.e e 6 8 5XbXiXrXiXbXnXsXyXrXyXrXyX1Xk.P ).dXrXeXeXeX=X^._._.",
"D t.F.T.T.u.m r.pXCXiXeXeXeXrXiXnXVXvXVXLXJXJXJXJXJXJXJXJXJXJXAXjXlXZXzXoXM.>.=.%.e w 9 9.2XeXeXeXyXiXeXeXsXvXiXtX-Xr.U [.iXeXeXeXeX;X`.-X_.",
"g m K 4.5.D g 7.rXmXyXeXeXrXrXiXbXvXMXPXJXJXJXJXJXJXJXJXJXSXJXSXlXlXlXlXjX%Xn.n.&.l e 4 2.5X1XeXeXeXeXeXeXsXbXsXtX^.J Y ;XiXrXeXeXeXeXrXwX`.",
"f k c v x f s I =XvXsXeXeX1X1XrXrX-XdXPXJXJXJXJXJXJXJXJXJXSXSXAXlXlXlXzXhXoX|.|.=.l e 4 9.,X/.wXeXeXeXeXeXeXeXeXwXL.m I -XvXiXeXeXeXeXrXeX`.",
"d.v.c.Y B s s D L.1XrXrXwX_.^.-X=XT.pXPXJXJXJXJXJXJXJXJXJXPXSXlXlXlXlXzX$X|..X|.M.%.w 6 N p.&XeXeXeXeXeXrXeX-X`.*Xj.j D ^.iXsXeX1X:X1XeXeX`.",
"{.MXCXaX!.Y k c t.T._.-X-XT.J.U.F.XXSXPXJXJXJXJXJXJXSXSXJXJXAXlXlXlXlXzX$X|..X|.n.&.r 6 = y ,XeXeXeXeXeXwX:X^.J.j.D s c j.-XeXwX_.L._.eX1X/.",
";XVXKXGXCXpXv.V D t.A.D.F.F.D.l.5.'.SXJXJXJXJXJXJXJXAXSXJXlXlXlXlXlXkXzX$X|..X|.n.M.#.4 o t ,X(._._._.(.T.D.t.L v f i s D z.(.=X^.D.U.*X(.z.",
"Q.rXsXiXnXFXfXb.V M 3.5.5.5.4.H v ~.JXSXJXJXJXJXJXJXJXAXzXlXlXlXlXlXlXzX$X|.C..XM.M.O.w $ y &XL 8.8.8.3.D m m n A Y Y P n D t.S.F.H.S.i.y.3.",
"U.1XiXrXrXsXBXrXd.g x m m m D G I +XJXNXJXJXZXSXZXAXZXzXlXlXlXlXlXlXlXzX#XB.B.|.M.>.#.w $ y &Xc c v x c Z I g.E.+XfXfX<Xc.A m K 5.t.t.5.K m ",
"Q.1XrXeXeXeXvXsXv.g f A f.v.E.{.aXXXoXZXJXSXzXzXlXlXlXlXlXlXlXlXlXlXlXzX@XB.|.|.N.&.$.w 5 m >Xb.G g A v.[.pXMXCXKXPXGXmXsXQ.G x m N M m j s ",
"Q.1XeXwX3XrXdXeXj.x V Q.fXMXCXFXCXXXB.@XzXAXZXlXkXzXzXlXlXlXlXlXlXlXlXzX#X|.|.B.n.=.#.w q M 6XbXk.P '.VXCXVXmXnXBXCXBXcXvXiXK.B s f j B B h ",
"Q.1XrX1X1XiXiX(.8.c I *XvXbXvXsXiXc.m.@XoXhXkXkXjXjXlXlXlXlXlXlXlXlXlXzX@X|.|.n.&.M.l 4 q d 2XiXk.g.aXHXbXrXeXeXiXvXsXrXeXiX8Xg.f h g.'.'.g.",
"U.1XeXwXeXwX*XS.L j D L.*X-X:XeXrX;Xh.C.|.oX@XhXhX#XhXzXzXzXzXzXzXlXlXzX.XB.|.B.M.&.w w a 2.(.=X7.f.eXbXrXeXeXeXiXiXeXeXwX1XwXU.B Y 0XKXMX].",
"j.T.-XwXeX_.S.8.V f c r.T.1XeXrXeXeX&.#.m.|..XoX@X@X@X@X@X@X.X.XoX.X.X.XC.N.C.N.$.r w 7 a a.T.L.Z L _.eXeXeXrXeXrXeXeXeXwX=X`.U.G Y 8XmXeXT.",
"7.J.`.eXeX^.t.D g i s m j.;XsXiXeXeXP.l &.>.B.N.m.|.B.B.B.B.N.B.B.N.N.B.n.q.q.q.r 0 4 e b N 4.L j m D.*X-X1XrXeXeXeX1X:X1X1X*XL.L n j.(.T.t.",
"J.`.1X3X;XD.H g f h f g D D.=X3XwXeXtX0.e #.%.$.%.n.n.n.=.>.n.n.n.n.n.n.$.#.$.l 4 4 w b D i f f s x 8.F.^.;XeXeXeXeX*XR.*X1X(.S.K g v 2.H v ",
"J.R.^.(.D.H g B d.b.v.Y c D y.T.(.*X:X:Xk.e r w r @.@.@.@.#.#.#.#.@.@.@.l l l e 0 0 1 u B A P A B j m 5.H._.=X-X:X-X_.U.T.T.S.t.D s s j g f ",
"y.l.l.y.D g A E.aXCXVX9Xg.k m 3.t.l.D.D.I.7.b b e r r r @.@.@.@.@.@.@.@.r e r q a a C v.'.7X0X9X'.g.V n K t.i.z.S.S.S.S.l.u.t.K c B Y v.c.Y ",
"H 5.4.m f P '.CXFXBXVXFX7XY f g m H K 3.5.t.t.t.D h S P.P.V.V.V.V.V.V.V.S h s f P !.pXMXVXBXBXVXVXaX!.P j m D H H K 2.3.4.3.D c J !.fXCXfX[.",
"j m x s B !.MXFXnXsXiXvXsXb.h i f j n m M M M m x B E.CXFXvXiXiXyXiXmXVX8Xr.f B E.MXVXvXiXrXeXrXiXnXbX).A s s g c n n c x j f B !.CXFXBXvX<X",
"f f s f d.0XBXnXbXiXeXtXrXK.c f Z d.c.c.f.Y Z f i G [.bXyX3XeXeXeXrXiXiXeXU.V Z ^.vXiX8X1X1X1X1XeXyXvXsXb.h i A g.v.c.0.B f f d.aXFXsXtXeX`.",
"Y g.P k k.eXiXiXyXrXeXtX3Xx.c Z !.fXCXCXMXaX{.d.h G (.tXeXeXeXrXiXyXeX-X(.J.G V J.wXeX8X;X`.;XeXrXrXyXiX).A B U.bXCXCXfX/.A f g.uXbXrXeX4X`.",
"[.aXK.n f.1XyXeXeXeXrXyX:Xy.x U 1XmXFXLXLXPXHX7XP V J.:XeXeXeXrXyXrXeX(.l.t.H c j.1XrXwX_.U.`.eXrXrXrXeXU.D G ).vXVXLXLXdXk.k 6.-XiXrXtXeX`.",
"/.1Xx.c 4.(.3X3X3X3X1X1X^.8.x I _.eXeXiXdXbXnX8Xr.c 8.L.`.3XeXeXeXeX1X(.l.e.D x 6.^.1X1X:X-X1XeXeXeX1X_.y.m J U.=X=X1XtX1Xk.c H T.1XeXtX3X^.",
"z.H.4.x K S.(.*X*X`.(.T.l.3.x D L.:X1X1X1X1X:X^.I j H y.L.-X1X1X:X-X_.T.S.t.V j H l.T._.-X1X1X1X1X:X(.S.2.x D D.T.T.T.R.T.8.j m i.R.:X4X:XJ."
};
