/* XPM */
static char *b4097af5fdba407bbced00064e16c222KstDSLr3P0Sa5inc[] = {
/* columns rows colors chars-per-pixel */
"70 70 251 2 ",
"   c #010101",
".  c #0A0204",
"X  c #090809",
"o  c #0C0A0A",
"O  c #120104",
"+  c #15080B",
"@  c #1A0C13",
"#  c #0B181D",
"$  c #18181A",
"%  c #28020B",
"&  c #280916",
"*  c #380514",
"=  c #261319",
"-  c #371219",
";  c #191B22",
":  c #281721",
">  c #371A23",
",  c #262727",
"<  c #3A232A",
"1  c #333339",
"2  c #44070C",
"3  c #4A0217",
"4  c #580216",
"5  c #53031B",
"6  c #67021A",
"7  c #78031A",
"8  c #641415",
"9  c #481729",
"0  c #541736",
"q  c #670121",
"w  c #760421",
"e  c #4B2A31",
"r  c #55293A",
"t  c #622A3E",
"y  c #303A4A",
"u  c #4F2F4B",
"i  c #592845",
"p  c #622D44",
"a  c #643345",
"s  c #693649",
"d  c #6A364A",
"f  c #723D4E",
"g  c #5B3B68",
"h  c #2F4860",
"j  c #444548",
"k  c #4C4D4E",
"l  c #544D4F",
"z  c #4B4C54",
"x  c #4F5053",
"c  c #525354",
"v  c #5C5454",
"b  c #53565A",
"n  c #55595D",
"m  c #5A5B5C",
"M  c #6D4D50",
"N  c #7A4754",
"B  c #4F4A6E",
"V  c #565B62",
"C  c #5A5E63",
"Z  c #585F68",
"A  c #705666",
"S  c #5D6166",
"D  c #5C636B",
"F  c #5D6A6C",
"G  c #5D6671",
"H  c #5F6775",
"J  c #636365",
"K  c #62666B",
"L  c #69626C",
"P  c #66696C",
"I  c #6B6C6D",
"U  c #606771",
"Y  c #636A73",
"T  c #6B6E72",
"R  c #646E79",
"E  c #796F7B",
"W  c #6E7174",
"Q  c #65717D",
"!  c #6A737D",
"~  c #737374",
"^  c #73767B",
"/  c #76797B",
"(  c #7B7B7C",
")  c #8B011D",
"_  c #94011C",
"`  c #A7011C",
"'  c #B8021C",
"]  c #880323",
"[  c #980123",
"{  c #A60224",
"}  c #B40121",
"|  c #BC0122",
" . c #BC0B24",
".. c #AB1629",
"X. c #A03033",
"o. c #C20723",
"O. c #C31729",
"+. c #D31429",
"@. c #D3292C",
"#. c #D9372C",
"$. c #D93A33",
"%. c #A84E37",
"&. c #DD4639",
"*. c #DF563F",
"=. c #E34A3B",
"-. c #B43448",
";. c #C03550",
":. c #854C5A",
">. c #8A5158",
",. c #AE645B",
"<. c #8A5863",
"1. c #925A65",
"2. c #95686C",
"3. c #886871",
"4. c #986B73",
"5. c #9B7675",
"6. c #AD716F",
"7. c #A57878",
"8. c #E45949",
"9. c #DB6757",
"0. c #E67869",
"q. c #80807F",
"w. c #A9847C",
"e. c #EE8C77",
"r. c #FAAF7F",
"t. c #3D7493",
"y. c #586C91",
"u. c #6D6D8A",
"i. c #6A7582",
"p. c #6B7987",
"a. c #6D7984",
"s. c #727A85",
"d. c #7B7E84",
"f. c #737E8B",
"g. c #5178A8",
"h. c #7A818A",
"j. c #748392",
"k. c #7B8693",
"l. c #7B8996",
"z. c #7D8B9A",
"x. c #5784BC",
"c. c #6E8CAC",
"v. c #7EBBC4",
"b. c #838384",
"n. c #84868A",
"m. c #8B8B8C",
"M. c #878C94",
"N. c #828E9B",
"B. c #958A92",
"V. c #87919B",
"C. c #8B939C",
"Z. c #939394",
"A. c #94979B",
"S. c #9B9B9B",
"D. c #AD8982",
"F. c #B28B85",
"G. c #BA978B",
"H. c #BA9D92",
"J. c #BAA295",
"K. c #828FA0",
"L. c #8593A2",
"P. c #8B95A3",
"I. c #8D99A6",
"U. c #8D9BA8",
"Y. c #939AA4",
"T. c #9B9DA3",
"R. c #939DAA",
"E. c #99A1AA",
"W. c #9BA3AC",
"Q. c #9BA5B2",
"!. c #9AA6B4",
"~. c #A4A5A9",
"^. c #ABABAC",
"/. c #B3AEAB",
"(. c #A3AAB5",
"). c #A9AEB6",
"_. c #A3ADBA",
"`. c #ACB1B5",
"'. c #A6B1BC",
"]. c #ABB3BD",
"[. c #B4B4B4",
"{. c #B7B9BB",
"}. c #CA9591",
"|. c #E9978C",
" X c #C3A494",
".X c #C4A79A",
"XX c #CAAD9C",
"oX c #CCB09E",
"OX c #F1AD98",
"+X c #C7A9A1",
"@X c #CCACA4",
"#X c #CEB6AD",
"$X c #ECB2AC",
"%X c #CDC1B7",
"&X c #DBC6B6",
"*X c #F4C7B3",
"=X c #80BFC5",
"-X c #ADB6C1",
";X c #AEB8C4",
":X c #B3BBC4",
">X c #B7BCC4",
",X c #B5BDC9",
"<X c #8DC9CF",
"1X c #BDC1C6",
"2X c #BBC3CD",
"3X c #ACCDD7",
"4X c #BEC6D1",
"5X c #BDC9D7",
"6X c #C3C3C4",
"7X c #C1C6CD",
"8X c #CACBCD",
"9X c #D4CFCC",
"0X c #C1C7D1",
"qX c #C4CAD4",
"wX c #C9CED6",
"eX c #C6CED8",
"rX c #C9CFD8",
"tX c #CDD1D6",
"yX c #CDD2DB",
"uX c #D4D4D5",
"iX c #D2D6DD",
"pX c #D4D8DF",
"aX c #DBDBDC",
"sX c #E6D7C8",
"dX c #EBDDCC",
"fX c #EFD9D3",
"gX c #ECE4D7",
"hX c #F2E6D4",
"jX c #F2E7D4",
"kX c #F3E9D7",
"lX c #F8E0D9",
"zX c #F4EBDB",
"xX c #CCD6E0",
"cX c #D2D7E0",
"vX c #D5DAE1",
"bX c #DADEE3",
"nX c #DDE1E6",
"mX c #DEE2EA",
"MX c #E3E4E5",
"NX c #E3E6EA",
"BX c #E6E9ED",
"VX c #EAEBEC",
"CX c #F5ECE4",
"ZX c #F9F6E9",
"AX c #E4EAF3",
"SX c #EBEEF1",
"DX c #EEF1F4",
"FX c #F2F3F4",
"GX c #FEFEF4",
"HX c #F6F7F8",
"JX c #FDFDFC",
/* pixels */
"[.NXSXvXbXbX(.C C ^.DXJXJXJXFXFXJXJXJXqX/ m S.VXHXDXSXSXDXFXFX8X( J ^.FXJXJXbXM.m b.{.BXJXJXJXJXFX^.I ^.FXJXNXvXbXNXSXFXBX].T I {.SXAXmXcX{.",
"Y.7XyXeXyXqXP.S b.uXJXHXSXnXbXnXNXFXJXbXC.T ^.bXbXbXvXyXyXpXnXpXW.T A.iXBXNX7Xn.( 6XVXVXBXNXBXDXSX[.~ T.VXJXNXvXiXyXyXpXcX2Xn.K Y.yXxXyXqX'.",
"h.!.2XqXqX'.f.T [.FXDXMXpXwXyXpXpXBXFXpXA.d.).rXeXwXwXqXeXyXpXvX>Xb.d.].yXeXW.^ S.VXSXiXeXwXyXiXiX).^ Z.bXNXvXiXyXqX2X2XeXqXA.K h.-X4XqX,XI.",
"R z.!.-X'.L.U ( 8XSXvXeXeXqXwXyXpXNXNX7XM.n.].eXqXqXqXrXyXiXyXyX0XA.W T.eX2XM.T ^.NXbXeXqXqXeXeXqX(.W n.qXyXqXqXeXqX-X_.2XeXW.P R P._._.P.i.",
"Z R f.z.z.! V h.tXNXrXqXqXqXqXwXbXNXiX].n.M.2XyXyXeXeXyXyXeXqX2X>XA.P n.;X_.! K E.yXyXeXqXqXqXeXqXW.T / >XyXqXqXqX0X-X_.,XqX(.T Z i.f.i.G n ",
"c n D G G V c d.7XnXiXqXqXqXqXyXpXiXqX~./ C.qXbXvXyXeXeXeXeXqX].W.M.S K z.k.D D P.2XeXqXqXqX0XqXqXE.K P (.yXyXqXqXqXqX7XqXqX(.I x V D K S c ",
"( m.( K b k c a.].vXiXqXqX0X2XqXqX7X:XM.T T.yXpXyXwXqXqXqXqX2X:X'.M.m c D D b C k._.2XqXqX2X:X>X;XM.n C C.qXpXeXqXqXeXeXeXqXE.S c P Z.^.^.m.",
"{.aXaX[.b.m x Y U.2XwXwXqX].(.>X>X_.C.R K E.eXeXqXqXqXeXqX:X'.2X:Xh.c c J m x b Q L.!.:X2X:XQ.R.V.U k b s._.qXeX0X>X:X2XqX,XN.V I [.MXFXNX8X",
"6XFXJXFXaX~.I S f.Q.;X2X>XQ.Y.Q.!.L.i.n S P.2XeXqXqX0X2X2X,X:X:XR.U c ( ^.S.~ m D f.z.I.R.R.C.s.D n c c D k.!.;X-XR.C.!.-XQ.a.C S.VXFXNXcX7X",
"`.aXBXNXSXBX[.~ U j.L.U.E.R.U.L.z.a.S x V f.(.2XqXqX>X_.-X2X:XR.s.n P {.FXVX>X/ n G i.i.Q Y D n m ( Z.( m G j.L.L.z.j.z.N.j.D I {.VXyX2X4X-X",
"~.qXyXwXyXNXMX^.I D p.j.j.j.j.p.R Z c k c G f.R.(._.Q.Y.P.h.U V j j c Z.nXAX;Xs.x x n S S n x k I {.MX{.~ b D Q i.i.Q Q Q G b / 6XvX'.(.>X'.",
"W.2XrXeXqXyXnXtXm.n V D G G U U I ~ ( ( ~ K D R i.i.z 1 1 $         X X j Y z b m ~ b.Z.S.S.( m I `.mXyXM.b x n S D S C b x x / >XwX].(._.Y.",
"W.2XeXqX4XeXbXiXA.b c J ~ b.Z.~.{.9XaXMX9X/.n.b j $         O % % % % O . .   X j /.aXFXVXNX8Xm.J k.-X!.s.m J b.A.S.S.m.~ m k T _.eXqX2X).Y.",
"~.2XeX4X4XwXvX2XM.V J S.8XaXMXVXSXDXFXJXJXMXS., X   % 4 4 6 ) | } | | ..X.%.%.e . $ I aXDXBXnX>X^ D a.R K m.{.MXVXVXVXMX8XA.m S Y.4XrXeX2X(.",
"~.7XeX4X4XrXeX!.s.S s.:XmXSXSXmXiXyXnXnXW.C $   . * ] [ _ } | o.o.o.o.@.r.*XlX*X6.l < $ W ].nXwXM.n x J S.uXFXFXHXJXSXBXBX7Xd.n s._.2X2X'.C.",
"Y.].2X0XqX2X'.L.Q C ! !.,X2XqXqX4XyXyXJ X   . - 8 ] _ _ [ } | | | |  .$.9.9.9.e.OXOX@XP . ; A.bX~.J c m.uXVXvXyXvXnXvXrXyX,Xh.b D k.L.L.f.Y ",
"h.P._.4XqX'.L.f.D c D z.!.>XqXqXeX>Xc   . > >.F.}.}.}.-._ } | | | | o.$.#.#.0.sXlXlXlX*X,.-   ^ >X^ J ^.nXyX2XqXeXwXeXqXqX(.W c c D G D V c ",
"M.Q.:XqX0X(.j.G c k c R I.2XiXvX).,   O 9 :..X#X@XsXZXsX-.' | | | |  .$.$.0.JXJXJXJXZXfX*X|.M   n n.W ^.iXeXqXqXqXqXqXwX4XY.D k x m I W P m ",
"~.2XqX0X:XC.R b c c c n a.!.qX`.,   O 0 :.w.@X@X@XgXzXZX$X' | | | | o.#.&.lXJXGXGXGXGXJXZX*XOX>.o 1 P T.eXyXrXqXqXqXeXeX-Xk.n c ~ ~.{.6X{.A.",
"Y._.-X'.C.U n J b.S.m.P C s.h.,   % 9 :.2.XX@X@X#XzXkXZX$X' | | | | o.$.=.CXJXGXGXGXGXGXGXZX*X*X5.. , M.qXpXiXeXqXeXeX2XR.R n b.8XVXSXSXbX>X",
"s.z.L.k.K n ~ /.aXBXbX[.( b @   & * N <.<..X@X@XsXzXzXCX9.' | | | | o.$.&.|.JXGXGXGXGXGXGXJXCX*X$X,.O 1 ].iXyXeXqXqX,XE.a.V ~ %XFXBXpXvXyX].",
"G i.Q S c ~ {.VXSXmXNXNX^.$   - & > <.:.4.+X@X@XdXzXzXCX-.' | | | | o.$.#.9.GXGXGXGXGXGXGXGXJXZX|.|.X.  D 2X2X2X;X!.V.i.V m S.MXSXpXqXeXqX).",
"n Z n x J ^.NXSXnXiXyXmXm.  @ &   e :.:.7.@X@X@XdXzXzXCX;.' | | | | o.$.#.9.JXGXGXGXGXGXGXGXGXJXsX|.}.+ $ l.I.V.k.i.D n x I {.MXvXyXqXeX0X).",
"c m c c h.8XNXnXbXyXeX:X, . > . X N :.:.7.@X@X@XdXCXZX}.[ ' | | | | | $.&.$.|.JXJXGXGXGXGXGXGXGXJX|.OX5.  y R D Z b c k c / 1XiXqXqX0X2X2X).",
"( A.( m h.2XyXyXrXqXyXm   & >   o N <.<.F.@X@X#X&XhX}.{ _ } | | | | | $.&.$.#.|.ZXJXJXGXGXGXGXJXGX0.=.e.r X j n J ( b.P c ^ ].rXeXqX2X-X-X).",
"`.aX[.P a.-XeXqXqXyX>X;   9 @   . e 1.1. X&X@X}.-.-..._ [ } | | | | o.&.&.&.$.$.0.OXlXJXJXJXJXCX|.*.8.e.%.. , ( [.aXiXT.J R Q.4XeXqX4X2X,X'.",
"].bX>XW R U.,X2X4XeXT   & 9 .     o e 9 N 6.>.] ) _ [ [ [ } | | | | o.@.$.$.&.&.#.&.8.|.OX|.$X0.&.=.8.0.@.2 X d.nXBXyXR.Y U z._.2XqX2XqX0X'.",
"W.4X(.T D p.N.I.E.I.$   0 -             3 6 6 6 ] { [ [ [ { } } } } } } }  .*.@.o.O.#.#.#.@.#.#.&.*.&.$.8.8   1 (.!.L.i.n n Q z.!.'.(.-X2X_.",
"h.R.k.n x V D D G V X ; i O             5 q q 6 w [ [ { { { [ ] ) ) _ { } }  .} ' | @.#.@.#.@.@.&.*.#.9.OX..O $ D H D n b c n Y f.z.N.R.!.N.",
"V D C m I ( ( ( / ,   B u O       . O   % 5 q 6 q q w ] ] ] w 4 4 4 6 ) ] [ ) [ { { O.O.O.O.+.+.@.@.@.0.e.' 6   , W h.m.S.A.q.P D H Q i.Q D ",
"k x I S.8XaXgXaXaXj   g.g O     . + . . . 5 q q q q 6 5 5 5 3 3 3 3 3 5 5 5 5 q w ] [ [ [ [ | | o.+.=.8.O.@.7   1 6XaXMXBXVXaX^.W c b C n c ",
"c T `.VXJXJXJXHXHXc   g.g O       O % 3 5 3 3 3 * % % O O O O O O O O O O . + % % 3 4 3 4 w [ ) { | O.O.' +.7   m DXnXbXnXVXDXbXA.m J m.m.~ ",
"J W.NXJXSXNXnXvXvXj   g.g O   . . * 3 * * .   .             .   . .   .           . . . O % * 5 w 7 ` ` { ` 6   x iX0XqXyXcXvXyX~.P m.aXnX[.",
"s.'.bXbXyXwXyXrXeXj   g.B @ @ * . . O               X   < r r r r r r r r < . X               O % * 7 7 _ 7 6   k eX7X7X2X2XqXqX~.T M.vXbX).",
"a.I.'.:X2XqXqXqXeXy   y.g.1 9 &         + = X     : r r a d d d d d d d d a r r > .   o = o       . % 5 7 ) 4   j yXqX2X_.(.2XeX(.T ^ _._.h.",
"R j.z.P.-XqXqXqXeXK   y x.h =     + + + @ @ X   + r d d d a a a a a a a a d f f r =   o = @ + @ @ . . % 4 6 +   P qXqX2X_.(.2XeX`.W D f.f.Z ",
"V ! h.z.(.0XeXqXqX_.$   y y     > r r d e = X   > r d d d a a a d d p a a a a d a >   X @ r f r r =   . * +   , R.'.qXqX7X7XqXeX_.W c V n x ",
"k n R j.U.'.2X0X,XQ.D X   X   . @ @ o > e < X X r p d a f 2.5.5.7.D.7.7.7.2.N d d >   @ < < > + + o   . .   o ! Q.].qXqXeXeXqX:XV.C k m J J ",
"m J S U a.z.R.!.!.I.U.U $     X > < > + X X     9 p d f 2.F. X X X@XoXXXXXXXH.5.7.r     X X @ < < :       X V I.'.qXqX0X2X:XQ.k.K C ~ ~.{.~.",
"S./.S.~ D R p.j.l.N.L.z.G ;     o o + 9 e >   1 u p N 2.G.J.H.H.H..X.X X X X X XoX4.o . < e > o o X     $ z a.l.Q.'.'.(.Y.k.R S W S.8XVXVX8X",
">XMXBX6Xm.J Z Y Q Q R D D b , $ o       .     t.B t 4.F.F. XJ.J.dXgXgXgXgXdX&X X XXX,   X .       X $ , c S S K R i.s.! U Z K m.#XVXDXNXyX:X",
"].yXNXBXuXA.m c b n J ~ b.A.S.~.T , $ $ $   # h i r 4.F.G.dXdXgXCXGXJXGXJXJXGXsX&X&Xv   X $ $ $ $ J S.S.~.Z.b.~ J n b c c ~ ~.aXFXFXvXeX2X].",
"(.4XeXyXNXwXm.c k ~ ~.uXMXVXVXDXVXuX^.^ k   y y.5 r 2.G.&XhXzXzXZXGXGXGXGXGXGXJXCX9X/.o X P m.~.6XMXFXVXbXpXwX6X^.b.J c I [.VXSXNXbXeXqXqX].",
"Y.2XeXqXyXiXW.m P [.VXJXJXDXBXBXFXJXDX].W 1 h H r N F.H.&XhXhXzXZXZXGXGXGXGXGXGXGXHXuX$ j 6XMXFXJXJXJXFXbXyXiXbXnX7Xm.m m.bXBXiXrXyXrXeXqX].",
"l.].eXeXeX4XC.P S.VXJXSXnXyXyXiXvXVXSX7Xb.N.c.i f 7.XXXXXXdXkXhXkXZXGXGXGXGXGXGXGXJXFX[.6XSXNXnXBXFXFXBXyXqXqXyXbXrXA.I ~.nXvXwXqXeX2X2X2X'.",
"a.R.:X4X4X_.s.^ 6XFXNXyXwXqXwXiXvXNXNX>Xn.P.g.i 2.w.J.oXoXdXkXhXzXGXGXGXGXGXGXGXGXGXJXJXNXbXyXqXyXbXnXiXrXeXrXeXrX2XM.~ `.pXeXqXqXqX-X(.'.'.",
"U j.P.!.Q.l.D h.uXVXyXqXqXqXeXyXnXBXcX).N.c.u p 7.D.J.oXXXdXkXhXzXZXGXGXGXGXGXGXGXGXGXHXNXeXqXqXqXrXrXqXqXiXvXyXeX:Xh./ {.yXqXqXqXqX>X'.:X'.",
"b D Q a.f.U b d.wXmXyXqXqXeXeXyXbXvXqXY.j.c.0 d 5.D. XXXXXdXzXkXhXzXGXGXGXGXGXGXGXGXGXJXVX,X2XqXqXqXqXqXqXiXbXiXeX(.W ( >XyXeXqXqXqXqXeX7X].",
"c m C V V c x ^ :XvXiXqXqX2X2XeXwX2X(.h.l.c.i a 5.D. XXXoXdXzXhXhXkXCXGXZXGXGXGXGXGXGXJXBX_.'.0XqXqXqXqXqXqXqXqX0XR.K ^ :XcXyXqXqXqXqXeXqX].",
"b.S.Z.( J x k Y R.2XeXeX0X'.(.:X-XR.f.h.v.z 0 d 5.D. XXXXXdXzXkXhXhXkXGXGXZXGXGXGXGXGXJXGX8X-XqXqXqXqXqXeXqX:X].-XM.n Y (.yXiXqX2X,X2XqXqX].",
"{.MXVXuX^.( m Z h.Q.'.>X:XQ.R.E.U.z.U R v.: 0 N 7.D. XoXXXdXzXkXkXkXkXzXZXGXCXZXJXGXGXJXZX9X,XqXqXqXqXqX0X,X(.Y.N.Y x C N.:XqX0X'.E.'.qX2X_.",
">XBXHXDXVXuXS.K U j.K.P.I.I.P.z.j.Q b F =X@ 0 N 7.F.H.}.XXdXzXkXkXzXzXhXkXzXzXZXGXGXGXJXZX#XU._.'.'.'._.!.P.k.Q Z c k x U V._.;X(.I.Q.-X_.C.",
"(.eXiXyXnXSXaXS.K G i.p.p.p.p.R D C c W =X: 0 N 7.F.G.F.XXdXzXkXkXhXkXkXhXhXhXzXzXZXZXZXGX/.D i.f.h.s.i.Y D D S I ( ( ~ S U h.L.U.U.L.z.k.i.",
"W.2XyXwXwXiXNXwXb.b V D D D U T ( m.S.`.<Xu i N 6.w. X X XdXzXkXzXzXkXkXkXhXhXhXhXZXZXZXZXJ.b C Z Z V Z P ^ m.~.6XaXaX1XZ.I D Q f.j.j.f.Q D ",
"(.2XeXqXqXqXcXiXA.b c I n.A.~.{.uXMXVXDX<Xz a f 7.7.w. X XdXkXhXkXkXkXkXkXkXkXhXCXZXZXzX&XJ.S.S.T b I A.{.uXMXVXFXJXDXmXiX~.T V D G G D n x ",
"(.2XeX0X2XeXcXqXN.V P ~.aXMXVXSXSXBXVXHX3XB p a 1.F.7.F.H.dXzXzXzXzXzXzXzXkXdXhXzXzXdX&X XS.bXaXM.~ [.MXSXBXmXbXMXVXNXcXvXyXT.J x c n K J m ",
"~.2XeX2X2XyXyX_.f.Z ^ -XvXbXvXpXwXwXbXNX5Xy.p d N 1.D.F.F.&XsXsXsXdXdXsXsXsX&X&X#X&XXXG.G.Z.yXyXM.m.pXFXbXeXqXqXyXvXiXeXqXyX7Xm.c m m.[.[.m.",
"W.2XqX0XqX7X-XL.! n Y R.-X:X,XqXqXeXyXiX5Xu.i d d f 7.w.w.G.H.H..X.X.X.X.X X.X XH. XG.7.4.h.;X-Xd.n.wXbXrX0XqXqXyXyXeXqX0X2X0XW.J / 8XFXMX[.",
"M.W.:X0XqX'.L.f.K c C h.Q.2XqXwXqXqXqXqXqX].L p r t N 4.2.D.G.G.G.G.G.F.F.G.H.D.7.7.1.4./ T E.R.P ! '.qX0XqXeXqXeXqXqXqX0X-X].W.T / 7XmXqXQ.",
"d.Y.].qXqX(.k.U b k c D N.>XiXyXqXqXqXqX4X2X-XA t t a N N 1.4.4.4.4.4.<.2.4.4.1.:.>.3.d.P C i.! n D I.-X:X2XwXqXqXqX2X,X2X2X-XR.! S M._.Q.h.",
"Y.].2X2X>XP.R b c b c b U P.-X4X0XqXeXeX2X(.'.~.3.A r a a f N N N N N :.N N N 3.B.B.C.a.c k c c x V f.I.(.>XqXqXqXqX-XQ.-X2X_.L.Q b Z i.R Z ",
"Y.Q.(._.P.R b J b.S.A.( C U k.E.'.-X,X,X-XE.E.'.Q.a.x l v A <.3.3.3.A A l L E d.k.s.Y S J I ~ I J n D a.I.'.;X:X,X:X'.W.!.Q.L.j.Y x x n b c ",
"k.N.L.k.Y b I ~.iXVXBX8Xm.m D i.k.N.L.I.I.P.L.L.z.Q m I S.6XuXaXaXaX6XZ.J V D Z V K / A.[.6X8X6X[.m.K S Q j.z.N.L.L.L.L.N.l.j.Q Z J ( A.m.( ",
"R f.a.D c ~ [.VXSXNXBXSX6X( c b D R Q i.p.f.j.j.! S ~ {.VXFXFXSXBXSXFXaXA.m k c ~ ^.uXMXNXNXNXNXBXaX^.~ n D Y R Q Q i.p.p.i.U C ~ ^.aXVXaX{.",
"n D V x J ^.NXSXnXiXyXvXiXS.b k c n S D G G G D n J ~.NXBXpXwXqXqXwXbXNX7Xh.c J ~.MXBXvXyXwXqXeXyXnXbX`.I c x b C S S V V n c J ^.VXSXNXvX1X",
"c c x c b.8XNXnXbXyXqXeXeXW.C c I b.Z.Z.n.( P c k W {.bXyX4XqXqXqXwXyXyXqXW.K P (.pXyX7X7X2X2X2XqXrXvXiXS.m k I m.A.Z.b.J c c b.iXSXiXeXqX].",
"( m.~ m M.qXyXyXyXeXqXeX4XC.C P ^.aXVXVXMXuX{.b.m T _.eXqXqXqXwXyXrXqX>X).Y.T K Y.0XqX7X>X].>XqXeXeXrXyX`.I J W.bXVXVXaX^.I c n.tXbXeXqXqX].",
"{.uXT.S k.2XrXqXqXqXeXrX,Xk.V / 2XmXSXHXJXJXFX6X~ K Y.,XqXqXqXeXrXeXqX_.N.j.R Z M.2XwX0X'.E.].qXeXeXwXqXE.Y T `.vXBXHXHXpXM.m s.:XyXeXeXqX].",
").2XC.C a._.4X4X4X4X2X2X(.f.V ^ '.qXqXyXvXbXnX7Xh.S f.R.].4XqXqXqXqX2X_.N.j.Y V s.(.2X2X,X:X2XqXqXqX2X'.k.D W W.;X:X2XeX2XM.C R Q.4XqXeX4X(.",
"V.U.i.V Q L._.-X-X]._.!.N.i.V Y R.,X2X2X2X2X>X(.^ n R k.R.:X2X2X,X:X'.Q.L.j.K n R N.!.'.:X2X2X2X2X,X_.L.i.V Y L.Q.Q.!.!.Q.f.n D z.!.,X4X,XY."
};
