/* XPM */
static char *_b244b69795a4a32ccf95e00d2f693715PIN9ZCy45nILn19[] = {
/* columns rows colors chars-per-pixel */
"70 70 255 2 ",
"   c #010001",
".  c #0B0304",
"X  c #0A0A0B",
"o  c #18050A",
"O  c #121013",
"+  c #18181A",
"@  c #240002",
"#  c #24030C",
"$  c #38090F",
"%  c #2C0715",
"&  c #370716",
"*  c #2A151A",
"=  c #161E24",
"-  c #2C192F",
";  c #361725",
":  c #1A242C",
">  c #262728",
",  c #352930",
"<  c #3B2A35",
"1  c #353539",
"2  c #4D040E",
"3  c #47011A",
"4  c #56031B",
"5  c #70021B",
"6  c #590322",
"7  c #4D132D",
"8  c #640122",
"9  c #790123",
"0  c #621F3D",
"q  c #502934",
"w  c #682A3A",
"e  c #2F3B49",
"r  c #571C46",
"t  c #572A49",
"y  c #6B3747",
"u  c #6D314D",
"i  c #693564",
"p  c #3B434C",
"a  c #434549",
"s  c #4D4D4D",
"d  c #4C4D52",
"f  c #554A50",
"g  c #4F5153",
"h  c #4C525D",
"j  c #525354",
"k  c #5B5357",
"l  c #53565A",
"z  c #55595D",
"x  c #5A5B5C",
"c  c #6F414B",
"v  c #7A4857",
"b  c #7D525A",
"n  c #4D4F6B",
"m  c #565C62",
"M  c #5A5E63",
"N  c #585B67",
"B  c #725769",
"V  c #5D6165",
"C  c #5C636C",
"Z  c #5D6671",
"A  c #5D6874",
"S  c #636364",
"D  c #62666B",
"F  c #65686C",
"G  c #6B6C6D",
"H  c #77696F",
"J  c #606771",
"K  c #636B73",
"L  c #6B6E72",
"P  c #646E79",
"I  c #6E7175",
"U  c #65717D",
"Y  c #6B737D",
"T  c #6F787F",
"R  c #737374",
"E  c #73767B",
"W  c #76787B",
"Q  c #7B7B7C",
"!  c #8C071B",
"~  c #98011C",
"^  c #B2020E",
"/  c #A9011C",
"(  c #B5021A",
")  c #BE001D",
"_  c #890425",
"`  c #970124",
"'  c #9F112A",
"]  c #A40122",
"[  c #A90523",
"{  c #B60523",
"}  c #BE0121",
"|  c #B31731",
" . c #8F2E2C",
".. c #B02D3B",
"X. c #C70316",
"o. c #C1011E",
"O. c #CD1A1E",
"+. c #C10221",
"@. c #C70924",
"#. c #C61529",
"$. c #D92E25",
"%. c #D22B2F",
"&. c #EB5234",
"*. c #C93E47",
"=. c #894959",
"-. c #87545D",
";. c #AC4240",
":. c #B45350",
">. c #B4615F",
",. c #875965",
"<. c #915A66",
"1. c #95676D",
"2. c #916B71",
"3. c #9C7374",
"4. c #9F7678",
"5. c #B06671",
"6. c #A47B78",
"7. c #D14C4E",
"8. c #DE695F",
"9. c #CE6A6D",
"0. c #80807F",
"q. c #A6827B",
"w. c #EF8D6A",
"e. c #5B6D94",
"r. c #6B7582",
"t. c #6B7987",
"y. c #6D7885",
"u. c #737B85",
"i. c #797C82",
"p. c #727E8B",
"a. c #677091",
"s. c #A57682",
"d. c #D47D84",
"f. c #78818A",
"g. c #7A828C",
"h. c #6E8090",
"j. c #748392",
"k. c #7B8592",
"l. c #7D8996",
"z. c #7D8B9B",
"x. c #4E81B2",
"c. c #768FB4",
"v. c #659AC6",
"b. c #6F97CB",
"n. c #838384",
"m. c #83868B",
"M. c #8B8B8C",
"N. c #968989",
"B. c #858B94",
"V. c #8A8D93",
"C. c #828E9B",
"Z. c #89919A",
"A. c #8B939D",
"S. c #949494",
"D. c #95969A",
"F. c #9B9B9B",
"G. c #AB8884",
"H. c #B48B89",
"J. c #B9948C",
"K. c #B08E93",
"L. c #BB9A93",
"P. c #9FA09F",
"I. c #B7A19A",
"U. c #828FA0",
"Y. c #8593A2",
"T. c #8B95A2",
"R. c #8D98A6",
"E. c #8D9BA9",
"W. c #939BA4",
"Q. c #9C9DA3",
"!. c #929DAA",
"~. c #98A1AB",
"^. c #9BA2AC",
"/. c #98A5B3",
"(. c #9BA5B2",
"). c #9EA9B5",
"_. c #A4A6A9",
"`. c #ABABAC",
"'. c #B4ABAA",
"]. c #A2AAB4",
"[. c #A9AEB5",
"{. c #A3ADBA",
"}. c #AAB0B9",
"|. c #ABB3BD",
" X c #B4B4B4",
".X c #B3B6BB",
"XX c #BABBBC",
"oX c #C29C93",
"OX c #D29092",
"+X c #E79A98",
"@X c #C6A69B",
"#X c #CAAEA2",
"$X c #D5AAAB",
"%X c #CDB3A7",
"&X c #D6BAAC",
"*X c #D6BCB2",
"=X c #E4B1AF",
"-X c #CEC2B6",
";X c #DBC7B7",
":X c #E5CABB",
">X c #F0CEB3",
",X c #88B5DA",
"<X c #ADB6C1",
"1X c #AFB9C4",
"2X c #B5BAC1",
"3X c #B3BBC4",
"4X c #B5BDC9",
"5X c #B9BFCA",
"6X c #A4BCD3",
"7X c #BDC1C6",
"8X c #BBC3CD",
"9X c #B9C6D3",
"0X c #BDC5D1",
"qX c #9BC5E3",
"wX c #C2C6CD",
"eX c #C7C8C9",
"rX c #D7CFC9",
"tX c #C0C7D1",
"yX c #C4CAD4",
"uX c #C9CED6",
"iX c #C6CED8",
"pX c #C9CFD8",
"aX c #CCD0D6",
"sX c #CDD2DB",
"dX c #D3D4D5",
"fX c #D2D6DD",
"gX c #D4D8DF",
"hX c #DBDBDC",
"jX c #E6D7C8",
"kX c #ECD5CD",
"lX c #EBE3D5",
"zX c #F5E9D7",
"xX c #F3EBDC",
"cX c #FAF3DD",
"vX c #CCD6E0",
"bX c #D2D7E0",
"nX c #D5DAE1",
"mX c #DADDE3",
"MX c #DDE1E6",
"NX c #DEE2E9",
"BX c #E3E4E5",
"VX c #E2E5EA",
"CX c #E8E7E8",
"ZX c #E6E9ED",
"AX c #EAEBEC",
"SX c #F8EBE3",
"DX c #F9F4E3",
"FX c #FAF7E8",
"GX c #E5EAF1",
"HX c #EBEDF1",
"JX c #EEF1F3",
"KX c #F2F3F5",
"LX c #FEFEF5",
"PX c #F6F7F8",
"IX c #FCFDFB",
/* pixels */
" XBXGXnXmXmX].M S `.AXIXPXPXKXKXPXIXPXeXi.x F.AXPXJXHXHXJXKXKXeXQ D `.KXIXIXMXZ.x 2.XXCXPXIXPXIXKX`.G `.KXIXVXnXmXVXHXKXZX|.L G .XHXGXNXnX.X",
"W.wXsXuXsXyXT.V n.dXPXPXHXMXmXMXCXKXPXmXA.L `.mXmXmXnXsXfXnXMXgX^.L D.gXZXVXwXn.Q wXAXAXZXVXZXJXHX.XR ^.AXPXVXnXfXsXsXgXnX8Xm.D W.sXvXsXyX}.",
"f.).8XyXyX|.p.L  XKXJXMXnXpXsXgXgXZXKXgXW.i.[.pXuXuXuXyXuXsXgXnX2Xn.i.|.sXiX^.E P.AXHXfXuXuXsXnXsX}.E S.mXZXnXfXsXyX0X8XuXyXD.D f.<X0XyX4XR.",
"P z./.<X|.Y.K Q aXHXnXuXuXyXuXsXgXZXCXwXZ.m..XuXyXyXuXpXsXfXsXsXyXD.I ~.iX8XB.L `.VXmXuXyXyXuXuXyX].Y m.yXsXyXyXuXyX<X{.8XuX^.F P T.{.{.T.r.",
"m P p.z.z.Y z n.aXVXpXyXyXyXyXuXmXVXfX.Xm.B.8XsXsXuXuXsXsXuXyX8X3XD.F m.1X{.T D ~.sXsXuXyXyXyXuXyX^.L W 2XsXyXyXyXyX<X{.5XyX].L M r.p.r.Z z ",
"j z C Z A m j i.wXMXfXyXyXyXyXsXgXfXyX_.i.A.yXmXmXsXuXuXuXuXyX<X^.B.V D z.j.V V T.8XuXyXyXyXtXyXyX~.D F ].sXsXyXyXyXyX8XyXyX].G g z V D S l ",
"Q M.Q D l s j T |.nXfXyXyXtX8XyXyXwX3XB.L Q.pXgXsXuXyXyXyXyX8X3X}.B.x l C V l m j.{.8XyXyX8X3X3X1XB.z M A.yXgXuXyXyXuXuXuXyX~.S j F S.`.`.M.",
"XXhXhX Xn.x g K E.8XuXuXyX|.].3X5X{.Z.K F ~.uXuXyXyXyXuXyX3X}.8X3Xg.j l S x d l U Y.).3X8X3X].!.Z.K d l u.{.yXuXtX3X3X8XyX4XC.m G  XCXKXCXeX",
"eXKXIXKXhX_.G V f./.1X8X3X/.W././.Y.r.m V T.8XuXyXyXtX8XwX8X3X3X~.K l Q `.F.R x V p.z.R.!.!.Z.u.D l l j V l.).1X<X!.Z.).<X/.y.M F.AXKXVXnXwX",
".XhXZXCXHXCX XR D j.Y.E.~.!.R.Y.z.y.V g m f.).8XyXyX3X}.1X8X<X!.y.z F  XKXJX2XW z C r.r.U K C z x Q S.Q x A j.Y.Y.z.j.z.z.j.C G XXAXsX8X0X<X",
"_.yXsXuXsXVXBX`.L Z t.j.j.j.j.t.P M j s j Z p.!.{.|.].Y a a e 1 > > , l G W ).f.j j m M V z g s G .XBXXXR z C U r.r.U U U Z z W eXgX}.].3X}.",
"^.8XpXuXyXsXMXdXM.l m C Z Z J D G R Q Q R D C m h h m >                   X a s a s R D.F.F.Q x F }.NXsXV.l d z M V V M z g j W 2XuX|.].{.W.",
"^.8XuXyX0XuXmXfXD.l j S R n.S._.XXaXhXlXdX`.W +                                   X S.BXMXAXaXM.S k.<X).u.x S n.D.F.F.M.R x s L {.uXyX8X}.W.",
"_.8XuX0X0XuXnX8XB.m S F.eXhXCXAXAXJXKXPXIXn.+ O           $ 2 2 2 2 2 2 .           > > R NXVXXXE V y.P D M.XXBXAXAXAXCXaXD.x V W.0XpXiX8X].",
"_.wXuX0X0XsXuX).u.M u.3XNXGXHXNXfXsXMX`.S >   * :.;. . .' ( +.+.+.+.+.} 5 2 2 2 2 @     X M nXfXZ.z g S F.dXKXKXPXPXHXZXZXwXi.z u.{.8X8X|.Z.",
"W.|.8XtXyX8X{.Y.U M T /.4X8XyXyXtXsXV.+     q >.w.8.&.&.$.O.) o.o.o.o.o.( ~ ~ / {  .+       d 2X].S l M.dXZXnXsXnXMXnXuXsX5Xg.l V k.Y.Y.p.K ",
"f.T.}.0XyX}.Y.p.C j C l.).3XyXyXyXB.+   * S %XLXSXkX8.$.O.o.o.o.o.o.) } ( / / | 9.jXN.* o     a [.W S [.MXsX8XyXuXuXuXyXyX].I g j N Z C m g ",
"B./.3XyXyX].j.A j s j P R.8XfXfXB.O   o G.IXPXLXLXIXSX7.X.) +.o.o.o.) } { [ ..OXcXlX;XJ.w . X   a E I [.fXuXyXyXyXyXyXiX0XW.V s j x G I F x ",
"_.8XyXtX3XA.P l j l j z y./.8XQ.>   * G.LXLXLXLXLXLXIXzX*.^ +.) o.) ) } ( ~ $XFXlXlXxX*XH.y #     > V ^.uXsXsXuXyXyXuXuX<Xg.z j R _.XXeX.XD.",
"W.{.<X|.Z.K z S n.F.M.F M u.u.+   7 oXPXLXLXLXLXLXLXLXLX9.( ) ) ) ) ) o.( >.jXxXlXxXzX%X@XH.w %     + m.yXgXfXuXyXuXuX8X!.P l n.eXAXHXHXmX2X",
"u.z.Y.k.D l R  XhXZXhX XQ s +   q *XSXLXLXLXLXLXLXLXLXLXSX*.^ o.) ) ) ) / =XFXlXlXxXxX#XL.@X1.t %     1 1XsXsXuXyXyX4X~.y.m R -XKXZXgXnXsX|.",
"Z r.U V j R XXAXHXNXVXVX X1   O >.>XIXLXLXLXLXLXLXLXLXIXLX7.^ o.) ) } ) / $XFXlXxXzXxX#XL.@XK.u 7 #     C 8X8X4X1X].Z.r.m x F.CXJXgXyXuXyX}.",
"z M z g S `.CXHXMXfXsXmXS.+ X w =XzXLXLXLXLXLXLXLXLXLXLXLX7.^ o.) ) } ) / $XFXxXzXzXxX#XoX@XK.i 0 & .   = f.R.Z.k.r.C z g G XXVXnXsXyXuXtX}.",
"j x j j f.eXVXMXmXfXuXsXx   q 8.>XIXLXLXLXLXLXLXLXLXLXLX+X{ o.o.o.) ) } ( ..:XFXzXxXxX#XoX@XK.i t 0 %     1 A C m l j s j Q 7XfXuXyXtX8X5X}.",
"Q D.Q x g.8XsXsXpXuXpXE O # :.w.>XIXLXLXLXLXLXLXLXLXLXIX9.^ o.o.o.) ) +.( [ *XFXxXSXxX#XoX@XJ.<.u r 7 .   X 1 z S Q n.F l E |.pXuXyX8X<X<X}.",
"}.hX XF y.<XiXyXyXyXsXd   7 w.>XFXIXLXLXLXLXLXLXLXLXLXIX9.^ o.o.o.) ) +.( ' *XFXxXSXSX#XoX@XJ.<.u r 0 %     , Q  XhXdXQ.S P /.0XuXyX0X8X4X}.",
".XmX2XI P !.4X8XyX3XF +   2 8.cXPXxXLXLXLXLXLXLXLXLXIX=X| ) o.o.o.) } +.{ ] ;.kXFXxXSX#XoX@XJ.-.u r r f O   O x mXGXsX!.K K z.{.8XyX8XyX0X}.",
"^.9X].L C t.C.R.~.C.+     $ 8.cXPXzXLXLXLXLXLXLXLXIX=X%.^ ) ) ) ) ) +.+.{ ] ] 9.jXFXSX#XoX@XJ.-.u r r a.:     > /.).Y.r.z z U z.).|.].<X8X{.",
"f.!.k.z g m C C Z m +     4 8.>XFXIXPXSXLXIXIXIXIX$X#.X.+.o.) ) ) ) +.+.{ ] ] ~ :.=XSX%XoX@XJ.=.u r r a.=     + Z A C z l l z K p.z.C.!./.C.",
"m C M x G Q Q Q W S O   # ..%.7.SXSXSXFXIXkX+X+XOX#.X.+.o.o.) ) ) } } +.{ ] ] ] ] | 9.5.oX%XL.=.u t r n :     + M L f.M.F.D.0.F V K U r.U C ",
"s g G F.eXhXlXhXhX X>   $ %.8.7.d.8.8.+X$X7.X.X.X.o.+.o.o.o.) ) ) ) } +.{ ] ] ] ] ] ~ _ 5.6.1.y ; - 7 t e.:   > _.eXhXBXZXAXhX`.I j l M z j ",
"j L }.AXIXIXPXPXPXhX>   $ #.+Xw.^ O.O.@.) @.#.#.@.@.+.+.+.o.o.) ( ( } ( / ] ] ] ] ] ] _ 9 6 # .     & t x.e   a ZXAXMXmXMXAXJXmXF.x S M.S.R ",
"S ^.VXPXHXVXMXnXnXwX>   $ %.=XzXw.&.&.%.#.#.#.#.@.@.@.@.} ( ( | OXOX| ^ / ] ] ] ] ] ` _ 9 6 #       < B v.e   a mXpXyXyXsXnXnXsX_.F M.hXMX X",
"i.}.mXmXsXuXsXuXuX.X>   $ / 7.9.jX+X&.&.$.#.#.#.#.#.#.o.| +X$X=XFXFX$XOXOX' ~ ] ] ` ` 9 8 6 o       < p.v.e   a tX0XtX0X8X8XyXyX_.L V.nXmX`.",
"y.R.|.3X8XyXyXyXuX.X>   # ! #.O.9.kX8.&.&.#.#.#.#.#.@.#.OXLXLXLXcXcXFXLXzX9.| ~ ` ` 9 8 6 3 .       n b.v.e   e yXyXyX8X{.].8XuX].L T {.{.f.",
"P j.z.T.<XyXyXyXuX.X>   o 9 ! { O.:...7.%.( { { { { ( 9.LXFXxXDXcXcXzXzXzXcX9.~ ` 9 8 8 4 #     o & N b.b.e   e 4X8XyX8X{.].8XiX}.I V p.p.M ",
"z Y f.z.].tXuXyXyX].+     2 _ ~ ( ^ / #.{ / / / ] ] / OXFXkXjXlXzXcX;X;X:XjX$X_ 9 8 6 6 %   . . q B c.b.n +   1 ^.|.yXyXwXwXyXuX{.I j m z d ",
"s z P j.E.|.8XtX4XT.1     o 4 ! ~ ~ [ [ ] ~ ~ ~ ` ` ~ 5.-X#X*X&X%X&X%X#XI.I.s.9 8 8 3 #     . $ n b.b.n O     e ^.<XyXyXuXuXyX3XZ.M s x S S ",
"x S V J y.z.!.).).!.p.O     o 4 5 5 ! ~ ` ` ~ ` ` ` _ :.%X%X&X#XL.L.@XL.H.L.5.8 6 3 & .   . - e.c.,Xn X     1 k.|.yXyXtX8X3X/.j.D M R _. X_.",
"F.'.F.R V P t.j.l.C.Y.p       o 4 8 5 9 9 _ 9 9 9 9 9  .J.@XL.J.H.H.H.G.H.<.w 8 3 .       # r e.c.Z X     + P C.^.|.|.].W.k.P V I F.aXAXAXeX",
"5XCXZXwXM.S M K U U P C >       o 4 8 6 6 6 6 6 4 4 4 4 u 1.3.3.3.3.3.1.b 0 2 6 & o   . & 7 u k 1 X     + g V C P r.u.U J M D M.*XAXJXVXsX3X",
"|.sXVXAXdXD.x j j l V R n.>     . % & & & % % 4 4 4 4 6 3 0 =.=.=.=.=.y # & 6 4 4 3 o . % ; < < O     + n.F.n.R S z l j l R `.hXKXJXnXuX8X|.",
"].0XiXsXVXaXM.j g R _.dXAX X1                 o # # # # # % 3 3 3 3 3 & . o o o o o .               O _.VXfXuXwX`.n.M j G  XAXHXZXmXuXyX0X|.",
"W.8XiXyXsXfX^.x F  XAXIXPXIXF.> > X                                                               X n.PXnXsXfXmXNXwXm.x V.mXZXfXpXsXpXiXyX|.",
"l.<XiXiXiX0XA.F F.AXIXHXMXsXuXyXfXV.X o .                                                 + > e s M.PXZXsXyXyXsXmXpXD.G _.MXgXuXyXyX0X8X8X|.",
"y.!.3X0X0X{.u.E wXKXVXsXuXyXsXfXnXHXS.q ; O O .                               . . X X X . A 9XwXsXMXMXfXpXuXpXyXpX8XV.R  XgXuXyXyXyX1X].|.}.",
"K h.R././.l.C n.dXAXsXyXyXyXuXsXmXZXuXB b ,.b q ; q < ; ; ; ; * ; * * * * * ; ; ; ; < < , a.9XyXyXuXpXyXyXfXnXsXiX3Xg.W .XsXyXyXyXyX3X|.3X}.",
"l C U y.p.K l i.uXNXsXyXyXuXuXsXmXmX1X2.G.J.J.q.6.q.6.-.b -.b b b -.v y c c y y y q q q < e.6XtXyXyXyXyXyXfXmXfXiX].I Q 2XsXuXyXyXyXyXuXtX|.",
"j x M m m j g E 3XnXfXyXyX8X8XuXuX8X`.I.@XJ.G.G.G.G.G.q.6.6.6.6.6.6.1.-.-.-.c y v t 7 t 7 n ,X9XyXyXyXyXyXyXyXyXtX!.C E 3XnXsXyXyXyXyXuX0X|.",
"n.D.S.Q S d d K !.8XuXyXtX|.].3X3X!.P.;X:X:X@X%X-X*X*XG.2.3.3.3.3.3.,.v v v -.,.2.v 0 t r n qX9XyXyXyXyXuXyX3X|.<XB.z K ].sXfXyX8X4X8XyXyX|.",
"XXCXAXdX`.Q x M j./.|.3X3X/.!.^.!.k.S.&XjXFXFXFXFXFXFXjX;X;X;XrX@XH.H.H.H.H.L.@XK.1.y u - h qX9XyXyXyXyXtX4X].W.C.P g M C.3XyXtX|.~.|.yX8X{.",
"2XZXKXJXAXdXF.D K j.U.T.R.R.T.z.h.P N.&XlXLXFXFXDXDXDXDXDXDXDXFXxXlX:X:X:X:X:X&XG.1.y i t n ,X).|.|.}.{./.T.k.U M j s g K Z.{.1X).R.^.<X{.Z.",
"].uXfXsXMXHXhXF.D Z r.t.t.t.t.P C z N.&X;XlXFXFXFXDXxXxXxXxXxXzXxXzX:X&X;X;X:X%X6.<.u B K n ,Xh.u.f.p.r.K C C V G Q Q R V K f.Y.E.E.Y.z.k.r.",
"^.8XsXuXuXfXVXuXn.l m C C C K L Q M.'.%X@X&XDXxXjXxXDXDXDXDXDXDXDXcX:X&X;X;X&XoXs.<.u v N p b.K m m m M F E M._.wXhXhX7XS.G C U p.j.j.p.U C ",
"].8XuXyXyXyXnXfXD.l j G m.D._.XXdXCXAXhX#X@X#XrX;XjXlXlXlXlXrXjXjXjX*X&X&X*XJ.4.s.<.u y t + Y F.G l G D.XXdXBXAXKXIXJXNXsX_.L m C A Z C z g ",
"_.8XuXtX0XuXnXyXC.m F _.hXCXAXHXHXZXHXAXI.3.L.oXL.L.@X@X@X@XJ.J.L.L.oXoXL.G.G.3.v y w w q k hXhXZ.R  XCXAXZXNXmXVXAXVXbXnXsXQ.S j j l S S x ",
"_.8XuX8X8XpXsX{.p.M T |.nXmXnXfXuXuXmXVXuX'.2.b b 2.6.4.4.4.4.3.3.3.3.3.1.,.<.,.y y q , k V.sXpXV.M.dXKXmXuXyXyXsXnXfXuXyXsXwXM.l x M. X XM.",
"^.8XyXtXyXwX<XY.U z K !.<X3X5XyXyXuXfXsXiX5XN.N.f y =.v v v v v v v v v v v c q H s.2.m.i.i.1X<Xi.m.uXmXuXtXyXyXsXsXuXyXtX8XtX^.D Q aXKXBX.X",
"B.^.3XtXyX|.Y.p.D j M f./.5XuXuXyXyXyXyXyXyXnXVXA.f ,.,.,.,.,.,.b b b b b b v W 0XyX8X].I L /.!.F Y |.uXtXyXuXyXuXyXyXyXtX1X|.^.I Q wXNXyX/.",
"i.W.|.yXyX].k.K l s g C C.3XfXsXyXyXyXyXtX8XtXpX<Xr.M E B.g.r.K x f k E D.D.Q.yXpX5X].B.D M r.r.z D R.<X3X8XpXyXyXyX8X5X8X8X<X!.Y V B.{./.g.",
"W.|.8X8X4XR.P l j k l l K T.1X0XyXyXuXuX8X].{.8X{.y.m V C V m l l j d D Z./.).<X3X|.W.T j s j j d m p.R.].3XyXyXyXyX1X).<X8X{.Y.U l m r.P N ",
"W.).{.{.R.P l S 2.F.D.Q M K l.~.|.<X4X5X<X~.~.{.~.y.z g x L n.S.D.M.R M C u.j.k.g.r.K V S G I G S l V t.E.}.1X3X4X3X}.^././.Y.j.K j g z l j ",
"g.C.Y.k.K l G _.dXAXCXeXM.x C r.k.C.Y.R.R.T.Y.Y.z.U z G F.eXBXAXAXCXeXD.S z M M M D Q D. XeXaXeX XM.D M U j.C.C.Y.Y.Y.Y.C.l.j.U M S Q D.M.Q ",
"P p.y.C j R  XAXHXVXZXHXeXQ j l C P U r.t.p.j.h.Y V R  XAXKXJXGXZXZXJXhXD.x s j R `.dXBXCXVXVXZXZXhX`.R z C K P U U r.r.y.r.K M R `.hXAXhX.X",
"z C m g S `.BXHXMXfXsXmXfXF.l s j z V C C Z Z C z S _.CXZXgXpXuXyXsXmXCXwXg.j V _.BXZXnXsXuXyXuXsXMXmX XG g g l M V V m m z j S `.AXHXVXnX7X",
"j l g j n.eXVXMXmXsXyXiXuX^.M j G n.S.S.m.Q F l s L .XmXsXtXyXyXyXuXsXsXyX^.D D ].gXsXwXwX8X8X8XyXpXnXfXF.x s G M.D.S.n.S j j n.dXHXfXuXyX|.",
"Q M.R x V.yXsXsXsXuXyXiX0XA.M D `.hXAXAXBXdXXXn.x L {.iXyXyXyXpXsXpXyX3X{.W.L S W.tXyXwX3X|.3XyXuXuXpXsX}.G S ^.mXAXAXhX`.G l m.aXmXuXyX0X|.",
".XdXQ.V g.8XpXyXyXyXuXpX4Xk.m W 8XNXHXPXPXIXKXeXR D W.4XyXyXyXuXpXpXyX{.C.j.P M B.5XuXtX|.^.|.yXuXuXuXyX^.K L }.nXZXPXPXgXV.x i.3XsXuXiXyX|.",
"}.8XA.M y.{.0X0X0X0X8X8X].p.m E |.yXyXsXgXmXMXwXg.M p.!.|.8XyXyXyXyX8X{.C.j.K m u.].8X8X4X3X8XyXyXyX8X|.k.C I ^.1X1X8XiX8XV.M P /.9XyXiX0X].",
"Z.E.r.m U Y.{.<X<X|.{./.C.r.m K ~.4X8X8X8X8X4X].E z P k.!.3X8X8X4X3X|./.Y.j.D z P C./.|.3X8X8X8X8X4X{.Y.r.m K Y./././.)./.p.z C z.{.4X0X4XW."
};
