/* XPM */
static char *c5406ca8deb5441bb169ea0d3e58d1dc5hSPYOtPgJ6WUGZ3[] = {
/* columns rows colors chars-per-pixel */
"70 70 249 2 ",
"   c #010101",
".  c #0A0204",
"X  c #040709",
"o  c #160308",
"O  c #0C0E13",
"+  c #1B0C12",
"@  c #1A191A",
"#  c #24020D",
"$  c #29030D",
"%  c #280A16",
"&  c #330A10",
"*  c #360918",
"=  c #1A1F27",
"-  c #2B0B22",
";  c #26282A",
":  c #332231",
">  c #343637",
",  c #4B0915",
"<  c #5D021D",
"1  c #67011D",
"2  c #720815",
"3  c #4C1128",
"4  c #680322",
"5  c #770223",
"6  c #7E112D",
"7  c #462D2B",
"8  c #4A2536",
"9  c #55243A",
"0  c #2E3947",
"q  c #5A2943",
"w  c #522758",
"e  c #533752",
"r  c #632E45",
"t  c #67374B",
"y  c #713A4F",
"u  c #3B4457",
"i  c #474849",
"p  c #4D4D4D",
"a  c #4E4E50",
"s  c #514D51",
"d  c #4F5153",
"f  c #525354",
"g  c #53565A",
"h  c #585758",
"j  c #56595D",
"k  c #5B5B5C",
"l  c #6F484F",
"z  c #7A4756",
"x  c #565B62",
"c  c #5A5E63",
"v  c #585F68",
"b  c #534C75",
"n  c #6E5264",
"m  c #5D6165",
"M  c #5C636B",
"N  c #5D6671",
"B  c #5E6873",
"V  c #636465",
"C  c #62666B",
"Z  c #66696C",
"A  c #6B6B6D",
"S  c #736B6F",
"D  c #636A74",
"F  c #636B74",
"G  c #6B6E72",
"H  c #646E7A",
"J  c #6E7175",
"K  c #65717D",
"L  c #6B737C",
"P  c #737374",
"I  c #73767B",
"U  c #76797C",
"Y  c #7B7B7C",
"T  c #8D051A",
"R  c #A40019",
"E  c #BA011B",
"W  c #860225",
"Q  c #970125",
"!  c #A70124",
"~  c #BC0121",
"^  c #B80725",
"/  c #BC1229",
"(  c #B2323A",
")  c #C3011E",
"_  c #C8011F",
"`  c #C81F1C",
"'  c #C30321",
"]  c #CA0321",
"[  c #C8182B",
"{  c #CC1D31",
"}  c #CE2A31",
"|  c #DE3634",
" . c #E23C36",
".. c #D94139",
"X. c #E1412D",
"o. c #E4453B",
"O. c #834D5D",
"+. c #B34A43",
"@. c #BA5D5F",
"#. c #875464",
"$. c #885965",
"%. c #B55963",
"&. c #8C6269",
"*. c #936C70",
"=. c #966D74",
"-. c #AC6C6E",
";. c #A37876",
":. c #E54A41",
">. c #E45648",
",. c #DE645D",
"<. c #88827F",
"1. c #AE887E",
"2. c #E98D7B",
"3. c #536A99",
"4. c #66698A",
"5. c #667381",
"6. c #6B7582",
"7. c #6D7984",
"8. c #6E7B8A",
"9. c #737B84",
"0. c #7A7E84",
"q. c #737E8B",
"w. c #8D7984",
"e. c #A87D83",
"r. c #75818E",
"t. c #7D8288",
"y. c #748391",
"u. c #7A8693",
"i. c #7C8996",
"p. c #7D8B9A",
"a. c #708AAA",
"s. c #6491B2",
"d. c #689DCF",
"f. c #838384",
"g. c #82858A",
"h. c #86898B",
"j. c #8B8B8C",
"k. c #848C95",
"l. c #8B8E93",
"z. c #828E9B",
"x. c #908F90",
"c. c #87919C",
"v. c #8B939D",
"b. c #939394",
"n. c #94969A",
"m. c #9B9B9B",
"M. c #AD8885",
"N. c #B28C87",
"B. c #B8978C",
"V. c #B69692",
"C. c #BEA395",
"Z. c #828FA0",
"A. c #8593A2",
"S. c #8B95A3",
"D. c #829AA4",
"F. c #8D99A6",
"G. c #8E9BA9",
"H. c #939AA4",
"J. c #949AA6",
"K. c #9C9EA3",
"L. c #939DAA",
"P. c #AD9FA5",
"I. c #9DA1A5",
"U. c #96A1AD",
"Y. c #9BA3AC",
"T. c #8EACBA",
"R. c #98A4B3",
"E. c #9BA5B2",
"W. c #9EA8B5",
"Q. c #A4A5A5",
"!. c #A3A7AC",
"~. c #AAAAAB",
"^. c #A3AAB5",
"/. c #AAADB5",
"(. c #A3ADBA",
"). c #B3ADB0",
"_. c #ADB1B5",
"`. c #A6B1BC",
"'. c #ABB3BD",
"]. c #B3B4B4",
"[. c #B3B6BA",
"{. c #B6B7BC",
"}. c #BBBBBB",
"|. c #E79A8E",
" X c #EA988D",
".X c #C6A99A",
"XX c #CAB09E",
"oX c #CBACA2",
"OX c #CCB8AE",
"+X c #F2B9A9",
"@X c #CEC1B5",
"#X c #DAC8B5",
"$X c #F1CCB4",
"%X c #95B0CA",
"&X c #ADB6C1",
"*X c #ADB7C3",
"=X c #B3BBC5",
"-X c #B7BCC4",
";X c #B5BEC9",
":X c #C6BFC6",
">X c #BBC1C7",
",X c #BBC3CD",
"<X c #AEC5D7",
"1X c #BEC6D1",
"2X c #BFC8D3",
"3X c #C3C3C4",
"4X c #C2C6CD",
"5X c #C7C8CC",
"6X c #CCCCCD",
"7X c #D0D0CF",
"8X c #C1C7D1",
"9X c #C4CAD4",
"0X c #C9CED6",
"qX c #C6CED8",
"wX c #C9CFD8",
"eX c #CDD1D6",
"rX c #CDD2DB",
"tX c #D4D4D5",
"yX c #D2D6DD",
"uX c #D4D8DF",
"iX c #DBDBDC",
"pX c #E9D9C9",
"aX c #ECDCD5",
"sX c #EFE7DA",
"dX c #F1E6D4",
"fX c #F3E9D6",
"gX c #F5EBD9",
"hX c #F9EBDB",
"jX c #CBD7E2",
"kX c #D2D7E0",
"lX c #D5DAE1",
"zX c #DADEE3",
"xX c #DDE1E6",
"cX c #DDE2EA",
"vX c #E4E4E5",
"bX c #E2E5EA",
"nX c #E6E9EC",
"mX c #EBEBEC",
"MX c #F6EEE7",
"NX c #FBF6EA",
"BX c #E5EBF1",
"VX c #EBEDF2",
"CX c #EEF1F4",
"ZX c #EFF2F8",
"AX c #F2F3F5",
"SX c #F8F8F7",
"DX c #FEFDF5",
"FX c #F4F6F9",
"GX c #FCFDFC",
/* pixels */
"].bXBXlXzXzX^.c c ~.CXGXGXSXFXAXSXGXSX9XU k m.mXFXCXVXVXCXAXAX5XY V ~.AXGXGXzXl.k f.}.nXSXGXSXGXAX~.A ~.FXGXbXlXzXbXVXAXnX'.G A [.VXBXcXkX{.",
"H.4XrXqXrX9XS.m f.tXSXSXVXvXzXxXbXAXSXzXv.G ~.zXzXzXlXrXrXuXxXuXI.G n.yXnXbX4Xg.Y 3XmXmXnXbXnXCXVX[.P K.mXSXbXlXyXrXrXuXkX,Xg.C H.rXjXrX9X`.",
"r.W.,X9X9X`.q.G ].AXCXxXuX0XrXuXuXnXAXuXn.0._.wXqX0X0X9XqXrXuXlX-Xg.0.'.rXqXY.I m.mXVXyXqX0XrXyXyX_.I b.zXbXlXyXrX9X,X,XqX9Xn.C t.&X1X9X;XF.",
"H p.R.&X`.A.F Y 6XVXlXqXqX9X0XrXuXbXbX4Xl.g.[.qX9X9X9XwXrXyXrXrX8Xn.J J.qX,Xk.G !.bXzXqX9X9XqXqX9X!.J h.9XrX9X9XqX9X&X(.,XqXY.Z H S.(.(.S.6.",
"v H q.p.p.L x t.eXbXwX9X9X9X9X0XzXbXyX[.h.k.,XrXrXqXqXrXrXqX9X,X-Xn.Z g.&X(.L C Y.rXrXqX9X9X9XqX9XY.G U -XrX9X9X9X8X&X(.;X9X^.G v 6.q.6.N j ",
"f j M N B x f 0.4XxXyX9X9X9X9XrXuXyX9X!.U v.9XzXlXrXqXqXqXqX9X'.Y.k.m C p.u.M M S.,XqX9X9X9X8X9X9XY.C Z ^.rXrX9X9X9X9X4X9X9X^.A d x M C m f ",
"Y h.Y C g p f 7.'.lXyX9X9X8X,X9X9X4X=Xk.G J.rXuXrX0X9X9X9X9X,X=X`.k.k f M M g c u.(.,X9X9X,X=X-X&Xk.j c v.9XuXqX9X9XqXqXqX9XY.m f Z b.~.~.j.",
"}.iXiX].f.k d F G.,X0X0X9X'.^.-X-X/.c.H C Y.qXqX9X9X9XqX9X=X`.,X=Xt.f f V k a g K A.W.=X,X=XW.L.c.F p g 9.(.9XqX8X-X=X,X9X;Xz.x A ].vXAXbX6X",
"5XAXGXAXiXQ.A m q.R.&X,X-XR.H.R.R.A.7.j m S.,XqX9X9X8X,X,X,X=X-XL.F g <.~.K.U k M q.p.F.L.L.c.9.M h f f M i.W.&X&XL.c.W.&XR.7.c m.mXAXbXkX4X",
"[.iXnXbXVXnX].P C y.A.G.U.L.G.A.p.7.m d x q.^.,X9X9X-X/.&X,X&XL.7.j V ].mXmX-XU j N 6.6.K F M j h Y b.Y k N y.A.A.p.y.p.z.y.M A }.mXrX,X1X&X",
"!.9XrX0XrXbXvX~.A M 7.y.y.y.y.7.H v f p f N q.L.^.(.R.H.S.c.q.F j p Z [.VXcX&X9.f d x m m j d p A [.vX}.P j M K 5.5.K K K N j U 3XlX`.^.-X`.",
"Y.,XwXqX9XrXxXeXj.h x M N N C F A P Y Y P C M F 6.7.6.H F M c m c f c v.&XU.7.c k A Y b.m.m.Y h Z _.cXrXl.g a j m M m c j d f U -X0X'.^.(.H.",
"Y.,XqX9X2XqXzXyXn.g f V P f.b.Q.}.7XiXvXtX).f.c j j j j C Y b.~.~.h.c C K C V Y Q.3XvXmXmXnX6Xj.V u.&XW.9.k V f.n.m.m.j.P h p G /.qX9X,X/.H.",
"!.,XqX1X1X0XlX,Xk.x V m.6XiXvXmXVXCXAXSXFXmX7Xb.h p k f.].6XvXmXmX3XI d f A Q.tXmXFXGXGXCXcXbX-XI M 7.H C h.}.vXmXmXmXvX6Xn.k m H.1XwXqX,X^.",
"!.4XqX,X1XwXqXW.9.m 9.=XcXBXVXcXyXrXzXbXzXzXnX6Xf.f Y 5XxXzXxXbXxX,Xg.f V ~.bXVXbXbXAXFXxXrXlXrXl.h d V m.tXAXAXFXSXVXnXnX4X0.j 9.(.,X,X`.c.",
"n.'.,X4X9X,X`.A.K c L R.;X,X9X9X8X9XyXuXqX8XkXxX~.V g.4XyXqX9XqX1X`.q.h U ,XcXlX0X0XzXmXzX0XrXrX!.V f j.tXmXlXrXlXxXlXwXrX;Xt.g M u.A.A.q.F ",
"t.S.(.1X9X`.A.q.M f M p.W.-X9X9X9X9XqXqX9X9XyXxX{.J I `.9X9X8X;X`.G.7.c I ^.,X1X9X9XrXlXrXqXqXwX'.I Z ~.xXrX,X9XqX0XqX9X9X^.J f f M N M x d ",
"k.R.=X9X8X^.y.B f p f H H.,XyXrX9X9X9X9X9X9XrXrX`.L C c.`.&XW.L.A.u.H x K z.L.'.9XqXqXqX9X9X9XwX-Xt.G ~.yXqX9X9X9X9X9XwX1XH.m p a k A J Z k ",
"!.,X9X8X=Xv.H g f f f j 7.R.,XqX9X9X9XqX,X`.=X1X(.7.v K r.q.7.5.K F x g F u.F.'.,X9X9X9X9X8X1X9X-Xg.Z J.0XrXwX9X9X9XqXqX&Xu.j f P Q.}.5X[.n.",
"H.(.&X`.c.F j V f.m.h.Z c 7.H.`.-X,X8X9X=XL.U.&XW.9.j g x x c c c g p a M y.U.'.`.'.,X9X9X-X^.`.(.9.c l.9XlXyXqX9XqXqX,XL.H h f.5XmXVXVXzX-X",
"9.p.A.u.C h P ).iXnXzX].Y c H u.S.U.W.(.^.L.L.L.A.7.g f Z Y b.m.m.j.P f g H z.U.G.R.;X9X9X&XG.F.S.H g 0.=XrXrXqX9X9X;XU.7.x P @XAXnXuXlXrX'.",
"N 6.K m f P }.mXVXcXbXbX].A g M 6.q.r.u.p.p.p.u.q.C V h.}.iXvXmXAXmXtXm.C x H r.p.S.U.^./.W.G.z.9.v d H L.-X,X;X&XW.c.6.x k m.vXVXuX9XqX9X/.",
"j v j d V ~.bXVXxXyXrXlX0Xb.f a j M N H K 5.6.K M C m.iXFXFXAXeX!._.].K.A i f M H H K L L L K F m d p x 7.z.S.c.u.6.M j d A {.bXlXrX9XqX8X/.",
"f k f f t.5XbXxXzXyXqXqX9XH.c p f k C G F C c f f f.tXGX_.c C >       X X X @ ; ; i k g g f V J P P Z c v B F M v g f p f U >XyX9X9X8X,X,X/.",
"Y n.Y k t.,XrXrXwXqXqXqX,Xc.v f A m.].].~.m.Y h h g.l.v @     . o & & & & .       @ @ > V b.].5XtXtX3Xn.Z f d g V Y f.Z f I '.wXqX9X,X&X&X/.",
"_.iX].Z 7.&XqX9X9XqXqXwX;Xz.v c K.zXAXAXAXmXtXY > @ o @ 7 +.( ( } ' _ ] ' T 2 2 3 .     ; K.tXGXFXGXSXvXQ.V f U ].iXtXK.V H R.1XqX9X1X,X;X`.",
"[.zX-XJ H G.;X,X1X1X1X,X(.u.M P _.yXzXnXAXGX~.;   p P.aXgX+X>.o. .] _ _ _ ' R +..X1.=.8 . X ; K.BXnXAXSXtXg.h n.zXBXrXL.F F p.(.,X9X,X9X8X`.",
"Y.1X^.G M 8.z.F.L.U.U.G.p.6.m g.-X9X,X0XzXh.X   l sXGXGXGXGX$X>.| ) ) ) _ E %.pX#XOXOXN.y #   X g.lXyXxXeXh.h 0.W.W.A.7.j j K p.W.`.^.&X,X/.",
"t.L.u.j d x M M M B F H H M V n.,X8X9XrXm   , @.fXGXDXDXDXGXMX>.| ' ) ' ' E  XNXfX#X.XoXe.y * .   Z 8X,X^.I f j N B M j g f j F q.p.z.L.R.z.",
"x M c k A Y Y Y P A m h f f A H.'.,X9XC   l +XMXGXDXDXDXDXGXMX>.| ' ' ' ' E ,.NXfXpXoXoXM.$.y * .   d Y.z.M p a c G t.j.m.n.<.Z M B K 6.K M ",
"p d A m.6XiXvXiXtX3X~.w.h p A H.^.;Xc   z +XhXGXDXDXDXDXDXGXaX:.| ' E ~ ' E @.fXgXaXoXoX.X=.z 9 * o   0 K f h Y Q.3XiXvXnXmXiX~.J f g c j f ",
"f G _.mXGXGXGXFXAXAXmXtXn.k m k.`.G   2 |.pXGXGXDXDXDXDXGXGX2.| | ) E ~ ~ ~ ! +XNXpXoXoXoX*.O.l % * o   > G m.tXmXnXbXzXxXmXCXzXn.h V j.x.P ",
"V I.bXSXVXbXxXlXyXlXvXnXtXb.m H q.O & 2.|.SXGXGXDXDXDXGXGX|.| o.| ' E ~ ~ ~ R %.MXdX.X.XoXe.O.#.- o * . . x.mXBXlXwX9X9XrXkXlXrX!.Z j.iXxX].",
"9.`.lXzXrX0XrXwX9XqX0XwXkX-X0.k ; . -.$XhXhXNXGXGXGXGXMX X|  .o.| ~ E ~ ~ ~ ! R %.#XOXOXOXN.#.O.:   % *   f BXwX8X8X8X8X,X,X9X9X!.G l.lXzX/.",
"7.F.`.=X,X9X9X9X9X9X9X9XqX9XI.f X o ..$XGXMX X2.$X2.2.,.| o...o.{ ~ E ~ ~ ~ ! ! R ( %.-..X-.y 7 .   . 3 . X Y.qX8X9X9X,X/.^.,XqX^.G I (.(.t.",
"H y.p.S.&X9X9X9X9X9X9X9X9X1XY.>   , `  XGXGX,.X.>...|  .o.o.o.o.[ ~ [ / ~ ~ ! Q ! Q 2 5 6 5 &         q s   i 1X;X,X9X,X/.!.,XqX_.J M q.q.v ",
"x K r.p.^.8XqX9X8X=X&X,X9X;XF.;   T :.| |.MX,.o.:.:.:.:.o.:.| { } E / ^ ~ ~ ! ! Q W 5 5 5 , .       . b s.X > &XU.`.9X9X4X4X9XqX/.J f x j a ",
"p j H y.G.`.,X8X;XU.F.&X9X&XA.;   T } { o.>.:.:.:.:.:.} [ { } } [ E E ~ ~ ^ Q W 5 5 5 < $           - 3.s.X ; R.U.&X9X9XqXqX9X=Xc.c p h V V ",
"k V m C 7.p.L.W.W.G.F.W.(.G.r.=   5 R ! { [ / / / [ [ ~ E E / / ^ ! ! ! W W 4 4 4 < $ .           % w d.s.X ; S.`.9X9X8X,X=XR.u.C c P Q.{.Q.",
"m.).m.P M H 8.y.i.z.A.p.q.5.M >   $ W T Q ^ ! ! ! ! ! ! ! ! Q Q W W 5 4 < 4 4 , & .             - 8 s.d.0 X x z.Y.`.`.^.H.u.H m J m.6XmXmX5X",
"-XvXnX3Xj.V v F K K H M v c k k @   $ < 1 1 4 W 5 5 5 5 5 5 1 1 < 1 < < 1 < , , . . % % % * - o : 3.3.0   = M C H 7.9.L C v C h.OXmXCXbXrX=X",
"'.rXbXnXtXn.k f g h V P f.b.m.~.Z     o # o o # # # # $ $ # # # # # # # # o   # . . % % % % % o O = =   @ Y g.P V j g f f P ~.iXFXAXlXqX,X'.",
"^.1XqXrXbX0Xh.f a P Q.tXvXmXmXmXCXV                                                                     n.zX0X3X~.f.m f A ].mXVXbXzXqX9X9X'.",
"H.,XqX9XrXyXY.k Z ].mXGXGXCXnXnXFXiX~.g.d p =.~.Q.V + % % + + + + + + + + + + + + + + u g Y Q.~.].}.[.~.wXrXrXzXxX5Xh.k x.zXnXyXwXrXwXqX9X'.",
"i.'.qXqXqX1Xv.Z m.mXGXmXxXrXrXyXlXVXGX0Xh.h.tXZXVXxXn l &.&.&.&.$.z z r 8 8 8 8 8 8 8 a.yXAXVXVXFXGXGXFXyX8X9XrXlXwXn.A Q.xXlX0X9XqX,X,X,X`.",
"7.L.=X1X1X(.9.I 3XFXbXrX0X9X0XyXlXbXxX-Xg.x.5XrX9X4XM.;.;.;.;.;.;.;.;.*.l z t r r 8 8 q.jXzXwX9X0XlXzXrX0XqXwXqXwX,Xl.P _.uXqX9X9X9X&X^.`.`.",
"F r.S.R.R.i.M t.tXmXrX9X9X9XqXrXxXnXkX`.t.l.,XrXrX).M.M.V.V.N.N.N.V.V.V.=.;.O.r q q q e %XrX9X9X9XwXwX9X9XyXlXrXqX=Xt.U {.rX9X9X9X9X-X`.=X`.",
"g M K 7.8.F g 0.0XcXrX9X9XqXqXrXzXlX9XH.I n.qXlXuXtXpXaXSXSXSXNXNXNXNXaXV.V.$.r t q q e %X,X,X9X9X9X9X9X9XyXzXyXqX^.J U -XrXqX9X9X9X9XqX4X'.",
"f k c x x f d I =XlXyX9X9X,X,XqX0X,X^.0.G J.rXrXzXSXGXGXDXDXDXDXDXDXNXgXgXhX.X;.*.y q q 4.%X`.1X9X9X9X9X9X9X9X9X8XL.C I =XkXrX9X9X9X9XqX9X'.",
"f.m.b.Y V a p F L.,XqXqX8X`.^.=X&XL.u.C C L.qX9XxXGXDXDXDXDXDXDXDXDXNXdXgXgXpXB.1.&.t 9 b %X&X9X9X9X9X9XqX9X=X'.&Xk.j F ^.rXyX9X,X;X,X9X9X'.",
"{.vXmXtX~.Y k v r.R.`.=X=XR.J.U.G.i.H g c z.=XrXFXGXDXDXDXDXDXDXNXDXNXfXfXgX#X.X.X1.z q 9 a.<X8X9X9X9X9X8X;X^.H.z.F d c k.=X9X8X`.U.`.9X,X/.",
"-XnXFXCXmXtXm.C F y.Z.S.F.F.S.p.r.K j p f H z.-XGXGXDXDXDXDXDXDXDXNXMXfXfXgX#X.XXXN.$.r 9 a.T.^.`.`.`.(.R.S.u.K v f p d F c.(.&X^.F.R.&X(.c.",
"!.qXuXrXxXVXiXm.C N 6.8.8.8.7.H M c h h h j H >XGXGXDXDXDXDXDXNXDXNXdXfXgXgX#X.XXXB.N.t 9 4.p.7.9.r.9.6.F M M m A Y Y P m F r.A.F.G.A.p.u.6.",
"Y.,XrX0X0XuXbX0Xf.g x M M M F G Y j.m.Q.n.Y Y sXGXGXDXDXDXNXNXDXMXdXfXgXgXhX#X.XXXB.N.y 9 : a.L x v x v Z I j.Q.3XiXiX>Xb.A M K 8.y.y.8.K M ",
"!.,XqX9X9X9XkXyXn.g f A g.n.Q.}.tXvXmXmXmXtX).sXGXGXGXDXDXNXNXNXfXdXfXfXgXhX#X.X.XB.N.z 9 % T.!.A g A n.}.tXvXmXFXGXCXcXyX!.G x M B N M j d ",
"!.,XqX8X1XqXkX9Xz.x C !.iXvXmXVXVXnXVXAXCXCXvXNXDXDXDXDXDXNXgXdXfXfXdXfXgXgX#XB..XB.B.$.9 + T.cXx.P ].vXVXnXcXzXbXmXbXkXlXrXK.V d f h V V h ",
"!.,XqX,X,XrXrX(.q.v I &XlXzXlXuX0X0XzXbXyXrXzXpXdXDXNXfXfXdXdXgXfXfXgXgXfXgX#X.X.XB.;.#.9 8 T.jXl.j.uXAXzXqX9X9XrXlXyXqX9XrX4Xj.f h h.].].j.",
"Y.,X9X8X9X8X&XA.L j F L.&X=X-X9X9XqXyXrX9X8X0XXX#XgXNXgXdXgXfXfXfXfXfXfXdXgX#XC..XN.;.O.r n T.,X0.g.0XzXwX8X9X9XrXrX9X9X8X,X8XY.V U 6XFXvX[.",
"k.Y.=X8X9X`.A.q.C f c r.R.,X9X0X9X9X9X9X9X9XyXOX.X#XpXpXdXpXdXgXgXgXgXgXgXhXOXC.C.M.;.O.r e D.R.Z L `.9X8X9XqX9XqX9X9X9X8X&X'.Y.G U 4XcX9XR.",
"0.H.'.9X9X^.u.F g p d M z.-XyXrX9X9X9X9X8X,XqXP.;.XXXX#XpX#XpXdXaXpXpXpXpXpX.XC.C.M.&.r y n u.L j M F.&X=X,X0X9X9X9X,X;X,X,X&XL.K m k.(.R.r.",
"H.'.,X,X-XS.H g f h f g F S.&X1X8X9XqXqX,X^.`./.=.;.B..X.XXX.X.X.X.X.XC.B.V.N.M.N.$.t r t h M d a x 8.F.^.-X9X9X9X9X&XR.&X,X(.A.K g v 5.H v ",
"H.W.^.(.S.H g V f.m.n.Y c F i.U.`.&X;X;X&XU.U.&XH.$.=.*.=.N.N.M.M.N.M.M.M.M.=.*.&.t q t n Z P A V h M 7.F.`.&X=X;X=X`.Y.R.R.A.y.F d d j g f ",
"u.z.A.u.F g A Q.tXmXnX6Xh.k M 6.u.z.A.F.F.S.A.A.p.G z y y O.O.O.$.$.$.$.$.$.z z y q q n ].3X6X5X].h.C m K y.p.z.A.A.A.A.z.i.y.K v V Y n.j.Y ",
"H 8.7.M f P ].mXVXbXnXVX3XY f g M H H 6.8.q.y.r.6.m S P.OXe.w.*.&.&.&.&.$.$.l t n b.].tXnXbXbXnXnXiX~.P j M F H K K 5.7.7.6.F c P ~.iXmXiX{.",
"j M x d V ~.bXVXxXyXrXlXyXm.h p f j m M N N N M j V Q.nXVXzXyX4X].{.:X5X).w.f m Q.bXVXlXrX0X9XqXrXxXzX_.A f d g c m m x x j f V ~.mXVXbXlX>X",
"f f a f g.5XbXxXzXrX9XqXqXI.c f A f.b.b.h.Y Z f p J {.zXwX1X1X9XrXrXyXkXwXY.V Z ^.uXrX4X4X,X,X,X9XwXlXyXm.k p A j.n.b.f.V f f g.tXVXyXqX9X'.",
"Y j.P k l.9XrXrXrXqX9XqX1Xv.c Z ~.iXmXmXvXtX}.f.h G (.qX9X9X9X0XrX0X8X=X/.H.G C H.8X9X4X-X'.-X9XqXqXwXrX_.A V I.zXmXmXiX~.A f h.eXzXqX9X9X'.",
"[.tXK.m u.,XwX9X9X9XqXwX;Xu.x U ,XcXVXFXGXGXAX3XP C H.;X9X9X9XqXwXqX9X(.z.y.H v k.,X0X8X`.U.'.9XqXqX0X9XU.F G _.lXnXFXSXuXl.k 9.=XrXqXqX9X'.",
"/.,Xv.c 7.(.1X1X1X1X,X,X^.q.x I `.9X9XrXlXzXxX4Xt.m q.L.'.1X9X9X9X9X,X(.z.y.F x 9.^.,X,X;X=X,X9X9X9X,X`.u.M J Y.&X=X,XqX,Xl.c H R.1X9XqX1X^.",
"c.G.7.x K A.(.&X&X'.(.R.z.6.x F L.;X,X,X,X,X-X^.I j H i.L.=X,X,X;X=X`.R.A.y.C j H z.R.`.=X,X,X,X,X;X(.A.5.x F A.R.R.R.W.R.q.j M p.W.;X2X;XH."
};
