/* XPM */
static char *_9839a1f9fd34aecb3e5d3b7d39c2e167G0MkVktxrQYSvmG[] = {
/* columns rows colors chars-per-pixel */
"44 66 245 2 ",
"   c None",
".  c #010101",
"X  c #0C0301",
"o  c #030C05",
"O  c #010609",
"+  c #030A0D",
"@  c #0B0B0C",
"#  c #090A06",
"$  c #120501",
"%  c #1C0601",
"&  c #130B04",
"*  c #1C0902",
"=  c #180E0A",
"-  c #041408",
";  c #051A0B",
":  c #041107",
">  c #050D14",
",  c #01121C",
"<  c #0F1014",
"1  c #131315",
"2  c #1A1B1D",
"3  c #17171A",
"4  c #1B100F",
"5  c #230502",
"6  c #2B0405",
"7  c #220A01",
"8  c #2C0C01",
"9  c #210D08",
"0  c #3A0B03",
"q  c #23140E",
"w  c #2B1309",
"e  c #2D1508",
"r  c #341103",
"t  c #3C1201",
"y  c #33150B",
"u  c #291914",
"i  c #371D13",
"p  c #092911",
"a  c #05361A",
"s  c #3B211A",
"d  c #011623",
"f  c #011B2B",
"g  c #021827",
"h  c #011F32",
"j  c #1D1E20",
"k  c #003722",
"l  c #012438",
"z  c #162937",
"x  c #242425",
"c  c #2A2929",
"v  c #393636",
"b  c #303030",
"n  c #460708",
"m  c #431403",
"M  c #481B09",
"N  c #551D08",
"B  c #520C0A",
"V  c #6A050A",
"C  c #7A070B",
"Z  c #56220B",
"A  c #482519",
"S  c #572916",
"D  c #49200D",
"F  c #622C18",
"G  c #693219",
"H  c #6D2D11",
"J  c #573227",
"K  c #433935",
"L  c #50372F",
"P  c #6B3726",
"I  c #773C29",
"U  c #6C3E31",
"Y  c #0D441C",
"T  c #0F521F",
"R  c #064B2A",
"E  c #0C5628",
"W  c #0B592E",
"Q  c #15692B",
"!  c #12742D",
"~  c #16782E",
"^  c #036833",
"/  c #087A38",
"(  c #157633",
")  c #0F6D2D",
"_  c #2B6E2B",
"`  c #304816",
"'  c #647F1D",
"]  c #674439",
"[  c #7C4535",
"{  c #744A30",
"}  c #557921",
"|  c #4B5C19",
" . c #042D46",
".. c #03334D",
"X. c #013B5B",
"o. c #023854",
"O. c #193849",
"+. c #013F62",
"@. c #2F4451",
"#. c #034568",
"$. c #024C74",
"%. c #0A567E",
"&. c #15435B",
"*. c #4A4A4B",
"=. c #57585A",
"-. c #4F4F52",
";. c #6F514A",
":. c #68686B",
">. c #797879",
",. c #6E6D70",
"<. c #5C6C79",
"1. c #87090C",
"2. c #9C0A0D",
"3. c #950812",
"4. c #A9050D",
"5. c #B4040E",
"6. c #A5130D",
"7. c #B41B0B",
"8. c #AD171A",
"9. c #B2181B",
"0. c #B5121B",
"q. c #B20E1B",
"w. c #B7330B",
"e. c #C8081C",
"r. c #CA2811",
"t. c #E2241F",
"y. c #E0381A",
"u. c #DF1A20",
"i. c #EB1A24",
"p. c #EA1724",
"a. c #EA2521",
"s. c #8A5F06",
"d. c #886E06",
"f. c #AC770F",
"g. c #854532",
"h. c #8A553A",
"j. c #864622",
"k. c #BD490C",
"l. c #CE520B",
"z. c #EF501A",
"x. c #D06B08",
"c. c #EF6C14",
"v. c #875946",
"b. c #805F52",
"n. c #896559",
"m. c #986C53",
"M. c #A6745B",
"N. c #927872",
"B. c #A27261",
"V. c #188736",
"C. c #118F3C",
"Z. c #288632",
"A. c #249535",
"S. c #2BA83A",
"D. c #6C981F",
"F. c #589025",
"G. c #47BD34",
"H. c #689D22",
"J. c #50C032",
"K. c #048F41",
"L. c #18A844",
"P. c #0ABB4A",
"I. c #18BB49",
"U. c #1AC54D",
"Y. c #8E9015",
"T. c #91AA19",
"R. c #B9BC0E",
"E. c #AAB011",
"W. c #A8980F",
"Q. c #D99207",
"!. c #EA9608",
"~. c #F2920C",
"^. c #F3980A",
"/. c #EC8D0B",
"(. c #F8A507",
"). c #F1B504",
"_. c #DAA707",
"`. c #BDC50E",
"'. c #D8CB08",
"]. c #CED30E",
"[. c #D1CD0A",
"{. c #FFDE00",
"}. c #F2D405",
"|. c #F0CF05",
" X c #FFE300",
".X c #FFEB00",
"XX c #AE8B77",
"oX c #025D8D",
"OX c #045986",
"+X c #046596",
"@X c #166B94",
"#X c #0C75A7",
"$X c #1177A8",
"%X c #0977AB",
"&X c #347AA0",
"*X c #5E7C91",
"=X c #787D86",
"-X c #1D8BBD",
";X c #2088B2",
":X c #6C8395",
">X c #64889E",
",X c #148CC2",
"<X c #29A6DB",
"1X c #2BB6EA",
"2X c #34BBF2",
"3X c #209ACB",
"4X c #868688",
"5X c #98989C",
"6X c #8A8E94",
"7X c #B3978F",
"8X c #BAA296",
"9X c #A7A6A8",
"0X c #B6ACAA",
"qX c #ACACB2",
"wX c #B9B7BA",
"eX c #B5B0B2",
"rX c #919FA8",
"tX c #C29D8F",
"yX c #C6B3AE",
"uX c #C5B4B0",
"iX c #C4A095",
"pX c #BCBDC2",
"aX c #AABFD1",
"sX c #84ABC5",
"dX c #BCC3C9",
"fX c #CCC9C8",
"gX c #D2CECD",
"hX c #CBCCD4",
"jX c #CCCFD8",
"kX c #D5D5DD",
"lX c #DAD8DB",
"zX c #DDD2CF",
"xX c #E2D5CF",
"cX c #DCDBE3",
"vX c #DDDFE9",
"bX c #E0DFE6",
"nX c #DDE0E1",
"mX c #EAEAED",
"MX c #E6E3E5",
"NX c #EDEDF2",
"BX c #E6E9F4",
"VX c #F3F3F5",
"CX c #FDFDFE",
"ZX c #F4F5FB",
"AX c #F0F0F3",
/* pixels */
"                                                                                        ",
"                                                                                        ",
"                                                                                        ",
"                                                                                        ",
"                                  . . . . . . . . . . .                                 ",
"                                o o o o o o : : : - - -                                 ",
"                              . a ! ) ) ) ! ~ ~ ~ ~ V.) p .                             ",
"                            o o T I.I.P.P.P.P.P.P.I.U.L.Y : ;                           ",
"                          : T ! / K.C.S.J.G.G.G.G.S.K.C.V.~ Y .                         ",
"                        . ; ~ I.L.( _ T.}.].].].].D.~ Z.L.L.Q - ;                       ",
"                      ; E ! / / Z.T.R.'. X{. X X{.'.R.T.( / V.V.Q o                     ",
"                    . ; V.I.V.Q F.}..X X X X X X X.X.X[.} _ A.L.~ o .                   ",
"                    p Y ^ / F.R.[.).~.~.~.~.~.~.~./.^.|.[.`.F.^ ^ E Y o                 ",
"                . ; ~ A.( Q Y. X{.~.t.t.t.t.t.t.t.u.y.(..X}.Y._ Z.L.! o .               ",
"                . ; ) V.H.E.[.(.c.z.p.i.i.i.i.i.i.p.a.z.c.^.'.R.D.^ W p ;               ",
"              : Y E R E W..X|.z.e.0.9.9.9.9.9.8.9.8.8.q.e.l.}.{.W.R W ) E .             ",
"              : W C._ } f.!.x.r.3.0 6 6 6 6 6 6 6 6 5 n 2.r.x.Q.f.Y.' ( R . .           ",
"              o k ( Y._.l.7.6.C B % & q q q 4 q q q = 5 B C 6.7.l.).W.W k . .           ",
"              o k _ W.(.l.4.C 5 % t D A A J P J A A M t $ 6 1.4.w.x.f.} ` . .           ",
"              # ` Y.f.l.w.V 0 . X t m w y S I S w w m m . X 0 V 2.6.k._.d.. .           ",
"              & d.).l.4.1.5 . . $ m m 5 5 D I D 5 5 t m X . . 6 2.5.w.Q.s.. .           ",
"              & s.!.w.4.1.% . . $ m A v K U I L K K A t X . . % C 6.7.w.H .             ",
"              X H r.7.4.V % . . X m n.wXeXN.[ N.pX0Xb.0 X . . . 6 1.5.4.V .             ",
"              X V 5.5.C % . . . $ M v.iXtXB.g.B.tX7Xh.t X . . . $ C 6.V n .             ",
"              X n 1.6.C . . . . X 8 N F S A S A S F N 8 X . . . % C 1.% .               ",
"                . 6 1.C . . . . . X 8 r X . X X & y r . . . . + 4 n n X                 ",
"                  $ B n @ O . . . . $ 5 K 4X6X,.s 5 $ . . . . < 3 O .                   ",
"                    . @ 2 < . . . . X r v.gXnXeXU 6 . . . . . 1 3 O .                   ",
"                    . + 2 < . . . . X t A v @.K D 0 . . . . . < 2 O .                   ",
"                    . @ 2 @ . . O c v y 5 . . . 5 i b 2 . 1 x 3 1 O .                   ",
"                    . O 1 x b 3 1 =X5Xu . . . . . K 9X=.@ ,.5Xb . .                     ",
"                        . *.wX=.@ 6XhX:.b $ X 4 *.6XhX:.@ 9XmX*..                       ",
"                        c 4XCX>.@ 4XcXhXN.8 8 J 9XvXhX:.2 9XVXeX:.@                     ",
"                    . c 9XlXmX9X,.wXNXvX7XS S [ wXBXMXqX=XwXVXCXeX1 .                   ",
"                    1 =.MXCXcXkXkXVXCXMX7XP G v.uXAXCXmXkXkXbXCXlX4X*.                  ",
"                  2 >.fXVXCXvXcXcXVXCXZX8XN m U fXCXCXmXkXhXlXCXCXVX>..                 ",
"                  2 9XCXCXlXeXpXcXVXCXCX0XM m ] gXCXCXBXpX>.4XMXZXBX>..                 ",
"                . 2 5XZXBX9Xv ,.cXVXCXCXyXP P n.xXCXCXNXqXx b pXkXhX:..                 ",
"                . 1 >.uX0X,.O -.kXVXCXCXyXN N ;.zXCXCXNXqXx 1 ;.n.n.K .                 ",
"                  # A U J i # =.kXVXCXCXyXS D ;.zXCXCXNXqXc . 8 m N r .                 ",
"                = w M N m 5 . =.kXVXCXCXMXyXuXfXVXCXCXNXqXx X M F G F A q .             ",
"              . i P I I G M . =.kXVXCXCXmXgXgXlXVXCXCXNXqXx $ Z G [ g.I u .             ",
"              . A g.g.I S y . =.kXVXCXCXqXc c =.gXCXVXZXeXx . * A g.g.I u .             ",
"              . s g.g.P q . . =.cXNXAXVXrXf f @.dXCXmXjX:Xj . . y I I P q .             ",
"              . y P I F 9 . . =.jXkXkXkXsX+X+X&XaXMXhX=Xz + X r M F Z M * .             ",
"              . * m N N t 7 . c <.*X*X>X&XoXoX@X>X>X>X@., O $ t m m r 7 X .             ",
"              . $ 7 8 r 8 * . + l X.#.+.o.o.o.X.#.$.#.o.f . . X $ $ $ X .               ",
"                . . . . . . . d #.oX+X$.h d , h X.+X+X$..., . . . . . .                 ",
"                  . . . . . , #.#X,X%X$.d O . , X.%X,X$X+X..O .                         ",
"                          . l $X1X1X#XX.f + O d ..+X<X2X,X+.O .                         ",
"                          . f #X1X3X+XX.f + O d  .oX-X<X-X..O .                         ",
"                          . g @X,XoXOX+.f + O d ..%.OX$X;X..O .                         ",
"                          . l #X%X%.X. .f + O d l ..$.#X%X#.O .                         ",
"                          $ z %.OX$. .h f + O g l l #.OX%.O.= $                         ",
"                        X m Z K &.#.X. .f + O g  .X.#.#.v S Z 8 .                       ",
"                      $ i v.M.[ b O.l l , O . > f l  .b ] M.XX] % &                     ",
"                    X t { yXMXXXH A O O . . . . . . e H v.xXVXXXZ w .                   ",
"                  . & S h.XX8XM.j.G 7 % * X . % 7 % D j.h.XX8XM.I i .                   ",
"                  . X i G S Z S F S t t r $ X 8 t t M G S Z Z S S w .                   ",
"                  . . $ 7 * % % % * 7 7 * X . * 7 7 * % % % % % % X .                   ",
"                  . . . . . . . . . . . .     . . . . . . . . . . . .                   ",
"                    . . . . . . . . . . .       . . . . . . . . . . .                   ",
"                                                                                        ",
"                                                                                        ",
"                                                                                        ",
"                                                                                        "
};
