/* XPM */
static char *be6ee7276dde4181f36c1cd5eb0c3541SqNqNmKzFp2S19b9[] = {
/* columns rows colors chars-per-pixel */
"49 64 248 2 ",
"   c None",
".  c #090D18",
"X  c #0C141B",
"o  c #14161D",
"O  c #1A171C",
"+  c #16181F",
"@  c #1A181E",
"#  c #131116",
"$  c #05060D",
"%  c #23161B",
"&  c #231B1D",
"*  c #2B1A1B",
"=  c #261417",
"-  c #341B1C",
";  c #3C1B1A",
":  c #35161A",
">  c #331D0B",
",  c #38241A",
"<  c #2E201B",
"1  c #0E1421",
"2  c #081727",
"3  c #141721",
"4  c #141921",
"5  c #1A1A21",
"6  c #131E2C",
"7  c #06172D",
"8  c #231C22",
"9  c #211E2A",
"0  c #351E20",
"q  c #1D2029",
"w  c #05332E",
"e  c #063B2E",
"r  c #0D253A",
"t  c #0F2336",
"y  c #132537",
"u  c #053932",
"i  c #103D2F",
"p  c #262328",
"a  c #3A2A29",
"s  c #272B33",
"d  c #2B343C",
"f  c #35343B",
"g  c #4A1E18",
"h  c #461A18",
"j  c #571718",
"k  c #4B140B",
"l  c #751216",
"z  c #6D1217",
"x  c #58220F",
"c  c #4B2719",
"v  c #572614",
"b  c #56341A",
"n  c #68280C",
"m  c #652415",
"M  c #762714",
"N  c #683917",
"B  c #772C08",
"V  c #422C2C",
"C  c #4B2C2A",
"Z  c #47342C",
"A  c #53352C",
"S  c #6C382E",
"D  c #137315",
"F  c #267316",
"G  c #054632",
"H  c #065937",
"J  c #0E4E2B",
"K  c #2D552C",
"L  c #086736",
"P  c #167B39",
"I  c #307D3C",
"U  c #58501F",
"Y  c #73411A",
"T  c #504E21",
"R  c #6B4523",
"E  c #774C22",
"W  c #744A35",
"Q  c #637427",
"!  c #0A2A46",
"~  c #043155",
"^  c #04335A",
"/  c #083052",
"(  c #062F52",
")  c #383D49",
"_  c #29374B",
"`  c #043A67",
"'  c #035941",
"]  c #005D50",
"[  c #2E4250",
"{  c #066A45",
"}  c #107447",
"|  c #06467A",
" . c #1F4B6F",
".. c #43434B",
"X. c #4A4C54",
"o. c #554F55",
"O. c #705148",
"+. c #756759",
"@. c #505965",
"#. c #666469",
"$. c #706E73",
"%. c #5A6877",
"&. c #9C0A13",
"*. c #831114",
"=. c #961213",
"-. c #A30D13",
";. c #A50A12",
":. c #BB0B12",
">. c #A21113",
",. c #A81714",
"<. c #B81310",
"1. c #8B280C",
"2. c #983803",
"3. c #962911",
"4. c #8A3112",
"5. c #AA2513",
"6. c #AF330B",
"7. c #AC3035",
"8. c #A01321",
"9. c #C70A14",
"0. c #C21912",
"q. c #E7191B",
"w. c #EC0917",
"e. c #EB2724",
"r. c #EE382E",
"t. c #DC1F1A",
"y. c #924614",
"u. c #924713",
"i. c #B74C0B",
"p. c #B94B11",
"a. c #AC5017",
"s. c #8C6615",
"d. c #BA6418",
"f. c #B07013",
"g. c #85552A",
"h. c #88572B",
"j. c #A64F2D",
"k. c #98632A",
"l. c #B87627",
"z. c #AE6921",
"x. c #C4550F",
"c. c #EE4711",
"v. c #C76717",
"b. c #DA7719",
"n. c #D26D10",
"m. c #E37A04",
"M. c #F6710B",
"N. c #F15430",
"B. c #CB7827",
"V. c #D6792A",
"C. c #E17A24",
"Z. c #A46759",
"A. c #F96F4F",
"S. c #2D8A17",
"D. c #348539",
"F. c #1B8218",
"G. c #499C1A",
"H. c #50A709",
"J. c #66B205",
"K. c #478436",
"L. c #779E27",
"P. c #3D8B4C",
"I. c #479955",
"U. c #52A257",
"Y. c #6CAF54",
"T. c #A8AE15",
"R. c #DE821E",
"E. c #DB8306",
"W. c #E98702",
"Q. c #F58804",
"!. c #EC9409",
"~. c #C6B40F",
"^. c #F8BB04",
"/. c #F5A703",
"(. c #DA8224",
"). c #D78B31",
"_. c #E48C26",
"`. c #EB942A",
"'. c #EA9127",
"]. c #EC9735",
"[. c #FBA23D",
"{. c #CFC20E",
"}. c #FFD900",
"|. c #F1CD09",
" X c #FFE000",
".X c #89B843",
"XX c #B58277",
"oX c #D3924F",
"OX c #E89546",
"+X c #FABA72",
"@X c #EBA148",
"#X c #9ACD57",
"$X c #ADD959",
"%X c #BAE15A",
"&X c #CBEB56",
"*X c #044B84",
"=X c #05579B",
"-X c #075189",
";X c #045DA4",
":X c #0A6DB3",
">X c #207BB9",
",X c #667280",
"<X c #047BD0",
"1X c #0E78C7",
"2X c #3988AD",
"3X c #7290B0",
"4X c #5F90A4",
"5X c #0F85D2",
"6X c #2390D3",
"7X c #38A4DB",
"8X c #4497D2",
"9X c #4CA3D3",
"0X c #55B7E6",
"qX c #6EBAE5",
"wX c #70CDEB",
"eX c #7DD4E0",
"rX c #898D95",
"tX c #8B97A5",
"yX c #959DA8",
"uX c #9AA1AF",
"iX c #ACAFB3",
"pX c #A19384",
"aX c #ECBD8C",
"sX c #D1B6B3",
"dX c #D4A192",
"fX c #F3C794",
"gX c #F2D6B3",
"hX c #DFC3A6",
"jX c #8CB0D2",
"kX c #ADB9C7",
"lX c #B6C4D3",
"zX c #98C8E8",
"xX c #BBCEE2",
"cX c #91EFF9",
"vX c #D8DADD",
"bX c #C9CFD7",
"nX c #CAD9E8",
"mX c #D7DDE3",
"MX c #D6E1ED",
"NX c #D9E8F8",
"BX c #DCF4FF",
"VX c #E4ECF4",
"CX c #E5EDF6",
"ZX c #EBF4FC",
"AX c #FEFEFE",
"SX c #F4F7F9",
"DX c #FFF6E9",
"FX c #EFDBD6",
/* pixels */
"                                                                                                  ",
"                                                                                                  ",
"                                                                                                  ",
"                                                                                                  ",
"                                      { { } #X&X%XY.'                                             ",
"                                    ' } P D.Y.#X&X#XP.P.                                          ",
"                              w u e H } G.H.D.P.$X%X#XY.{                                         ",
"                          w w u J F S.G.J.J.P } I.U.U.Y.Y.I.]                                     ",
"                          u e J F H.H.H.H.G.P } D.D.K..X&X.XI Q                                   ",
"                      w w w J D S.H.S.P P P { I ~.{.{.|.|.|.~.b.w.                                ",
"                    w w e G H D F.S.L ' K.L.L.T.}.^.M.M.M./. XQ.w.q.                              ",
"                  w w e G L L L L L J K T.}.^.^.^.Q.q.e.e.M.|.M.q.q.                              ",
"                  w G H L L H G u u Q ~.|.}.M.c.c.N.A.A.A.N.c.N.A.r.                              ",
"                e G H L L H K U U Q ~.}./.n.0.9.q.r.A.A.A.N.w.r.A.r.                              ",
"              w G L L L H i U E.!.|.|.^.x.-.>.,.q.q.q.q.q.q.q.q.q.q.                              ",
"              w G L L G K s.f.Q.!./.m.x.5.;.<.0.0.9.:.:.:.:.:.:.9.:.                              ",
"              e G L H w T Q.Q.W.m.n.6.&.-.>.5.,.*.*.=.5.5.5.5.5.*.l                               ",
"              H L L H w T W.Q.!.n.,.,.&.-.=.j : : j 3.p.C.V.V.a.- *                               ",
"              L L H J U s.W.m.x.6.&.-.>.*.j % 1 p b p.z.k.l.`.l.+ X                               ",
"              L H i T E.W.W.x.>.>.>.>.=.h + @ 5 V g.(.E O E `.z.O 3                               ",
"              G K s.f.Q.m.6.5.&.;.-.l h % 4 p a V h._.E . R `.l.p .                               ",
"              w T n.m.m.x.&.&.-.&.*.h X o 5 a Z V g._.h.a g.].aXrXp                               ",
"                  5.6.5.5.&.-.-.l * % o o 5 a Z V g.'.(.l.(.].fXfXh.                              ",
"                  8.7.-.-.>.=.z h X 5 p 5 @ a V p R _._.B.k.k.k.k.E                               ",
"                    7.,.-.>.l @ @ + 8 Z p + V a o b b.V.R o & & & &                               ",
"                      j j j h X X # % C p o V a o c i.u.a , Y , 1                                 ",
"                      + + o 5 p p p a A a @ a V @ h 1.g o N n.N X                                 ",
"              5 5 5 + + o $ s tXyXtXyXuX%.o a C x k : = o < b , o                                 ",
"              5 5 5 5 + q f #.NXZXBXCXBXtXO a S j.S p d 5 q 6 o @                                 ",
"                    o X [ iXvXSXSXSXSXZXyX# - O.sXXXW tX) X.f $ .                                 ",
"                    % * o.sXFXFXAXAXAXAXiXp a #.SXdXZ.xXX.#.#.s @.SX                              ",
"                  o : l 4.j.j.dXAXAXAXAXvXtXtXkXSXaXoXmXX.%.lXiXvXAXDX@X(.E . 5                   ",
"                  o c a.v.i.1.Z.ZXSXVXnXnXNXNXZXAXgXfXmXX.$.ZXZXAXbXpX].'.z.O.rX#.                ",
"                    R (.'.R.y.#.NXNXxX4XjXnXVXSXAXDXDXvXX.,XBXZXSXrX= z.b.v.OXfX+..               ",
"                    E '.`.b.y.[ tXtX3X3XjXVXSXAXAXAXAXvX..o.sXhXgX+.$ v M 4.v.(.R 1               ",
"                    E _.`.R.y.5 s p @.xXMXAXAXAXAXAXAXvX..h j.V.].W . O % v p.n.N 1               ",
"                    R _.`.(.y.. 5 @.tXMXVXSXZXCXSXAXAXvX..k 3.p.x.4.g c g c m N b                 ",
"                  3 b _.`.(.y.# s kXNXMXVXCXnXnXCXSXAXvX..k 3.3.3.3.1.3.1.g 3 5                   ",
"                  5 b _.`._.v.s.h.$.tXMXMXMXVXCXSXAXAXSXiX+.k g g g g m                           ",
"                  3 b b._._.].fXoX> ) nXnXnXZXAXAXSXSXAXAXuX$ o o o 4                             ",
"                  5 c p.b.R.].aXoX> ) nXMXZXZXCXiX$.$.$.$.#.                                      ",
"                  5 ; 1.a.d.d.v.a.V @.nXMXmXbXkX%.. r y d [                                       ",
"                    * ; c c c c A rXlXNXlX#.X.@. .*X:X4XeX9X<X8X                                  ",
"                      4 4 1 1 . s uXlXkX3X3 2 ! | :X5X0XwXwX0XqXjX                                ",
"                            5 O 5 f ) ) d t ^ ` -X:X<X5X6XwXSXzX1X8X                              ",
"                              @ o # . . X 6 ! ^ | -X=X=X;X8XzXqX0X0X9X                            ",
"                  ~ ! @ @ 5 + + 5 5 5 5 + + 5 r ^ ^ ^ ` *X=X1X9XcXwX6X>X                          ",
"              @ t ^ ! O O @ @ O o O O o o o   r ~   ~ ! ! ` =X>X7X0XwX2X7       _.R._.            ",
"              + 6 ~ / t t t t r t r r 6 O               o ! | ;X<X6XwX2X` `   B.[.+XOX            ",
"          - * @ 6 ^ ^ ^ ^ ^ ^ ~ ~ ~ / r O               4 ! | ;X<X5X5X1X:X| & z.@XfXoX, 1         ",
"          - ; g 0 r ! ` ` ` ~ r r                         ! | ;X5X:X*X*X| _ n d.`.V.a.< 1         ",
"          - ; m g * q / ~ / ! O O                         ! | =X:X-X! y * v i.v.B.2.n * 1         ",
"          * - ; g m c 7 2 7                               ! ` ` | / 4 , B 2.i.i.y.c *             ",
"            * * h 1.M Z ..                                t ! ! r 9 h n 2.4.N n x % 1             ",
"            * * h 1.a.oXhX+X_.                            5 5 4 3 g 1.1.2.x 3 @ @ 5 5             ",
"              % ; m 4.B.oXV.v.                                o O ; M m m ; 3 4                   ",
"              % * - v 2.2.2.2.                                    * ; - - *                       ",
"              & O % - x x x x                                     % * % *                         ",
"                  p 8 8 % % 8                                     8 8                             ",
"                                                                                                  ",
"                                                                                                  ",
"                                                                                                  ",
"                                                                                                  ",
"                                                                                                  "
};
