/* XPM */
static char *walking_right_linux_701704972487[] = {
/* columns rows colors chars-per-pixel */
"70 70 256 2 ",
"   c #131014",
".  c #19171C",
"X  c #16181F",
"o  c #32170A",
"O  c #281818",
"+  c #351818",
"@  c #362718",
"#  c #161B24",
"$  c #1B1C23",
"%  c #081E35",
"&  c #291D22",
"*  c #112E32",
"=  c #262429",
"-  c #382828",
";  c #2C2E35",
":  c #38353A",
">  c #4A1604",
",  c #4F1610",
"<  c #6C1110",
"1  c #4A260C",
"2  c #712B11",
"3  c #452A28",
"4  c #54322A",
"5  c #453636",
"6  c #662D25",
"7  c #1A6917",
"8  c #034828",
"9  c #105131",
"0  c #31522F",
"q  c #126C2C",
"w  c #0B6639",
"e  c #32742B",
"r  c #6B5319",
"t  c #764F2D",
"y  c #001F40",
"u  c #082A48",
"i  c #152E45",
"p  c #053358",
"a  c #113655",
"s  c #283747",
"d  c #393B44",
"f  c #043A69",
"g  c #433F44",
"h  c #324F4D",
"j  c #205755",
"k  c #30684D",
"l  c #114772",
"z  c #46454A",
"x  c #534A4C",
"c  c #4B4D53",
"v  c #4D5458",
"b  c #525456",
"n  c #595755",
"m  c #53565A",
"M  c #54595D",
"N  c #5A5B5D",
"B  c #655B52",
"V  c #4A5F6F",
"C  c #555B63",
"Z  c #5A5E63",
"A  c #575F69",
"S  c #5D6064",
"D  c #566369",
"F  c #5C636B",
"G  c #54716A",
"H  c #5D6873",
"J  c #626364",
"K  c #606967",
"L  c #62656B",
"P  c #65696D",
"I  c #6A6B6D",
"U  c #776F69",
"Y  c #646B74",
"T  c #6A6E73",
"R  c #646D79",
"E  c #667077",
"W  c #6E7175",
"Q  c #65717D",
"!  c #6B727B",
"~  c #727375",
"^  c #72757A",
"/  c #7A777E",
"(  c #76797D",
")  c #7A7B7D",
"_  c #9C1802",
"`  c #9B0F12",
"'  c #8D1214",
"]  c #A6110F",
"[  c #A7140C",
"{  c #A41213",
"}  c #8C3309",
"|  c #AC340A",
" . c #953329",
".. c #D51A0B",
"X. c #CD1314",
"o. c #E41B16",
"O. c #D62713",
"+. c #E1251E",
"@. c #964910",
"#. c #B25510",
"$. c #B76119",
"%. c #91522B",
"&. c #8B7037",
"*. c #AF7033",
"=. c #CB5106",
"-. c #D1730F",
";. c #DC601E",
":. c #F35B34",
">. c #CC7A2D",
",. c #955D4C",
"<. c #AF7749",
"1. c #8C736F",
"2. c #E86959",
"3. c #FF6955",
"4. c #308C0F",
"5. c #37872A",
"6. c #52A519",
"7. c #498D2B",
"8. c #338746",
"9. c #4E9751",
"0. c #6BA45F",
"q. c #AAA431",
"w. c #D2890F",
"e. c #E58706",
"r. c #F08F06",
"t. c #EEAC04",
"y. c #D48730",
"u. c #E58C27",
"i. c #E78F29",
"p. c #EBAE34",
"a. c #B7C02D",
"s. c #F9CB09",
"d. c #D7D131",
"f. c #E8CD25",
"g. c #B7844F",
"h. c #96A858",
"j. c #B58F69",
"k. c #CE904C",
"l. c #E9A166",
"z. c #B0D85A",
"x. c #99CF63",
"c. c #EDCD5F",
"v. c #09528F",
"b. c #1B6DA6",
"n. c #0C6FB5",
"m. c #57768E",
"M. c #6A7582",
"N. c #6B7886",
"B. c #737B84",
"V. c #7A7D82",
"C. c #747E8A",
"Z. c #0779C7",
"A. c #817B82",
"S. c #3894B9",
"D. c #7D8085",
"F. c #75818E",
"G. c #7B838C",
"H. c #6C8B94",
"J. c #7B8692",
"K. c #7A8795",
"L. c #6590A9",
"P. c #2B90CD",
"I. c #50A5D0",
"U. c #6FCAF2",
"Y. c #828384",
"T. c #82858A",
"R. c #86898D",
"E. c #8A8B8C",
"W. c #988B86",
"Q. c #848B94",
"!. c #8A8E92",
"~. c #828E9A",
"^. c #8A8F99",
"/. c #8E9194",
"(. c #86919D",
"). c #8B939D",
"_. c #939495",
"`. c #94969B",
"'. c #96989A",
"]. c #9A9B9C",
"[. c #A69F97",
"{. c #B8A896",
"}. c #8B95A2",
"|. c #8B98A5",
" X c #939BA4",
".X c #9A9EA4",
"XX c #949EA9",
"oX c #899EB5",
"OX c #9AA2AA",
"+X c #9BA3AD",
"@X c #9CA6B1",
"#X c #9EAAB7",
"$X c #A3A3A5",
"%X c #A3A7AC",
"&X c #ABABAD",
"*X c #A3ABB4",
"=X c #A8ACB4",
"-X c #A4AEB9",
";X c #A9B2B8",
":X c #ACB3BD",
">X c #B2B3B4",
",X c #B2B6BB",
"<X c #B5BABD",
"1X c #BBBCBD",
"2X c #D6A194",
"3X c #C8B7B5",
"4X c #F2D7AF",
"5X c #96B7D0",
"6X c #AEB6C1",
"7X c #AEB9C4",
"8X c #B3BAC4",
"9X c #B7BCC5",
"0X c #B5BEC9",
"qX c #D1BFC7",
"wX c #B9C0C7",
"eX c #BCC3CC",
"rX c #BBC6D2",
"tX c #BEC6D1",
"yX c #A0D8F3",
"uX c #C4C6C9",
"iX c #C1C6CD",
"pX c #CBCBCD",
"aX c #D7CBCD",
"sX c #C1C7D1",
"dX c #C4CBD4",
"fX c #C9CED5",
"gX c #C6CED8",
"hX c #C9CFD8",
"jX c #CDD0D5",
"kX c #C7D2DE",
"lX c #CDD2DA",
"zX c #D2D3D4",
"xX c #D2D5DC",
"cX c #D6D9DE",
"vX c #DBDBDD",
"bX c #F4D9D3",
"nX c #CAD9E8",
"mX c #D5DAE1",
"MX c #DBDDE2",
"NX c #D4DFEA",
"BX c #CEDFF1",
"VX c #DEE1E4",
"CX c #DBE3EB",
"ZX c #D5E5F5",
"AX c #E3E3E4",
"SX c #EBE6E7",
"DX c #E3E5E9",
"FX c #E6E8EC",
"GX c #EAEBED",
"HX c #F9EFE8",
"JX c #E5EEF7",
"KX c #EDEEF1",
"LX c #ECF1F6",
"PX c #F3F4F5",
"IX c #F5F8FB",
"UX c #FCFCFD",
/* pixels */
",XCXFXMXCXmX@XF J &XGXUXUXIXPXIXIXUXPXpXV.Z ].SXIXLXLXLXPXPXLXuXD.I &XKXUXIXcX/.L Y.3XAXIXUXIXUXPX&X~ &XPXIXFXMXMXCXKXLXDX:X^ W ,XFXFXCXmX7X",
" XiXjXjXjXrX XL E.vXIXIXKXAXMXAXFXPXUXcX`.T &XMXMXMXmXlXlXcXCXxX$X( `.xXFXDXuXG.V.qXFXKXFXDXFXKXKX,X( OXGXIXDXmXmXlXhXmXmX0XR.T .XdXkXhXgX-X",
"K.#XeXrXrX:XG.W &XGXKXVXmXjXlXcXmXGXLXzX.XV.=XfXhXlXfXdXjXnXmXxX<XR.D.<XjXdX%X! .XAXFXmXjXgXxXmXxX;X/ '.vXDXmXxXkXdXtXeXgXsX XT T.:XrXrX7X|.",
"Q K.@X6X;X(.E D.pXGXvXjXhXdXjXxXmXFXDXiX`.G.,XsXdXdXhXfXkXxXlXfXiX`.^ OXrXeX~.T =XVXMXdXdXdXgXgXsX@X( E.fXlXdXgXgXdX7X:X0XdX.XT R }.#X-X}.N.",
"D R F.K.K.N.F Y.fXDXhXdXdXdXdXlXMXVXxX6XQ.Q.0XhXlXfXdXhXxXhXgXrX8X`.E R.6X#XN.F +XhXlXgXdXdXdXdXdXOXT V.,XjXdXdXdXsX6X6X0XdX*X! Z ^ C.N.Y C ",
"m C F H H S M D.eXMXxXfXdXdXdXlXmXxXsX*XY._.dXMXmXxXgXfXdXhXrX6X@XR.F G J.J.F F (.7XgXdXdXdXsXdXsX.XY T *XkXlXhXdXdXsXsXdXdX*XT b Z A Y A m ",
") E.Y.W Z b b ^ :XxXxXhXdXsXiXdXdXiX6XQ.^ .XgXxXmXhXdXdXdXwX7X6X*XJ.M v G D M D C.6X0XsXdXeX8X8X8XJ.C S /.dXlXdXdXdXdXdXdXsX XL m ~ _.&X&XE.",
"1XvXzX>XY.J m E  X9XdXhXsX:X=X8X9X-X(.! T .XsXgXsXdXdXdX6XH.9.H.K.x.h.h.n k v m M.~.6X8X0X8X@XXX).Y m M B.=XrXdXsX0X0X0XsX0X).A I >XVXGXDXuX",
"uXKXIXKXvX$X~ F C.@X6X0X8X#XXX@X#X}.M.A F ).0XgXrXwX8X8XL.k w 8.9.x.z.z.7.8.G v G C.~.|.}.|.^.B.Y N N b L G.#X7X6XXX}.#X6X+XM.H .XVXGXDXmXeX",
",XvXFXDXGXVX>X) Y F.}.XXXXXX|.(.C.B.F b Z C.@XrX6XG h h k w 8.6.6.8.x.z.z.x.7.k k Y M.N.M.M.H C N ) _.( J Y F.~.}.K.K.K.K.K.H ! 1XAXaXeXeX8X",
"&XiXlXlXxXCXvX&XW Y N.C.K.F.C.N.R A m m M L C.N.G s 8 q e 5.6.6.4.q 9.0.0.0.0.9.k k V F L A m x I >XvX1X^ N F ! M.M.M.M.Q H C V.1XvX6X=X0X6X",
"%XtXgXfXfXlXmXfXE.Z D Y H R R M.W V.A.0./ L A * 8 * 8 5.7.6.6.6.4.q 8.5.e 7.x.z.7.e U W.[..XA.J I =XvXdXR.C M S H L L A C m b / 9XpX6X-X-X.X",
"+XiXdXdXdXdXmXlX`.Z b J ! V._.$X<XzXvXAX1XD h * 8 9 q 6.4.4.4.4.4.w 9.a.h.a.d.d.a.q.*.2.bXMXqX^.J R.:X@XV.S P ) _.].].E.~ N b ~ =XdXdX0X:X}.",
"%XeXdXiXtXhXmXeXQ.Z L ].uXvXAXDXFXKXKXvX<X9 * 8 9 q 7 4.7 7 w 8.8.8.a.s.s.t.t.t.s.s.=.o.2XAXCX0X^ L B.! E !.1XvXSXGXAXVXpX_.J L `.eXhXdX0X*X",
"%XeXdXtXtXhXdX#XC.F V.6XMXFXFXMXxXxXkXQ h * * w w q q 7 7 8 e d.f.f.s.s.#.....O.p.t.=.o.3.aXCXqX^.Z m L ].zXGXPXPXIXGXDXDXeXj.V V.*X0X0X-X`.",
"OX,XeXtXdXeX-X(.M.Z M.+X0XiXfXhXdXfXtXh 8 9 w w w 9 8 8 0 0.a.s.t.-.-.-.;.:.:.:.:.;.:.:.3.mXmXhX%XI N !.jXAXvXxXmXVXMXkXjX8XC.v L C.}.}.C.Y ",
"D.`.;XtXrX:X(.C.L M F Q.-X8XdXdXsX0X#Xk 8 j w w q 8 @ @ r d.s.s.-.[ X.o.3.l.3.3.+.o.3.3.3.aXfXdX,XB.I &XMXzXdXdXjXjXhXdXsX-X! M m S Y Y A m ",
"Q.#X8XdXtX-XJ.H M c M T |.eXmXhXrXv s j w w w 8 7 B w.d.d.f.e._ _ [ X.o.+.+.+.+.o.o.o.+.3.qXdXgX9XT.~ &XxXdXsXdXdXsXdXgXeX XL c b J I W T Z ",
"+XwXrXrX6X).E C n N n Z B.+X0XsXwXh * 9 w 8 w 0 t y.r.t.t.w.#.[ [ [ X.X.X.X.X.X.X.X.X.X.2.qXiXsX9XR.T .XhXlXhXdXdXdXgXgX:XJ.C Z ) [.1XuX,X'.",
"OX#X:X;X).Y S P T.'.R.I L B.XX:X-Xh 8 w w 8 * q.w.r.-.e.-.} [ _ { O.{ ` { { { { ] ] ` ' 2.qX-X:X-XB.F !.eXmXxXhXdXdXdXwXXXE Z Y.uXAXFXDXvX9X",
"C.~.(.J.Y Z ) &XzXVXcX>X/ L ! J.K.k 9 w w * 9 -.r.r.-.=.| ` { ` ' < < ,  . .;.;.;.;. ., 1.&XXX X}.E N G.6XjXlXfXdXsX8XXXB.A ^ 1XGXDXcXmXhX<X",
"H M.Q D m ^ 1XFXKXDXDXVX,XW M L m.j w w 9 8 0 -.e.e.-.[ ` ` ` ' < + $ = 2 @.>.>.>.i.2   S @XXX~.N.D b T XX0XtX0X6X-X(.! A C ].AXKXvXfXdXdX-X",
"M D M m I &XvXFXNXmXnXmXfX_.N b C k w 8 7 t w.w.-.| [ ` ] ] ' + O $ = 4 *.$.2 @ *.u.2 O z ! E E F M b N M.~.}.~.J.N.H C b ~ >XAXMXhXdXfXsX-X",
"M N m n Y.uXVXCXMXxXfXjXsX'.S c c 9 9 e r y.e.#.#.[ ` ` ` ' < . O = - 4 g.*.> O <.u.r . : N P ~ ( ^ I J S Y R H A C M b b ) 9XzXhXdXsXsX9X:X",
"V.'.) Z G.eXlXxXjXhXgXgXrX(.Z m L h 9 &.>.u.-._ [ _ ` ` ' , . . = 5 3 4 <.y.1 @ <.k.j.0 g E.&XuXzXzX1X].T N v N T V.Y.I N / :XfXdXdXrX8X6X;X",
">XzX>XI B.6XdXdXgXgXgXdX8X~.F J '.OX].%.| | | [ [ { ` < , + X X $ 5 3 5 *.y.$.&.y.l.4X{.U aXFXKXPXIXPXAX&XK b ) >XzXpX.XP W OXwXdXdXtXeX0X;X",
",XmX,XW ! XX7XeXtXrXtX0X-XK.F ( >XxXaX,.{ ` ` { ` ` ' O . $ $ . & 5 - 3 *.u.y.>.w.>.g.g.<.zXzXcXAXGXPXPXzXY.J _.cXDXfX XT T ~.-XrXeXeXsXsX:X",
"+XwX+XT F C.K.|.XXXXXXXX~.M.F T.9XdXpX3X2X .{ { ' < + # # - 3 $ = 5 + O %.y.>.> 1 @ 1 @ 1.uXfXlXcXxXcXVXpXT.S ) $X#X).M.A Z ! K.#X-X*X:XeX*X",
"G.XXT.Z m D L Y H R E Q Q F L /.wXsXsXaX{.6 ' < < , . . . - 3 $ & 5 & O %.$.@.o @ 1 @ - ~ 0XdXhXhXdXiX0X=X^ M Z T E H S C N S T F.J.~.XX@X(.",
"Z F F L ~ Y.Y.Y.V.! H D M m I `.:X9XsX9XQ.+ , + + . . . . : 3 $ & 5 = $ 2 2 > o t *.@ h ( XX6X0XsXtX6X*XQ.F c m L ^ G./.'._.Y.E L Y M.M.! H ",
"c b T ].pXAXAXAXvXuX&X1.N b I `.+X! L A d # # X . C M.M.M.A.1.= = 5 3 + 1 < o O 6 2 o z Z ! J.XX6X7X:X}.! M J ( $XuXvXFXGXGXvX&XW b m Z C v ",
"b ~ &XFXPXIXPXPXKXGXAXpX'.K L Q. Xd $ $ & . . # $ XXnXnXnXBXkXs & 5 6 } + . X X X . = W _.^ Y R C.K.C.R A E [.pXAXAXVXVXVXGXGXzX'.Z I E._.^ ",
"J $XMXPXLXDXVXMXmXMXVXVXzX_.F T N.m z m S $ $ ! %XxXLXJXJXJXMXd & 5 1.2X6 1.Z = c   $ R.cX<Xh.H A F A C ~ >XvXGXcXfXdXdXhXcXmXhX$XT Q.zXvX>X",
"V.:XxXmXlXfXlXhXdXhXfXlXzX9XV.Z A C / $X$X; = *XHXPXUXUXUXUXFXd $ - [.bX%.qXQ.; V.  = Q.DXAXaXW.m z z L $XAXAXlXdXiXsXiXiXeXdXsX*X^ !.jXxX&X",
"B.}.-X8XsXsXdXdXdXdXdXdXhXsX.XL b I $XI z 3 6 ,.1.1.HXUXUXUXSXT.T / pXHX<.bX`.= OXQ..XzXUXaXj.j.o = ; ~ uXDXxXsXdXdXdXeX-X-XeXdX-X~ ^ *X-XD.",
"R C.~.}.6XdXdXdXdXsXdXdXdXsX.XT n E.1Xc + 6  .#.|  .bXUXUXIXJXnXnXNXIXHXl.bX.X$ eXBXIXIXvX3Xy.y.2 x m T >XxXdXeX0XiXdXeX;X*XwXrX;X^ J B.B.F ",
"A Q C.~.#X0XhXhXsX8X6X0XdX0X XY Z ].fX=XU ,.y.u.$. .uXDXBX#XoXyXBXJXUXUX4XHX[.= rXBXIXAXz n k.w.#.l.>Xg N <XwX6X@X6XsXdXsXiXdXsX=X! M Z C c ",
"b Z M.C.}.6X0XsX0X@X X6XsX6X(.Y Z `.iXdXE.g.i.i.$.6 -XrX0X|.L.nXJXUXUXUXUXUX].$ 6XkXGXzXO = } | $.y.k.1 z  X#X@X+X6XsXdXdXdXtX8X(.F b N P L ",
"S J L Y N.~.XX-X@XXX|.*X*X|.C.D N C.:XeXj.g.u.u.$., d h h oXyXJXIXUXUXUXUXUX.X  B ,.l.j.o O + > 6 ;.-.> z G.K.}.;XtXsXtXwX8X+XQ.T F ( $X>X$X",
"].>X`.! H M.N.C.K.~.(.K.C.M.H m c L Q..X1.g.u.u.$.> # = d *XnXIXUXUXUXUXUXUX$X  6  .k.$.1 O + + 6 %.@.1 : T N.~.@X6X:X*X XJ.R F W ].zXGXGXpX",
"3XMXvXuXE.P F Y R M.Q H H H L S Z Z D h 3 g.i.i.$.>   ^ gXnXZXLXJXmXCXLXUXUX].  6 } | } } 2  .6 , , 1 x Z L L Y Q B.B.M.Y F T !.1XSXGXAXzX8X",
":XxXCXDXpX'.F m m Z F ( T.`.].$X].E.I ; @ <.i.i.-.2 : U ;XkXCXFXCXCXJXIXUXUX>Xx 6 < 2 2 < 2  .6 4 g B _.$X_.T./ P Z C m C ^ &XzXKXKXvXhXiX:X",
"*XsXjXxXVXpXR.b M ~ $XpXAXSXSXSXGXVX&Xg @ *.u.i.i.l.l.r = @XnXkXZXIXIXIXUXUXPXVX5 o o o + 3 1.{.3XzXMXAXvXaXpX9X%XT.J b T >XAXGXFXvXhXdXsX6X",
".XeXgXdXlXxX].L U >XGXIXIXGXDXGXKXUXvXc + %.-.u.-.c.4X@.o +XnXZXJXLXFX,X>X>X>X&XJ : ; 5 c 1.vXKXUXUXUXPXmXhXlXmXMXuXE.J /.vXDXcXjXjXfXfXsX<X",
"K.6XrXgXdXeX).W ].FXIXKXDXlXhXxXMXGXMXm + 2 #.-.-.>.g.r O +XnXLXIXNX0X* $ = * ; ^.Y C Y.uXMXAXMXFXPXPXFXlXdXdXlXcXfX'.~ $XAXcXjXfXdXsXeX0X:X",
"B.OX7XeXeX-XG.) 1XGXSXzXlXdXhXmXmXDXmXD.x , } } @.} } %.U 0XnX@XR.F.N.i l V H.L.L.m.N.%XMXMXxXhXlXMXMXcXfXgXhXhXjXeX^.( &XzXhXdXfXsX6X-X8X:X",
"E F.|.+XOXJ.H D.aXFXzXfXdXdXdXxXVXFXxX=X~ & + + o o O 1.NXNXnXv   # a V b.P.yXyXS.P.5X6XjXkXdXdXdXlXjXdXgXmXmXlXgX8XG.) ,XlXdXdXdXsX0X6X8X:X",
"M H Q C.N.Y D D.dXMXlXdXdXdXdXxXMXmXsX X^ J B.T.! = X d F F A i * u f v.Z.P.I.I.yXyXI.L.5XgXeXdXdXdXdXdXsXmXNXxXdX=XB.) 1XjXhXdXdXdXdXsXsX:X",
"b N D D C m v ( <XmXhXfXdXsXsXdXhX0X*XC.M..XsXfX6Xd . . .   X X a a f v.n.Z.n.Z.yXBXI.P.U.#X:XrXdXdXdXdXfXdXdXdXtXOXR ( ,XnXlXdXdXdXdXhXsX6X",
"Y.'._.) I b m Y  X0XdXdXsX6X=X6X6XXXC.v z A Y T Z = . # $ # X X % u a f f f v.v.b.S.U.U.I.S.5XrXdXdXsXsXfXpX<X:X;XQ.S W %XjXlXdX0X0X0XdXsX,X",
"1XAXAXzX&XY.J F J.+X6X7X6X*X XXX}.A c a u % & $ $ # . # # # # = = s V l l f f f b.n.I.U.I.I.L.K.8X9X{.{.{.{.&X X~.R v S Q.,XsXiX6X+X6XrX0X-X",
"1XFXPXGXAXpX].I Y C.~.}.|.}.).Q.M.; $ u p % # # # # # # # # $ z c T XXoXm.V * u f v.n.P.U.U.l a K.$Xj.l.k.g.1.! H M m m E ).-X6X-X|.XX6X-X}.",
"&XfXxXxXVXFXzX.XY Y N.N.C.N.M.d ; $ # u p a i i i i i i i * # c x C L T G.$XA s a l n.Z.P.P.v.v.l c k.l.c.*.- x T ) ) W L Y G.(.|.oX}.(.K.M.",
"@XtXjXjXjXxXVXuXT.C A L Y Y F : + & = u p p p p p p p a l a s T ~ Z b ^ 3XVXzX).a v.n.Z.n.n.n.v.f 5 <.k.k.%.O I wXzXvXuX_.W F Q C.C.C.N.M.H ",
"%XtXdXdXdXdXcXxX`.N M ! R.`._.5 + 3 1 & % u p p p y * H ^.@X,XaX>X/ Z '.xXxXdX(.s v.n.Z.v.f p u d %.>.-.@.2 @ ^.KXIXGXMXjX$XW D H H H H V v ",
"*XtXdXdXtXfXxXrX^.S I %XzXDXqXx + 3 , - - * u u a d c &XvXAXGXKXfXA.I $XjXhXsX(.a f v.v.p y ; 5 t @.$.@.2 } 1.<XAXKXAXxXcXjXOXI v v C L L C ",
"%XsXdXsXsXhXhX-XC.S B.=XxXvXaXE.5 + , 6 4 & * Q F.F A.uXxXlXmXxX,X/ L $XdXhXsXK.i p f p y % 4 2 } | } < > B uXfXxXvXxXhXfXhX9X!.n J E.>X>X!.",
"$X0XdXsXdXsX6X(.M.Z !  X6X9X9X9XN O & <  .,.{.zX{.1./ 6XgXdXtX8X}.Y L .XsXhXsXG.% % % % ; 4 } } < > > > o C tXdXlXxXfXdXsXsXiX.XL Y.pXKXAX>X",
"Q.*X8XdXsX:X}.C.L b Z C.*X9XpXsX&X5 + 6 } <.l.2Xg.<.T XX7X6X-X|.B.C Z ).0XsXeX*XM.A = O 4 ' } 2 > = m I L ^.dXdXdXfXsXdXsX9X6X.X! V.9XcXfX$X",
"D. X:XsXsX-XJ.Y C c b L ~.8XlXlX8Xd & , < @.@.@.@.&.A B.~.K.C.R A c M V.-X:X:XeX0X*Xc : + , , , @ d ^.:X6X0XdXdXdXsXiX0X0X0X6XXX! L E.*X+XJ.",
" X:XwXtX7X}.! C n N M Z Y ).6XeX9Xm 5 + > < } } } t A H H H A Z Z n b I ~.XX@X:X6X=X^.L & + + 3 5 N V.|.*X9XdXdXdXsX6X#X6X0X*X(.M.C D Q M.D ",
" X@X-X-X).! Z J A.]._./ L Y Q..X=X@X`.: O o > > > t C v S W T._.'.E.~ J Y B.J.K.C.B.T m & - B U J S F C.|.-X6X8X0X8X-X@X%X@X|.C.H m b A A C ",
"G.(.~.Q.Y C ~ &XzXSXDXuXE.A H M.C.~.Q.A x b x x x Z A T [.uXVXAXSXMXuX'.I Z A D A T V.R.S / 1XuX&XT.T A M.K.K.}.(.}.(.}.(.K.C.M.F L ) _.!./ ",
"H C.M.F N ~ >XVXFXDXFXSX1XV.m C H R M.B.C.C.C.B.M.L ( >XAXGXGXGXAXFXGXzX'.S c M B.&XpXvXvXMXVXAXAXzX&X/ D H H H Q M.N.N.N.N.H H ^ &XzXAXcX>X",
"C D C v I &XvXGXVXmXlXmXxX`.N x m C A Y Y H R H C L $XVXFXxXjXfXfXhXMXAXwXA.M S $XAXDXzXjXaXdXfXhXMXvX>XT m v C D F F D D C m Y &XAXGXAXMX9X",
"M C b b Y.uXVXVXMXlXdXhXfX.XS n T R.^.`.!.D.E C m T ,XvXjXpXdXdXfXhXxXjXiX.XI J %XzXlXfXsXeXsXsXdXlXcXfX].N b T !.'.`.D.I m b Y.zXGXzXhXfX<X",
") /.~ N !.pXlXlXfXfXdXhXeX^.S I &XvXSXFXAXzX1XY.J T &XdXdXdXsXjXlXhXsX0X:X XT L  XiXfXiX9X6X0XsXfXhXhXhX&XI I $XvXGXGXvX&XI N E.fXvXhXhXsX<X",
"&XpX].S R.eXdXdXdXdXdXhX0XQ.Z V.1XMXFXPXPXPXFX<X( P  X8XrXdXdXfXhXhXsX-X^.J.! C !.8XdXsX6X*X7XdXdXdXhXiX+XY W &XxXAXPXGXzXE.S ) <XhXfXdXdX:X",
";XwX/.S B.-XeXrXsXsX0X0X*XC.Z ( =XdXfXxXmXMXMXqXG.S G.XX:XsXsXdXsXsXtX-X}.F.Y C B.-X0XeX0X8X0XdXdXdXtX;XQ.F ! +X6X8XiXfXwX^.Z ! @XeXdXdXtX-X",
"/. XB.C Q }.-X6X6X6X:X@X~.M.A ! .X0X0XsXeXeX9X&X( Z ! J.+X7XeXwXrX0X6XOXK.F.H M T ~.@X:X0X0XeXiXeX9X-X).M.A T ).+X@X#X*X+XC.Z L K.-X0XeX0XXX"
};
